  0
SECTION
  2
HEADER
  9
$ACADVER
  1
AC1014
  9
$HANDSEED
  5
FFFF
  9
$INSUNITS
 70
     4
  9
$MEASUREMENT
 70
     1
  0
ENDSEC
  0
SECTION
  2
TABLES
  0
TABLE
  2
VPORT
  5
8
330
0
100
AcDbSymbolTable
 70
     4
  0
VPORT
  5
2E
330
8
100
AcDbSymbolTableRecord
100
AcDbViewportTableRecord
  2
*ACTIVE
 70
     0
 10
0.0
 20
0.0
 11
1.0
 21
1.0
 12
210.0
 22
148.5
 13
0.0
 23
0.0
 14
10.0
 24
10.0
 15
10.0
 25
10.0
 16
0.0
 26
0.0
 36
1.0
 17
0.0
 27
0.0
 37
0.0
 40
341.0
 41
1.24
 42
50.0
 43
0.0
 44
0.0
 50
0.0
 51
0.0
 71
     0
 72
   100
 73
     1
 74
     3
 75
     0
 76
     0
 77
     0
 78
     0
  0
ENDTAB
  0
TABLE
  2
LTYPE
  5
5
330
0
100
AcDbSymbolTable
 70
     1
  0
LTYPE
  5
14
330
5
100
AcDbSymbolTableRecord
100
AcDbLinetypeTableRecord
  2
BYBLOCK
 70
     0
  3

 72
    65
 73
     0
 40
0.0
  0
LTYPE
  5
15
330
5
100
AcDbSymbolTableRecord
100
AcDbLinetypeTableRecord
  2
BYLAYER
 70
     0
  3

 72
    65
 73
     0
 40
0.0
  0
LTYPE
  5
16
330
5
100
AcDbSymbolTableRecord
100
AcDbLinetypeTableRecord
  2
CONTINUOUS
 70
     0
  3
Solid line
 72
    65
 73
     0
 40
0.0
  0
ENDTAB
  0
TABLE
  2
LAYER
  5
2
100
AcDbSymbolTable
 70
1
  0
LAYER
  5
50
100
AcDbSymbolTableRecord
100
AcDbLayerTableRecord
  2
0
 70
0
  6
CONTINUOUS
  0
ENDTAB
  0
TABLE
  2
STYLE
  5
3
330
0
100
AcDbSymbolTable
 70
     1
  0
STYLE
  5
11
330
3
100
AcDbSymbolTableRecord
100
AcDbTextStyleTableRecord
  2
STANDARD
 70
     0
 40
0.0
 41
1.0
 50
0.0
 71
     0
 42
2.5
  3
txt
  4

  0
ENDTAB
  0
TABLE
  2
VIEW
  5
6
330
0
100
AcDbSymbolTable
 70
     0
  0
ENDTAB
  0
TABLE
  2
UCS
  5
7
330
0
100
AcDbSymbolTable
 70
     0
  0
ENDTAB
  0
TABLE
  2
APPID
  5
9
330
0
100
AcDbSymbolTable
 70
     2
  0
APPID
  5
12
330
9
100
AcDbSymbolTableRecord
100
AcDbRegAppTableRecord
  2
ACAD
 70
     0
  0
ENDTAB
  0
TABLE
  2
DIMSTYLE
  5
A
330
0
100
AcDbSymbolTable
 70
     1
  0
DIMSTYLE
105
27
330
A
100
AcDbSymbolTableRecord
100
AcDbDimStyleTableRecord
  2
ISO-25
 70
     0
  3

  4

  5

  6

  7

 40
1.0
 41
2.5
 42
0.625
 43
3.75
 44
1.25
 45
0.0
 46
0.0
 47
0.0
 48
0.0
140
2.5
141
2.5
142
0.0
143
0.03937007874016
144
1.0
145
0.0
146
1.0
147
0.625
 71
     0
 72
     0
 73
     0
 74
     0
 75
     0
 76
     0
 77
     1
 78
     8
170
     0
171
     3
172
     1
173
     0
174
     0
175
     0
176
     0
177
     0
178
     0
270
     2
271
     2
272
     2
273
     2
274
     3
340
11
275
     0
280
     0
281
     0
282
     0
283
     0
284
     8
285
     0
286
     0
287
     3
288
     0
  0
ENDTAB
  0
TABLE
  2
BLOCK_RECORD
  5
1
330
0
100
AcDbSymbolTable
 70
     1
  0
BLOCK_RECORD
  5
1F
330
1
100
AcDbSymbolTableRecord
100
AcDbBlockTableRecord
  2
*MODEL_SPACE
  0
BLOCK_RECORD
  5
1B
330
1
100
AcDbSymbolTableRecord
100
AcDbBlockTableRecord
  2
*PAPER_SPACE
  0
ENDTAB
  0
ENDSEC
  0
SECTION
  2
BLOCKS
  0
BLOCK
  5
20
330
1F
100
AcDbEntity
  8
0
100
AcDbBlockBegin
  2
*MODEL_SPACE
 70
     0
 10
0.0
 20
0.0
 30
0.0
  3
*MODEL_SPACE
  1

  0
ENDBLK
  5
21
330
1F
100
AcDbEntity
  8
0
100
AcDbBlockEnd
  0
BLOCK
  5
1C
330
1B
100
AcDbEntity
 67
     1
  8
0
100
AcDbBlockBegin
  2
*PAPER_SPACE
  1

  0
ENDBLK
  5
1D
330
1B
100
AcDbEntity
 67
     1
  8
0
100
AcDbBlockEnd
  0
ENDSEC
  0
SECTION
  2
ENTITIES
  0
SPLINE
  5
100
100
AcDbEntity
  8
0
 62
1
100
AcDbSpline
 70
8
 71
3
 72
8
 73
4
 74
0
 40
0
 40
0
 40
0
 40
0
 40
1
 40
1
 40
1
 40
1
 10
126.388800
 20
93.699500
 30
0.0
 10
126.439822
 20
93.821910
 30
0.0
 10
126.440123
 20
93.959575
 30
0.0
 10
126.389637
 20
94.082207
 30
0.0
  0
SPLINE
  5
101
100
AcDbEntity
  8
0
 62
1
100
AcDbSpline
 70
8
 71
3
 72
8
 73
4
 74
0
 40
0
 40
0
 40
0
 40
0
 40
1
 40
1
 40
1
 40
1
 10
126.389637
 20
94.082207
 30
0.0
 10
126.339152
 20
94.204839
 30
0.0
 10
126.242015
 20
94.302391
 30
0.0
 10
126.119600
 20
94.353400
 30
0.0
  0
LWPOLYLINE
  5
102
100
AcDbEntity
  8
0
 62
1
100
AcDbPolyline
 90
2
 70
0
 10
173.887600
 20
102.891500
 30
0.0
 10
153.395200
 20
94.353400
 30
0.0
  0
SPLINE
  5
103
100
AcDbEntity
  8
0
 62
1
100
AcDbSpline
 70
8
 71
3
 72
8
 73
4
 74
0
 40
0
 40
0
 40
0
 40
0
 40
1
 40
1
 40
1
 40
1
 10
144.057400
 20
97.562700
 30
0.0
 10
144.190008
 20
97.562700
 30
0.0
 10
144.317185
 20
97.615378
 30
0.0
 10
144.410953
 20
97.709147
 30
0.0
  0
SPLINE
  5
104
100
AcDbEntity
  8
0
 62
1
100
AcDbSpline
 70
8
 71
3
 72
8
 73
4
 74
0
 40
0
 40
0
 40
0
 40
0
 40
1
 40
1
 40
1
 40
1
 10
144.410953
 20
97.709147
 30
0.0
 10
144.504722
 20
97.802915
 30
0.0
 10
144.557400
 20
97.930092
 30
0.0
 10
144.557400
 20
98.062700
 30
0.0
  0
SPLINE
  5
105
100
AcDbEntity
  8
0
 62
1
100
AcDbSpline
 70
8
 71
3
 72
8
 73
4
 74
0
 40
0
 40
0
 40
0
 40
0
 40
1
 40
1
 40
1
 40
1
 10
11.001600
 20
103.980600
 30
0.0
 10
2.513041
 20
80.860928
 30
0.0
 10
0.406229
 20
55.882157
 30
0.0
 10
4.902400
 20
31.667300
 30
0.0
  0
SPLINE
  5
106
100
AcDbEntity
  8
0
 62
1
100
AcDbSpline
 70
8
 71
3
 72
8
 73
4
 74
0
 40
0
 40
0
 40
0
 40
0
 40
1
 40
1
 40
1
 40
1
 10
133.057400
 20
85.862700
 30
0.0
 10
133.057400
 20
85.783135
 30
0.0
 10
133.089007
 20
85.706829
 30
0.0
 10
133.145268
 20
85.650568
 30
0.0
  0
SPLINE
  5
107
100
AcDbEntity
  8
0
 62
1
100
AcDbSpline
 70
8
 71
3
 72
8
 73
4
 74
0
 40
0
 40
0
 40
0
 40
0
 40
1
 40
1
 40
1
 40
1
 10
133.145268
 20
85.650568
 30
0.0
 10
133.201529
 20
85.594307
 30
0.0
 10
133.277835
 20
85.562700
 30
0.0
 10
133.357400
 20
85.562700
 30
0.0
  0
LWPOLYLINE
  5
108
100
AcDbEntity
  8
0
 62
1
100
AcDbPolyline
 90
2
 70
0
 10
122.563000
 20
4.910900
 30
0.0
 10
8.837400
 20
27.676800
 30
0.0
  0
LWPOLYLINE
  5
109
100
AcDbEntity
  8
0
 62
1
100
AcDbPolyline
 90
2
 70
0
 10
144.557400
 20
107.257300
 30
0.0
 10
144.557400
 20
98.062700
 30
0.0
  0
SPLINE
  5
10a
100
AcDbEntity
  8
0
 62
1
100
AcDbSpline
 70
8
 71
3
 72
8
 73
4
 74
0
 40
0
 40
0
 40
0
 40
0
 40
1
 40
1
 40
1
 40
1
 10
175.618300
 20
98.737700
 30
0.0
 10
175.873202
 20
98.843882
 30
0.0
 10
175.993770
 20
99.136593
 30
0.0
 10
175.887600
 20
99.391500
 30
0.0
  0
SPLINE
  5
10b
100
AcDbEntity
  8
0
 62
1
100
AcDbSpline
 70
8
 71
3
 72
8
 73
4
 74
0
 40
0
 40
0
 40
0
 40
0
 40
1
 40
1
 40
1
 40
1
 10
268.513200
 20
103.980600
 30
0.0
 10
267.790531
 20
105.948970
 30
0.0
 10
265.916438
 20
107.257313
 30
0.0
 10
263.819600
 20
107.257300
 30
0.0
  0
SPLINE
  5
10c
100
AcDbEntity
  8
0
 62
1
100
AcDbSpline
 70
8
 71
3
 72
8
 73
4
 74
0
 40
0
 40
0
 40
0
 40
0
 40
1
 40
1
 40
1
 40
1
 10
270.677900
 20
27.677300
 30
0.0
 10
272.681501
 20
28.078378
 30
0.0
 10
274.239425
 20
29.658278
 30
0.0
 10
274.612400
 20
31.667300
 30
0.0
  0
LWPOLYLINE
  5
10d
100
AcDbEntity
  8
0
 62
1
100
AcDbPolyline
 90
2
 70
0
 10
134.957400
 20
107.257300
 30
0.0
 10
15.695200
 20
107.257300
 30
0.0
  0
SPLINE
  5
10e
100
AcDbEntity
  8
0
 62
1
100
AcDbSpline
 70
8
 71
3
 72
8
 73
4
 74
0
 40
0
 40
0
 40
0
 40
0
 40
1
 40
1
 40
1
 40
1
 10
124.388900
 20
90.199500
 30
0.0
 10
124.643779
 20
90.093319
 30
0.0
 10
124.936479
 20
90.213837
 30
0.0
 10
125.042700
 20
90.468700
 30
0.0
  0
SPLINE
  5
10f
100
AcDbEntity
  8
0
 62
1
100
AcDbSpline
 70
8
 71
3
 72
8
 73
4
 74
0
 40
0
 40
0
 40
0
 40
0
 40
1
 40
1
 40
1
 40
1
 10
151.061000
 20
4.327300
 30
0.0
 10
153.038303
 20
4.327292
 30
0.0
 10
155.010763
 20
4.522776
 30
0.0
 10
156.949600
 20
4.910900
 30
0.0
  0
SPLINE
  5
110
100
AcDbEntity
  8
0
 62
1
100
AcDbSpline
 70
8
 71
3
 72
8
 73
4
 74
0
 40
0
 40
0
 40
0
 40
0
 40
1
 40
1
 40
1
 40
1
 10
139.757400
 20
63.206902
 30
0.0
 10
137.128395
 20
63.206902
 30
0.0
 10
134.758260
 20
61.623228
 30
0.0
 10
133.752183
 20
59.194344
 30
0.0
  0
SPLINE
  5
111
100
AcDbEntity
  8
0
 62
1
100
AcDbSpline
 70
8
 71
3
 72
8
 73
4
 74
0
 40
0
 40
0
 40
0
 40
0
 40
1
 40
1
 40
1
 40
1
 10
133.752183
 20
59.194344
 30
0.0
 10
132.746107
 20
56.765461
 30
0.0
 10
133.302219
 20
53.969695
 30
0.0
 10
135.161206
 20
52.110708
 30
0.0
  0
SPLINE
  5
112
100
AcDbEntity
  8
0
 62
1
100
AcDbSpline
 70
8
 71
3
 72
8
 73
4
 74
0
 40
0
 40
0
 40
0
 40
0
 40
1
 40
1
 40
1
 40
1
 10
135.161206
 20
52.110708
 30
0.0
 10
137.020193
 20
50.251721
 30
0.0
 10
139.815959
 20
49.695609
 30
0.0
 10
142.244842
 20
50.701685
 30
0.0
  0
SPLINE
  5
113
100
AcDbEntity
  8
0
 62
1
100
AcDbSpline
 70
8
 71
3
 72
8
 73
4
 74
0
 40
0
 40
0
 40
0
 40
0
 40
1
 40
1
 40
1
 40
1
 10
142.244842
 20
50.701685
 30
0.0
 10
144.673726
 20
51.707762
 30
0.0
 10
146.257400
 20
54.077897
 30
0.0
 10
146.257400
 20
56.706902
 30
0.0
  0
SPLINE
  5
114
100
AcDbEntity
  8
0
 62
1
100
AcDbSpline
 70
8
 71
3
 72
8
 73
4
 74
0
 40
0
 40
0
 40
0
 40
0
 40
1
 40
1
 40
1
 40
1
 10
146.257400
 20
56.706902
 30
0.0
 10
146.257400
 20
58.430809
 30
0.0
 10
145.572581
 20
60.084110
 30
0.0
 10
144.353594
 20
61.303096
 30
0.0
  0
SPLINE
  5
115
100
AcDbEntity
  8
0
 62
1
100
AcDbSpline
 70
8
 71
3
 72
8
 73
4
 74
0
 40
0
 40
0
 40
0
 40
0
 40
1
 40
1
 40
1
 40
1
 10
144.353594
 20
61.303096
 30
0.0
 10
143.134608
 20
62.522083
 30
0.0
 10
141.481307
 20
63.206902
 30
0.0
 10
139.757400
 20
63.206902
 30
0.0
  0
LWPOLYLINE
  5
116
100
AcDbEntity
  8
0
 62
1
100
AcDbPolyline
 90
2
 70
0
 10
133.357400
 20
90.762700
 30
0.0
 10
146.157400
 20
90.762700
 30
0.0
  0
SPLINE
  5
117
100
AcDbEntity
  8
0
 62
1
100
AcDbSpline
 70
8
 71
3
 72
8
 73
4
 74
0
 40
0
 40
0
 40
0
 40
0
 40
1
 40
1
 40
1
 40
1
 10
153.395200
 20
94.353400
 30
0.0
 10
153.272785
 20
94.302391
 30
0.0
 10
153.175648
 20
94.204839
 30
0.0
 10
153.125163
 20
94.082207
 30
0.0
  0
SPLINE
  5
118
100
AcDbEntity
  8
0
 62
1
100
AcDbSpline
 70
8
 71
3
 72
8
 73
4
 74
0
 40
0
 40
0
 40
0
 40
0
 40
1
 40
1
 40
1
 40
1
 10
153.125163
 20
94.082207
 30
0.0
 10
153.074677
 20
93.959575
 30
0.0
 10
153.074978
 20
93.821910
 30
0.0
 10
153.126000
 20
93.699500
 30
0.0
  0
SPLINE
  5
119
100
AcDbEntity
  8
0
 62
1
100
AcDbSpline
 70
8
 71
3
 72
8
 73
4
 74
0
 40
0
 40
0
 40
0
 40
0
 40
1
 40
1
 40
1
 40
1
 10
15.695200
 20
107.257300
 30
0.0
 10
13.598371
 20
107.257284
 30
0.0
 10
11.724293
 20
105.948951
 30
0.0
 10
11.001600
 20
103.980600
 30
0.0
  0
SPLINE
  5
11a
100
AcDbEntity
  8
0
 62
1
100
AcDbSpline
 70
8
 71
3
 72
8
 73
4
 74
0
 40
0
 40
0
 40
0
 40
0
 40
1
 40
1
 40
1
 40
1
 10
154.472100
 20
90.468700
 30
0.0
 10
154.578321
 20
90.213837
 30
0.0
 10
154.871021
 20
90.093319
 30
0.0
 10
155.125900
 20
90.199500
 30
0.0
  0
LWPOLYLINE
  5
11b
100
AcDbEntity
  8
0
 62
1
100
AcDbPolyline
 90
1
 70
1
 10
139.757400
 20
63.206902
 30
0.0
  0
LWPOLYLINE
  5
11c
100
AcDbEntity
  8
0
 62
1
100
AcDbPolyline
 90
2
 70
0
 10
133.357400
 20
85.562700
 30
0.0
 10
146.157400
 20
85.562700
 30
0.0
  0
LWPOLYLINE
  5
11d
100
AcDbEntity
  8
0
 62
1
100
AcDbPolyline
 90
2
 70
0
 10
175.887600
 20
99.391500
 30
0.0
 10
174.541500
 20
102.622300
 30
0.0
  0
LWPOLYLINE
  5
11e
100
AcDbEntity
  8
0
 62
1
100
AcDbPolyline
 90
2
 70
0
 10
270.677900
 20
27.677300
 30
0.0
 10
156.949600
 20
4.910900
 30
0.0
  0
SPLINE
  5
11f
100
AcDbEntity
  8
0
 62
1
100
AcDbSpline
 70
8
 71
3
 72
8
 73
4
 74
0
 40
0
 40
0
 40
0
 40
0
 40
1
 40
1
 40
1
 40
1
 10
174.541500
 20
102.622300
 30
0.0
 10
174.490491
 20
102.744715
 30
0.0
 10
174.392939
 20
102.841852
 30
0.0
 10
174.270307
 20
102.892337
 30
0.0
  0
SPLINE
  5
120
100
AcDbEntity
  8
0
 62
1
100
AcDbSpline
 70
8
 71
3
 72
8
 73
4
 74
0
 40
0
 40
0
 40
0
 40
0
 40
1
 40
1
 40
1
 40
1
 10
174.270307
 20
102.892337
 30
0.0
 10
174.147675
 20
102.942823
 30
0.0
 10
174.010010
 20
102.942522
 30
0.0
 10
173.887600
 20
102.891500
 30
0.0
  0
LWPOLYLINE
  5
121
100
AcDbEntity
  8
0
 62
1
100
AcDbPolyline
 90
2
 70
0
 10
135.457400
 20
97.562700
 30
0.0
 10
144.057400
 20
97.562700
 30
0.0
  0
SPLINE
  5
122
100
AcDbEntity
  8
0
 62
1
100
AcDbSpline
 70
8
 71
3
 72
8
 73
4
 74
0
 40
0
 40
0
 40
0
 40
0
 40
1
 40
1
 40
1
 40
1
 10
146.157400
 20
85.562700
 30
0.0
 10
146.236965
 20
85.562700
 30
0.0
 10
146.313271
 20
85.594307
 30
0.0
 10
146.369532
 20
85.650568
 30
0.0
  0
SPLINE
  5
123
100
AcDbEntity
  8
0
 62
1
100
AcDbSpline
 70
8
 71
3
 72
8
 73
4
 74
0
 40
0
 40
0
 40
0
 40
0
 40
1
 40
1
 40
1
 40
1
 10
146.369532
 20
85.650568
 30
0.0
 10
146.425793
 20
85.706829
 30
0.0
 10
146.457400
 20
85.783135
 30
0.0
 10
146.457400
 20
85.862700
 30
0.0
  0
LWPOLYLINE
  5
124
100
AcDbEntity
  8
0
 62
1
100
AcDbPolyline
 90
2
 70
0
 10
124.388900
 20
90.199500
 30
0.0
 10
103.896500
 20
98.737700
 30
0.0
  0
SPLINE
  5
125
100
AcDbEntity
  8
0
 62
1
100
AcDbSpline
 70
8
 71
3
 72
8
 73
4
 74
0
 40
0
 40
0
 40
0
 40
0
 40
1
 40
1
 40
1
 40
1
 10
134.957400
 20
98.062700
 30
0.0
 10
134.957400
 20
97.930092
 30
0.0
 10
135.010078
 20
97.802915
 30
0.0
 10
135.103847
 20
97.709147
 30
0.0
  0
SPLINE
  5
126
100
AcDbEntity
  8
0
 62
1
100
AcDbSpline
 70
8
 71
3
 72
8
 73
4
 74
0
 40
0
 40
0
 40
0
 40
0
 40
1
 40
1
 40
1
 40
1
 10
135.103847
 20
97.709147
 30
0.0
 10
135.197615
 20
97.615378
 30
0.0
 10
135.324792
 20
97.562700
 30
0.0
 10
135.457400
 20
97.562700
 30
0.0
  0
SPLINE
  5
127
100
AcDbEntity
  8
0
 62
1
100
AcDbSpline
 70
8
 71
3
 72
8
 73
4
 74
0
 40
0
 40
0
 40
0
 40
0
 40
1
 40
1
 40
1
 40
1
 10
4.902400
 20
31.667300
 30
0.0
 10
5.275467
 20
29.658048
 30
0.0
 10
6.833569
 20
28.077969
 30
0.0
 10
8.837400
 20
27.676800
 30
0.0
  0
LWPOLYLINE
  5
128
100
AcDbEntity
  8
0
 62
1
100
AcDbPolyline
 90
2
 70
0
 10
133.057400
 20
90.462700
 30
0.0
 10
133.057400
 20
85.862700
 30
0.0
  0
SPLINE
  5
129
100
AcDbEntity
  8
0
 62
1
100
AcDbSpline
 70
8
 71
3
 72
8
 73
4
 74
0
 40
0
 40
0
 40
0
 40
0
 40
1
 40
1
 40
1
 40
1
 10
274.612400
 20
31.667300
 30
0.0
 10
279.108571
 20
55.882157
 30
0.0
 10
277.001759
 20
80.860928
 30
0.0
 10
268.513200
 20
103.980600
 30
0.0
  0
LWPOLYLINE
  5
12a
100
AcDbEntity
  8
0
 62
1
100
AcDbPolyline
 90
2
 70
0
 10
105.627200
 20
102.891500
 30
0.0
 10
126.119600
 20
94.353400
 30
0.0
  0
SPLINE
  5
12b
100
AcDbEntity
  8
0
 62
1
100
AcDbSpline
 70
8
 71
3
 72
8
 73
4
 74
0
 40
0
 40
0
 40
0
 40
0
 40
1
 40
1
 40
1
 40
1
 10
146.457400
 20
90.462700
 30
0.0
 10
146.457400
 20
90.542265
 30
0.0
 10
146.425793
 20
90.618571
 30
0.0
 10
146.369532
 20
90.674832
 30
0.0
  0
SPLINE
  5
12c
100
AcDbEntity
  8
0
 62
1
100
AcDbSpline
 70
8
 71
3
 72
8
 73
4
 74
0
 40
0
 40
0
 40
0
 40
0
 40
1
 40
1
 40
1
 40
1
 10
146.369532
 20
90.674832
 30
0.0
 10
146.313271
 20
90.731093
 30
0.0
 10
146.236965
 20
90.762700
 30
0.0
 10
146.157400
 20
90.762700
 30
0.0
  0
SPLINE
  5
12d
100
AcDbEntity
  8
0
 62
1
100
AcDbSpline
 70
8
 71
3
 72
8
 73
4
 74
0
 40
0
 40
0
 40
0
 40
0
 40
1
 40
1
 40
1
 40
1
 10
105.627200
 20
102.891500
 30
0.0
 10
105.504790
 20
102.942522
 30
0.0
 10
105.367125
 20
102.942823
 30
0.0
 10
105.244493
 20
102.892337
 30
0.0
  0
SPLINE
  5
12e
100
AcDbEntity
  8
0
 62
1
100
AcDbSpline
 70
8
 71
3
 72
8
 73
4
 74
0
 40
0
 40
0
 40
0
 40
0
 40
1
 40
1
 40
1
 40
1
 10
105.244493
 20
102.892337
 30
0.0
 10
105.121861
 20
102.841852
 30
0.0
 10
105.024309
 20
102.744715
 30
0.0
 10
104.973300
 20
102.622300
 30
0.0
  0
SPLINE
  5
12f
100
AcDbEntity
  8
0
 62
1
100
AcDbSpline
 70
8
 71
3
 72
8
 73
4
 74
0
 40
0
 40
0
 40
0
 40
0
 40
1
 40
1
 40
1
 40
1
 10
122.563000
 20
4.910900
 30
0.0
 10
124.501870
 20
4.522772
 30
0.0
 10
126.474364
 20
4.327288
 30
0.0
 10
128.451700
 20
4.327300
 30
0.0
  0
LWPOLYLINE
  5
130
100
AcDbEntity
  8
0
 62
1
100
AcDbPolyline
 90
2
 70
0
 10
103.627200
 20
99.391500
 30
0.0
 10
104.973300
 20
102.622300
 30
0.0
  0
LWPOLYLINE
  5
131
100
AcDbEntity
  8
0
 62
1
100
AcDbPolyline
 90
2
 70
0
 10
128.451700
 20
4.327300
 30
0.0
 10
151.061000
 20
4.327300
 30
0.0
  0
LWPOLYLINE
  5
132
100
AcDbEntity
  8
0
 62
1
100
AcDbPolyline
 90
2
 70
0
 10
126.388800
 20
93.699500
 30
0.0
 10
125.042700
 20
90.468700
 30
0.0
  0
LWPOLYLINE
  5
133
100
AcDbEntity
  8
0
 62
1
100
AcDbPolyline
 90
2
 70
0
 10
144.557400
 20
107.257300
 30
0.0
 10
263.819600
 20
107.257300
 30
0.0
  0
LWPOLYLINE
  5
134
100
AcDbEntity
  8
0
 62
1
100
AcDbPolyline
 90
2
 70
0
 10
155.125900
 20
90.199500
 30
0.0
 10
175.618300
 20
98.737700
 30
0.0
  0
LWPOLYLINE
  5
135
100
AcDbEntity
  8
0
 62
1
100
AcDbPolyline
 90
2
 70
0
 10
153.126000
 20
93.699500
 30
0.0
 10
154.472100
 20
90.468700
 30
0.0
  0
SPLINE
  5
136
100
AcDbEntity
  8
0
 62
1
100
AcDbSpline
 70
8
 71
3
 72
8
 73
4
 74
0
 40
0
 40
0
 40
0
 40
0
 40
1
 40
1
 40
1
 40
1
 10
133.357400
 20
90.762700
 30
0.0
 10
133.277835
 20
90.762700
 30
0.0
 10
133.201529
 20
90.731093
 30
0.0
 10
133.145268
 20
90.674832
 30
0.0
  0
SPLINE
  5
137
100
AcDbEntity
  8
0
 62
1
100
AcDbSpline
 70
8
 71
3
 72
8
 73
4
 74
0
 40
0
 40
0
 40
0
 40
0
 40
1
 40
1
 40
1
 40
1
 10
133.145268
 20
90.674832
 30
0.0
 10
133.089007
 20
90.618571
 30
0.0
 10
133.057400
 20
90.542265
 30
0.0
 10
133.057400
 20
90.462700
 30
0.0
  0
LWPOLYLINE
  5
138
100
AcDbEntity
  8
0
 62
1
100
AcDbPolyline
 90
2
 70
0
 10
134.957400
 20
107.257300
 30
0.0
 10
134.957400
 20
98.062700
 30
0.0
  0
SPLINE
  5
139
100
AcDbEntity
  8
0
 62
1
100
AcDbSpline
 70
8
 71
3
 72
8
 73
4
 74
0
 40
0
 40
0
 40
0
 40
0
 40
1
 40
1
 40
1
 40
1
 10
103.627200
 20
99.391500
 30
0.0
 10
103.521030
 20
99.136593
 30
0.0
 10
103.641598
 20
98.843882
 30
0.0
 10
103.896500
 20
98.737700
 30
0.0
  0
LWPOLYLINE
  5
13a
100
AcDbEntity
  8
0
 62
1
100
AcDbPolyline
 90
2
 70
0
 10
146.457400
 20
90.462700
 30
0.0
 10
146.457400
 20
85.862700
 30
0.0
  0
LWPOLYLINE
  5
13b
100
AcDbEntity
  8
0
 62
1
100
AcDbPolyline
 90
2
 70
0
 10
178.783900
 20
52.872000
 30
0.0
 10
183.937600
 20
40.502700
 30
0.0
  0
LWPOLYLINE
  5
13c
100
AcDbEntity
  8
0
 62
1
100
AcDbPolyline
 90
2
 70
0
 10
184.329900
 20
40.341200
 30
0.0
 10
196.699200
 20
45.494800
 30
0.0
  0
LWPOLYLINE
  5
13d
100
AcDbEntity
  8
0
 62
1
100
AcDbPolyline
 90
2
 70
0
 10
191.314800
 20
58.418000
 30
0.0
 10
178.945500
 20
53.264300
 30
0.0
  0
SPLINE
  5
13e
100
AcDbEntity
  8
0
 62
1
100
AcDbSpline
 70
8
 71
3
 72
8
 73
4
 74
0
 40
0
 40
0
 40
0
 40
0
 40
1
 40
1
 40
1
 40
1
 10
178.945500
 20
53.264300
 30
0.0
 10
178.872046
 20
53.233710
 30
0.0
 10
178.813754
 20
53.175192
 30
0.0
 10
178.783448
 20
53.101620
 30
0.0
  0
SPLINE
  5
13f
100
AcDbEntity
  8
0
 62
1
100
AcDbSpline
 70
8
 71
3
 72
8
 73
4
 74
0
 40
0
 40
0
 40
0
 40
0
 40
1
 40
1
 40
1
 40
1
 10
178.783448
 20
53.101620
 30
0.0
 10
178.753141
 20
53.028049
 30
0.0
 10
178.753304
 20
52.945451
 30
0.0
 10
178.783900
 20
52.872000
 30
0.0
  0
SPLINE
  5
140
100
AcDbEntity
  8
0
 62
1
100
AcDbSpline
 70
8
 71
3
 72
8
 73
4
 74
0
 40
0
 40
0
 40
0
 40
0
 40
1
 40
1
 40
1
 40
1
 10
183.937600
 20
40.502700
 30
0.0
 10
184.001340
 20
40.349779
 30
0.0
 10
184.176972
 20
40.277476
 30
0.0
 10
184.329900
 20
40.341200
 30
0.0
  0
SPLINE
  5
141
100
AcDbEntity
  8
0
 62
1
100
AcDbSpline
 70
8
 71
3
 72
8
 73
4
 74
0
 40
0
 40
0
 40
0
 40
0
 40
1
 40
1
 40
1
 40
1
 10
191.707100
 20
58.256500
 30
0.0
 10
191.643360
 20
58.409421
 30
0.0
 10
191.467728
 20
58.481724
 30
0.0
 10
191.314800
 20
58.418000
 30
0.0
  0
SPLINE
  5
142
100
AcDbEntity
  8
0
 62
1
100
AcDbSpline
 70
8
 71
3
 72
8
 73
4
 74
0
 40
0
 40
0
 40
0
 40
0
 40
1
 40
1
 40
1
 40
1
 10
196.699200
 20
45.494800
 30
0.0
 10
196.772661
 20
45.525409
 30
0.0
 10
196.830949
 20
45.583951
 30
0.0
 10
196.861238
 20
45.657544
 30
0.0
  0
SPLINE
  5
143
100
AcDbEntity
  8
0
 62
1
100
AcDbSpline
 70
8
 71
3
 72
8
 73
4
 74
0
 40
0
 40
0
 40
0
 40
0
 40
1
 40
1
 40
1
 40
1
 10
196.861238
 20
45.657544
 30
0.0
 10
196.891527
 20
45.731137
 30
0.0
 10
196.891333
 20
45.813750
 30
0.0
 10
196.860700
 20
45.887200
 30
0.0
  0
LWPOLYLINE
  5
144
100
AcDbEntity
  8
0
 62
1
100
AcDbPolyline
 90
2
 70
0
 10
196.860700
 20
45.887200
 30
0.0
 10
191.707100
 20
58.256500
 30
0.0
  0
LWPOLYLINE
  5
145
100
AcDbEntity
  8
0
 62
1
100
AcDbPolyline
 90
2
 70
0
 10
7.027400
 20
63.406900
 30
0.0
 10
7.027400
 20
50.006900
 30
0.0
  0
LWPOLYLINE
  5
146
100
AcDbEntity
  8
0
 62
1
100
AcDbPolyline
 90
2
 70
0
 10
7.327400
 20
49.706900
 30
0.0
 10
20.727400
 20
49.706900
 30
0.0
  0
LWPOLYLINE
  5
147
100
AcDbEntity
  8
0
 62
1
100
AcDbPolyline
 90
2
 70
0
 10
20.727400
 20
63.706900
 30
0.0
 10
7.327400
 20
63.706900
 30
0.0
  0
SPLINE
  5
148
100
AcDbEntity
  8
0
 62
1
100
AcDbSpline
 70
8
 71
3
 72
8
 73
4
 74
0
 40
0
 40
0
 40
0
 40
0
 40
1
 40
1
 40
1
 40
1
 10
7.327400
 20
63.706900
 30
0.0
 10
7.247835
 20
63.706900
 30
0.0
 10
7.171529
 20
63.675293
 30
0.0
 10
7.115268
 20
63.619032
 30
0.0
  0
SPLINE
  5
149
100
AcDbEntity
  8
0
 62
1
100
AcDbSpline
 70
8
 71
3
 72
8
 73
4
 74
0
 40
0
 40
0
 40
0
 40
0
 40
1
 40
1
 40
1
 40
1
 10
7.115268
 20
63.619032
 30
0.0
 10
7.059007
 20
63.562771
 30
0.0
 10
7.027400
 20
63.486465
 30
0.0
 10
7.027400
 20
63.406900
 30
0.0
  0
SPLINE
  5
14a
100
AcDbEntity
  8
0
 62
1
100
AcDbSpline
 70
8
 71
3
 72
8
 73
4
 74
0
 40
0
 40
0
 40
0
 40
0
 40
1
 40
1
 40
1
 40
1
 10
7.027400
 20
50.006900
 30
0.0
 10
7.027400
 20
49.927335
 30
0.0
 10
7.059007
 20
49.851029
 30
0.0
 10
7.115268
 20
49.794768
 30
0.0
  0
SPLINE
  5
14b
100
AcDbEntity
  8
0
 62
1
100
AcDbSpline
 70
8
 71
3
 72
8
 73
4
 74
0
 40
0
 40
0
 40
0
 40
0
 40
1
 40
1
 40
1
 40
1
 10
7.115268
 20
49.794768
 30
0.0
 10
7.171529
 20
49.738507
 30
0.0
 10
7.247835
 20
49.706900
 30
0.0
 10
7.327400
 20
49.706900
 30
0.0
  0
SPLINE
  5
14c
100
AcDbEntity
  8
0
 62
1
100
AcDbSpline
 70
8
 71
3
 72
8
 73
4
 74
0
 40
0
 40
0
 40
0
 40
0
 40
1
 40
1
 40
1
 40
1
 10
21.027400
 20
63.406900
 30
0.0
 10
21.027400
 20
63.486465
 30
0.0
 10
20.995793
 20
63.562771
 30
0.0
 10
20.939532
 20
63.619032
 30
0.0
  0
SPLINE
  5
14d
100
AcDbEntity
  8
0
 62
1
100
AcDbSpline
 70
8
 71
3
 72
8
 73
4
 74
0
 40
0
 40
0
 40
0
 40
0
 40
1
 40
1
 40
1
 40
1
 10
20.939532
 20
63.619032
 30
0.0
 10
20.883271
 20
63.675293
 30
0.0
 10
20.806965
 20
63.706900
 30
0.0
 10
20.727400
 20
63.706900
 30
0.0
  0
SPLINE
  5
14e
100
AcDbEntity
  8
0
 62
1
100
AcDbSpline
 70
8
 71
3
 72
8
 73
4
 74
0
 40
0
 40
0
 40
0
 40
0
 40
1
 40
1
 40
1
 40
1
 10
20.727400
 20
49.706900
 30
0.0
 10
20.806965
 20
49.706900
 30
0.0
 10
20.883271
 20
49.738507
 30
0.0
 10
20.939532
 20
49.794768
 30
0.0
  0
SPLINE
  5
14f
100
AcDbEntity
  8
0
 62
1
100
AcDbSpline
 70
8
 71
3
 72
8
 73
4
 74
0
 40
0
 40
0
 40
0
 40
0
 40
1
 40
1
 40
1
 40
1
 10
20.939532
 20
49.794768
 30
0.0
 10
20.995793
 20
49.851029
 30
0.0
 10
21.027400
 20
49.927335
 30
0.0
 10
21.027400
 20
50.006900
 30
0.0
  0
LWPOLYLINE
  5
150
100
AcDbEntity
  8
0
 62
1
100
AcDbPolyline
 90
2
 70
0
 10
21.027400
 20
50.006900
 30
0.0
 10
21.027400
 20
63.406900
 30
0.0
  0
LWPOLYLINE
  5
151
100
AcDbEntity
  8
0
 62
1
100
AcDbPolyline
 90
2
 70
0
 10
94.548100
 20
34.811000
 30
0.0
 10
89.394500
 20
22.441600
 30
0.0
  0
LWPOLYLINE
  5
152
100
AcDbEntity
  8
0
 62
1
100
AcDbPolyline
 90
2
 70
0
 10
89.556000
 20
22.049300
 30
0.0
 10
101.925300
 20
16.895700
 30
0.0
  0
LWPOLYLINE
  5
153
100
AcDbEntity
  8
0
 62
1
100
AcDbPolyline
 90
2
 70
0
 10
107.309800
 20
29.818800
 30
0.0
 10
94.940500
 20
34.972500
 30
0.0
  0
SPLINE
  5
154
100
AcDbEntity
  8
0
 62
1
100
AcDbSpline
 70
8
 71
3
 72
8
 73
4
 74
0
 40
0
 40
0
 40
0
 40
0
 40
1
 40
1
 40
1
 40
1
 10
94.940500
 20
34.972500
 30
0.0
 10
94.867050
 20
35.003133
 30
0.0
 10
94.784437
 20
35.003327
 30
0.0
 10
94.710844
 20
34.973038
 30
0.0
  0
SPLINE
  5
155
100
AcDbEntity
  8
0
 62
1
100
AcDbSpline
 70
8
 71
3
 72
8
 73
4
 74
0
 40
0
 40
0
 40
0
 40
0
 40
1
 40
1
 40
1
 40
1
 10
94.710844
 20
34.973038
 30
0.0
 10
94.637251
 20
34.942749
 30
0.0
 10
94.578709
 20
34.884461
 30
0.0
 10
94.548100
 20
34.811000
 30
0.0
  0
SPLINE
  5
156
100
AcDbEntity
  8
0
 62
1
100
AcDbSpline
 70
8
 71
3
 72
8
 73
4
 74
0
 40
0
 40
0
 40
0
 40
0
 40
1
 40
1
 40
1
 40
1
 10
89.394500
 20
22.441600
 30
0.0
 10
89.330776
 20
22.288672
 30
0.0
 10
89.403079
 20
22.113040
 30
0.0
 10
89.556000
 20
22.049300
 30
0.0
  0
SPLINE
  5
157
100
AcDbEntity
  8
0
 62
1
100
AcDbSpline
 70
8
 71
3
 72
8
 73
4
 74
0
 40
0
 40
0
 40
0
 40
0
 40
1
 40
1
 40
1
 40
1
 10
107.471300
 20
29.426500
 30
0.0
 10
107.535024
 20
29.579428
 30
0.0
 10
107.462721
 20
29.755060
 30
0.0
 10
107.309800
 20
29.818800
 30
0.0
  0
SPLINE
  5
158
100
AcDbEntity
  8
0
 62
1
100
AcDbSpline
 70
8
 71
3
 72
8
 73
4
 74
0
 40
0
 40
0
 40
0
 40
0
 40
1
 40
1
 40
1
 40
1
 10
101.925300
 20
16.895700
 30
0.0
 10
102.078228
 20
16.831976
 30
0.0
 10
102.253860
 20
16.904279
 30
0.0
 10
102.317600
 20
17.057200
 30
0.0
  0
LWPOLYLINE
  5
159
100
AcDbEntity
  8
0
 62
1
100
AcDbPolyline
 90
2
 70
0
 10
102.317600
 20
17.057200
 30
0.0
 10
107.471300
 20
29.426500
 30
0.0
  0
LWPOLYLINE
  5
15a
100
AcDbEntity
  8
0
 62
1
100
AcDbPolyline
 90
2
 70
0
 10
220.387400
 20
63.406900
 30
0.0
 10
220.387400
 20
50.006900
 30
0.0
  0
LWPOLYLINE
  5
15b
100
AcDbEntity
  8
0
 62
1
100
AcDbPolyline
 90
2
 70
0
 10
220.687400
 20
49.706900
 30
0.0
 10
234.087400
 20
49.706900
 30
0.0
  0
LWPOLYLINE
  5
15c
100
AcDbEntity
  8
0
 62
1
100
AcDbPolyline
 90
2
 70
0
 10
234.087400
 20
63.706900
 30
0.0
 10
220.687400
 20
63.706900
 30
0.0
  0
SPLINE
  5
15d
100
AcDbEntity
  8
0
 62
1
100
AcDbSpline
 70
8
 71
3
 72
8
 73
4
 74
0
 40
0
 40
0
 40
0
 40
0
 40
1
 40
1
 40
1
 40
1
 10
220.687400
 20
63.706900
 30
0.0
 10
220.607835
 20
63.706900
 30
0.0
 10
220.531529
 20
63.675293
 30
0.0
 10
220.475268
 20
63.619032
 30
0.0
  0
SPLINE
  5
15e
100
AcDbEntity
  8
0
 62
1
100
AcDbSpline
 70
8
 71
3
 72
8
 73
4
 74
0
 40
0
 40
0
 40
0
 40
0
 40
1
 40
1
 40
1
 40
1
 10
220.475268
 20
63.619032
 30
0.0
 10
220.419007
 20
63.562771
 30
0.0
 10
220.387400
 20
63.486465
 30
0.0
 10
220.387400
 20
63.406900
 30
0.0
  0
SPLINE
  5
15f
100
AcDbEntity
  8
0
 62
1
100
AcDbSpline
 70
8
 71
3
 72
8
 73
4
 74
0
 40
0
 40
0
 40
0
 40
0
 40
1
 40
1
 40
1
 40
1
 10
220.387400
 20
50.006900
 30
0.0
 10
220.387400
 20
49.927335
 30
0.0
 10
220.419007
 20
49.851029
 30
0.0
 10
220.475268
 20
49.794768
 30
0.0
  0
SPLINE
  5
160
100
AcDbEntity
  8
0
 62
1
100
AcDbSpline
 70
8
 71
3
 72
8
 73
4
 74
0
 40
0
 40
0
 40
0
 40
0
 40
1
 40
1
 40
1
 40
1
 10
220.475268
 20
49.794768
 30
0.0
 10
220.531529
 20
49.738507
 30
0.0
 10
220.607835
 20
49.706900
 30
0.0
 10
220.687400
 20
49.706900
 30
0.0
  0
SPLINE
  5
161
100
AcDbEntity
  8
0
 62
1
100
AcDbSpline
 70
8
 71
3
 72
8
 73
4
 74
0
 40
0
 40
0
 40
0
 40
0
 40
1
 40
1
 40
1
 40
1
 10
234.387400
 20
63.406900
 30
0.0
 10
234.387400
 20
63.486465
 30
0.0
 10
234.355793
 20
63.562771
 30
0.0
 10
234.299532
 20
63.619032
 30
0.0
  0
SPLINE
  5
162
100
AcDbEntity
  8
0
 62
1
100
AcDbSpline
 70
8
 71
3
 72
8
 73
4
 74
0
 40
0
 40
0
 40
0
 40
0
 40
1
 40
1
 40
1
 40
1
 10
234.299532
 20
63.619032
 30
0.0
 10
234.243271
 20
63.675293
 30
0.0
 10
234.166965
 20
63.706900
 30
0.0
 10
234.087400
 20
63.706900
 30
0.0
  0
SPLINE
  5
163
100
AcDbEntity
  8
0
 62
1
100
AcDbSpline
 70
8
 71
3
 72
8
 73
4
 74
0
 40
0
 40
0
 40
0
 40
0
 40
1
 40
1
 40
1
 40
1
 10
234.087400
 20
49.706900
 30
0.0
 10
234.166965
 20
49.706900
 30
0.0
 10
234.243271
 20
49.738507
 30
0.0
 10
234.299532
 20
49.794768
 30
0.0
  0
SPLINE
  5
164
100
AcDbEntity
  8
0
 62
1
100
AcDbSpline
 70
8
 71
3
 72
8
 73
4
 74
0
 40
0
 40
0
 40
0
 40
0
 40
1
 40
1
 40
1
 40
1
 10
234.299532
 20
49.794768
 30
0.0
 10
234.355793
 20
49.851029
 30
0.0
 10
234.387400
 20
49.927335
 30
0.0
 10
234.387400
 20
50.006900
 30
0.0
  0
LWPOLYLINE
  5
165
100
AcDbEntity
  8
0
 62
1
100
AcDbPolyline
 90
2
 70
0
 10
234.387400
 20
50.006900
 30
0.0
 10
234.387400
 20
63.406900
 30
0.0
  0
LWPOLYLINE
  5
166
100
AcDbEntity
  8
0
 62
1
100
AcDbPolyline
 90
2
 70
0
 10
239.437400
 20
63.406900
 30
0.0
 10
239.437400
 20
50.006900
 30
0.0
  0
LWPOLYLINE
  5
167
100
AcDbEntity
  8
0
 62
1
100
AcDbPolyline
 90
2
 70
0
 10
239.737400
 20
49.706900
 30
0.0
 10
253.137400
 20
49.706900
 30
0.0
  0
LWPOLYLINE
  5
168
100
AcDbEntity
  8
0
 62
1
100
AcDbPolyline
 90
2
 70
0
 10
253.137400
 20
63.706900
 30
0.0
 10
239.737400
 20
63.706900
 30
0.0
  0
SPLINE
  5
169
100
AcDbEntity
  8
0
 62
1
100
AcDbSpline
 70
8
 71
3
 72
8
 73
4
 74
0
 40
0
 40
0
 40
0
 40
0
 40
1
 40
1
 40
1
 40
1
 10
239.737400
 20
63.706900
 30
0.0
 10
239.657835
 20
63.706900
 30
0.0
 10
239.581529
 20
63.675293
 30
0.0
 10
239.525268
 20
63.619032
 30
0.0
  0
SPLINE
  5
16a
100
AcDbEntity
  8
0
 62
1
100
AcDbSpline
 70
8
 71
3
 72
8
 73
4
 74
0
 40
0
 40
0
 40
0
 40
0
 40
1
 40
1
 40
1
 40
1
 10
239.525268
 20
63.619032
 30
0.0
 10
239.469007
 20
63.562771
 30
0.0
 10
239.437400
 20
63.486465
 30
0.0
 10
239.437400
 20
63.406900
 30
0.0
  0
SPLINE
  5
16b
100
AcDbEntity
  8
0
 62
1
100
AcDbSpline
 70
8
 71
3
 72
8
 73
4
 74
0
 40
0
 40
0
 40
0
 40
0
 40
1
 40
1
 40
1
 40
1
 10
239.437400
 20
50.006900
 30
0.0
 10
239.437400
 20
49.927335
 30
0.0
 10
239.469007
 20
49.851029
 30
0.0
 10
239.525268
 20
49.794768
 30
0.0
  0
SPLINE
  5
16c
100
AcDbEntity
  8
0
 62
1
100
AcDbSpline
 70
8
 71
3
 72
8
 73
4
 74
0
 40
0
 40
0
 40
0
 40
0
 40
1
 40
1
 40
1
 40
1
 10
239.525268
 20
49.794768
 30
0.0
 10
239.581529
 20
49.738507
 30
0.0
 10
239.657835
 20
49.706900
 30
0.0
 10
239.737400
 20
49.706900
 30
0.0
  0
SPLINE
  5
16d
100
AcDbEntity
  8
0
 62
1
100
AcDbSpline
 70
8
 71
3
 72
8
 73
4
 74
0
 40
0
 40
0
 40
0
 40
0
 40
1
 40
1
 40
1
 40
1
 10
253.437400
 20
63.406900
 30
0.0
 10
253.437400
 20
63.486465
 30
0.0
 10
253.405793
 20
63.562771
 30
0.0
 10
253.349532
 20
63.619032
 30
0.0
  0
SPLINE
  5
16e
100
AcDbEntity
  8
0
 62
1
100
AcDbSpline
 70
8
 71
3
 72
8
 73
4
 74
0
 40
0
 40
0
 40
0
 40
0
 40
1
 40
1
 40
1
 40
1
 10
253.349532
 20
63.619032
 30
0.0
 10
253.293271
 20
63.675293
 30
0.0
 10
253.216965
 20
63.706900
 30
0.0
 10
253.137400
 20
63.706900
 30
0.0
  0
SPLINE
  5
16f
100
AcDbEntity
  8
0
 62
1
100
AcDbSpline
 70
8
 71
3
 72
8
 73
4
 74
0
 40
0
 40
0
 40
0
 40
0
 40
1
 40
1
 40
1
 40
1
 10
253.137400
 20
49.706900
 30
0.0
 10
253.216965
 20
49.706900
 30
0.0
 10
253.293271
 20
49.738507
 30
0.0
 10
253.349532
 20
49.794768
 30
0.0
  0
SPLINE
  5
170
100
AcDbEntity
  8
0
 62
1
100
AcDbSpline
 70
8
 71
3
 72
8
 73
4
 74
0
 40
0
 40
0
 40
0
 40
0
 40
1
 40
1
 40
1
 40
1
 10
253.349532
 20
49.794768
 30
0.0
 10
253.405793
 20
49.851029
 30
0.0
 10
253.437400
 20
49.927335
 30
0.0
 10
253.437400
 20
50.006900
 30
0.0
  0
SPLINE
  5
171
100
AcDbEntity
  8
0
 62
1
100
AcDbSpline
 70
8
 71
3
 72
8
 73
4
 74
0
 40
0
 40
0
 40
0
 40
0
 40
1
 40
1
 40
1
 40
1
 10
228.387410
 20
43.181896
 30
0.0
 10
224.747250
 20
43.181896
 30
0.0
 10
221.465523
 20
40.989116
 30
0.0
 10
220.072494
 20
37.626047
 30
0.0
  0
SPLINE
  5
172
100
AcDbEntity
  8
0
 62
1
100
AcDbSpline
 70
8
 71
3
 72
8
 73
4
 74
0
 40
0
 40
0
 40
0
 40
0
 40
1
 40
1
 40
1
 40
1
 10
220.072494
 20
37.626047
 30
0.0
 10
218.679465
 20
34.262977
 30
0.0
 10
219.449467
 20
30.391917
 30
0.0
 10
222.023449
 20
27.817935
 30
0.0
  0
SPLINE
  5
173
100
AcDbEntity
  8
0
 62
1
100
AcDbSpline
 70
8
 71
3
 72
8
 73
4
 74
0
 40
0
 40
0
 40
0
 40
0
 40
1
 40
1
 40
1
 40
1
 10
222.023449
 20
27.817935
 30
0.0
 10
224.597431
 20
25.243953
 30
0.0
 10
228.468491
 20
24.473951
 30
0.0
 10
231.831561
 20
25.866980
 30
0.0
  0
SPLINE
  5
174
100
AcDbEntity
  8
0
 62
1
100
AcDbSpline
 70
8
 71
3
 72
8
 73
4
 74
0
 40
0
 40
0
 40
0
 40
0
 40
1
 40
1
 40
1
 40
1
 10
231.831561
 20
25.866980
 30
0.0
 10
235.194630
 20
27.260009
 30
0.0
 10
237.387410
 20
30.541736
 30
0.0
 10
237.387410
 20
34.181896
 30
0.0
  0
SPLINE
  5
175
100
AcDbEntity
  8
0
 62
1
100
AcDbSpline
 70
8
 71
3
 72
8
 73
4
 74
0
 40
0
 40
0
 40
0
 40
0
 40
1
 40
1
 40
1
 40
1
 10
237.387410
 20
34.181896
 30
0.0
 10
237.387410
 20
36.568844
 30
0.0
 10
236.439198
 20
38.858030
 30
0.0
 10
234.751371
 20
40.545857
 30
0.0
  0
SPLINE
  5
176
100
AcDbEntity
  8
0
 62
1
100
AcDbSpline
 70
8
 71
3
 72
8
 73
4
 74
0
 40
0
 40
0
 40
0
 40
0
 40
1
 40
1
 40
1
 40
1
 10
234.751371
 20
40.545857
 30
0.0
 10
233.063544
 20
42.233684
 30
0.0
 10
230.774358
 20
43.181896
 30
0.0
 10
228.387410
 20
43.181896
 30
0.0
  0
LWPOLYLINE
  5
177
100
AcDbEntity
  8
0
 62
1
100
AcDbPolyline
 90
2
 70
0
 10
253.437400
 20
50.006900
 30
0.0
 10
253.437400
 20
63.406900
 30
0.0
  0
LWPOLYLINE
  5
178
100
AcDbEntity
  8
0
 62
1
100
AcDbPolyline
 90
1
 70
1
 10
228.387410
 20
43.181896
 30
0.0
  0
LWPOLYLINE
  5
179
100
AcDbEntity
  8
0
 62
1
100
AcDbPolyline
 90
2
 70
0
 10
29.887400
 20
82.456900
 30
0.0
 10
29.887400
 20
69.056900
 30
0.0
  0
LWPOLYLINE
  5
17a
100
AcDbEntity
  8
0
 62
1
100
AcDbPolyline
 90
2
 70
0
 10
30.187400
 20
68.756900
 30
0.0
 10
43.587400
 20
68.756900
 30
0.0
  0
LWPOLYLINE
  5
17b
100
AcDbEntity
  8
0
 62
1
100
AcDbPolyline
 90
2
 70
0
 10
43.587400
 20
82.756900
 30
0.0
 10
30.187400
 20
82.756900
 30
0.0
  0
SPLINE
  5
17c
100
AcDbEntity
  8
0
 62
1
100
AcDbSpline
 70
8
 71
3
 72
8
 73
4
 74
0
 40
0
 40
0
 40
0
 40
0
 40
1
 40
1
 40
1
 40
1
 10
30.187400
 20
82.756900
 30
0.0
 10
30.107835
 20
82.756900
 30
0.0
 10
30.031529
 20
82.725293
 30
0.0
 10
29.975268
 20
82.669032
 30
0.0
  0
SPLINE
  5
17d
100
AcDbEntity
  8
0
 62
1
100
AcDbSpline
 70
8
 71
3
 72
8
 73
4
 74
0
 40
0
 40
0
 40
0
 40
0
 40
1
 40
1
 40
1
 40
1
 10
29.975268
 20
82.669032
 30
0.0
 10
29.919007
 20
82.612771
 30
0.0
 10
29.887400
 20
82.536465
 30
0.0
 10
29.887400
 20
82.456900
 30
0.0
  0
SPLINE
  5
17e
100
AcDbEntity
  8
0
 62
1
100
AcDbSpline
 70
8
 71
3
 72
8
 73
4
 74
0
 40
0
 40
0
 40
0
 40
0
 40
1
 40
1
 40
1
 40
1
 10
29.887400
 20
69.056900
 30
0.0
 10
29.887400
 20
68.977335
 30
0.0
 10
29.919007
 20
68.901029
 30
0.0
 10
29.975268
 20
68.844768
 30
0.0
  0
SPLINE
  5
17f
100
AcDbEntity
  8
0
 62
1
100
AcDbSpline
 70
8
 71
3
 72
8
 73
4
 74
0
 40
0
 40
0
 40
0
 40
0
 40
1
 40
1
 40
1
 40
1
 10
29.975268
 20
68.844768
 30
0.0
 10
30.031529
 20
68.788507
 30
0.0
 10
30.107835
 20
68.756900
 30
0.0
 10
30.187400
 20
68.756900
 30
0.0
  0
SPLINE
  5
180
100
AcDbEntity
  8
0
 62
1
100
AcDbSpline
 70
8
 71
3
 72
8
 73
4
 74
0
 40
0
 40
0
 40
0
 40
0
 40
1
 40
1
 40
1
 40
1
 10
43.887400
 20
82.456900
 30
0.0
 10
43.887400
 20
82.536465
 30
0.0
 10
43.855793
 20
82.612771
 30
0.0
 10
43.799532
 20
82.669032
 30
0.0
  0
SPLINE
  5
181
100
AcDbEntity
  8
0
 62
1
100
AcDbSpline
 70
8
 71
3
 72
8
 73
4
 74
0
 40
0
 40
0
 40
0
 40
0
 40
1
 40
1
 40
1
 40
1
 10
43.799532
 20
82.669032
 30
0.0
 10
43.743271
 20
82.725293
 30
0.0
 10
43.666965
 20
82.756900
 30
0.0
 10
43.587400
 20
82.756900
 30
0.0
  0
SPLINE
  5
182
100
AcDbEntity
  8
0
 62
1
100
AcDbSpline
 70
8
 71
3
 72
8
 73
4
 74
0
 40
0
 40
0
 40
0
 40
0
 40
1
 40
1
 40
1
 40
1
 10
43.587400
 20
68.756900
 30
0.0
 10
43.666965
 20
68.756900
 30
0.0
 10
43.743271
 20
68.788507
 30
0.0
 10
43.799532
 20
68.844768
 30
0.0
  0
SPLINE
  5
183
100
AcDbEntity
  8
0
 62
1
100
AcDbSpline
 70
8
 71
3
 72
8
 73
4
 74
0
 40
0
 40
0
 40
0
 40
0
 40
1
 40
1
 40
1
 40
1
 10
43.799532
 20
68.844768
 30
0.0
 10
43.855793
 20
68.901029
 30
0.0
 10
43.887400
 20
68.977335
 30
0.0
 10
43.887400
 20
69.056900
 30
0.0
  0
LWPOLYLINE
  5
184
100
AcDbEntity
  8
0
 62
1
100
AcDbPolyline
 90
2
 70
0
 10
43.887400
 20
69.056900
 30
0.0
 10
43.887400
 20
82.456900
 30
0.0
  0
LWPOLYLINE
  5
185
100
AcDbEntity
  8
0
 62
1
100
AcDbPolyline
 90
2
 70
0
 10
109.202200
 20
69.979900
 30
0.0
 10
104.048500
 20
57.610600
 30
0.0
  0
LWPOLYLINE
  5
186
100
AcDbEntity
  8
0
 62
1
100
AcDbPolyline
 90
2
 70
0
 10
104.210100
 20
57.218200
 30
0.0
 10
116.579400
 20
52.064600
 30
0.0
  0
LWPOLYLINE
  5
187
100
AcDbEntity
  8
0
 62
1
100
AcDbPolyline
 90
2
 70
0
 10
121.963800
 20
64.987700
 30
0.0
 10
109.594500
 20
70.141400
 30
0.0
  0
SPLINE
  5
188
100
AcDbEntity
  8
0
 62
1
100
AcDbSpline
 70
8
 71
3
 72
8
 73
4
 74
0
 40
0
 40
0
 40
0
 40
0
 40
1
 40
1
 40
1
 40
1
 10
109.594500
 20
70.141400
 30
0.0
 10
109.441572
 20
70.205124
 30
0.0
 10
109.265940
 20
70.132821
 30
0.0
 10
109.202200
 20
69.979900
 30
0.0
  0
SPLINE
  5
189
100
AcDbEntity
  8
0
 62
1
100
AcDbSpline
 70
8
 71
3
 72
8
 73
4
 74
0
 40
0
 40
0
 40
0
 40
0
 40
1
 40
1
 40
1
 40
1
 10
104.048500
 20
57.610600
 30
0.0
 10
104.017873
 20
57.537137
 30
0.0
 10
104.017694
 20
57.454514
 30
0.0
 10
104.048002
 20
57.380919
 30
0.0
  0
SPLINE
  5
18a
100
AcDbEntity
  8
0
 62
1
100
AcDbSpline
 70
8
 71
3
 72
8
 73
4
 74
0
 40
0
 40
0
 40
0
 40
0
 40
1
 40
1
 40
1
 40
1
 10
104.048002
 20
57.380919
 30
0.0
 10
104.078310
 20
57.307324
 30
0.0
 10
104.136621
 20
57.248790
 30
0.0
 10
104.210100
 20
57.218200
 30
0.0
  0
SPLINE
  5
18b
100
AcDbEntity
  8
0
 62
1
100
AcDbSpline
 70
8
 71
3
 72
8
 73
4
 74
0
 40
0
 40
0
 40
0
 40
0
 40
1
 40
1
 40
1
 40
1
 10
122.125300
 20
64.595400
 30
0.0
 10
122.189024
 20
64.748328
 30
0.0
 10
122.116721
 20
64.923960
 30
0.0
 10
121.963800
 20
64.987700
 30
0.0
  0
SPLINE
  5
18c
100
AcDbEntity
  8
0
 62
1
100
AcDbSpline
 70
8
 71
3
 72
8
 73
4
 74
0
 40
0
 40
0
 40
0
 40
0
 40
1
 40
1
 40
1
 40
1
 10
116.579400
 20
52.064600
 30
0.0
 10
116.732328
 20
52.000876
 30
0.0
 10
116.907960
 20
52.073179
 30
0.0
 10
116.971700
 20
52.226100
 30
0.0
  0
LWPOLYLINE
  5
18d
100
AcDbEntity
  8
0
 62
1
100
AcDbPolyline
 90
2
 70
0
 10
116.971700
 20
52.226100
 30
0.0
 10
122.125300
 20
64.595400
 30
0.0
  0
LWPOLYLINE
  5
18e
100
AcDbEntity
  8
0
 62
1
100
AcDbPolyline
 90
2
 70
0
 10
76.963400
 20
42.137600
 30
0.0
 10
71.809800
 20
29.768300
 30
0.0
  0
LWPOLYLINE
  5
18f
100
AcDbEntity
  8
0
 62
1
100
AcDbPolyline
 90
2
 70
0
 10
71.971300
 20
29.376000
 30
0.0
 10
84.340600
 20
24.222300
 30
0.0
  0
LWPOLYLINE
  5
190
100
AcDbEntity
  8
0
 62
1
100
AcDbPolyline
 90
2
 70
0
 10
89.725000
 20
37.145500
 30
0.0
 10
77.355700
 20
42.299200
 30
0.0
  0
SPLINE
  5
191
100
AcDbEntity
  8
0
 62
1
100
AcDbSpline
 70
8
 71
3
 72
8
 73
4
 74
0
 40
0
 40
0
 40
0
 40
0
 40
1
 40
1
 40
1
 40
1
 10
77.355700
 20
42.299200
 30
0.0
 10
77.282249
 20
42.329796
 30
0.0
 10
77.199651
 20
42.329959
 30
0.0
 10
77.126080
 20
42.299652
 30
0.0
  0
SPLINE
  5
192
100
AcDbEntity
  8
0
 62
1
100
AcDbSpline
 70
8
 71
3
 72
8
 73
4
 74
0
 40
0
 40
0
 40
0
 40
0
 40
1
 40
1
 40
1
 40
1
 10
77.126080
 20
42.299652
 30
0.0
 10
77.052508
 20
42.269346
 30
0.0
 10
76.993990
 20
42.211054
 30
0.0
 10
76.963400
 20
42.137600
 30
0.0
  0
SPLINE
  5
193
100
AcDbEntity
  8
0
 62
1
100
AcDbSpline
 70
8
 71
3
 72
8
 73
4
 74
0
 40
0
 40
0
 40
0
 40
0
 40
1
 40
1
 40
1
 40
1
 10
71.809800
 20
29.768300
 30
0.0
 10
71.746076
 20
29.615372
 30
0.0
 10
71.818379
 20
29.439740
 30
0.0
 10
71.971300
 20
29.376000
 30
0.0
  0
SPLINE
  5
194
100
AcDbEntity
  8
0
 62
1
100
AcDbSpline
 70
8
 71
3
 72
8
 73
4
 74
0
 40
0
 40
0
 40
0
 40
0
 40
1
 40
1
 40
1
 40
1
 10
89.886600
 20
36.753200
 30
0.0
 10
89.917196
 20
36.826651
 30
0.0
 10
89.917359
 20
36.909249
 30
0.0
 10
89.887052
 20
36.982820
 30
0.0
  0
SPLINE
  5
195
100
AcDbEntity
  8
0
 62
1
100
AcDbSpline
 70
8
 71
3
 72
8
 73
4
 74
0
 40
0
 40
0
 40
0
 40
0
 40
1
 40
1
 40
1
 40
1
 10
89.887052
 20
36.982820
 30
0.0
 10
89.856746
 20
37.056392
 30
0.0
 10
89.798454
 20
37.114910
 30
0.0
 10
89.725000
 20
37.145500
 30
0.0
  0
SPLINE
  5
196
100
AcDbEntity
  8
0
 62
1
100
AcDbSpline
 70
8
 71
3
 72
8
 73
4
 74
0
 40
0
 40
0
 40
0
 40
0
 40
1
 40
1
 40
1
 40
1
 10
84.340600
 20
24.222300
 30
0.0
 10
84.414051
 20
24.191704
 30
0.0
 10
84.496649
 20
24.191541
 30
0.0
 10
84.570220
 20
24.221848
 30
0.0
  0
SPLINE
  5
197
100
AcDbEntity
  8
0
 62
1
100
AcDbSpline
 70
8
 71
3
 72
8
 73
4
 74
0
 40
0
 40
0
 40
0
 40
0
 40
1
 40
1
 40
1
 40
1
 10
84.570220
 20
24.221848
 30
0.0
 10
84.643792
 20
24.252154
 30
0.0
 10
84.702310
 20
24.310446
 30
0.0
 10
84.732900
 20
24.383900
 30
0.0
  0
SPLINE
  5
198
100
AcDbEntity
  8
0
 62
1
100
AcDbSpline
 70
8
 71
3
 72
8
 73
4
 74
0
 40
0
 40
0
 40
0
 40
0
 40
1
 40
1
 40
1
 40
1
 10
126.834200
 20
41.591297
 30
0.0
 10
122.968207
 20
41.591297
 30
0.0
 10
119.834200
 20
38.457290
 30
0.0
 10
119.834200
 20
34.591297
 30
0.0
  0
SPLINE
  5
199
100
AcDbEntity
  8
0
 62
1
100
AcDbSpline
 70
8
 71
3
 72
8
 73
4
 74
0
 40
0
 40
0
 40
0
 40
0
 40
1
 40
1
 40
1
 40
1
 10
119.834200
 20
34.591297
 30
0.0
 10
119.834200
 20
30.725304
 30
0.0
 10
122.968207
 20
27.591297
 30
0.0
 10
126.834200
 20
27.591297
 30
0.0
  0
SPLINE
  5
19a
100
AcDbEntity
  8
0
 62
1
100
AcDbSpline
 70
8
 71
3
 72
8
 73
4
 74
0
 40
0
 40
0
 40
0
 40
0
 40
1
 40
1
 40
1
 40
1
 10
126.834200
 20
27.591297
 30
0.0
 10
130.700193
 20
27.591297
 30
0.0
 10
133.834200
 20
30.725304
 30
0.0
 10
133.834200
 20
34.591297
 30
0.0
  0
SPLINE
  5
19b
100
AcDbEntity
  8
0
 62
1
100
AcDbSpline
 70
8
 71
3
 72
8
 73
4
 74
0
 40
0
 40
0
 40
0
 40
0
 40
1
 40
1
 40
1
 40
1
 10
133.834200
 20
34.591297
 30
0.0
 10
133.834200
 20
36.447812
 30
0.0
 10
133.096702
 20
38.228290
 30
0.0
 10
131.783947
 20
39.541044
 30
0.0
  0
SPLINE
  5
19c
100
AcDbEntity
  8
0
 62
1
100
AcDbSpline
 70
8
 71
3
 72
8
 73
4
 74
0
 40
0
 40
0
 40
0
 40
0
 40
1
 40
1
 40
1
 40
1
 10
131.783947
 20
39.541044
 30
0.0
 10
130.471193
 20
40.853799
 30
0.0
 10
128.690715
 20
41.591297
 30
0.0
 10
126.834200
 20
41.591297
 30
0.0
  0
LWPOLYLINE
  5
19d
100
AcDbEntity
  8
0
 62
1
100
AcDbPolyline
 90
2
 70
0
 10
84.732900
 20
24.383900
 30
0.0
 10
89.886600
 20
36.753200
 30
0.0
  0
LWPOLYLINE
  5
19e
100
AcDbEntity
  8
0
 62
1
100
AcDbPolyline
 90
1
 70
1
 10
126.834200
 20
41.591297
 30
0.0
  0
LWPOLYLINE
  5
19f
100
AcDbEntity
  8
0
 62
1
100
AcDbPolyline
 90
2
 70
0
 10
113.011900
 20
89.029900
 30
0.0
 10
107.858200
 20
76.660600
 30
0.0
  0
LWPOLYLINE
  5
1a0
100
AcDbEntity
  8
0
 62
1
100
AcDbPolyline
 90
2
 70
0
 10
108.019800
 20
76.268300
 30
0.0
 10
120.389100
 20
71.114600
 30
0.0
  0
LWPOLYLINE
  5
1a1
100
AcDbEntity
  8
0
 62
1
100
AcDbPolyline
 90
2
 70
0
 10
125.773500
 20
84.037800
 30
0.0
 10
113.404200
 20
89.191500
 30
0.0
  0
SPLINE
  5
1a2
100
AcDbEntity
  8
0
 62
1
100
AcDbSpline
 70
8
 71
3
 72
8
 73
4
 74
0
 40
0
 40
0
 40
0
 40
0
 40
1
 40
1
 40
1
 40
1
 10
113.404200
 20
89.191500
 30
0.0
 10
113.330749
 20
89.222096
 30
0.0
 10
113.248151
 20
89.222259
 30
0.0
 10
113.174580
 20
89.191952
 30
0.0
  0
SPLINE
  5
1a3
100
AcDbEntity
  8
0
 62
1
100
AcDbSpline
 70
8
 71
3
 72
8
 73
4
 74
0
 40
0
 40
0
 40
0
 40
0
 40
1
 40
1
 40
1
 40
1
 10
113.174580
 20
89.191952
 30
0.0
 10
113.101008
 20
89.161646
 30
0.0
 10
113.042490
 20
89.103354
 30
0.0
 10
113.011900
 20
89.029900
 30
0.0
  0
SPLINE
  5
1a4
100
AcDbEntity
  8
0
 62
1
100
AcDbSpline
 70
8
 71
3
 72
8
 73
4
 74
0
 40
0
 40
0
 40
0
 40
0
 40
1
 40
1
 40
1
 40
1
 10
107.858200
 20
76.660600
 30
0.0
 10
107.827604
 20
76.587149
 30
0.0
 10
107.827441
 20
76.504551
 30
0.0
 10
107.857748
 20
76.430980
 30
0.0
  0
SPLINE
  5
1a5
100
AcDbEntity
  8
0
 62
1
100
AcDbSpline
 70
8
 71
3
 72
8
 73
4
 74
0
 40
0
 40
0
 40
0
 40
0
 40
1
 40
1
 40
1
 40
1
 10
107.857748
 20
76.430980
 30
0.0
 10
107.888054
 20
76.357408
 30
0.0
 10
107.946346
 20
76.298890
 30
0.0
 10
108.019800
 20
76.268300
 30
0.0
  0
SPLINE
  5
1a6
100
AcDbEntity
  8
0
 62
1
100
AcDbSpline
 70
8
 71
3
 72
8
 73
4
 74
0
 40
0
 40
0
 40
0
 40
0
 40
1
 40
1
 40
1
 40
1
 10
125.935000
 20
83.645500
 30
0.0
 10
125.998724
 20
83.798428
 30
0.0
 10
125.926421
 20
83.974060
 30
0.0
 10
125.773500
 20
84.037800
 30
0.0
  0
SPLINE
  5
1a7
100
AcDbEntity
  8
0
 62
1
100
AcDbSpline
 70
8
 71
3
 72
8
 73
4
 74
0
 40
0
 40
0
 40
0
 40
0
 40
1
 40
1
 40
1
 40
1
 10
120.389100
 20
71.114600
 30
0.0
 10
120.462551
 20
71.084004
 30
0.0
 10
120.545149
 20
71.083841
 30
0.0
 10
120.618720
 20
71.114148
 30
0.0
  0
SPLINE
  5
1a8
100
AcDbEntity
  8
0
 62
1
100
AcDbSpline
 70
8
 71
3
 72
8
 73
4
 74
0
 40
0
 40
0
 40
0
 40
0
 40
1
 40
1
 40
1
 40
1
 10
120.618720
 20
71.114148
 30
0.0
 10
120.692292
 20
71.144454
 30
0.0
 10
120.750810
 20
71.202746
 30
0.0
 10
120.781400
 20
71.276200
 30
0.0
  0
LWPOLYLINE
  5
1a9
100
AcDbEntity
  8
0
 62
1
100
AcDbPolyline
 90
2
 70
0
 10
120.781400
 20
71.276200
 30
0.0
 10
125.935000
 20
83.645500
 30
0.0
  0
LWPOLYLINE
  5
1aa
100
AcDbEntity
  8
0
 62
1
100
AcDbPolyline
 90
2
 70
0
 10
10.837400
 20
82.456900
 30
0.0
 10
10.837400
 20
69.056900
 30
0.0
  0
LWPOLYLINE
  5
1ab
100
AcDbEntity
  8
0
 62
1
100
AcDbPolyline
 90
2
 70
0
 10
11.137400
 20
68.756900
 30
0.0
 10
24.537400
 20
68.756900
 30
0.0
  0
LWPOLYLINE
  5
1ac
100
AcDbEntity
  8
0
 62
1
100
AcDbPolyline
 90
2
 70
0
 10
24.537400
 20
82.756900
 30
0.0
 10
11.137400
 20
82.756900
 30
0.0
  0
SPLINE
  5
1ad
100
AcDbEntity
  8
0
 62
1
100
AcDbSpline
 70
8
 71
3
 72
8
 73
4
 74
0
 40
0
 40
0
 40
0
 40
0
 40
1
 40
1
 40
1
 40
1
 10
11.137400
 20
82.756900
 30
0.0
 10
11.057835
 20
82.756900
 30
0.0
 10
10.981529
 20
82.725293
 30
0.0
 10
10.925268
 20
82.669032
 30
0.0
  0
SPLINE
  5
1ae
100
AcDbEntity
  8
0
 62
1
100
AcDbSpline
 70
8
 71
3
 72
8
 73
4
 74
0
 40
0
 40
0
 40
0
 40
0
 40
1
 40
1
 40
1
 40
1
 10
10.925268
 20
82.669032
 30
0.0
 10
10.869007
 20
82.612771
 30
0.0
 10
10.837400
 20
82.536465
 30
0.0
 10
10.837400
 20
82.456900
 30
0.0
  0
SPLINE
  5
1af
100
AcDbEntity
  8
0
 62
1
100
AcDbSpline
 70
8
 71
3
 72
8
 73
4
 74
0
 40
0
 40
0
 40
0
 40
0
 40
1
 40
1
 40
1
 40
1
 10
10.837400
 20
69.056900
 30
0.0
 10
10.837400
 20
68.977335
 30
0.0
 10
10.869007
 20
68.901029
 30
0.0
 10
10.925268
 20
68.844768
 30
0.0
  0
SPLINE
  5
1b0
100
AcDbEntity
  8
0
 62
1
100
AcDbSpline
 70
8
 71
3
 72
8
 73
4
 74
0
 40
0
 40
0
 40
0
 40
0
 40
1
 40
1
 40
1
 40
1
 10
10.925268
 20
68.844768
 30
0.0
 10
10.981529
 20
68.788507
 30
0.0
 10
11.057835
 20
68.756900
 30
0.0
 10
11.137400
 20
68.756900
 30
0.0
  0
SPLINE
  5
1b1
100
AcDbEntity
  8
0
 62
1
100
AcDbSpline
 70
8
 71
3
 72
8
 73
4
 74
0
 40
0
 40
0
 40
0
 40
0
 40
1
 40
1
 40
1
 40
1
 10
24.837400
 20
82.456900
 30
0.0
 10
24.837400
 20
82.536465
 30
0.0
 10
24.805793
 20
82.612771
 30
0.0
 10
24.749532
 20
82.669032
 30
0.0
  0
SPLINE
  5
1b2
100
AcDbEntity
  8
0
 62
1
100
AcDbSpline
 70
8
 71
3
 72
8
 73
4
 74
0
 40
0
 40
0
 40
0
 40
0
 40
1
 40
1
 40
1
 40
1
 10
24.749532
 20
82.669032
 30
0.0
 10
24.693271
 20
82.725293
 30
0.0
 10
24.616965
 20
82.756900
 30
0.0
 10
24.537400
 20
82.756900
 30
0.0
  0
SPLINE
  5
1b3
100
AcDbEntity
  8
0
 62
1
100
AcDbSpline
 70
8
 71
3
 72
8
 73
4
 74
0
 40
0
 40
0
 40
0
 40
0
 40
1
 40
1
 40
1
 40
1
 10
24.537400
 20
68.756900
 30
0.0
 10
24.616965
 20
68.756900
 30
0.0
 10
24.693271
 20
68.788507
 30
0.0
 10
24.749532
 20
68.844768
 30
0.0
  0
SPLINE
  5
1b4
100
AcDbEntity
  8
0
 62
1
100
AcDbSpline
 70
8
 71
3
 72
8
 73
4
 74
0
 40
0
 40
0
 40
0
 40
0
 40
1
 40
1
 40
1
 40
1
 10
24.749532
 20
68.844768
 30
0.0
 10
24.805793
 20
68.901029
 30
0.0
 10
24.837400
 20
68.977335
 30
0.0
 10
24.837400
 20
69.056900
 30
0.0
  0
LWPOLYLINE
  5
1b5
100
AcDbEntity
  8
0
 62
1
100
AcDbPolyline
 90
2
 70
0
 10
24.837400
 20
69.056900
 30
0.0
 10
24.837400
 20
82.456900
 30
0.0
  0
LWPOLYLINE
  5
1b6
100
AcDbEntity
  8
0
 62
1
100
AcDbPolyline
 90
2
 70
0
 10
91.617400
 20
77.306500
 30
0.0
 10
86.463800
 20
64.937200
 30
0.0
  0
LWPOLYLINE
  5
1b7
100
AcDbEntity
  8
0
 62
1
100
AcDbPolyline
 90
2
 70
0
 10
86.625300
 20
64.544900
 30
0.0
 10
98.994600
 20
59.391200
 30
0.0
  0
LWPOLYLINE
  5
1b8
100
AcDbEntity
  8
0
 62
1
100
AcDbPolyline
 90
2
 70
0
 10
104.379100
 20
72.314400
 30
0.0
 10
92.009700
 20
77.468100
 30
0.0
  0
SPLINE
  5
1b9
100
AcDbEntity
  8
0
 62
1
100
AcDbSpline
 70
8
 71
3
 72
8
 73
4
 74
0
 40
0
 40
0
 40
0
 40
0
 40
1
 40
1
 40
1
 40
1
 10
92.009700
 20
77.468100
 30
0.0
 10
91.936249
 20
77.498696
 30
0.0
 10
91.853651
 20
77.498859
 30
0.0
 10
91.780080
 20
77.468552
 30
0.0
  0
SPLINE
  5
1ba
100
AcDbEntity
  8
0
 62
1
100
AcDbSpline
 70
8
 71
3
 72
8
 73
4
 74
0
 40
0
 40
0
 40
0
 40
0
 40
1
 40
1
 40
1
 40
1
 10
91.780080
 20
77.468552
 30
0.0
 10
91.706508
 20
77.438246
 30
0.0
 10
91.647990
 20
77.379954
 30
0.0
 10
91.617400
 20
77.306500
 30
0.0
  0
SPLINE
  5
1bb
100
AcDbEntity
  8
0
 62
1
100
AcDbSpline
 70
8
 71
3
 72
8
 73
4
 74
0
 40
0
 40
0
 40
0
 40
0
 40
1
 40
1
 40
1
 40
1
 10
86.463800
 20
64.937200
 30
0.0
 10
86.400076
 20
64.784272
 30
0.0
 10
86.472379
 20
64.608640
 30
0.0
 10
86.625300
 20
64.544900
 30
0.0
  0
SPLINE
  5
1bc
100
AcDbEntity
  8
0
 62
1
100
AcDbSpline
 70
8
 71
3
 72
8
 73
4
 74
0
 40
0
 40
0
 40
0
 40
0
 40
1
 40
1
 40
1
 40
1
 10
104.540600
 20
71.922100
 30
0.0
 10
104.604324
 20
72.075028
 30
0.0
 10
104.532021
 20
72.250660
 30
0.0
 10
104.379100
 20
72.314400
 30
0.0
  0
SPLINE
  5
1bd
100
AcDbEntity
  8
0
 62
1
100
AcDbSpline
 70
8
 71
3
 72
8
 73
4
 74
0
 40
0
 40
0
 40
0
 40
0
 40
1
 40
1
 40
1
 40
1
 10
98.994600
 20
59.391200
 30
0.0
 10
99.068051
 20
59.360604
 30
0.0
 10
99.150649
 20
59.360441
 30
0.0
 10
99.224220
 20
59.390748
 30
0.0
  0
SPLINE
  5
1be
100
AcDbEntity
  8
0
 62
1
100
AcDbSpline
 70
8
 71
3
 72
8
 73
4
 74
0
 40
0
 40
0
 40
0
 40
0
 40
1
 40
1
 40
1
 40
1
 10
99.224220
 20
59.390748
 30
0.0
 10
99.297792
 20
59.421054
 30
0.0
 10
99.356310
 20
59.479346
 30
0.0
 10
99.386900
 20
59.552800
 30
0.0
  0
LWPOLYLINE
  5
1bf
100
AcDbEntity
  8
0
 62
1
100
AcDbPolyline
 90
2
 70
0
 10
99.386900
 20
59.552800
 30
0.0
 10
104.540600
 20
71.922100
 30
0.0
  0
LWPOLYLINE
  5
1c0
100
AcDbEntity
  8
0
 62
1
100
AcDbPolyline
 90
2
 70
0
 10
188.749200
 20
98.298800
 30
0.0
 10
193.902900
 20
85.929500
 30
0.0
  0
LWPOLYLINE
  5
1c1
100
AcDbEntity
  8
0
 62
1
100
AcDbPolyline
 90
2
 70
0
 10
194.295200
 20
85.768000
 30
0.0
 10
206.664500
 20
90.921600
 30
0.0
  0
LWPOLYLINE
  5
1c2
100
AcDbEntity
  8
0
 62
1
100
AcDbPolyline
 90
2
 70
0
 10
201.280100
 20
103.844800
 30
0.0
 10
188.910800
 20
98.691100
 30
0.0
  0
SPLINE
  5
1c3
100
AcDbEntity
  8
0
 62
1
100
AcDbSpline
 70
8
 71
3
 72
8
 73
4
 74
0
 40
0
 40
0
 40
0
 40
0
 40
1
 40
1
 40
1
 40
1
 10
188.910800
 20
98.691100
 30
0.0
 10
188.837346
 20
98.660510
 30
0.0
 10
188.779054
 20
98.601992
 30
0.0
 10
188.748748
 20
98.528420
 30
0.0
  0
SPLINE
  5
1c4
100
AcDbEntity
  8
0
 62
1
100
AcDbSpline
 70
8
 71
3
 72
8
 73
4
 74
0
 40
0
 40
0
 40
0
 40
0
 40
1
 40
1
 40
1
 40
1
 10
188.748748
 20
98.528420
 30
0.0
 10
188.718441
 20
98.454849
 30
0.0
 10
188.718604
 20
98.372251
 30
0.0
 10
188.749200
 20
98.298800
 30
0.0
  0
SPLINE
  5
1c5
100
AcDbEntity
  8
0
 62
1
100
AcDbSpline
 70
8
 71
3
 72
8
 73
4
 74
0
 40
0
 40
0
 40
0
 40
0
 40
1
 40
1
 40
1
 40
1
 10
193.902900
 20
85.929500
 30
0.0
 10
193.966640
 20
85.776579
 30
0.0
 10
194.142272
 20
85.704276
 30
0.0
 10
194.295200
 20
85.768000
 30
0.0
  0
SPLINE
  5
1c6
100
AcDbEntity
  8
0
 62
1
100
AcDbSpline
 70
8
 71
3
 72
8
 73
4
 74
0
 40
0
 40
0
 40
0
 40
0
 40
1
 40
1
 40
1
 40
1
 10
201.672400
 20
103.683200
 30
0.0
 10
201.641810
 20
103.756654
 30
0.0
 10
201.583292
 20
103.814946
 30
0.0
 10
201.509720
 20
103.845252
 30
0.0
  0
SPLINE
  5
1c7
100
AcDbEntity
  8
0
 62
1
100
AcDbSpline
 70
8
 71
3
 72
8
 73
4
 74
0
 40
0
 40
0
 40
0
 40
0
 40
1
 40
1
 40
1
 40
1
 10
201.509720
 20
103.845252
 30
0.0
 10
201.436149
 20
103.875559
 30
0.0
 10
201.353551
 20
103.875396
 30
0.0
 10
201.280100
 20
103.844800
 30
0.0
  0
SPLINE
  5
1c8
100
AcDbEntity
  8
0
 62
1
100
AcDbSpline
 70
8
 71
3
 72
8
 73
4
 74
0
 40
0
 40
0
 40
0
 40
0
 40
1
 40
1
 40
1
 40
1
 10
206.664500
 20
90.921600
 30
0.0
 10
206.817421
 20
90.985340
 30
0.0
 10
206.889724
 20
91.160972
 30
0.0
 10
206.826000
 20
91.313900
 30
0.0
  0
SPLINE
  5
1c9
100
AcDbEntity
  8
0
 62
1
100
AcDbSpline
 70
8
 71
3
 72
8
 73
4
 74
0
 40
0
 40
0
 40
0
 40
0
 40
1
 40
1
 40
1
 40
1
 10
99.162804
 20
104.093800
 30
0.0
 10
98.717896
 20
104.093800
 30
0.0
 10
98.316796
 20
103.825794
 30
0.0
 10
98.146537
 20
103.414752
 30
0.0
  0
SPLINE
  5
1ca
100
AcDbEntity
  8
0
 62
1
100
AcDbSpline
 70
8
 71
3
 72
8
 73
4
 74
0
 40
0
 40
0
 40
0
 40
0
 40
1
 40
1
 40
1
 40
1
 10
98.146537
 20
103.414752
 30
0.0
 10
97.976277
 20
103.003710
 30
0.0
 10
98.070389
 20
102.530580
 30
0.0
 10
98.384987
 20
102.215982
 30
0.0
  0
SPLINE
  5
1cb
100
AcDbEntity
  8
0
 62
1
100
AcDbSpline
 70
8
 71
3
 72
8
 73
4
 74
0
 40
0
 40
0
 40
0
 40
0
 40
1
 40
1
 40
1
 40
1
 10
98.384987
 20
102.215982
 30
0.0
 10
98.699584
 20
101.901385
 30
0.0
 10
99.172714
 20
101.807273
 30
0.0
 10
99.583756
 20
101.977532
 30
0.0
  0
SPLINE
  5
1cc
100
AcDbEntity
  8
0
 62
1
100
AcDbSpline
 70
8
 71
3
 72
8
 73
4
 74
0
 40
0
 40
0
 40
0
 40
0
 40
1
 40
1
 40
1
 40
1
 10
99.583756
 20
101.977532
 30
0.0
 10
99.994798
 20
102.147792
 30
0.0
 10
100.262804
 20
102.548891
 30
0.0
 10
100.262804
 20
102.993800
 30
0.0
  0
SPLINE
  5
1cd
100
AcDbEntity
  8
0
 62
1
100
AcDbSpline
 70
8
 71
3
 72
8
 73
4
 74
0
 40
0
 40
0
 40
0
 40
0
 40
1
 40
1
 40
1
 40
1
 10
100.262804
 20
102.993800
 30
0.0
 10
100.262804
 20
103.285538
 30
0.0
 10
100.146911
 20
103.565327
 30
0.0
 10
99.940621
 20
103.771617
 30
0.0
  0
SPLINE
  5
1ce
100
AcDbEntity
  8
0
 62
1
100
AcDbSpline
 70
8
 71
3
 72
8
 73
4
 74
0
 40
0
 40
0
 40
0
 40
0
 40
1
 40
1
 40
1
 40
1
 10
99.940621
 20
103.771617
 30
0.0
 10
99.734331
 20
103.977907
 30
0.0
 10
99.454542
 20
104.093800
 30
0.0
 10
99.162804
 20
104.093800
 30
0.0
  0
LWPOLYLINE
  5
1cf
100
AcDbEntity
  8
0
 62
1
100
AcDbPolyline
 90
2
 70
0
 10
206.826000
 20
91.313900
 30
0.0
 10
201.672400
 20
103.683200
 30
0.0
  0
LWPOLYLINE
  5
1d0
100
AcDbEntity
  8
0
 62
1
100
AcDbPolyline
 90
1
 70
1
 10
99.162804
 20
104.093800
 30
0.0
  0
LWPOLYLINE
  5
1d1
100
AcDbEntity
  8
0
 62
1
100
AcDbPolyline
 90
2
 70
0
 10
231.817400
 20
101.506900
 30
0.0
 10
231.817400
 20
88.106900
 30
0.0
  0
LWPOLYLINE
  5
1d2
100
AcDbEntity
  8
0
 62
1
100
AcDbPolyline
 90
2
 70
0
 10
232.117400
 20
87.806900
 30
0.0
 10
245.517400
 20
87.806900
 30
0.0
  0
LWPOLYLINE
  5
1d3
100
AcDbEntity
  8
0
 62
1
100
AcDbPolyline
 90
2
 70
0
 10
245.517400
 20
101.806900
 30
0.0
 10
232.117400
 20
101.806900
 30
0.0
  0
SPLINE
  5
1d4
100
AcDbEntity
  8
0
 62
1
100
AcDbSpline
 70
8
 71
3
 72
8
 73
4
 74
0
 40
0
 40
0
 40
0
 40
0
 40
1
 40
1
 40
1
 40
1
 10
232.117400
 20
101.806900
 30
0.0
 10
232.037835
 20
101.806900
 30
0.0
 10
231.961529
 20
101.775293
 30
0.0
 10
231.905268
 20
101.719032
 30
0.0
  0
SPLINE
  5
1d5
100
AcDbEntity
  8
0
 62
1
100
AcDbSpline
 70
8
 71
3
 72
8
 73
4
 74
0
 40
0
 40
0
 40
0
 40
0
 40
1
 40
1
 40
1
 40
1
 10
231.905268
 20
101.719032
 30
0.0
 10
231.849007
 20
101.662771
 30
0.0
 10
231.817400
 20
101.586465
 30
0.0
 10
231.817400
 20
101.506900
 30
0.0
  0
SPLINE
  5
1d6
100
AcDbEntity
  8
0
 62
1
100
AcDbSpline
 70
8
 71
3
 72
8
 73
4
 74
0
 40
0
 40
0
 40
0
 40
0
 40
1
 40
1
 40
1
 40
1
 10
231.817400
 20
88.106900
 30
0.0
 10
231.817400
 20
88.027335
 30
0.0
 10
231.849007
 20
87.951029
 30
0.0
 10
231.905268
 20
87.894768
 30
0.0
  0
SPLINE
  5
1d7
100
AcDbEntity
  8
0
 62
1
100
AcDbSpline
 70
8
 71
3
 72
8
 73
4
 74
0
 40
0
 40
0
 40
0
 40
0
 40
1
 40
1
 40
1
 40
1
 10
231.905268
 20
87.894768
 30
0.0
 10
231.961529
 20
87.838507
 30
0.0
 10
232.037835
 20
87.806900
 30
0.0
 10
232.117400
 20
87.806900
 30
0.0
  0
SPLINE
  5
1d8
100
AcDbEntity
  8
0
 62
1
100
AcDbSpline
 70
8
 71
3
 72
8
 73
4
 74
0
 40
0
 40
0
 40
0
 40
0
 40
1
 40
1
 40
1
 40
1
 10
245.817400
 20
101.506900
 30
0.0
 10
245.817400
 20
101.586465
 30
0.0
 10
245.785793
 20
101.662771
 30
0.0
 10
245.729532
 20
101.719032
 30
0.0
  0
SPLINE
  5
1d9
100
AcDbEntity
  8
0
 62
1
100
AcDbSpline
 70
8
 71
3
 72
8
 73
4
 74
0
 40
0
 40
0
 40
0
 40
0
 40
1
 40
1
 40
1
 40
1
 10
245.729532
 20
101.719032
 30
0.0
 10
245.673271
 20
101.775293
 30
0.0
 10
245.596965
 20
101.806900
 30
0.0
 10
245.517400
 20
101.806900
 30
0.0
  0
SPLINE
  5
1da
100
AcDbEntity
  8
0
 62
1
100
AcDbSpline
 70
8
 71
3
 72
8
 73
4
 74
0
 40
0
 40
0
 40
0
 40
0
 40
1
 40
1
 40
1
 40
1
 10
245.517400
 20
87.806900
 30
0.0
 10
245.596965
 20
87.806900
 30
0.0
 10
245.673271
 20
87.838507
 30
0.0
 10
245.729532
 20
87.894768
 30
0.0
  0
SPLINE
  5
1db
100
AcDbEntity
  8
0
 62
1
100
AcDbSpline
 70
8
 71
3
 72
8
 73
4
 74
0
 40
0
 40
0
 40
0
 40
0
 40
1
 40
1
 40
1
 40
1
 10
245.729532
 20
87.894768
 30
0.0
 10
245.785793
 20
87.951029
 30
0.0
 10
245.817400
 20
88.027335
 30
0.0
 10
245.817400
 20
88.106900
 30
0.0
  0
LWPOLYLINE
  5
1dc
100
AcDbEntity
  8
0
 62
1
100
AcDbPolyline
 90
2
 70
0
 10
245.817400
 20
88.106900
 30
0.0
 10
245.817400
 20
101.506900
 30
0.0
  0
LWPOLYLINE
  5
1dd
100
AcDbEntity
  8
0
 62
1
100
AcDbPolyline
 90
2
 70
0
 10
105.392500
 20
50.929800
 30
0.0
 10
100.238800
 20
38.560500
 30
0.0
  0
LWPOLYLINE
  5
1de
100
AcDbEntity
  8
0
 62
1
100
AcDbPolyline
 90
2
 70
0
 10
100.400300
 20
38.168200
 30
0.0
 10
112.769600
 20
33.014500
 30
0.0
  0
LWPOLYLINE
  5
1df
100
AcDbEntity
  8
0
 62
1
100
AcDbPolyline
 90
2
 70
0
 10
118.154100
 20
45.937700
 30
0.0
 10
105.784800
 20
51.091300
 30
0.0
  0
SPLINE
  5
1e0
100
AcDbEntity
  8
0
 62
1
100
AcDbSpline
 70
8
 71
3
 72
8
 73
4
 74
0
 40
0
 40
0
 40
0
 40
0
 40
1
 40
1
 40
1
 40
1
 10
105.784800
 20
51.091300
 30
0.0
 10
105.631872
 20
51.155024
 30
0.0
 10
105.456240
 20
51.082721
 30
0.0
 10
105.392500
 20
50.929800
 30
0.0
  0
SPLINE
  5
1e1
100
AcDbEntity
  8
0
 62
1
100
AcDbSpline
 70
8
 71
3
 72
8
 73
4
 74
0
 40
0
 40
0
 40
0
 40
0
 40
1
 40
1
 40
1
 40
1
 10
100.238800
 20
38.560500
 30
0.0
 10
100.175076
 20
38.407572
 30
0.0
 10
100.247379
 20
38.231940
 30
0.0
 10
100.400300
 20
38.168200
 30
0.0
  0
SPLINE
  5
1e2
100
AcDbEntity
  8
0
 62
1
100
AcDbSpline
 70
8
 71
3
 72
8
 73
4
 74
0
 40
0
 40
0
 40
0
 40
0
 40
1
 40
1
 40
1
 40
1
 10
118.315600
 20
45.545400
 30
0.0
 10
118.379324
 20
45.698328
 30
0.0
 10
118.307021
 20
45.873960
 30
0.0
 10
118.154100
 20
45.937700
 30
0.0
  0
SPLINE
  5
1e3
100
AcDbEntity
  8
0
 62
1
100
AcDbSpline
 70
8
 71
3
 72
8
 73
4
 74
0
 40
0
 40
0
 40
0
 40
0
 40
1
 40
1
 40
1
 40
1
 10
112.769600
 20
33.014500
 30
0.0
 10
112.843063
 20
32.983873
 30
0.0
 10
112.925686
 20
32.983694
 30
0.0
 10
112.999281
 20
33.014002
 30
0.0
  0
SPLINE
  5
1e4
100
AcDbEntity
  8
0
 62
1
100
AcDbSpline
 70
8
 71
3
 72
8
 73
4
 74
0
 40
0
 40
0
 40
0
 40
0
 40
1
 40
1
 40
1
 40
1
 10
112.999281
 20
33.014002
 30
0.0
 10
113.072876
 20
33.044310
 30
0.0
 10
113.131410
 20
33.102621
 30
0.0
 10
113.162000
 20
33.176100
 30
0.0
  0
LWPOLYLINE
  5
1e5
100
AcDbEntity
  8
0
 62
1
100
AcDbPolyline
 90
2
 70
0
 10
113.162000
 20
33.176100
 30
0.0
 10
118.315600
 20
45.545400
 30
0.0
  0
LWPOLYLINE
  5
1e6
100
AcDbEntity
  8
0
 62
1
100
AcDbPolyline
 90
2
 70
0
 10
172.043500
 20
29.426500
 30
0.0
 10
177.197200
 20
17.057200
 30
0.0
  0
LWPOLYLINE
  5
1e7
100
AcDbEntity
  8
0
 62
1
100
AcDbPolyline
 90
2
 70
0
 10
177.589500
 20
16.895700
 30
0.0
 10
189.958800
 20
22.049300
 30
0.0
  0
LWPOLYLINE
  5
1e8
100
AcDbEntity
  8
0
 62
1
100
AcDbPolyline
 90
2
 70
0
 10
184.574300
 20
34.972500
 30
0.0
 10
172.205000
 20
29.818800
 30
0.0
  0
SPLINE
  5
1e9
100
AcDbEntity
  8
0
 62
1
100
AcDbSpline
 70
8
 71
3
 72
8
 73
4
 74
0
 40
0
 40
0
 40
0
 40
0
 40
1
 40
1
 40
1
 40
1
 10
172.205000
 20
29.818800
 30
0.0
 10
172.052079
 20
29.755060
 30
0.0
 10
171.979776
 20
29.579428
 30
0.0
 10
172.043500
 20
29.426500
 30
0.0
  0
SPLINE
  5
1ea
100
AcDbEntity
  8
0
 62
1
100
AcDbSpline
 70
8
 71
3
 72
8
 73
4
 74
0
 40
0
 40
0
 40
0
 40
0
 40
1
 40
1
 40
1
 40
1
 10
177.197200
 20
17.057200
 30
0.0
 10
177.260940
 20
16.904279
 30
0.0
 10
177.436572
 20
16.831976
 30
0.0
 10
177.589500
 20
16.895700
 30
0.0
  0
SPLINE
  5
1eb
100
AcDbEntity
  8
0
 62
1
100
AcDbSpline
 70
8
 71
3
 72
8
 73
4
 74
0
 40
0
 40
0
 40
0
 40
0
 40
1
 40
1
 40
1
 40
1
 10
184.966700
 20
34.811000
 30
0.0
 10
184.936091
 20
34.884461
 30
0.0
 10
184.877549
 20
34.942749
 30
0.0
 10
184.803956
 20
34.973038
 30
0.0
  0
SPLINE
  5
1ec
100
AcDbEntity
  8
0
 62
1
100
AcDbSpline
 70
8
 71
3
 72
8
 73
4
 74
0
 40
0
 40
0
 40
0
 40
0
 40
1
 40
1
 40
1
 40
1
 10
184.803956
 20
34.973038
 30
0.0
 10
184.730363
 20
35.003327
 30
0.0
 10
184.647750
 20
35.003133
 30
0.0
 10
184.574300
 20
34.972500
 30
0.0
  0
SPLINE
  5
1ed
100
AcDbEntity
  8
0
 62
1
100
AcDbSpline
 70
8
 71
3
 72
8
 73
4
 74
0
 40
0
 40
0
 40
0
 40
0
 40
1
 40
1
 40
1
 40
1
 10
189.958800
 20
22.049300
 30
0.0
 10
190.111721
 20
22.113040
 30
0.0
 10
190.184024
 20
22.288672
 30
0.0
 10
190.120300
 20
22.441600
 30
0.0
  0
LWPOLYLINE
  5
1ee
100
AcDbEntity
  8
0
 62
1
100
AcDbPolyline
 90
2
 70
0
 10
190.120300
 20
22.441600
 30
0.0
 10
184.966700
 20
34.811000
 30
0.0
  0
LWPOLYLINE
  5
1ef
100
AcDbEntity
  8
0
 62
1
100
AcDbPolyline
 90
2
 70
0
 10
192.558900
 20
79.248800
 30
0.0
 10
197.712600
 20
66.879400
 30
0.0
  0
LWPOLYLINE
  5
1f0
100
AcDbEntity
  8
0
 62
1
100
AcDbPolyline
 90
2
 70
0
 10
198.104900
 20
66.717900
 30
0.0
 10
210.474200
 20
71.871600
 30
0.0
  0
LWPOLYLINE
  5
1f1
100
AcDbEntity
  8
0
 62
1
100
AcDbPolyline
 90
2
 70
0
 10
205.089800
 20
84.794700
 30
0.0
 10
192.720500
 20
79.641100
 30
0.0
  0
SPLINE
  5
1f2
100
AcDbEntity
  8
0
 62
1
100
AcDbSpline
 70
8
 71
3
 72
8
 73
4
 74
0
 40
0
 40
0
 40
0
 40
0
 40
1
 40
1
 40
1
 40
1
 10
192.720500
 20
79.641100
 30
0.0
 10
192.647046
 20
79.610510
 30
0.0
 10
192.588754
 20
79.551992
 30
0.0
 10
192.558448
 20
79.478420
 30
0.0
  0
SPLINE
  5
1f3
100
AcDbEntity
  8
0
 62
1
100
AcDbSpline
 70
8
 71
3
 72
8
 73
4
 74
0
 40
0
 40
0
 40
0
 40
0
 40
1
 40
1
 40
1
 40
1
 10
192.558448
 20
79.478420
 30
0.0
 10
192.528141
 20
79.404849
 30
0.0
 10
192.528304
 20
79.322251
 30
0.0
 10
192.558900
 20
79.248800
 30
0.0
  0
SPLINE
  5
1f4
100
AcDbEntity
  8
0
 62
1
100
AcDbSpline
 70
8
 71
3
 72
8
 73
4
 74
0
 40
0
 40
0
 40
0
 40
0
 40
1
 40
1
 40
1
 40
1
 10
197.712600
 20
66.879400
 30
0.0
 10
197.776340
 20
66.726479
 30
0.0
 10
197.951972
 20
66.654176
 30
0.0
 10
198.104900
 20
66.717900
 30
0.0
  0
SPLINE
  5
1f5
100
AcDbEntity
  8
0
 62
1
100
AcDbSpline
 70
8
 71
3
 72
8
 73
4
 74
0
 40
0
 40
0
 40
0
 40
0
 40
1
 40
1
 40
1
 40
1
 10
205.482100
 20
84.633200
 30
0.0
 10
205.418360
 20
84.786121
 30
0.0
 10
205.242728
 20
84.858424
 30
0.0
 10
205.089800
 20
84.794700
 30
0.0
  0
SPLINE
  5
1f6
100
AcDbEntity
  8
0
 62
1
100
AcDbSpline
 70
8
 71
3
 72
8
 73
4
 74
0
 40
0
 40
0
 40
0
 40
0
 40
1
 40
1
 40
1
 40
1
 10
210.474200
 20
71.871600
 30
0.0
 10
210.627121
 20
71.935340
 30
0.0
 10
210.699424
 20
72.110972
 30
0.0
 10
210.635700
 20
72.263900
 30
0.0
  0
SPLINE
  5
1f7
100
AcDbEntity
  8
0
 62
1
100
AcDbSpline
 70
8
 71
3
 72
8
 73
4
 74
0
 40
0
 40
0
 40
0
 40
0
 40
1
 40
1
 40
1
 40
1
 10
169.272800
 20
27.084699
 30
0.0
 10
168.827892
 20
27.084699
 30
0.0
 10
168.426792
 20
26.816693
 30
0.0
 10
168.256533
 20
26.405651
 30
0.0
  0
SPLINE
  5
1f8
100
AcDbEntity
  8
0
 62
1
100
AcDbSpline
 70
8
 71
3
 72
8
 73
4
 74
0
 40
0
 40
0
 40
0
 40
0
 40
1
 40
1
 40
1
 40
1
 10
168.256533
 20
26.405651
 30
0.0
 10
168.086273
 20
25.994609
 30
0.0
 10
168.180385
 20
25.521479
 30
0.0
 10
168.494983
 20
25.206882
 30
0.0
  0
SPLINE
  5
1f9
100
AcDbEntity
  8
0
 62
1
100
AcDbSpline
 70
8
 71
3
 72
8
 73
4
 74
0
 40
0
 40
0
 40
0
 40
0
 40
1
 40
1
 40
1
 40
1
 10
168.494983
 20
25.206882
 30
0.0
 10
168.809580
 20
24.892284
 30
0.0
 10
169.282710
 20
24.798172
 30
0.0
 10
169.693752
 20
24.968432
 30
0.0
  0
SPLINE
  5
1fa
100
AcDbEntity
  8
0
 62
1
100
AcDbSpline
 70
8
 71
3
 72
8
 73
4
 74
0
 40
0
 40
0
 40
0
 40
0
 40
1
 40
1
 40
1
 40
1
 10
169.693752
 20
24.968432
 30
0.0
 10
170.104794
 20
25.138691
 30
0.0
 10
170.372800
 20
25.539791
 30
0.0
 10
170.372800
 20
25.984699
 30
0.0
  0
SPLINE
  5
1fb
100
AcDbEntity
  8
0
 62
1
100
AcDbSpline
 70
8
 71
3
 72
8
 73
4
 74
0
 40
0
 40
0
 40
0
 40
0
 40
1
 40
1
 40
1
 40
1
 10
170.372800
 20
25.984699
 30
0.0
 10
170.372800
 20
26.276437
 30
0.0
 10
170.256907
 20
26.556226
 30
0.0
 10
170.050617
 20
26.762516
 30
0.0
  0
SPLINE
  5
1fc
100
AcDbEntity
  8
0
 62
1
100
AcDbSpline
 70
8
 71
3
 72
8
 73
4
 74
0
 40
0
 40
0
 40
0
 40
0
 40
1
 40
1
 40
1
 40
1
 10
170.050617
 20
26.762516
 30
0.0
 10
169.844327
 20
26.968806
 30
0.0
 10
169.564538
 20
27.084699
 30
0.0
 10
169.272800
 20
27.084699
 30
0.0
  0
LWPOLYLINE
  5
1fd
100
AcDbEntity
  8
0
 62
1
100
AcDbPolyline
 90
2
 70
0
 10
210.635700
 20
72.263900
 30
0.0
 10
205.482100
 20
84.633200
 30
0.0
  0
LWPOLYLINE
  5
1fe
100
AcDbEntity
  8
0
 62
1
100
AcDbPolyline
 90
1
 70
1
 10
169.272800
 20
27.084699
 30
0.0
  0
LWPOLYLINE
  5
1ff
100
AcDbEntity
  8
0
 62
1
100
AcDbPolyline
 90
2
 70
0
 10
250.867400
 20
101.506900
 30
0.0
 10
250.867400
 20
88.106900
 30
0.0
  0
LWPOLYLINE
  5
200
100
AcDbEntity
  8
0
 62
1
100
AcDbPolyline
 90
2
 70
0
 10
251.167400
 20
87.806900
 30
0.0
 10
264.567400
 20
87.806900
 30
0.0
  0
LWPOLYLINE
  5
201
100
AcDbEntity
  8
0
 62
1
100
AcDbPolyline
 90
2
 70
0
 10
264.567400
 20
101.806900
 30
0.0
 10
251.167400
 20
101.806900
 30
0.0
  0
SPLINE
  5
202
100
AcDbEntity
  8
0
 62
1
100
AcDbSpline
 70
8
 71
3
 72
8
 73
4
 74
0
 40
0
 40
0
 40
0
 40
0
 40
1
 40
1
 40
1
 40
1
 10
251.167400
 20
101.806900
 30
0.0
 10
251.087835
 20
101.806900
 30
0.0
 10
251.011529
 20
101.775293
 30
0.0
 10
250.955268
 20
101.719032
 30
0.0
  0
SPLINE
  5
203
100
AcDbEntity
  8
0
 62
1
100
AcDbSpline
 70
8
 71
3
 72
8
 73
4
 74
0
 40
0
 40
0
 40
0
 40
0
 40
1
 40
1
 40
1
 40
1
 10
250.955268
 20
101.719032
 30
0.0
 10
250.899007
 20
101.662771
 30
0.0
 10
250.867400
 20
101.586465
 30
0.0
 10
250.867400
 20
101.506900
 30
0.0
  0
SPLINE
  5
204
100
AcDbEntity
  8
0
 62
1
100
AcDbSpline
 70
8
 71
3
 72
8
 73
4
 74
0
 40
0
 40
0
 40
0
 40
0
 40
1
 40
1
 40
1
 40
1
 10
250.867400
 20
88.106900
 30
0.0
 10
250.867400
 20
88.027335
 30
0.0
 10
250.899007
 20
87.951029
 30
0.0
 10
250.955268
 20
87.894768
 30
0.0
  0
SPLINE
  5
205
100
AcDbEntity
  8
0
 62
1
100
AcDbSpline
 70
8
 71
3
 72
8
 73
4
 74
0
 40
0
 40
0
 40
0
 40
0
 40
1
 40
1
 40
1
 40
1
 10
250.955268
 20
87.894768
 30
0.0
 10
251.011529
 20
87.838507
 30
0.0
 10
251.087835
 20
87.806900
 30
0.0
 10
251.167400
 20
87.806900
 30
0.0
  0
SPLINE
  5
206
100
AcDbEntity
  8
0
 62
1
100
AcDbSpline
 70
8
 71
3
 72
8
 73
4
 74
0
 40
0
 40
0
 40
0
 40
0
 40
1
 40
1
 40
1
 40
1
 10
264.867400
 20
101.506900
 30
0.0
 10
264.867400
 20
101.586465
 30
0.0
 10
264.835793
 20
101.662771
 30
0.0
 10
264.779532
 20
101.719032
 30
0.0
  0
SPLINE
  5
207
100
AcDbEntity
  8
0
 62
1
100
AcDbSpline
 70
8
 71
3
 72
8
 73
4
 74
0
 40
0
 40
0
 40
0
 40
0
 40
1
 40
1
 40
1
 40
1
 10
264.779532
 20
101.719032
 30
0.0
 10
264.723271
 20
101.775293
 30
0.0
 10
264.646965
 20
101.806900
 30
0.0
 10
264.567400
 20
101.806900
 30
0.0
  0
SPLINE
  5
208
100
AcDbEntity
  8
0
 62
1
100
AcDbSpline
 70
8
 71
3
 72
8
 73
4
 74
0
 40
0
 40
0
 40
0
 40
0
 40
1
 40
1
 40
1
 40
1
 10
264.567400
 20
87.806900
 30
0.0
 10
264.646965
 20
87.806900
 30
0.0
 10
264.723271
 20
87.838507
 30
0.0
 10
264.779532
 20
87.894768
 30
0.0
  0
SPLINE
  5
209
100
AcDbEntity
  8
0
 62
1
100
AcDbSpline
 70
8
 71
3
 72
8
 73
4
 74
0
 40
0
 40
0
 40
0
 40
0
 40
1
 40
1
 40
1
 40
1
 10
264.779532
 20
87.894768
 30
0.0
 10
264.835793
 20
87.951029
 30
0.0
 10
264.867400
 20
88.027335
 30
0.0
 10
264.867400
 20
88.106900
 30
0.0
  0
LWPOLYLINE
  5
20a
100
AcDbEntity
  8
0
 62
1
100
AcDbPolyline
 90
2
 70
0
 10
264.867400
 20
88.106900
 30
0.0
 10
264.867400
 20
101.506900
 30
0.0
  0
LWPOLYLINE
  5
20b
100
AcDbEntity
  8
0
 62
1
100
AcDbPolyline
 90
2
 70
0
 10
189.628200
 20
36.753200
 30
0.0
 10
194.781900
 20
24.383900
 30
0.0
  0
LWPOLYLINE
  5
20c
100
AcDbEntity
  8
0
 62
1
100
AcDbPolyline
 90
2
 70
0
 10
195.174200
 20
24.222300
 30
0.0
 10
207.543500
 20
29.376000
 30
0.0
  0
LWPOLYLINE
  5
20d
100
AcDbEntity
  8
0
 62
1
100
AcDbPolyline
 90
2
 70
0
 10
202.159100
 20
42.299200
 30
0.0
 10
189.789800
 20
37.145500
 30
0.0
  0
SPLINE
  5
20e
100
AcDbEntity
  8
0
 62
1
100
AcDbSpline
 70
8
 71
3
 72
8
 73
4
 74
0
 40
0
 40
0
 40
0
 40
0
 40
1
 40
1
 40
1
 40
1
 10
189.789800
 20
37.145500
 30
0.0
 10
189.716346
 20
37.114910
 30
0.0
 10
189.658054
 20
37.056392
 30
0.0
 10
189.627748
 20
36.982820
 30
0.0
  0
SPLINE
  5
20f
100
AcDbEntity
  8
0
 62
1
100
AcDbSpline
 70
8
 71
3
 72
8
 73
4
 74
0
 40
0
 40
0
 40
0
 40
0
 40
1
 40
1
 40
1
 40
1
 10
189.627748
 20
36.982820
 30
0.0
 10
189.597441
 20
36.909249
 30
0.0
 10
189.597604
 20
36.826651
 30
0.0
 10
189.628200
 20
36.753200
 30
0.0
  0
SPLINE
  5
210
100
AcDbEntity
  8
0
 62
1
100
AcDbSpline
 70
8
 71
3
 72
8
 73
4
 74
0
 40
0
 40
0
 40
0
 40
0
 40
1
 40
1
 40
1
 40
1
 10
194.781900
 20
24.383900
 30
0.0
 10
194.812490
 20
24.310446
 30
0.0
 10
194.871008
 20
24.252154
 30
0.0
 10
194.944580
 20
24.221848
 30
0.0
  0
SPLINE
  5
211
100
AcDbEntity
  8
0
 62
1
100
AcDbSpline
 70
8
 71
3
 72
8
 73
4
 74
0
 40
0
 40
0
 40
0
 40
0
 40
1
 40
1
 40
1
 40
1
 10
194.944580
 20
24.221848
 30
0.0
 10
195.018151
 20
24.191541
 30
0.0
 10
195.100749
 20
24.191704
 30
0.0
 10
195.174200
 20
24.222300
 30
0.0
  0
SPLINE
  5
212
100
AcDbEntity
  8
0
 62
1
100
AcDbSpline
 70
8
 71
3
 72
8
 73
4
 74
0
 40
0
 40
0
 40
0
 40
0
 40
1
 40
1
 40
1
 40
1
 10
202.551400
 20
42.137600
 30
0.0
 10
202.520810
 20
42.211054
 30
0.0
 10
202.462292
 20
42.269346
 30
0.0
 10
202.388720
 20
42.299652
 30
0.0
  0
SPLINE
  5
213
100
AcDbEntity
  8
0
 62
1
100
AcDbSpline
 70
8
 71
3
 72
8
 73
4
 74
0
 40
0
 40
0
 40
0
 40
0
 40
1
 40
1
 40
1
 40
1
 10
202.388720
 20
42.299652
 30
0.0
 10
202.315149
 20
42.329959
 30
0.0
 10
202.232551
 20
42.329796
 30
0.0
 10
202.159100
 20
42.299200
 30
0.0
  0
SPLINE
  5
214
100
AcDbEntity
  8
0
 62
1
100
AcDbSpline
 70
8
 71
3
 72
8
 73
4
 74
0
 40
0
 40
0
 40
0
 40
0
 40
1
 40
1
 40
1
 40
1
 10
207.543500
 20
29.376000
 30
0.0
 10
207.696421
 20
29.439740
 30
0.0
 10
207.768724
 20
29.615372
 30
0.0
 10
207.705000
 20
29.768300
 30
0.0
  0
SPLINE
  5
215
100
AcDbEntity
  8
0
 62
1
100
AcDbSpline
 70
8
 71
3
 72
8
 73
4
 74
0
 40
0
 40
0
 40
0
 40
0
 40
1
 40
1
 40
1
 40
1
 10
248.342410
 20
100.669400
 30
0.0
 10
247.897502
 20
100.669400
 30
0.0
 10
247.496402
 20
100.401394
 30
0.0
 10
247.326143
 20
99.990352
 30
0.0
  0
SPLINE
  5
216
100
AcDbEntity
  8
0
 62
1
100
AcDbSpline
 70
8
 71
3
 72
8
 73
4
 74
0
 40
0
 40
0
 40
0
 40
0
 40
1
 40
1
 40
1
 40
1
 10
247.326143
 20
99.990352
 30
0.0
 10
247.155883
 20
99.579310
 30
0.0
 10
247.249995
 20
99.106180
 30
0.0
 10
247.564593
 20
98.791583
 30
0.0
  0
SPLINE
  5
217
100
AcDbEntity
  8
0
 62
1
100
AcDbSpline
 70
8
 71
3
 72
8
 73
4
 74
0
 40
0
 40
0
 40
0
 40
0
 40
1
 40
1
 40
1
 40
1
 10
247.564593
 20
98.791583
 30
0.0
 10
247.879190
 20
98.476985
 30
0.0
 10
248.352320
 20
98.382873
 30
0.0
 10
248.763362
 20
98.553133
 30
0.0
  0
SPLINE
  5
218
100
AcDbEntity
  8
0
 62
1
100
AcDbSpline
 70
8
 71
3
 72
8
 73
4
 74
0
 40
0
 40
0
 40
0
 40
0
 40
1
 40
1
 40
1
 40
1
 10
248.763362
 20
98.553133
 30
0.0
 10
249.174404
 20
98.723392
 30
0.0
 10
249.442410
 20
99.124492
 30
0.0
 10
249.442410
 20
99.569400
 30
0.0
  0
SPLINE
  5
219
100
AcDbEntity
  8
0
 62
1
100
AcDbSpline
 70
8
 71
3
 72
8
 73
4
 74
0
 40
0
 40
0
 40
0
 40
0
 40
1
 40
1
 40
1
 40
1
 10
249.442410
 20
99.569400
 30
0.0
 10
249.442410
 20
99.861138
 30
0.0
 10
249.326517
 20
100.140927
 30
0.0
 10
249.120227
 20
100.347217
 30
0.0
  0
SPLINE
  5
21a
100
AcDbEntity
  8
0
 62
1
100
AcDbSpline
 70
8
 71
3
 72
8
 73
4
 74
0
 40
0
 40
0
 40
0
 40
0
 40
1
 40
1
 40
1
 40
1
 10
249.120227
 20
100.347217
 30
0.0
 10
248.913937
 20
100.553507
 30
0.0
 10
248.634148
 20
100.669400
 30
0.0
 10
248.342410
 20
100.669400
 30
0.0
  0
LWPOLYLINE
  5
21b
100
AcDbEntity
  8
0
 62
1
100
AcDbPolyline
 90
2
 70
0
 10
207.705000
 20
29.768300
 30
0.0
 10
202.551400
 20
42.137600
 30
0.0
  0
LWPOLYLINE
  5
21c
100
AcDbEntity
  8
0
 62
1
100
AcDbPolyline
 90
1
 70
1
 10
248.342410
 20
100.669400
 30
0.0
  0
LWPOLYLINE
  5
21d
100
AcDbEntity
  8
0
 62
1
100
AcDbPolyline
 90
2
 70
0
 10
114.330700
 20
26.567900
 30
0.0
 10
109.177100
 20
14.198600
 30
0.0
  0
LWPOLYLINE
  5
21e
100
AcDbEntity
  8
0
 62
1
100
AcDbPolyline
 90
2
 70
0
 10
109.338600
 20
13.806300
 30
0.0
 10
121.707900
 20
8.652600
 30
0.0
  0
LWPOLYLINE
  5
21f
100
AcDbEntity
  8
0
 62
1
100
AcDbPolyline
 90
2
 70
0
 10
127.092300
 20
21.575800
 30
0.0
 10
114.723000
 20
26.729400
 30
0.0
  0
SPLINE
  5
220
100
AcDbEntity
  8
0
 62
1
100
AcDbSpline
 70
8
 71
3
 72
8
 73
4
 74
0
 40
0
 40
0
 40
0
 40
0
 40
1
 40
1
 40
1
 40
1
 10
114.723000
 20
26.729400
 30
0.0
 10
114.570072
 20
26.793124
 30
0.0
 10
114.394440
 20
26.720821
 30
0.0
 10
114.330700
 20
26.567900
 30
0.0
  0
SPLINE
  5
221
100
AcDbEntity
  8
0
 62
1
100
AcDbSpline
 70
8
 71
3
 72
8
 73
4
 74
0
 40
0
 40
0
 40
0
 40
0
 40
1
 40
1
 40
1
 40
1
 10
109.177100
 20
14.198600
 30
0.0
 10
109.113376
 20
14.045672
 30
0.0
 10
109.185679
 20
13.870040
 30
0.0
 10
109.338600
 20
13.806300
 30
0.0
  0
SPLINE
  5
222
100
AcDbEntity
  8
0
 62
1
100
AcDbSpline
 70
8
 71
3
 72
8
 73
4
 74
0
 40
0
 40
0
 40
0
 40
0
 40
1
 40
1
 40
1
 40
1
 10
127.253900
 20
21.183500
 30
0.0
 10
127.284496
 20
21.256951
 30
0.0
 10
127.284659
 20
21.339549
 30
0.0
 10
127.254352
 20
21.413120
 30
0.0
  0
SPLINE
  5
223
100
AcDbEntity
  8
0
 62
1
100
AcDbSpline
 70
8
 71
3
 72
8
 73
4
 74
0
 40
0
 40
0
 40
0
 40
0
 40
1
 40
1
 40
1
 40
1
 10
127.254352
 20
21.413120
 30
0.0
 10
127.224046
 20
21.486692
 30
0.0
 10
127.165754
 20
21.545210
 30
0.0
 10
127.092300
 20
21.575800
 30
0.0
  0
SPLINE
  5
224
100
AcDbEntity
  8
0
 62
1
100
AcDbSpline
 70
8
 71
3
 72
8
 73
4
 74
0
 40
0
 40
0
 40
0
 40
0
 40
1
 40
1
 40
1
 40
1
 10
121.707900
 20
8.652600
 30
0.0
 10
121.781351
 20
8.622004
 30
0.0
 10
121.863949
 20
8.621841
 30
0.0
 10
121.937520
 20
8.652148
 30
0.0
  0
SPLINE
  5
225
100
AcDbEntity
  8
0
 62
1
100
AcDbSpline
 70
8
 71
3
 72
8
 73
4
 74
0
 40
0
 40
0
 40
0
 40
0
 40
1
 40
1
 40
1
 40
1
 10
121.937520
 20
8.652148
 30
0.0
 10
122.011092
 20
8.682454
 30
0.0
 10
122.069610
 20
8.740746
 30
0.0
 10
122.100200
 20
8.814200
 30
0.0
  0
LWPOLYLINE
  5
226
100
AcDbEntity
  8
0
 62
1
100
AcDbPolyline
 90
2
 70
0
 10
122.100200
 20
8.814200
 30
0.0
 10
127.253900
 20
21.183500
 30
0.0
  0
LWPOLYLINE
  5
227
100
AcDbEntity
  8
0
 62
1
100
AcDbPolyline
 90
2
 70
0
 10
52.747400
 20
101.506900
 30
0.0
 10
52.747400
 20
88.106900
 30
0.0
  0
LWPOLYLINE
  5
228
100
AcDbEntity
  8
0
 62
1
100
AcDbPolyline
 90
2
 70
0
 10
53.047400
 20
87.806900
 30
0.0
 10
66.447400
 20
87.806900
 30
0.0
  0
LWPOLYLINE
  5
229
100
AcDbEntity
  8
0
 62
1
100
AcDbPolyline
 90
2
 70
0
 10
66.447400
 20
101.806900
 30
0.0
 10
53.047400
 20
101.806900
 30
0.0
  0
SPLINE
  5
22a
100
AcDbEntity
  8
0
 62
1
100
AcDbSpline
 70
8
 71
3
 72
8
 73
4
 74
0
 40
0
 40
0
 40
0
 40
0
 40
1
 40
1
 40
1
 40
1
 10
53.047400
 20
101.806900
 30
0.0
 10
52.881715
 20
101.806900
 30
0.0
 10
52.747400
 20
101.672585
 30
0.0
 10
52.747400
 20
101.506900
 30
0.0
  0
SPLINE
  5
22b
100
AcDbEntity
  8
0
 62
1
100
AcDbSpline
 70
8
 71
3
 72
8
 73
4
 74
0
 40
0
 40
0
 40
0
 40
0
 40
1
 40
1
 40
1
 40
1
 10
52.747400
 20
88.106900
 30
0.0
 10
52.747400
 20
88.027335
 30
0.0
 10
52.779007
 20
87.951029
 30
0.0
 10
52.835268
 20
87.894768
 30
0.0
  0
SPLINE
  5
22c
100
AcDbEntity
  8
0
 62
1
100
AcDbSpline
 70
8
 71
3
 72
8
 73
4
 74
0
 40
0
 40
0
 40
0
 40
0
 40
1
 40
1
 40
1
 40
1
 10
52.835268
 20
87.894768
 30
0.0
 10
52.891529
 20
87.838507
 30
0.0
 10
52.967835
 20
87.806900
 30
0.0
 10
53.047400
 20
87.806900
 30
0.0
  0
SPLINE
  5
22d
100
AcDbEntity
  8
0
 62
1
100
AcDbSpline
 70
8
 71
3
 72
8
 73
4
 74
0
 40
0
 40
0
 40
0
 40
0
 40
1
 40
1
 40
1
 40
1
 10
66.747400
 20
101.506900
 30
0.0
 10
66.747400
 20
101.672585
 30
0.0
 10
66.613085
 20
101.806900
 30
0.0
 10
66.447400
 20
101.806900
 30
0.0
  0
SPLINE
  5
22e
100
AcDbEntity
  8
0
 62
1
100
AcDbSpline
 70
8
 71
3
 72
8
 73
4
 74
0
 40
0
 40
0
 40
0
 40
0
 40
1
 40
1
 40
1
 40
1
 10
66.447400
 20
87.806900
 30
0.0
 10
66.613085
 20
87.806900
 30
0.0
 10
66.747400
 20
87.941215
 30
0.0
 10
66.747400
 20
88.106900
 30
0.0
  0
LWPOLYLINE
  5
22f
100
AcDbEntity
  8
0
 62
1
100
AcDbPolyline
 90
2
 70
0
 10
66.747400
 20
88.106900
 30
0.0
 10
66.747400
 20
101.506900
 30
0.0
  0
LWPOLYLINE
  5
230
100
AcDbEntity
  8
0
 62
1
100
AcDbPolyline
 90
2
 70
0
 10
152.260900
 20
21.183500
 30
0.0
 10
157.414600
 20
8.814200
 30
0.0
  0
LWPOLYLINE
  5
231
100
AcDbEntity
  8
0
 62
1
100
AcDbPolyline
 90
2
 70
0
 10
157.806900
 20
8.652600
 30
0.0
 10
170.176200
 20
13.806300
 30
0.0
  0
LWPOLYLINE
  5
232
100
AcDbEntity
  8
0
 62
1
100
AcDbPolyline
 90
2
 70
0
 10
164.791800
 20
26.729400
 30
0.0
 10
152.422500
 20
21.575800
 30
0.0
  0
SPLINE
  5
233
100
AcDbEntity
  8
0
 62
1
100
AcDbSpline
 70
8
 71
3
 72
8
 73
4
 74
0
 40
0
 40
0
 40
0
 40
0
 40
1
 40
1
 40
1
 40
1
 10
152.422500
 20
21.575800
 30
0.0
 10
152.349046
 20
21.545210
 30
0.0
 10
152.290754
 20
21.486692
 30
0.0
 10
152.260448
 20
21.413120
 30
0.0
  0
SPLINE
  5
234
100
AcDbEntity
  8
0
 62
1
100
AcDbSpline
 70
8
 71
3
 72
8
 73
4
 74
0
 40
0
 40
0
 40
0
 40
0
 40
1
 40
1
 40
1
 40
1
 10
152.260448
 20
21.413120
 30
0.0
 10
152.230141
 20
21.339549
 30
0.0
 10
152.230304
 20
21.256951
 30
0.0
 10
152.260900
 20
21.183500
 30
0.0
  0
SPLINE
  5
235
100
AcDbEntity
  8
0
 62
1
100
AcDbSpline
 70
8
 71
3
 72
8
 73
4
 74
0
 40
0
 40
0
 40
0
 40
0
 40
1
 40
1
 40
1
 40
1
 10
157.414600
 20
8.814200
 30
0.0
 10
157.445190
 20
8.740746
 30
0.0
 10
157.503708
 20
8.682454
 30
0.0
 10
157.577280
 20
8.652148
 30
0.0
  0
SPLINE
  5
236
100
AcDbEntity
  8
0
 62
1
100
AcDbSpline
 70
8
 71
3
 72
8
 73
4
 74
0
 40
0
 40
0
 40
0
 40
0
 40
1
 40
1
 40
1
 40
1
 10
157.577280
 20
8.652148
 30
0.0
 10
157.650851
 20
8.621841
 30
0.0
 10
157.733449
 20
8.622004
 30
0.0
 10
157.806900
 20
8.652600
 30
0.0
  0
SPLINE
  5
237
100
AcDbEntity
  8
0
 62
1
100
AcDbSpline
 70
8
 71
3
 72
8
 73
4
 74
0
 40
0
 40
0
 40
0
 40
0
 40
1
 40
1
 40
1
 40
1
 10
165.184100
 20
26.567900
 30
0.0
 10
165.120360
 20
26.720821
 30
0.0
 10
164.944728
 20
26.793124
 30
0.0
 10
164.791800
 20
26.729400
 30
0.0
  0
SPLINE
  5
238
100
AcDbEntity
  8
0
 62
1
100
AcDbSpline
 70
8
 71
3
 72
8
 73
4
 74
0
 40
0
 40
0
 40
0
 40
0
 40
1
 40
1
 40
1
 40
1
 10
170.176200
 20
13.806300
 30
0.0
 10
170.329121
 20
13.870040
 30
0.0
 10
170.401424
 20
14.045672
 30
0.0
 10
170.337700
 20
14.198600
 30
0.0
  0
LWPOLYLINE
  5
239
100
AcDbEntity
  8
0
 62
1
100
AcDbPolyline
 90
2
 70
0
 10
170.337700
 20
14.198600
 30
0.0
 10
165.184100
 20
26.567900
 30
0.0
  0
LWPOLYLINE
  5
23a
100
AcDbEntity
  8
0
 62
1
100
AcDbPolyline
 90
2
 70
0
 10
26.077400
 20
63.406900
 30
0.0
 10
26.077400
 20
50.006900
 30
0.0
  0
LWPOLYLINE
  5
23b
100
AcDbEntity
  8
0
 62
1
100
AcDbPolyline
 90
2
 70
0
 10
26.377400
 20
49.706900
 30
0.0
 10
39.777400
 20
49.706900
 30
0.0
  0
LWPOLYLINE
  5
23c
100
AcDbEntity
  8
0
 62
1
100
AcDbPolyline
 90
2
 70
0
 10
39.777400
 20
63.706900
 30
0.0
 10
26.377400
 20
63.706900
 30
0.0
  0
SPLINE
  5
23d
100
AcDbEntity
  8
0
 62
1
100
AcDbSpline
 70
8
 71
3
 72
8
 73
4
 74
0
 40
0
 40
0
 40
0
 40
0
 40
1
 40
1
 40
1
 40
1
 10
26.377400
 20
63.706900
 30
0.0
 10
26.297835
 20
63.706900
 30
0.0
 10
26.221529
 20
63.675293
 30
0.0
 10
26.165268
 20
63.619032
 30
0.0
  0
SPLINE
  5
23e
100
AcDbEntity
  8
0
 62
1
100
AcDbSpline
 70
8
 71
3
 72
8
 73
4
 74
0
 40
0
 40
0
 40
0
 40
0
 40
1
 40
1
 40
1
 40
1
 10
26.165268
 20
63.619032
 30
0.0
 10
26.109007
 20
63.562771
 30
0.0
 10
26.077400
 20
63.486465
 30
0.0
 10
26.077400
 20
63.406900
 30
0.0
  0
SPLINE
  5
23f
100
AcDbEntity
  8
0
 62
1
100
AcDbSpline
 70
8
 71
3
 72
8
 73
4
 74
0
 40
0
 40
0
 40
0
 40
0
 40
1
 40
1
 40
1
 40
1
 10
26.077400
 20
50.006900
 30
0.0
 10
26.077400
 20
49.927335
 30
0.0
 10
26.109007
 20
49.851029
 30
0.0
 10
26.165268
 20
49.794768
 30
0.0
  0
SPLINE
  5
240
100
AcDbEntity
  8
0
 62
1
100
AcDbSpline
 70
8
 71
3
 72
8
 73
4
 74
0
 40
0
 40
0
 40
0
 40
0
 40
1
 40
1
 40
1
 40
1
 10
26.165268
 20
49.794768
 30
0.0
 10
26.221529
 20
49.738507
 30
0.0
 10
26.297835
 20
49.706900
 30
0.0
 10
26.377400
 20
49.706900
 30
0.0
  0
SPLINE
  5
241
100
AcDbEntity
  8
0
 62
1
100
AcDbSpline
 70
8
 71
3
 72
8
 73
4
 74
0
 40
0
 40
0
 40
0
 40
0
 40
1
 40
1
 40
1
 40
1
 10
40.077400
 20
63.406900
 30
0.0
 10
40.077400
 20
63.486465
 30
0.0
 10
40.045793
 20
63.562771
 30
0.0
 10
39.989532
 20
63.619032
 30
0.0
  0
SPLINE
  5
242
100
AcDbEntity
  8
0
 62
1
100
AcDbSpline
 70
8
 71
3
 72
8
 73
4
 74
0
 40
0
 40
0
 40
0
 40
0
 40
1
 40
1
 40
1
 40
1
 10
39.989532
 20
63.619032
 30
0.0
 10
39.933271
 20
63.675293
 30
0.0
 10
39.856965
 20
63.706900
 30
0.0
 10
39.777400
 20
63.706900
 30
0.0
  0
SPLINE
  5
243
100
AcDbEntity
  8
0
 62
1
100
AcDbSpline
 70
8
 71
3
 72
8
 73
4
 74
0
 40
0
 40
0
 40
0
 40
0
 40
1
 40
1
 40
1
 40
1
 10
39.777400
 20
49.706900
 30
0.0
 10
39.856965
 20
49.706900
 30
0.0
 10
39.933271
 20
49.738507
 30
0.0
 10
39.989532
 20
49.794768
 30
0.0
  0
SPLINE
  5
244
100
AcDbEntity
  8
0
 62
1
100
AcDbSpline
 70
8
 71
3
 72
8
 73
4
 74
0
 40
0
 40
0
 40
0
 40
0
 40
1
 40
1
 40
1
 40
1
 10
39.989532
 20
49.794768
 30
0.0
 10
40.045793
 20
49.851029
 30
0.0
 10
40.077400
 20
49.927335
 30
0.0
 10
40.077400
 20
50.006900
 30
0.0
  0
LWPOLYLINE
  5
245
100
AcDbEntity
  8
0
 62
1
100
AcDbPolyline
 90
2
 70
0
 10
40.077400
 20
50.006900
 30
0.0
 10
40.077400
 20
63.406900
 30
0.0
  0
LWPOLYLINE
  5
246
100
AcDbEntity
  8
0
 62
1
100
AcDbPolyline
 90
2
 70
0
 10
33.697400
 20
101.506900
 30
0.0
 10
33.697400
 20
88.106900
 30
0.0
  0
LWPOLYLINE
  5
247
100
AcDbEntity
  8
0
 62
1
100
AcDbPolyline
 90
2
 70
0
 10
33.997400
 20
87.806900
 30
0.0
 10
47.397400
 20
87.806900
 30
0.0
  0
LWPOLYLINE
  5
248
100
AcDbEntity
  8
0
 62
1
100
AcDbPolyline
 90
2
 70
0
 10
47.397400
 20
101.806900
 30
0.0
 10
33.997400
 20
101.806900
 30
0.0
  0
SPLINE
  5
249
100
AcDbEntity
  8
0
 62
1
100
AcDbSpline
 70
8
 71
3
 72
8
 73
4
 74
0
 40
0
 40
0
 40
0
 40
0
 40
1
 40
1
 40
1
 40
1
 10
33.997400
 20
101.806900
 30
0.0
 10
33.917835
 20
101.806900
 30
0.0
 10
33.841529
 20
101.775293
 30
0.0
 10
33.785268
 20
101.719032
 30
0.0
  0
SPLINE
  5
24a
100
AcDbEntity
  8
0
 62
1
100
AcDbSpline
 70
8
 71
3
 72
8
 73
4
 74
0
 40
0
 40
0
 40
0
 40
0
 40
1
 40
1
 40
1
 40
1
 10
33.785268
 20
101.719032
 30
0.0
 10
33.729007
 20
101.662771
 30
0.0
 10
33.697400
 20
101.586465
 30
0.0
 10
33.697400
 20
101.506900
 30
0.0
  0
SPLINE
  5
24b
100
AcDbEntity
  8
0
 62
1
100
AcDbSpline
 70
8
 71
3
 72
8
 73
4
 74
0
 40
0
 40
0
 40
0
 40
0
 40
1
 40
1
 40
1
 40
1
 10
33.697400
 20
88.106900
 30
0.0
 10
33.697400
 20
88.027335
 30
0.0
 10
33.729007
 20
87.951029
 30
0.0
 10
33.785268
 20
87.894768
 30
0.0
  0
SPLINE
  5
24c
100
AcDbEntity
  8
0
 62
1
100
AcDbSpline
 70
8
 71
3
 72
8
 73
4
 74
0
 40
0
 40
0
 40
0
 40
0
 40
1
 40
1
 40
1
 40
1
 10
33.785268
 20
87.894768
 30
0.0
 10
33.841529
 20
87.838507
 30
0.0
 10
33.917835
 20
87.806900
 30
0.0
 10
33.997400
 20
87.806900
 30
0.0
  0
SPLINE
  5
24d
100
AcDbEntity
  8
0
 62
1
100
AcDbSpline
 70
8
 71
3
 72
8
 73
4
 74
0
 40
0
 40
0
 40
0
 40
0
 40
1
 40
1
 40
1
 40
1
 10
47.697400
 20
101.506900
 30
0.0
 10
47.697400
 20
101.586465
 30
0.0
 10
47.665793
 20
101.662771
 30
0.0
 10
47.609532
 20
101.719032
 30
0.0
  0
SPLINE
  5
24e
100
AcDbEntity
  8
0
 62
1
100
AcDbSpline
 70
8
 71
3
 72
8
 73
4
 74
0
 40
0
 40
0
 40
0
 40
0
 40
1
 40
1
 40
1
 40
1
 10
47.609532
 20
101.719032
 30
0.0
 10
47.553271
 20
101.775293
 30
0.0
 10
47.476965
 20
101.806900
 30
0.0
 10
47.397400
 20
101.806900
 30
0.0
  0
SPLINE
  5
24f
100
AcDbEntity
  8
0
 62
1
100
AcDbSpline
 70
8
 71
3
 72
8
 73
4
 74
0
 40
0
 40
0
 40
0
 40
0
 40
1
 40
1
 40
1
 40
1
 10
47.397400
 20
87.806900
 30
0.0
 10
47.476965
 20
87.806900
 30
0.0
 10
47.553271
 20
87.838507
 30
0.0
 10
47.609532
 20
87.894768
 30
0.0
  0
SPLINE
  5
250
100
AcDbEntity
  8
0
 62
1
100
AcDbSpline
 70
8
 71
3
 72
8
 73
4
 74
0
 40
0
 40
0
 40
0
 40
0
 40
1
 40
1
 40
1
 40
1
 10
47.609532
 20
87.894768
 30
0.0
 10
47.665793
 20
87.951029
 30
0.0
 10
47.697400
 20
88.027335
 30
0.0
 10
47.697400
 20
88.106900
 30
0.0
  0
LWPOLYLINE
  5
251
100
AcDbEntity
  8
0
 62
1
100
AcDbPolyline
 90
2
 70
0
 10
47.697400
 20
88.106900
 30
0.0
 10
47.697400
 20
101.506900
 30
0.0
  0
LWPOLYLINE
  5
252
100
AcDbEntity
  8
0
 62
1
100
AcDbPolyline
 90
2
 70
0
 10
212.767400
 20
101.506900
 30
0.0
 10
212.767400
 20
88.106900
 30
0.0
  0
LWPOLYLINE
  5
253
100
AcDbEntity
  8
0
 62
1
100
AcDbPolyline
 90
2
 70
0
 10
213.067400
 20
87.806900
 30
0.0
 10
226.467400
 20
87.806900
 30
0.0
  0
LWPOLYLINE
  5
254
100
AcDbEntity
  8
0
 62
1
100
AcDbPolyline
 90
2
 70
0
 10
226.467400
 20
101.806900
 30
0.0
 10
213.067400
 20
101.806900
 30
0.0
  0
SPLINE
  5
255
100
AcDbEntity
  8
0
 62
1
100
AcDbSpline
 70
8
 71
3
 72
8
 73
4
 74
0
 40
0
 40
0
 40
0
 40
0
 40
1
 40
1
 40
1
 40
1
 10
213.067400
 20
101.806900
 30
0.0
 10
212.987835
 20
101.806900
 30
0.0
 10
212.911529
 20
101.775293
 30
0.0
 10
212.855268
 20
101.719032
 30
0.0
  0
SPLINE
  5
256
100
AcDbEntity
  8
0
 62
1
100
AcDbSpline
 70
8
 71
3
 72
8
 73
4
 74
0
 40
0
 40
0
 40
0
 40
0
 40
1
 40
1
 40
1
 40
1
 10
212.855268
 20
101.719032
 30
0.0
 10
212.799007
 20
101.662771
 30
0.0
 10
212.767400
 20
101.586465
 30
0.0
 10
212.767400
 20
101.506900
 30
0.0
  0
SPLINE
  5
257
100
AcDbEntity
  8
0
 62
1
100
AcDbSpline
 70
8
 71
3
 72
8
 73
4
 74
0
 40
0
 40
0
 40
0
 40
0
 40
1
 40
1
 40
1
 40
1
 10
212.767400
 20
88.106900
 30
0.0
 10
212.767400
 20
88.027335
 30
0.0
 10
212.799007
 20
87.951029
 30
0.0
 10
212.855268
 20
87.894768
 30
0.0
  0
SPLINE
  5
258
100
AcDbEntity
  8
0
 62
1
100
AcDbSpline
 70
8
 71
3
 72
8
 73
4
 74
0
 40
0
 40
0
 40
0
 40
0
 40
1
 40
1
 40
1
 40
1
 10
212.855268
 20
87.894768
 30
0.0
 10
212.911529
 20
87.838507
 30
0.0
 10
212.987835
 20
87.806900
 30
0.0
 10
213.067400
 20
87.806900
 30
0.0
  0
SPLINE
  5
259
100
AcDbEntity
  8
0
 62
1
100
AcDbSpline
 70
8
 71
3
 72
8
 73
4
 74
0
 40
0
 40
0
 40
0
 40
0
 40
1
 40
1
 40
1
 40
1
 10
226.767400
 20
101.506900
 30
0.0
 10
226.767400
 20
101.586465
 30
0.0
 10
226.735793
 20
101.662771
 30
0.0
 10
226.679532
 20
101.719032
 30
0.0
  0
SPLINE
  5
25a
100
AcDbEntity
  8
0
 62
1
100
AcDbSpline
 70
8
 71
3
 72
8
 73
4
 74
0
 40
0
 40
0
 40
0
 40
0
 40
1
 40
1
 40
1
 40
1
 10
226.679532
 20
101.719032
 30
0.0
 10
226.623271
 20
101.775293
 30
0.0
 10
226.546965
 20
101.806900
 30
0.0
 10
226.467400
 20
101.806900
 30
0.0
  0
SPLINE
  5
25b
100
AcDbEntity
  8
0
 62
1
100
AcDbSpline
 70
8
 71
3
 72
8
 73
4
 74
0
 40
0
 40
0
 40
0
 40
0
 40
1
 40
1
 40
1
 40
1
 10
226.467400
 20
87.806900
 30
0.0
 10
226.546965
 20
87.806900
 30
0.0
 10
226.623271
 20
87.838507
 30
0.0
 10
226.679532
 20
87.894768
 30
0.0
  0
SPLINE
  5
25c
100
AcDbEntity
  8
0
 62
1
100
AcDbSpline
 70
8
 71
3
 72
8
 73
4
 74
0
 40
0
 40
0
 40
0
 40
0
 40
1
 40
1
 40
1
 40
1
 10
226.679532
 20
87.894768
 30
0.0
 10
226.735793
 20
87.951029
 30
0.0
 10
226.767400
 20
88.027335
 30
0.0
 10
226.767400
 20
88.106900
 30
0.0
  0
LWPOLYLINE
  5
25d
100
AcDbEntity
  8
0
 62
1
100
AcDbPolyline
 90
2
 70
0
 10
226.767400
 20
88.106900
 30
0.0
 10
226.767400
 20
101.506900
 30
0.0
  0
LWPOLYLINE
  5
25e
100
AcDbEntity
  8
0
 62
1
100
AcDbPolyline
 90
2
 70
0
 10
14.647400
 20
101.506900
 30
0.0
 10
14.647400
 20
88.106900
 30
0.0
  0
LWPOLYLINE
  5
25f
100
AcDbEntity
  8
0
 62
1
100
AcDbPolyline
 90
2
 70
0
 10
14.947400
 20
87.806900
 30
0.0
 10
28.347400
 20
87.806900
 30
0.0
  0
LWPOLYLINE
  5
260
100
AcDbEntity
  8
0
 62
1
100
AcDbPolyline
 90
2
 70
0
 10
28.347400
 20
101.806900
 30
0.0
 10
14.947400
 20
101.806900
 30
0.0
  0
SPLINE
  5
261
100
AcDbEntity
  8
0
 62
1
100
AcDbSpline
 70
8
 71
3
 72
8
 73
4
 74
0
 40
0
 40
0
 40
0
 40
0
 40
1
 40
1
 40
1
 40
1
 10
14.947400
 20
101.806900
 30
0.0
 10
14.867835
 20
101.806900
 30
0.0
 10
14.791529
 20
101.775293
 30
0.0
 10
14.735268
 20
101.719032
 30
0.0
  0
SPLINE
  5
262
100
AcDbEntity
  8
0
 62
1
100
AcDbSpline
 70
8
 71
3
 72
8
 73
4
 74
0
 40
0
 40
0
 40
0
 40
0
 40
1
 40
1
 40
1
 40
1
 10
14.735268
 20
101.719032
 30
0.0
 10
14.679007
 20
101.662771
 30
0.0
 10
14.647400
 20
101.586465
 30
0.0
 10
14.647400
 20
101.506900
 30
0.0
  0
SPLINE
  5
263
100
AcDbEntity
  8
0
 62
1
100
AcDbSpline
 70
8
 71
3
 72
8
 73
4
 74
0
 40
0
 40
0
 40
0
 40
0
 40
1
 40
1
 40
1
 40
1
 10
14.647400
 20
88.106900
 30
0.0
 10
14.647400
 20
88.027335
 30
0.0
 10
14.679007
 20
87.951029
 30
0.0
 10
14.735268
 20
87.894768
 30
0.0
  0
SPLINE
  5
264
100
AcDbEntity
  8
0
 62
1
100
AcDbSpline
 70
8
 71
3
 72
8
 73
4
 74
0
 40
0
 40
0
 40
0
 40
0
 40
1
 40
1
 40
1
 40
1
 10
14.735268
 20
87.894768
 30
0.0
 10
14.791529
 20
87.838507
 30
0.0
 10
14.867835
 20
87.806900
 30
0.0
 10
14.947400
 20
87.806900
 30
0.0
  0
SPLINE
  5
265
100
AcDbEntity
  8
0
 62
1
100
AcDbSpline
 70
8
 71
3
 72
8
 73
4
 74
0
 40
0
 40
0
 40
0
 40
0
 40
1
 40
1
 40
1
 40
1
 10
28.647400
 20
101.506900
 30
0.0
 10
28.647400
 20
101.586465
 30
0.0
 10
28.615793
 20
101.662771
 30
0.0
 10
28.559532
 20
101.719032
 30
0.0
  0
SPLINE
  5
266
100
AcDbEntity
  8
0
 62
1
100
AcDbSpline
 70
8
 71
3
 72
8
 73
4
 74
0
 40
0
 40
0
 40
0
 40
0
 40
1
 40
1
 40
1
 40
1
 10
28.559532
 20
101.719032
 30
0.0
 10
28.503271
 20
101.775293
 30
0.0
 10
28.426965
 20
101.806900
 30
0.0
 10
28.347400
 20
101.806900
 30
0.0
  0
SPLINE
  5
267
100
AcDbEntity
  8
0
 62
1
100
AcDbSpline
 70
8
 71
3
 72
8
 73
4
 74
0
 40
0
 40
0
 40
0
 40
0
 40
1
 40
1
 40
1
 40
1
 10
28.347400
 20
87.806900
 30
0.0
 10
28.426965
 20
87.806900
 30
0.0
 10
28.503271
 20
87.838507
 30
0.0
 10
28.559532
 20
87.894768
 30
0.0
  0
SPLINE
  5
268
100
AcDbEntity
  8
0
 62
1
100
AcDbSpline
 70
8
 71
3
 72
8
 73
4
 74
0
 40
0
 40
0
 40
0
 40
0
 40
1
 40
1
 40
1
 40
1
 10
28.559532
 20
87.894768
 30
0.0
 10
28.615793
 20
87.951029
 30
0.0
 10
28.647400
 20
88.027335
 30
0.0
 10
28.647400
 20
88.106900
 30
0.0
  0
LWPOLYLINE
  5
269
100
AcDbEntity
  8
0
 62
1
100
AcDbPolyline
 90
2
 70
0
 10
28.647400
 20
88.106900
 30
0.0
 10
28.647400
 20
101.506900
 30
0.0
  0
LWPOLYLINE
  5
26a
100
AcDbEntity
  8
0
 62
1
100
AcDbPolyline
 90
2
 70
0
 10
77.842400
 20
103.683200
 30
0.0
 10
72.688800
 20
91.313900
 30
0.0
  0
LWPOLYLINE
  5
26b
100
AcDbEntity
  8
0
 62
1
100
AcDbPolyline
 90
2
 70
0
 10
72.850300
 20
90.921600
 30
0.0
 10
85.219600
 20
85.768000
 30
0.0
  0
LWPOLYLINE
  5
26c
100
AcDbEntity
  8
0
 62
1
100
AcDbPolyline
 90
2
 70
0
 10
90.604000
 20
98.691100
 30
0.0
 10
78.234700
 20
103.844800
 30
0.0
  0
SPLINE
  5
26d
100
AcDbEntity
  8
0
 62
1
100
AcDbSpline
 70
8
 71
3
 72
8
 73
4
 74
0
 40
0
 40
0
 40
0
 40
0
 40
1
 40
1
 40
1
 40
1
 10
78.234700
 20
103.844800
 30
0.0
 10
78.161249
 20
103.875396
 30
0.0
 10
78.078651
 20
103.875559
 30
0.0
 10
78.005080
 20
103.845252
 30
0.0
  0
SPLINE
  5
26e
100
AcDbEntity
  8
0
 62
1
100
AcDbSpline
 70
8
 71
3
 72
8
 73
4
 74
0
 40
0
 40
0
 40
0
 40
0
 40
1
 40
1
 40
1
 40
1
 10
78.005080
 20
103.845252
 30
0.0
 10
77.931508
 20
103.814946
 30
0.0
 10
77.872990
 20
103.756654
 30
0.0
 10
77.842400
 20
103.683200
 30
0.0
  0
SPLINE
  5
26f
100
AcDbEntity
  8
0
 62
1
100
AcDbSpline
 70
8
 71
3
 72
8
 73
4
 74
0
 40
0
 40
0
 40
0
 40
0
 40
1
 40
1
 40
1
 40
1
 10
72.688800
 20
91.313900
 30
0.0
 10
72.625076
 20
91.160972
 30
0.0
 10
72.697379
 20
90.985340
 30
0.0
 10
72.850300
 20
90.921600
 30
0.0
  0
SPLINE
  5
270
100
AcDbEntity
  8
0
 62
1
100
AcDbSpline
 70
8
 71
3
 72
8
 73
4
 74
0
 40
0
 40
0
 40
0
 40
0
 40
1
 40
1
 40
1
 40
1
 10
90.765600
 20
98.298800
 30
0.0
 10
90.796196
 20
98.372251
 30
0.0
 10
90.796359
 20
98.454849
 30
0.0
 10
90.766052
 20
98.528420
 30
0.0
  0
SPLINE
  5
271
100
AcDbEntity
  8
0
 62
1
100
AcDbSpline
 70
8
 71
3
 72
8
 73
4
 74
0
 40
0
 40
0
 40
0
 40
0
 40
1
 40
1
 40
1
 40
1
 10
90.766052
 20
98.528420
 30
0.0
 10
90.735746
 20
98.601992
 30
0.0
 10
90.677454
 20
98.660510
 30
0.0
 10
90.604000
 20
98.691100
 30
0.0
  0
SPLINE
  5
272
100
AcDbEntity
  8
0
 62
1
100
AcDbSpline
 70
8
 71
3
 72
8
 73
4
 74
0
 40
0
 40
0
 40
0
 40
0
 40
1
 40
1
 40
1
 40
1
 10
85.219600
 20
85.768000
 30
0.0
 10
85.372528
 20
85.704276
 30
0.0
 10
85.548160
 20
85.776579
 30
0.0
 10
85.611900
 20
85.929500
 30
0.0
  0
LWPOLYLINE
  5
273
100
AcDbEntity
  8
0
 62
1
100
AcDbPolyline
 90
2
 70
0
 10
85.611900
 20
85.929500
 30
0.0
 10
90.765600
 20
98.298800
 30
0.0
  0
LWPOLYLINE
  5
274
100
AcDbEntity
  8
0
 62
1
100
AcDbPolyline
 90
2
 70
0
 10
252.296400
 20
44.356900
 30
0.0
 10
252.296400
 20
30.956900
 30
0.0
  0
LWPOLYLINE
  5
275
100
AcDbEntity
  8
0
 62
1
100
AcDbPolyline
 90
2
 70
0
 10
252.596400
 20
30.656900
 30
0.0
 10
265.996400
 20
30.656900
 30
0.0
  0
LWPOLYLINE
  5
276
100
AcDbEntity
  8
0
 62
1
100
AcDbPolyline
 90
2
 70
0
 10
265.996400
 20
44.656900
 30
0.0
 10
252.596400
 20
44.656900
 30
0.0
  0
SPLINE
  5
277
100
AcDbEntity
  8
0
 62
1
100
AcDbSpline
 70
8
 71
3
 72
8
 73
4
 74
0
 40
0
 40
0
 40
0
 40
0
 40
1
 40
1
 40
1
 40
1
 10
252.596400
 20
44.656900
 30
0.0
 10
252.516835
 20
44.656900
 30
0.0
 10
252.440529
 20
44.625293
 30
0.0
 10
252.384268
 20
44.569032
 30
0.0
  0
SPLINE
  5
278
100
AcDbEntity
  8
0
 62
1
100
AcDbSpline
 70
8
 71
3
 72
8
 73
4
 74
0
 40
0
 40
0
 40
0
 40
0
 40
1
 40
1
 40
1
 40
1
 10
252.384268
 20
44.569032
 30
0.0
 10
252.328007
 20
44.512771
 30
0.0
 10
252.296400
 20
44.436465
 30
0.0
 10
252.296400
 20
44.356900
 30
0.0
  0
SPLINE
  5
279
100
AcDbEntity
  8
0
 62
1
100
AcDbSpline
 70
8
 71
3
 72
8
 73
4
 74
0
 40
0
 40
0
 40
0
 40
0
 40
1
 40
1
 40
1
 40
1
 10
252.296400
 20
30.956900
 30
0.0
 10
252.296400
 20
30.877335
 30
0.0
 10
252.328007
 20
30.801029
 30
0.0
 10
252.384268
 20
30.744768
 30
0.0
  0
SPLINE
  5
27a
100
AcDbEntity
  8
0
 62
1
100
AcDbSpline
 70
8
 71
3
 72
8
 73
4
 74
0
 40
0
 40
0
 40
0
 40
0
 40
1
 40
1
 40
1
 40
1
 10
252.384268
 20
30.744768
 30
0.0
 10
252.440529
 20
30.688507
 30
0.0
 10
252.516835
 20
30.656900
 30
0.0
 10
252.596400
 20
30.656900
 30
0.0
  0
SPLINE
  5
27b
100
AcDbEntity
  8
0
 62
1
100
AcDbSpline
 70
8
 71
3
 72
8
 73
4
 74
0
 40
0
 40
0
 40
0
 40
0
 40
1
 40
1
 40
1
 40
1
 10
266.296400
 20
44.356900
 30
0.0
 10
266.296400
 20
44.436465
 30
0.0
 10
266.264793
 20
44.512771
 30
0.0
 10
266.208532
 20
44.569032
 30
0.0
  0
SPLINE
  5
27c
100
AcDbEntity
  8
0
 62
1
100
AcDbSpline
 70
8
 71
3
 72
8
 73
4
 74
0
 40
0
 40
0
 40
0
 40
0
 40
1
 40
1
 40
1
 40
1
 10
266.208532
 20
44.569032
 30
0.0
 10
266.152271
 20
44.625293
 30
0.0
 10
266.075965
 20
44.656900
 30
0.0
 10
265.996400
 20
44.656900
 30
0.0
  0
SPLINE
  5
27d
100
AcDbEntity
  8
0
 62
1
100
AcDbSpline
 70
8
 71
3
 72
8
 73
4
 74
0
 40
0
 40
0
 40
0
 40
0
 40
1
 40
1
 40
1
 40
1
 10
265.996400
 20
30.656900
 30
0.0
 10
266.075965
 20
30.656900
 30
0.0
 10
266.152271
 20
30.688507
 30
0.0
 10
266.208532
 20
30.744768
 30
0.0
  0
SPLINE
  5
27e
100
AcDbEntity
  8
0
 62
1
100
AcDbSpline
 70
8
 71
3
 72
8
 73
4
 74
0
 40
0
 40
0
 40
0
 40
0
 40
1
 40
1
 40
1
 40
1
 10
266.208532
 20
30.744768
 30
0.0
 10
266.264793
 20
30.801029
 30
0.0
 10
266.296400
 20
30.877335
 30
0.0
 10
266.296400
 20
30.956900
 30
0.0
  0
LWPOLYLINE
  5
27f
100
AcDbEntity
  8
0
 62
1
100
AcDbPolyline
 90
2
 70
0
 10
266.296400
 20
30.956900
 30
0.0
 10
266.296400
 20
44.356900
 30
0.0
  0
LWPOLYLINE
  5
280
100
AcDbEntity
  8
0
 62
1
100
AcDbPolyline
 90
2
 70
0
 10
174.974200
 20
71.922100
 30
0.0
 10
180.127900
 20
59.552800
 30
0.0
  0
LWPOLYLINE
  5
281
100
AcDbEntity
  8
0
 62
1
100
AcDbPolyline
 90
2
 70
0
 10
180.520200
 20
59.391200
 30
0.0
 10
192.889500
 20
64.544900
 30
0.0
  0
LWPOLYLINE
  5
282
100
AcDbEntity
  8
0
 62
1
100
AcDbPolyline
 90
2
 70
0
 10
187.505100
 20
77.468100
 30
0.0
 10
175.135700
 20
72.314400
 30
0.0
  0
SPLINE
  5
283
100
AcDbEntity
  8
0
 62
1
100
AcDbSpline
 70
8
 71
3
 72
8
 73
4
 74
0
 40
0
 40
0
 40
0
 40
0
 40
1
 40
1
 40
1
 40
1
 10
175.135700
 20
72.314400
 30
0.0
 10
174.982779
 20
72.250660
 30
0.0
 10
174.910476
 20
72.075028
 30
0.0
 10
174.974200
 20
71.922100
 30
0.0
  0
SPLINE
  5
284
100
AcDbEntity
  8
0
 62
1
100
AcDbSpline
 70
8
 71
3
 72
8
 73
4
 74
0
 40
0
 40
0
 40
0
 40
0
 40
1
 40
1
 40
1
 40
1
 10
180.127900
 20
59.552800
 30
0.0
 10
180.158490
 20
59.479346
 30
0.0
 10
180.217008
 20
59.421054
 30
0.0
 10
180.290580
 20
59.390748
 30
0.0
  0
SPLINE
  5
285
100
AcDbEntity
  8
0
 62
1
100
AcDbSpline
 70
8
 71
3
 72
8
 73
4
 74
0
 40
0
 40
0
 40
0
 40
0
 40
1
 40
1
 40
1
 40
1
 10
180.290580
 20
59.390748
 30
0.0
 10
180.364151
 20
59.360441
 30
0.0
 10
180.446749
 20
59.360604
 30
0.0
 10
180.520200
 20
59.391200
 30
0.0
  0
SPLINE
  5
286
100
AcDbEntity
  8
0
 62
1
100
AcDbSpline
 70
8
 71
3
 72
8
 73
4
 74
0
 40
0
 40
0
 40
0
 40
0
 40
1
 40
1
 40
1
 40
1
 10
187.897400
 20
77.306500
 30
0.0
 10
187.866810
 20
77.379954
 30
0.0
 10
187.808292
 20
77.438246
 30
0.0
 10
187.734720
 20
77.468552
 30
0.0
  0
SPLINE
  5
287
100
AcDbEntity
  8
0
 62
1
100
AcDbSpline
 70
8
 71
3
 72
8
 73
4
 74
0
 40
0
 40
0
 40
0
 40
0
 40
1
 40
1
 40
1
 40
1
 10
187.734720
 20
77.468552
 30
0.0
 10
187.661149
 20
77.498859
 30
0.0
 10
187.578551
 20
77.498696
 30
0.0
 10
187.505100
 20
77.468100
 30
0.0
  0
SPLINE
  5
288
100
AcDbEntity
  8
0
 62
1
100
AcDbSpline
 70
8
 71
3
 72
8
 73
4
 74
0
 40
0
 40
0
 40
0
 40
0
 40
1
 40
1
 40
1
 40
1
 10
192.889500
 20
64.544900
 30
0.0
 10
193.042421
 20
64.608640
 30
0.0
 10
193.114724
 20
64.784272
 30
0.0
 10
193.051000
 20
64.937200
 30
0.0
  0
LWPOLYLINE
  5
289
100
AcDbEntity
  8
0
 62
1
100
AcDbPolyline
 90
2
 70
0
 10
193.051000
 20
64.937200
 30
0.0
 10
187.897400
 20
77.306500
 30
0.0
  0
LWPOLYLINE
  5
28a
100
AcDbEntity
  8
0
 62
1
100
AcDbPolyline
 90
2
 70
0
 10
70.223000
 20
65.583100
 30
0.0
 10
65.069300
 20
53.213800
 30
0.0
  0
LWPOLYLINE
  5
28b
100
AcDbEntity
  8
0
 62
1
100
AcDbPolyline
 90
2
 70
0
 10
65.230900
 20
52.821500
 30
0.0
 10
77.600200
 20
47.667800
 30
0.0
  0
LWPOLYLINE
  5
28c
100
AcDbEntity
  8
0
 62
1
100
AcDbPolyline
 90
2
 70
0
 10
82.984600
 20
60.591000
 30
0.0
 10
70.615300
 20
65.744700
 30
0.0
  0
SPLINE
  5
28d
100
AcDbEntity
  8
0
 62
1
100
AcDbSpline
 70
8
 71
3
 72
8
 73
4
 74
0
 40
0
 40
0
 40
0
 40
0
 40
1
 40
1
 40
1
 40
1
 10
70.615300
 20
65.744700
 30
0.0
 10
70.541849
 20
65.775296
 30
0.0
 10
70.459251
 20
65.775459
 30
0.0
 10
70.385680
 20
65.745152
 30
0.0
  0
SPLINE
  5
28e
100
AcDbEntity
  8
0
 62
1
100
AcDbSpline
 70
8
 71
3
 72
8
 73
4
 74
0
 40
0
 40
0
 40
0
 40
0
 40
1
 40
1
 40
1
 40
1
 10
70.385680
 20
65.745152
 30
0.0
 10
70.312108
 20
65.714846
 30
0.0
 10
70.253590
 20
65.656554
 30
0.0
 10
70.223000
 20
65.583100
 30
0.0
  0
SPLINE
  5
28f
100
AcDbEntity
  8
0
 62
1
100
AcDbSpline
 70
8
 71
3
 72
8
 73
4
 74
0
 40
0
 40
0
 40
0
 40
0
 40
1
 40
1
 40
1
 40
1
 10
65.069300
 20
53.213800
 30
0.0
 10
65.038704
 20
53.140349
 30
0.0
 10
65.038541
 20
53.057751
 30
0.0
 10
65.068848
 20
52.984180
 30
0.0
  0
SPLINE
  5
290
100
AcDbEntity
  8
0
 62
1
100
AcDbSpline
 70
8
 71
3
 72
8
 73
4
 74
0
 40
0
 40
0
 40
0
 40
0
 40
1
 40
1
 40
1
 40
1
 10
65.068848
 20
52.984180
 30
0.0
 10
65.099154
 20
52.910608
 30
0.0
 10
65.157446
 20
52.852090
 30
0.0
 10
65.230900
 20
52.821500
 30
0.0
  0
SPLINE
  5
291
100
AcDbEntity
  8
0
 62
1
100
AcDbSpline
 70
8
 71
3
 72
8
 73
4
 74
0
 40
0
 40
0
 40
0
 40
0
 40
1
 40
1
 40
1
 40
1
 10
83.146200
 20
60.198700
 30
0.0
 10
83.176796
 20
60.272151
 30
0.0
 10
83.176959
 20
60.354749
 30
0.0
 10
83.146652
 20
60.428320
 30
0.0
  0
SPLINE
  5
292
100
AcDbEntity
  8
0
 62
1
100
AcDbSpline
 70
8
 71
3
 72
8
 73
4
 74
0
 40
0
 40
0
 40
0
 40
0
 40
1
 40
1
 40
1
 40
1
 10
83.146652
 20
60.428320
 30
0.0
 10
83.116346
 20
60.501892
 30
0.0
 10
83.058054
 20
60.560410
 30
0.0
 10
82.984600
 20
60.591000
 30
0.0
  0
SPLINE
  5
293
100
AcDbEntity
  8
0
 62
1
100
AcDbSpline
 70
8
 71
3
 72
8
 73
4
 74
0
 40
0
 40
0
 40
0
 40
0
 40
1
 40
1
 40
1
 40
1
 10
77.600200
 20
47.667800
 30
0.0
 10
77.673651
 20
47.637204
 30
0.0
 10
77.756249
 20
47.637041
 30
0.0
 10
77.829820
 20
47.667348
 30
0.0
  0
SPLINE
  5
294
100
AcDbEntity
  8
0
 62
1
100
AcDbSpline
 70
8
 71
3
 72
8
 73
4
 74
0
 40
0
 40
0
 40
0
 40
0
 40
1
 40
1
 40
1
 40
1
 10
77.829820
 20
47.667348
 30
0.0
 10
77.903392
 20
47.697654
 30
0.0
 10
77.961910
 20
47.755946
 30
0.0
 10
77.992500
 20
47.829400
 30
0.0
  0
LWPOLYLINE
  5
295
100
AcDbEntity
  8
0
 62
1
100
AcDbPolyline
 90
2
 70
0
 10
77.992500
 20
47.829400
 30
0.0
 10
83.146200
 20
60.198700
 30
0.0
  0
LWPOLYLINE
  5
296
100
AcDbEntity
  8
0
 62
1
100
AcDbPolyline
 90
2
 70
0
 10
48.937400
 20
82.456900
 30
0.0
 10
48.937400
 20
69.056900
 30
0.0
  0
LWPOLYLINE
  5
297
100
AcDbEntity
  8
0
 62
1
100
AcDbPolyline
 90
2
 70
0
 10
49.237400
 20
68.756900
 30
0.0
 10
62.637400
 20
68.756900
 30
0.0
  0
LWPOLYLINE
  5
298
100
AcDbEntity
  8
0
 62
1
100
AcDbPolyline
 90
2
 70
0
 10
62.637400
 20
82.756900
 30
0.0
 10
49.237400
 20
82.756900
 30
0.0
  0
SPLINE
  5
299
100
AcDbEntity
  8
0
 62
1
100
AcDbSpline
 70
8
 71
3
 72
8
 73
4
 74
0
 40
0
 40
0
 40
0
 40
0
 40
1
 40
1
 40
1
 40
1
 10
49.237400
 20
82.756900
 30
0.0
 10
49.157835
 20
82.756900
 30
0.0
 10
49.081529
 20
82.725293
 30
0.0
 10
49.025268
 20
82.669032
 30
0.0
  0
SPLINE
  5
29a
100
AcDbEntity
  8
0
 62
1
100
AcDbSpline
 70
8
 71
3
 72
8
 73
4
 74
0
 40
0
 40
0
 40
0
 40
0
 40
1
 40
1
 40
1
 40
1
 10
49.025268
 20
82.669032
 30
0.0
 10
48.969007
 20
82.612771
 30
0.0
 10
48.937400
 20
82.536465
 30
0.0
 10
48.937400
 20
82.456900
 30
0.0
  0
SPLINE
  5
29b
100
AcDbEntity
  8
0
 62
1
100
AcDbSpline
 70
8
 71
3
 72
8
 73
4
 74
0
 40
0
 40
0
 40
0
 40
0
 40
1
 40
1
 40
1
 40
1
 10
48.937400
 20
69.056900
 30
0.0
 10
48.937400
 20
68.977335
 30
0.0
 10
48.969007
 20
68.901029
 30
0.0
 10
49.025268
 20
68.844768
 30
0.0
  0
SPLINE
  5
29c
100
AcDbEntity
  8
0
 62
1
100
AcDbSpline
 70
8
 71
3
 72
8
 73
4
 74
0
 40
0
 40
0
 40
0
 40
0
 40
1
 40
1
 40
1
 40
1
 10
49.025268
 20
68.844768
 30
0.0
 10
49.081529
 20
68.788507
 30
0.0
 10
49.157835
 20
68.756900
 30
0.0
 10
49.237400
 20
68.756900
 30
0.0
  0
SPLINE
  5
29d
100
AcDbEntity
  8
0
 62
1
100
AcDbSpline
 70
8
 71
3
 72
8
 73
4
 74
0
 40
0
 40
0
 40
0
 40
0
 40
1
 40
1
 40
1
 40
1
 10
62.937400
 20
82.456900
 30
0.0
 10
62.937400
 20
82.536465
 30
0.0
 10
62.905793
 20
82.612771
 30
0.0
 10
62.849532
 20
82.669032
 30
0.0
  0
SPLINE
  5
29e
100
AcDbEntity
  8
0
 62
1
100
AcDbSpline
 70
8
 71
3
 72
8
 73
4
 74
0
 40
0
 40
0
 40
0
 40
0
 40
1
 40
1
 40
1
 40
1
 10
62.849532
 20
82.669032
 30
0.0
 10
62.793271
 20
82.725293
 30
0.0
 10
62.716965
 20
82.756900
 30
0.0
 10
62.637400
 20
82.756900
 30
0.0
  0
SPLINE
  5
29f
100
AcDbEntity
  8
0
 62
1
100
AcDbSpline
 70
8
 71
3
 72
8
 73
4
 74
0
 40
0
 40
0
 40
0
 40
0
 40
1
 40
1
 40
1
 40
1
 10
62.637400
 20
68.756900
 30
0.0
 10
62.716965
 20
68.756900
 30
0.0
 10
62.793271
 20
68.788507
 30
0.0
 10
62.849532
 20
68.844768
 30
0.0
  0
SPLINE
  5
2a0
100
AcDbEntity
  8
0
 62
1
100
AcDbSpline
 70
8
 71
3
 72
8
 73
4
 74
0
 40
0
 40
0
 40
0
 40
0
 40
1
 40
1
 40
1
 40
1
 10
62.849532
 20
68.844768
 30
0.0
 10
62.905793
 20
68.901029
 30
0.0
 10
62.937400
 20
68.977335
 30
0.0
 10
62.937400
 20
69.056900
 30
0.0
  0
LWPOLYLINE
  5
2a1
100
AcDbEntity
  8
0
 62
1
100
AcDbPolyline
 90
2
 70
0
 10
62.937400
 20
69.056900
 30
0.0
 10
62.937400
 20
82.456900
 30
0.0
  0
LWPOLYLINE
  5
2a2
100
AcDbEntity
  8
0
 62
1
100
AcDbPolyline
 90
2
 70
0
 10
13.218400
 20
44.356900
 30
0.0
 10
13.218400
 20
30.956900
 30
0.0
  0
LWPOLYLINE
  5
2a3
100
AcDbEntity
  8
0
 62
1
100
AcDbPolyline
 90
2
 70
0
 10
13.518400
 20
30.656900
 30
0.0
 10
26.918400
 20
30.656900
 30
0.0
  0
LWPOLYLINE
  5
2a4
100
AcDbEntity
  8
0
 62
1
100
AcDbPolyline
 90
2
 70
0
 10
26.918400
 20
44.656900
 30
0.0
 10
13.518400
 20
44.656900
 30
0.0
  0
SPLINE
  5
2a5
100
AcDbEntity
  8
0
 62
1
100
AcDbSpline
 70
8
 71
3
 72
8
 73
4
 74
0
 40
0
 40
0
 40
0
 40
0
 40
1
 40
1
 40
1
 40
1
 10
13.518400
 20
44.656900
 30
0.0
 10
13.438835
 20
44.656900
 30
0.0
 10
13.362529
 20
44.625293
 30
0.0
 10
13.306268
 20
44.569032
 30
0.0
  0
SPLINE
  5
2a6
100
AcDbEntity
  8
0
 62
1
100
AcDbSpline
 70
8
 71
3
 72
8
 73
4
 74
0
 40
0
 40
0
 40
0
 40
0
 40
1
 40
1
 40
1
 40
1
 10
13.306268
 20
44.569032
 30
0.0
 10
13.250007
 20
44.512771
 30
0.0
 10
13.218400
 20
44.436465
 30
0.0
 10
13.218400
 20
44.356900
 30
0.0
  0
SPLINE
  5
2a7
100
AcDbEntity
  8
0
 62
1
100
AcDbSpline
 70
8
 71
3
 72
8
 73
4
 74
0
 40
0
 40
0
 40
0
 40
0
 40
1
 40
1
 40
1
 40
1
 10
13.218400
 20
30.956900
 30
0.0
 10
13.218400
 20
30.877335
 30
0.0
 10
13.250007
 20
30.801029
 30
0.0
 10
13.306268
 20
30.744768
 30
0.0
  0
SPLINE
  5
2a8
100
AcDbEntity
  8
0
 62
1
100
AcDbSpline
 70
8
 71
3
 72
8
 73
4
 74
0
 40
0
 40
0
 40
0
 40
0
 40
1
 40
1
 40
1
 40
1
 10
13.306268
 20
30.744768
 30
0.0
 10
13.362529
 20
30.688507
 30
0.0
 10
13.438835
 20
30.656900
 30
0.0
 10
13.518400
 20
30.656900
 30
0.0
  0
SPLINE
  5
2a9
100
AcDbEntity
  8
0
 62
1
100
AcDbSpline
 70
8
 71
3
 72
8
 73
4
 74
0
 40
0
 40
0
 40
0
 40
0
 40
1
 40
1
 40
1
 40
1
 10
27.218400
 20
44.356900
 30
0.0
 10
27.218400
 20
44.436465
 30
0.0
 10
27.186793
 20
44.512771
 30
0.0
 10
27.130532
 20
44.569032
 30
0.0
  0
SPLINE
  5
2aa
100
AcDbEntity
  8
0
 62
1
100
AcDbSpline
 70
8
 71
3
 72
8
 73
4
 74
0
 40
0
 40
0
 40
0
 40
0
 40
1
 40
1
 40
1
 40
1
 10
27.130532
 20
44.569032
 30
0.0
 10
27.074271
 20
44.625293
 30
0.0
 10
26.997965
 20
44.656900
 30
0.0
 10
26.918400
 20
44.656900
 30
0.0
  0
SPLINE
  5
2ab
100
AcDbEntity
  8
0
 62
1
100
AcDbSpline
 70
8
 71
3
 72
8
 73
4
 74
0
 40
0
 40
0
 40
0
 40
0
 40
1
 40
1
 40
1
 40
1
 10
26.918400
 20
30.656900
 30
0.0
 10
26.997965
 20
30.656900
 30
0.0
 10
27.074271
 20
30.688507
 30
0.0
 10
27.130532
 20
30.744768
 30
0.0
  0
SPLINE
  5
2ac
100
AcDbEntity
  8
0
 62
1
100
AcDbSpline
 70
8
 71
3
 72
8
 73
4
 74
0
 40
0
 40
0
 40
0
 40
0
 40
1
 40
1
 40
1
 40
1
 10
27.130532
 20
30.744768
 30
0.0
 10
27.186793
 20
30.801029
 30
0.0
 10
27.218400
 20
30.877335
 30
0.0
 10
27.218400
 20
30.956900
 30
0.0
  0
LWPOLYLINE
  5
2ad
100
AcDbEntity
  8
0
 62
1
100
AcDbPolyline
 90
2
 70
0
 10
27.218400
 20
30.956900
 30
0.0
 10
27.218400
 20
44.356900
 30
0.0
  0
LWPOLYLINE
  5
2ae
100
AcDbEntity
  8
0
 62
1
100
AcDbPolyline
 90
2
 70
0
 10
87.807700
 20
58.256500
 30
0.0
 10
82.654100
 20
45.887200
 30
0.0
  0
LWPOLYLINE
  5
2af
100
AcDbEntity
  8
0
 62
1
100
AcDbPolyline
 90
2
 70
0
 10
82.815600
 20
45.494800
 30
0.0
 10
95.184900
 20
40.341200
 30
0.0
  0
LWPOLYLINE
  5
2b0
100
AcDbEntity
  8
0
 62
1
100
AcDbPolyline
 90
2
 70
0
 10
100.569300
 20
53.264300
 30
0.0
 10
88.200000
 20
58.418000
 30
0.0
  0
SPLINE
  5
2b1
100
AcDbEntity
  8
0
 62
1
100
AcDbSpline
 70
8
 71
3
 72
8
 73
4
 74
0
 40
0
 40
0
 40
0
 40
0
 40
1
 40
1
 40
1
 40
1
 10
88.200000
 20
58.418000
 30
0.0
 10
88.047072
 20
58.481724
 30
0.0
 10
87.871440
 20
58.409421
 30
0.0
 10
87.807700
 20
58.256500
 30
0.0
  0
SPLINE
  5
2b2
100
AcDbEntity
  8
0
 62
1
100
AcDbSpline
 70
8
 71
3
 72
8
 73
4
 74
0
 40
0
 40
0
 40
0
 40
0
 40
1
 40
1
 40
1
 40
1
 10
82.654100
 20
45.887200
 30
0.0
 10
82.623467
 20
45.813750
 30
0.0
 10
82.623273
 20
45.731137
 30
0.0
 10
82.653562
 20
45.657544
 30
0.0
  0
SPLINE
  5
2b3
100
AcDbEntity
  8
0
 62
1
100
AcDbSpline
 70
8
 71
3
 72
8
 73
4
 74
0
 40
0
 40
0
 40
0
 40
0
 40
1
 40
1
 40
1
 40
1
 10
82.653562
 20
45.657544
 30
0.0
 10
82.683851
 20
45.583951
 30
0.0
 10
82.742139
 20
45.525409
 30
0.0
 10
82.815600
 20
45.494800
 30
0.0
  0
SPLINE
  5
2b4
100
AcDbEntity
  8
0
 62
1
100
AcDbSpline
 70
8
 71
3
 72
8
 73
4
 74
0
 40
0
 40
0
 40
0
 40
0
 40
1
 40
1
 40
1
 40
1
 10
100.730900
 20
52.872000
 30
0.0
 10
100.761496
 20
52.945451
 30
0.0
 10
100.761659
 20
53.028049
 30
0.0
 10
100.731352
 20
53.101620
 30
0.0
  0
SPLINE
  5
2b5
100
AcDbEntity
  8
0
 62
1
100
AcDbSpline
 70
8
 71
3
 72
8
 73
4
 74
0
 40
0
 40
0
 40
0
 40
0
 40
1
 40
1
 40
1
 40
1
 10
100.731352
 20
53.101620
 30
0.0
 10
100.701046
 20
53.175192
 30
0.0
 10
100.642754
 20
53.233710
 30
0.0
 10
100.569300
 20
53.264300
 30
0.0
  0
SPLINE
  5
2b6
100
AcDbEntity
  8
0
 62
1
100
AcDbSpline
 70
8
 71
3
 72
8
 73
4
 74
0
 40
0
 40
0
 40
0
 40
0
 40
1
 40
1
 40
1
 40
1
 10
95.184900
 20
40.341200
 30
0.0
 10
95.337828
 20
40.277476
 30
0.0
 10
95.513460
 20
40.349779
 30
0.0
 10
95.577200
 20
40.502700
 30
0.0
  0
SPLINE
  5
2b7
100
AcDbEntity
  8
0
 62
1
100
AcDbSpline
 70
8
 71
3
 72
8
 73
4
 74
0
 40
0
 40
0
 40
0
 40
0
 40
1
 40
1
 40
1
 40
1
 10
180.352010
 20
104.093800
 30
0.0
 10
179.907102
 20
104.093800
 30
0.0
 10
179.506002
 20
103.825794
 30
0.0
 10
179.335743
 20
103.414752
 30
0.0
  0
SPLINE
  5
2b8
100
AcDbEntity
  8
0
 62
1
100
AcDbSpline
 70
8
 71
3
 72
8
 73
4
 74
0
 40
0
 40
0
 40
0
 40
0
 40
1
 40
1
 40
1
 40
1
 10
179.335743
 20
103.414752
 30
0.0
 10
179.165483
 20
103.003710
 30
0.0
 10
179.259595
 20
102.530580
 30
0.0
 10
179.574193
 20
102.215982
 30
0.0
  0
SPLINE
  5
2b9
100
AcDbEntity
  8
0
 62
1
100
AcDbSpline
 70
8
 71
3
 72
8
 73
4
 74
0
 40
0
 40
0
 40
0
 40
0
 40
1
 40
1
 40
1
 40
1
 10
179.574193
 20
102.215982
 30
0.0
 10
179.888790
 20
101.901385
 30
0.0
 10
180.361920
 20
101.807273
 30
0.0
 10
180.772962
 20
101.977532
 30
0.0
  0
SPLINE
  5
2ba
100
AcDbEntity
  8
0
 62
1
100
AcDbSpline
 70
8
 71
3
 72
8
 73
4
 74
0
 40
0
 40
0
 40
0
 40
0
 40
1
 40
1
 40
1
 40
1
 10
180.772962
 20
101.977532
 30
0.0
 10
181.184004
 20
102.147792
 30
0.0
 10
181.452010
 20
102.548891
 30
0.0
 10
181.452010
 20
102.993800
 30
0.0
  0
SPLINE
  5
2bb
100
AcDbEntity
  8
0
 62
1
100
AcDbSpline
 70
8
 71
3
 72
8
 73
4
 74
0
 40
0
 40
0
 40
0
 40
0
 40
1
 40
1
 40
1
 40
1
 10
181.452010
 20
102.993800
 30
0.0
 10
181.452010
 20
103.285538
 30
0.0
 10
181.336117
 20
103.565327
 30
0.0
 10
181.129827
 20
103.771617
 30
0.0
  0
SPLINE
  5
2bc
100
AcDbEntity
  8
0
 62
1
100
AcDbSpline
 70
8
 71
3
 72
8
 73
4
 74
0
 40
0
 40
0
 40
0
 40
0
 40
1
 40
1
 40
1
 40
1
 10
181.129827
 20
103.771617
 30
0.0
 10
180.923537
 20
103.977907
 30
0.0
 10
180.643748
 20
104.093800
 30
0.0
 10
180.352010
 20
104.093800
 30
0.0
  0
LWPOLYLINE
  5
2bd
100
AcDbEntity
  8
0
 62
1
100
AcDbPolyline
 90
2
 70
0
 10
95.577200
 20
40.502700
 30
0.0
 10
100.730900
 20
52.872000
 30
0.0
  0
SPLINE
  5
2be
100
AcDbEntity
  8
0
 62
1
100
AcDbSpline
 70
8
 71
3
 72
8
 73
4
 74
0
 40
0
 40
0
 40
0
 40
0
 40
1
 40
1
 40
1
 40
1
 10
139.757400
 20
20.706898
 30
0.0
 10
136.926164
 20
20.706898
 30
0.0
 10
134.373710
 20
19.001403
 30
0.0
 10
133.290243
 20
16.385682
 30
0.0
  0
SPLINE
  5
2bf
100
AcDbEntity
  8
0
 62
1
100
AcDbSpline
 70
8
 71
3
 72
8
 73
4
 74
0
 40
0
 40
0
 40
0
 40
0
 40
1
 40
1
 40
1
 40
1
 10
133.290243
 20
16.385682
 30
0.0
 10
132.206776
 20
13.769961
 30
0.0
 10
132.805667
 20
10.759137
 30
0.0
 10
134.807653
 20
8.757151
 30
0.0
  0
SPLINE
  5
2c0
100
AcDbEntity
  8
0
 62
1
100
AcDbSpline
 70
8
 71
3
 72
8
 73
4
 74
0
 40
0
 40
0
 40
0
 40
0
 40
1
 40
1
 40
1
 40
1
 10
134.807653
 20
8.757151
 30
0.0
 10
136.809639
 20
6.755165
 30
0.0
 10
139.820463
 20
6.156274
 30
0.0
 10
142.436184
 20
7.239741
 30
0.0
  0
SPLINE
  5
2c1
100
AcDbEntity
  8
0
 62
1
100
AcDbSpline
 70
8
 71
3
 72
8
 73
4
 74
0
 40
0
 40
0
 40
0
 40
0
 40
1
 40
1
 40
1
 40
1
 10
142.436184
 20
7.239741
 30
0.0
 10
145.051905
 20
8.323208
 30
0.0
 10
146.757400
 20
10.875662
 30
0.0
 10
146.757400
 20
13.706898
 30
0.0
  0
SPLINE
  5
2c2
100
AcDbEntity
  8
0
 62
1
100
AcDbSpline
 70
8
 71
3
 72
8
 73
4
 74
0
 40
0
 40
0
 40
0
 40
0
 40
1
 40
1
 40
1
 40
1
 10
146.757400
 20
13.706898
 30
0.0
 10
146.757400
 20
15.563413
 30
0.0
 10
146.019902
 20
17.343891
 30
0.0
 10
144.707147
 20
18.656645
 30
0.0
  0
SPLINE
  5
2c3
100
AcDbEntity
  8
0
 62
1
100
AcDbSpline
 70
8
 71
3
 72
8
 73
4
 74
0
 40
0
 40
0
 40
0
 40
0
 40
1
 40
1
 40
1
 40
1
 10
144.707147
 20
18.656645
 30
0.0
 10
143.394393
 20
19.969400
 30
0.0
 10
141.613915
 20
20.706898
 30
0.0
 10
139.757400
 20
20.706898
 30
0.0
  0
LWPOLYLINE
  5
2c4
100
AcDbEntity
  8
0
 62
1
100
AcDbPolyline
 90
1
 70
1
 10
180.352010
 20
104.093800
 30
0.0
  0
LWPOLYLINE
  5
2c5
100
AcDbEntity
  8
0
 62
1
100
AcDbPolyline
 90
1
 70
1
 10
139.757400
 20
20.706898
 30
0.0
  0
LWPOLYLINE
  5
2c6
100
AcDbEntity
  8
0
 62
1
100
AcDbPolyline
 90
2
 70
0
 10
95.427200
 20
96.356600
 30
0.0
 10
90.273500
 20
83.987300
 30
0.0
  0
LWPOLYLINE
  5
2c7
100
AcDbEntity
  8
0
 62
1
100
AcDbPolyline
 90
2
 70
0
 10
90.435000
 20
83.595000
 30
0.0
 10
102.804300
 20
78.441300
 30
0.0
  0
LWPOLYLINE
  5
2c8
100
AcDbEntity
  8
0
 62
1
100
AcDbPolyline
 90
2
 70
0
 10
108.188800
 20
91.364500
 30
0.0
 10
95.819500
 20
96.518100
 30
0.0
  0
SPLINE
  5
2c9
100
AcDbEntity
  8
0
 62
1
100
AcDbSpline
 70
8
 71
3
 72
8
 73
4
 74
0
 40
0
 40
0
 40
0
 40
0
 40
1
 40
1
 40
1
 40
1
 10
95.819500
 20
96.518100
 30
0.0
 10
95.666572
 20
96.581824
 30
0.0
 10
95.490940
 20
96.509521
 30
0.0
 10
95.427200
 20
96.356600
 30
0.0
  0
SPLINE
  5
2ca
100
AcDbEntity
  8
0
 62
1
100
AcDbSpline
 70
8
 71
3
 72
8
 73
4
 74
0
 40
0
 40
0
 40
0
 40
0
 40
1
 40
1
 40
1
 40
1
 10
90.273500
 20
83.987300
 30
0.0
 10
90.209776
 20
83.834372
 30
0.0
 10
90.282079
 20
83.658740
 30
0.0
 10
90.435000
 20
83.595000
 30
0.0
  0
SPLINE
  5
2cb
100
AcDbEntity
  8
0
 62
1
100
AcDbSpline
 70
8
 71
3
 72
8
 73
4
 74
0
 40
0
 40
0
 40
0
 40
0
 40
1
 40
1
 40
1
 40
1
 10
108.350300
 20
90.972200
 30
0.0
 10
108.414024
 20
91.125128
 30
0.0
 10
108.341721
 20
91.300760
 30
0.0
 10
108.188800
 20
91.364500
 30
0.0
  0
SPLINE
  5
2cc
100
AcDbEntity
  8
0
 62
1
100
AcDbSpline
 70
8
 71
3
 72
8
 73
4
 74
0
 40
0
 40
0
 40
0
 40
0
 40
1
 40
1
 40
1
 40
1
 10
102.804300
 20
78.441300
 30
0.0
 10
102.877750
 20
78.410667
 30
0.0
 10
102.960363
 20
78.410473
 30
0.0
 10
103.033956
 20
78.440762
 30
0.0
  0
SPLINE
  5
2cd
100
AcDbEntity
  8
0
 62
1
100
AcDbSpline
 70
8
 71
3
 72
8
 73
4
 74
0
 40
0
 40
0
 40
0
 40
0
 40
1
 40
1
 40
1
 40
1
 10
103.033956
 20
78.440762
 30
0.0
 10
103.107549
 20
78.471051
 30
0.0
 10
103.166091
 20
78.529339
 30
0.0
 10
103.196700
 20
78.602800
 30
0.0
  0
LWPOLYLINE
  5
2ce
100
AcDbEntity
  8
0
 62
1
100
AcDbPolyline
 90
2
 70
0
 10
103.196700
 20
78.602800
 30
0.0
 10
108.350300
 20
90.972200
 30
0.0
  0
LWPOLYLINE
  5
2cf
100
AcDbEntity
  8
0
 62
1
100
AcDbPolyline
 90
2
 70
0
 10
258.487400
 20
63.406900
 30
0.0
 10
258.487400
 20
50.006900
 30
0.0
  0
LWPOLYLINE
  5
2d0
100
AcDbEntity
  8
0
 62
1
100
AcDbPolyline
 90
2
 70
0
 10
258.787400
 20
49.706900
 30
0.0
 10
272.187400
 20
49.706900
 30
0.0
  0
LWPOLYLINE
  5
2d1
100
AcDbEntity
  8
0
 62
1
100
AcDbPolyline
 90
2
 70
0
 10
272.187400
 20
63.706900
 30
0.0
 10
258.787400
 20
63.706900
 30
0.0
  0
SPLINE
  5
2d2
100
AcDbEntity
  8
0
 62
1
100
AcDbSpline
 70
8
 71
3
 72
8
 73
4
 74
0
 40
0
 40
0
 40
0
 40
0
 40
1
 40
1
 40
1
 40
1
 10
258.787400
 20
63.706900
 30
0.0
 10
258.707835
 20
63.706900
 30
0.0
 10
258.631529
 20
63.675293
 30
0.0
 10
258.575268
 20
63.619032
 30
0.0
  0
SPLINE
  5
2d3
100
AcDbEntity
  8
0
 62
1
100
AcDbSpline
 70
8
 71
3
 72
8
 73
4
 74
0
 40
0
 40
0
 40
0
 40
0
 40
1
 40
1
 40
1
 40
1
 10
258.575268
 20
63.619032
 30
0.0
 10
258.519007
 20
63.562771
 30
0.0
 10
258.487400
 20
63.486465
 30
0.0
 10
258.487400
 20
63.406900
 30
0.0
  0
SPLINE
  5
2d4
100
AcDbEntity
  8
0
 62
1
100
AcDbSpline
 70
8
 71
3
 72
8
 73
4
 74
0
 40
0
 40
0
 40
0
 40
0
 40
1
 40
1
 40
1
 40
1
 10
258.487400
 20
50.006900
 30
0.0
 10
258.487400
 20
49.927335
 30
0.0
 10
258.519007
 20
49.851029
 30
0.0
 10
258.575268
 20
49.794768
 30
0.0
  0
SPLINE
  5
2d5
100
AcDbEntity
  8
0
 62
1
100
AcDbSpline
 70
8
 71
3
 72
8
 73
4
 74
0
 40
0
 40
0
 40
0
 40
0
 40
1
 40
1
 40
1
 40
1
 10
258.575268
 20
49.794768
 30
0.0
 10
258.631529
 20
49.738507
 30
0.0
 10
258.707835
 20
49.706900
 30
0.0
 10
258.787400
 20
49.706900
 30
0.0
  0
SPLINE
  5
2d6
100
AcDbEntity
  8
0
 62
1
100
AcDbSpline
 70
8
 71
3
 72
8
 73
4
 74
0
 40
0
 40
0
 40
0
 40
0
 40
1
 40
1
 40
1
 40
1
 10
272.487400
 20
63.406900
 30
0.0
 10
272.487400
 20
63.486465
 30
0.0
 10
272.455793
 20
63.562771
 30
0.0
 10
272.399532
 20
63.619032
 30
0.0
  0
SPLINE
  5
2d7
100
AcDbEntity
  8
0
 62
1
100
AcDbSpline
 70
8
 71
3
 72
8
 73
4
 74
0
 40
0
 40
0
 40
0
 40
0
 40
1
 40
1
 40
1
 40
1
 10
272.399532
 20
63.619032
 30
0.0
 10
272.343271
 20
63.675293
 30
0.0
 10
272.266965
 20
63.706900
 30
0.0
 10
272.187400
 20
63.706900
 30
0.0
  0
SPLINE
  5
2d8
100
AcDbEntity
  8
0
 62
1
100
AcDbSpline
 70
8
 71
3
 72
8
 73
4
 74
0
 40
0
 40
0
 40
0
 40
0
 40
1
 40
1
 40
1
 40
1
 10
272.187400
 20
49.706900
 30
0.0
 10
272.266965
 20
49.706900
 30
0.0
 10
272.343271
 20
49.738507
 30
0.0
 10
272.399532
 20
49.794768
 30
0.0
  0
SPLINE
  5
2d9
100
AcDbEntity
  8
0
 62
1
100
AcDbSpline
 70
8
 71
3
 72
8
 73
4
 74
0
 40
0
 40
0
 40
0
 40
0
 40
1
 40
1
 40
1
 40
1
 10
272.399532
 20
49.794768
 30
0.0
 10
272.455793
 20
49.851029
 30
0.0
 10
272.487400
 20
49.927335
 30
0.0
 10
272.487400
 20
50.006900
 30
0.0
  0
SPLINE
  5
2da
100
AcDbEntity
  8
0
 62
1
100
AcDbSpline
 70
8
 71
3
 72
8
 73
4
 74
0
 40
0
 40
0
 40
0
 40
0
 40
1
 40
1
 40
1
 40
1
 10
31.172400
 20
100.669400
 30
0.0
 10
30.727492
 20
100.669400
 30
0.0
 10
30.326392
 20
100.401394
 30
0.0
 10
30.156133
 20
99.990352
 30
0.0
  0
SPLINE
  5
2db
100
AcDbEntity
  8
0
 62
1
100
AcDbSpline
 70
8
 71
3
 72
8
 73
4
 74
0
 40
0
 40
0
 40
0
 40
0
 40
1
 40
1
 40
1
 40
1
 10
30.156133
 20
99.990352
 30
0.0
 10
29.985873
 20
99.579310
 30
0.0
 10
30.079985
 20
99.106180
 30
0.0
 10
30.394583
 20
98.791583
 30
0.0
  0
SPLINE
  5
2dc
100
AcDbEntity
  8
0
 62
1
100
AcDbSpline
 70
8
 71
3
 72
8
 73
4
 74
0
 40
0
 40
0
 40
0
 40
0
 40
1
 40
1
 40
1
 40
1
 10
30.394583
 20
98.791583
 30
0.0
 10
30.709180
 20
98.476985
 30
0.0
 10
31.182310
 20
98.382873
 30
0.0
 10
31.593352
 20
98.553133
 30
0.0
  0
SPLINE
  5
2dd
100
AcDbEntity
  8
0
 62
1
100
AcDbSpline
 70
8
 71
3
 72
8
 73
4
 74
0
 40
0
 40
0
 40
0
 40
0
 40
1
 40
1
 40
1
 40
1
 10
31.593352
 20
98.553133
 30
0.0
 10
32.004394
 20
98.723392
 30
0.0
 10
32.272400
 20
99.124492
 30
0.0
 10
32.272400
 20
99.569400
 30
0.0
  0
SPLINE
  5
2de
100
AcDbEntity
  8
0
 62
1
100
AcDbSpline
 70
8
 71
3
 72
8
 73
4
 74
0
 40
0
 40
0
 40
0
 40
0
 40
1
 40
1
 40
1
 40
1
 10
32.272400
 20
99.569400
 30
0.0
 10
32.272400
 20
99.861138
 30
0.0
 10
32.156507
 20
100.140927
 30
0.0
 10
31.950217
 20
100.347217
 30
0.0
  0
SPLINE
  5
2df
100
AcDbEntity
  8
0
 62
1
100
AcDbSpline
 70
8
 71
3
 72
8
 73
4
 74
0
 40
0
 40
0
 40
0
 40
0
 40
1
 40
1
 40
1
 40
1
 10
31.950217
 20
100.347217
 30
0.0
 10
31.743927
 20
100.553507
 30
0.0
 10
31.464138
 20
100.669400
 30
0.0
 10
31.172400
 20
100.669400
 30
0.0
  0
LWPOLYLINE
  5
2e0
100
AcDbEntity
  8
0
 62
1
100
AcDbPolyline
 90
2
 70
0
 10
272.487400
 20
50.006900
 30
0.0
 10
272.487400
 20
63.406900
 30
0.0
  0
LWPOLYLINE
  5
2e1
100
AcDbEntity
  8
0
 62
1
100
AcDbPolyline
 90
1
 70
1
 10
31.172400
 20
100.669400
 30
0.0
  0
LWPOLYLINE
  5
2e2
100
AcDbEntity
  8
0
 62
1
100
AcDbPolyline
 90
2
 70
0
 10
171.164500
 20
90.972200
 30
0.0
 10
176.318100
 20
78.602800
 30
0.0
  0
LWPOLYLINE
  5
2e3
100
AcDbEntity
  8
0
 62
1
100
AcDbPolyline
 90
2
 70
0
 10
176.710500
 20
78.441300
 30
0.0
 10
189.079800
 20
83.595000
 30
0.0
  0
LWPOLYLINE
  5
2e4
100
AcDbEntity
  8
0
 62
1
100
AcDbPolyline
 90
2
 70
0
 10
183.695300
 20
96.518100
 30
0.0
 10
171.326000
 20
91.364500
 30
0.0
  0
SPLINE
  5
2e5
100
AcDbEntity
  8
0
 62
1
100
AcDbSpline
 70
8
 71
3
 72
8
 73
4
 74
0
 40
0
 40
0
 40
0
 40
0
 40
1
 40
1
 40
1
 40
1
 10
171.326000
 20
91.364500
 30
0.0
 10
171.173079
 20
91.300760
 30
0.0
 10
171.100776
 20
91.125128
 30
0.0
 10
171.164500
 20
90.972200
 30
0.0
  0
SPLINE
  5
2e6
100
AcDbEntity
  8
0
 62
1
100
AcDbSpline
 70
8
 71
3
 72
8
 73
4
 74
0
 40
0
 40
0
 40
0
 40
0
 40
1
 40
1
 40
1
 40
1
 10
176.318100
 20
78.602800
 30
0.0
 10
176.348709
 20
78.529339
 30
0.0
 10
176.407251
 20
78.471051
 30
0.0
 10
176.480844
 20
78.440762
 30
0.0
  0
SPLINE
  5
2e7
100
AcDbEntity
  8
0
 62
1
100
AcDbSpline
 70
8
 71
3
 72
8
 73
4
 74
0
 40
0
 40
0
 40
0
 40
0
 40
1
 40
1
 40
1
 40
1
 10
176.480844
 20
78.440762
 30
0.0
 10
176.554437
 20
78.410473
 30
0.0
 10
176.637050
 20
78.410667
 30
0.0
 10
176.710500
 20
78.441300
 30
0.0
  0
SPLINE
  5
2e8
100
AcDbEntity
  8
0
 62
1
100
AcDbSpline
 70
8
 71
3
 72
8
 73
4
 74
0
 40
0
 40
0
 40
0
 40
0
 40
1
 40
1
 40
1
 40
1
 10
184.087600
 20
96.356600
 30
0.0
 10
184.023860
 20
96.509521
 30
0.0
 10
183.848228
 20
96.581824
 30
0.0
 10
183.695300
 20
96.518100
 30
0.0
  0
SPLINE
  5
2e9
100
AcDbEntity
  8
0
 62
1
100
AcDbSpline
 70
8
 71
3
 72
8
 73
4
 74
0
 40
0
 40
0
 40
0
 40
0
 40
1
 40
1
 40
1
 40
1
 10
189.079800
 20
83.595000
 30
0.0
 10
189.232721
 20
83.658740
 30
0.0
 10
189.305024
 20
83.834372
 30
0.0
 10
189.241300
 20
83.987300
 30
0.0
  0
LWPOLYLINE
  5
2ea
100
AcDbEntity
  8
0
 62
1
100
AcDbPolyline
 90
2
 70
0
 10
189.241300
 20
83.987300
 30
0.0
 10
184.087600
 20
96.356600
 30
0.0
  0
LWPOLYLINE
  5
2eb
100
AcDbEntity
  8
0
 62
1
100
AcDbPolyline
 90
2
 70
0
 10
161.199200
 20
45.545400
 30
0.0
 10
166.352800
 20
33.176100
 30
0.0
  0
LWPOLYLINE
  5
2ec
100
AcDbEntity
  8
0
 62
1
100
AcDbPolyline
 90
2
 70
0
 10
166.745100
 20
33.014500
 30
0.0
 10
179.114500
 20
38.168200
 30
0.0
  0
LWPOLYLINE
  5
2ed
100
AcDbEntity
  8
0
 62
1
100
AcDbPolyline
 90
2
 70
0
 10
173.730000
 20
51.091300
 30
0.0
 10
161.360700
 20
45.937700
 30
0.0
  0
SPLINE
  5
2ee
100
AcDbEntity
  8
0
 62
1
100
AcDbSpline
 70
8
 71
3
 72
8
 73
4
 74
0
 40
0
 40
0
 40
0
 40
0
 40
1
 40
1
 40
1
 40
1
 10
161.360700
 20
45.937700
 30
0.0
 10
161.207779
 20
45.873960
 30
0.0
 10
161.135476
 20
45.698328
 30
0.0
 10
161.199200
 20
45.545400
 30
0.0
  0
SPLINE
  5
2ef
100
AcDbEntity
  8
0
 62
1
100
AcDbSpline
 70
8
 71
3
 72
8
 73
4
 74
0
 40
0
 40
0
 40
0
 40
0
 40
1
 40
1
 40
1
 40
1
 10
166.352800
 20
33.176100
 30
0.0
 10
166.383390
 20
33.102646
 30
0.0
 10
166.441908
 20
33.044354
 30
0.0
 10
166.515480
 20
33.014048
 30
0.0
  0
SPLINE
  5
2f0
100
AcDbEntity
  8
0
 62
1
100
AcDbSpline
 70
8
 71
3
 72
8
 73
4
 74
0
 40
0
 40
0
 40
0
 40
0
 40
1
 40
1
 40
1
 40
1
 10
166.515480
 20
33.014048
 30
0.0
 10
166.589051
 20
32.983741
 30
0.0
 10
166.671649
 20
32.983904
 30
0.0
 10
166.745100
 20
33.014500
 30
0.0
  0
SPLINE
  5
2f1
100
AcDbEntity
  8
0
 62
1
100
AcDbSpline
 70
8
 71
3
 72
8
 73
4
 74
0
 40
0
 40
0
 40
0
 40
0
 40
1
 40
1
 40
1
 40
1
 10
174.122300
 20
50.929800
 30
0.0
 10
174.058560
 20
51.082721
 30
0.0
 10
173.882928
 20
51.155024
 30
0.0
 10
173.730000
 20
51.091300
 30
0.0
  0
SPLINE
  5
2f2
100
AcDbEntity
  8
0
 62
1
100
AcDbSpline
 70
8
 71
3
 72
8
 73
4
 74
0
 40
0
 40
0
 40
0
 40
0
 40
1
 40
1
 40
1
 40
1
 10
179.114500
 20
38.168200
 30
0.0
 10
179.267421
 20
38.231940
 30
0.0
 10
179.339724
 20
38.407572
 30
0.0
 10
179.276000
 20
38.560500
 30
0.0
  0
SPLINE
  5
2f3
100
AcDbEntity
  8
0
 62
1
100
AcDbSpline
 70
8
 71
3
 72
8
 73
4
 74
0
 40
0
 40
0
 40
0
 40
0
 40
1
 40
1
 40
1
 40
1
 10
22.218399
 20
48.281900
 30
0.0
 10
21.610886
 20
48.281900
 30
0.0
 10
21.118399
 20
47.789413
 30
0.0
 10
21.118399
 20
47.181900
 30
0.0
  0
SPLINE
  5
2f4
100
AcDbEntity
  8
0
 62
1
100
AcDbSpline
 70
8
 71
3
 72
8
 73
4
 74
0
 40
0
 40
0
 40
0
 40
0
 40
1
 40
1
 40
1
 40
1
 10
21.118399
 20
47.181900
 30
0.0
 10
21.118399
 20
46.574387
 30
0.0
 10
21.610886
 20
46.081900
 30
0.0
 10
22.218399
 20
46.081900
 30
0.0
  0
SPLINE
  5
2f5
100
AcDbEntity
  8
0
 62
1
100
AcDbSpline
 70
8
 71
3
 72
8
 73
4
 74
0
 40
0
 40
0
 40
0
 40
0
 40
1
 40
1
 40
1
 40
1
 10
22.218399
 20
46.081900
 30
0.0
 10
22.825912
 20
46.081900
 30
0.0
 10
23.318399
 20
46.574387
 30
0.0
 10
23.318399
 20
47.181900
 30
0.0
  0
SPLINE
  5
2f6
100
AcDbEntity
  8
0
 62
1
100
AcDbSpline
 70
8
 71
3
 72
8
 73
4
 74
0
 40
0
 40
0
 40
0
 40
0
 40
1
 40
1
 40
1
 40
1
 10
23.318399
 20
47.181900
 30
0.0
 10
23.318399
 20
47.473638
 30
0.0
 10
23.202506
 20
47.753427
 30
0.0
 10
22.996216
 20
47.959717
 30
0.0
  0
SPLINE
  5
2f7
100
AcDbEntity
  8
0
 62
1
100
AcDbSpline
 70
8
 71
3
 72
8
 73
4
 74
0
 40
0
 40
0
 40
0
 40
0
 40
1
 40
1
 40
1
 40
1
 10
22.996216
 20
47.959717
 30
0.0
 10
22.789926
 20
48.166007
 30
0.0
 10
22.510137
 20
48.281900
 30
0.0
 10
22.218399
 20
48.281900
 30
0.0
  0
LWPOLYLINE
  5
2f8
100
AcDbEntity
  8
0
 62
1
100
AcDbPolyline
 90
2
 70
0
 10
179.276000
 20
38.560500
 30
0.0
 10
174.122300
 20
50.929800
 30
0.0
  0
LWPOLYLINE
  5
2f9
100
AcDbEntity
  8
0
 62
1
100
AcDbPolyline
 90
1
 70
1
 10
22.218399
 20
48.281900
 30
0.0
  0
LWPOLYLINE
  5
2fa
100
AcDbEntity
  8
0
 62
1
100
AcDbPolyline
 90
2
 70
0
 10
254.677400
 20
82.456900
 30
0.0
 10
254.677400
 20
69.056900
 30
0.0
  0
LWPOLYLINE
  5
2fb
100
AcDbEntity
  8
0
 62
1
100
AcDbPolyline
 90
2
 70
0
 10
254.977400
 20
68.756900
 30
0.0
 10
268.377400
 20
68.756900
 30
0.0
  0
LWPOLYLINE
  5
2fc
100
AcDbEntity
  8
0
 62
1
100
AcDbPolyline
 90
2
 70
0
 10
268.377400
 20
82.756900
 30
0.0
 10
254.977400
 20
82.756900
 30
0.0
  0
SPLINE
  5
2fd
100
AcDbEntity
  8
0
 62
1
100
AcDbSpline
 70
8
 71
3
 72
8
 73
4
 74
0
 40
0
 40
0
 40
0
 40
0
 40
1
 40
1
 40
1
 40
1
 10
254.977400
 20
82.756900
 30
0.0
 10
254.897835
 20
82.756900
 30
0.0
 10
254.821529
 20
82.725293
 30
0.0
 10
254.765268
 20
82.669032
 30
0.0
  0
SPLINE
  5
2fe
100
AcDbEntity
  8
0
 62
1
100
AcDbSpline
 70
8
 71
3
 72
8
 73
4
 74
0
 40
0
 40
0
 40
0
 40
0
 40
1
 40
1
 40
1
 40
1
 10
254.765268
 20
82.669032
 30
0.0
 10
254.709007
 20
82.612771
 30
0.0
 10
254.677400
 20
82.536465
 30
0.0
 10
254.677400
 20
82.456900
 30
0.0
  0
SPLINE
  5
2ff
100
AcDbEntity
  8
0
 62
1
100
AcDbSpline
 70
8
 71
3
 72
8
 73
4
 74
0
 40
0
 40
0
 40
0
 40
0
 40
1
 40
1
 40
1
 40
1
 10
254.677400
 20
69.056900
 30
0.0
 10
254.677400
 20
68.977335
 30
0.0
 10
254.709007
 20
68.901029
 30
0.0
 10
254.765268
 20
68.844768
 30
0.0
  0
SPLINE
  5
300
100
AcDbEntity
  8
0
 62
1
100
AcDbSpline
 70
8
 71
3
 72
8
 73
4
 74
0
 40
0
 40
0
 40
0
 40
0
 40
1
 40
1
 40
1
 40
1
 10
254.765268
 20
68.844768
 30
0.0
 10
254.821529
 20
68.788507
 30
0.0
 10
254.897835
 20
68.756900
 30
0.0
 10
254.977400
 20
68.756900
 30
0.0
  0
SPLINE
  5
301
100
AcDbEntity
  8
0
 62
1
100
AcDbSpline
 70
8
 71
3
 72
8
 73
4
 74
0
 40
0
 40
0
 40
0
 40
0
 40
1
 40
1
 40
1
 40
1
 10
268.677400
 20
82.456900
 30
0.0
 10
268.677400
 20
82.536465
 30
0.0
 10
268.645793
 20
82.612771
 30
0.0
 10
268.589532
 20
82.669032
 30
0.0
  0
SPLINE
  5
302
100
AcDbEntity
  8
0
 62
1
100
AcDbSpline
 70
8
 71
3
 72
8
 73
4
 74
0
 40
0
 40
0
 40
0
 40
0
 40
1
 40
1
 40
1
 40
1
 10
268.589532
 20
82.669032
 30
0.0
 10
268.533271
 20
82.725293
 30
0.0
 10
268.456965
 20
82.756900
 30
0.0
 10
268.377400
 20
82.756900
 30
0.0
  0
SPLINE
  5
303
100
AcDbEntity
  8
0
 62
1
100
AcDbSpline
 70
8
 71
3
 72
8
 73
4
 74
0
 40
0
 40
0
 40
0
 40
0
 40
1
 40
1
 40
1
 40
1
 10
268.377400
 20
68.756900
 30
0.0
 10
268.456965
 20
68.756900
 30
0.0
 10
268.533271
 20
68.788507
 30
0.0
 10
268.589532
 20
68.844768
 30
0.0
  0
SPLINE
  5
304
100
AcDbEntity
  8
0
 62
1
100
AcDbSpline
 70
8
 71
3
 72
8
 73
4
 74
0
 40
0
 40
0
 40
0
 40
0
 40
1
 40
1
 40
1
 40
1
 10
268.589532
 20
68.844768
 30
0.0
 10
268.645793
 20
68.901029
 30
0.0
 10
268.677400
 20
68.977335
 30
0.0
 10
268.677400
 20
69.056900
 30
0.0
  0
LWPOLYLINE
  5
305
100
AcDbEntity
  8
0
 62
1
100
AcDbPolyline
 90
2
 70
0
 10
268.677400
 20
69.056900
 30
0.0
 10
268.677400
 20
82.456900
 30
0.0
  0
LWPOLYLINE
  5
306
100
AcDbEntity
  8
0
 62
1
100
AcDbPolyline
 90
2
 70
0
 10
216.577400
 20
82.456900
 30
0.0
 10
216.577400
 20
69.056900
 30
0.0
  0
LWPOLYLINE
  5
307
100
AcDbEntity
  8
0
 62
1
100
AcDbPolyline
 90
2
 70
0
 10
216.877400
 20
68.756900
 30
0.0
 10
230.277400
 20
68.756900
 30
0.0
  0
LWPOLYLINE
  5
308
100
AcDbEntity
  8
0
 62
1
100
AcDbPolyline
 90
2
 70
0
 10
230.277400
 20
82.756900
 30
0.0
 10
216.877400
 20
82.756900
 30
0.0
  0
SPLINE
  5
309
100
AcDbEntity
  8
0
 62
1
100
AcDbSpline
 70
8
 71
3
 72
8
 73
4
 74
0
 40
0
 40
0
 40
0
 40
0
 40
1
 40
1
 40
1
 40
1
 10
216.877400
 20
82.756900
 30
0.0
 10
216.797835
 20
82.756900
 30
0.0
 10
216.721529
 20
82.725293
 30
0.0
 10
216.665268
 20
82.669032
 30
0.0
  0
SPLINE
  5
30a
100
AcDbEntity
  8
0
 62
1
100
AcDbSpline
 70
8
 71
3
 72
8
 73
4
 74
0
 40
0
 40
0
 40
0
 40
0
 40
1
 40
1
 40
1
 40
1
 10
216.665268
 20
82.669032
 30
0.0
 10
216.609007
 20
82.612771
 30
0.0
 10
216.577400
 20
82.536465
 30
0.0
 10
216.577400
 20
82.456900
 30
0.0
  0
SPLINE
  5
30b
100
AcDbEntity
  8
0
 62
1
100
AcDbSpline
 70
8
 71
3
 72
8
 73
4
 74
0
 40
0
 40
0
 40
0
 40
0
 40
1
 40
1
 40
1
 40
1
 10
216.577400
 20
69.056900
 30
0.0
 10
216.577400
 20
68.977335
 30
0.0
 10
216.609007
 20
68.901029
 30
0.0
 10
216.665268
 20
68.844768
 30
0.0
  0
SPLINE
  5
30c
100
AcDbEntity
  8
0
 62
1
100
AcDbSpline
 70
8
 71
3
 72
8
 73
4
 74
0
 40
0
 40
0
 40
0
 40
0
 40
1
 40
1
 40
1
 40
1
 10
216.665268
 20
68.844768
 30
0.0
 10
216.721529
 20
68.788507
 30
0.0
 10
216.797835
 20
68.756900
 30
0.0
 10
216.877400
 20
68.756900
 30
0.0
  0
SPLINE
  5
30d
100
AcDbEntity
  8
0
 62
1
100
AcDbSpline
 70
8
 71
3
 72
8
 73
4
 74
0
 40
0
 40
0
 40
0
 40
0
 40
1
 40
1
 40
1
 40
1
 10
230.577400
 20
82.456900
 30
0.0
 10
230.577400
 20
82.536465
 30
0.0
 10
230.545793
 20
82.612771
 30
0.0
 10
230.489532
 20
82.669032
 30
0.0
  0
SPLINE
  5
30e
100
AcDbEntity
  8
0
 62
1
100
AcDbSpline
 70
8
 71
3
 72
8
 73
4
 74
0
 40
0
 40
0
 40
0
 40
0
 40
1
 40
1
 40
1
 40
1
 10
230.489532
 20
82.669032
 30
0.0
 10
230.433271
 20
82.725293
 30
0.0
 10
230.356965
 20
82.756900
 30
0.0
 10
230.277400
 20
82.756900
 30
0.0
  0
SPLINE
  5
30f
100
AcDbEntity
  8
0
 62
1
100
AcDbSpline
 70
8
 71
3
 72
8
 73
4
 74
0
 40
0
 40
0
 40
0
 40
0
 40
1
 40
1
 40
1
 40
1
 10
230.277400
 20
68.756900
 30
0.0
 10
230.356965
 20
68.756900
 30
0.0
 10
230.433271
 20
68.788507
 30
0.0
 10
230.489532
 20
68.844768
 30
0.0
  0
SPLINE
  5
310
100
AcDbEntity
  8
0
 62
1
100
AcDbSpline
 70
8
 71
3
 72
8
 73
4
 74
0
 40
0
 40
0
 40
0
 40
0
 40
1
 40
1
 40
1
 40
1
 10
230.489532
 20
68.844768
 30
0.0
 10
230.545793
 20
68.901029
 30
0.0
 10
230.577400
 20
68.977335
 30
0.0
 10
230.577400
 20
69.056900
 30
0.0
  0
LWPOLYLINE
  5
311
100
AcDbEntity
  8
0
 62
1
100
AcDbPolyline
 90
2
 70
0
 10
230.577400
 20
69.056900
 30
0.0
 10
230.577400
 20
82.456900
 30
0.0
  0
LWPOLYLINE
  5
312
100
AcDbEntity
  8
0
 62
1
100
AcDbPolyline
 90
2
 70
0
 10
196.368600
 20
60.198700
 30
0.0
 10
201.522300
 20
47.829400
 30
0.0
  0
LWPOLYLINE
  5
313
100
AcDbEntity
  8
0
 62
1
100
AcDbPolyline
 90
2
 70
0
 10
201.914600
 20
47.667800
 30
0.0
 10
214.283900
 20
52.821500
 30
0.0
  0
LWPOLYLINE
  5
314
100
AcDbEntity
  8
0
 62
1
100
AcDbPolyline
 90
2
 70
0
 10
208.899500
 20
65.744700
 30
0.0
 10
196.530200
 20
60.591000
 30
0.0
  0
SPLINE
  5
315
100
AcDbEntity
  8
0
 62
1
100
AcDbSpline
 70
8
 71
3
 72
8
 73
4
 74
0
 40
0
 40
0
 40
0
 40
0
 40
1
 40
1
 40
1
 40
1
 10
196.530200
 20
60.591000
 30
0.0
 10
196.456746
 20
60.560410
 30
0.0
 10
196.398454
 20
60.501892
 30
0.0
 10
196.368148
 20
60.428320
 30
0.0
  0
SPLINE
  5
316
100
AcDbEntity
  8
0
 62
1
100
AcDbSpline
 70
8
 71
3
 72
8
 73
4
 74
0
 40
0
 40
0
 40
0
 40
0
 40
1
 40
1
 40
1
 40
1
 10
196.368148
 20
60.428320
 30
0.0
 10
196.337841
 20
60.354749
 30
0.0
 10
196.338004
 20
60.272151
 30
0.0
 10
196.368600
 20
60.198700
 30
0.0
  0
SPLINE
  5
317
100
AcDbEntity
  8
0
 62
1
100
AcDbSpline
 70
8
 71
3
 72
8
 73
4
 74
0
 40
0
 40
0
 40
0
 40
0
 40
1
 40
1
 40
1
 40
1
 10
201.522300
 20
47.829400
 30
0.0
 10
201.552890
 20
47.755946
 30
0.0
 10
201.611408
 20
47.697654
 30
0.0
 10
201.684980
 20
47.667348
 30
0.0
  0
SPLINE
  5
318
100
AcDbEntity
  8
0
 62
1
100
AcDbSpline
 70
8
 71
3
 72
8
 73
4
 74
0
 40
0
 40
0
 40
0
 40
0
 40
1
 40
1
 40
1
 40
1
 10
201.684980
 20
47.667348
 30
0.0
 10
201.758551
 20
47.637041
 30
0.0
 10
201.841149
 20
47.637204
 30
0.0
 10
201.914600
 20
47.667800
 30
0.0
  0
SPLINE
  5
319
100
AcDbEntity
  8
0
 62
1
100
AcDbSpline
 70
8
 71
3
 72
8
 73
4
 74
0
 40
0
 40
0
 40
0
 40
0
 40
1
 40
1
 40
1
 40
1
 10
209.291800
 20
65.583100
 30
0.0
 10
209.261210
 20
65.656554
 30
0.0
 10
209.202692
 20
65.714846
 30
0.0
 10
209.129120
 20
65.745152
 30
0.0
  0
SPLINE
  5
31a
100
AcDbEntity
  8
0
 62
1
100
AcDbSpline
 70
8
 71
3
 72
8
 73
4
 74
0
 40
0
 40
0
 40
0
 40
0
 40
1
 40
1
 40
1
 40
1
 10
209.129120
 20
65.745152
 30
0.0
 10
209.055549
 20
65.775459
 30
0.0
 10
208.972951
 20
65.775296
 30
0.0
 10
208.899500
 20
65.744700
 30
0.0
  0
SPLINE
  5
31b
100
AcDbEntity
  8
0
 62
1
100
AcDbSpline
 70
8
 71
3
 72
8
 73
4
 74
0
 40
0
 40
0
 40
0
 40
0
 40
1
 40
1
 40
1
 40
1
 10
214.283900
 20
52.821500
 30
0.0
 10
214.357354
 20
52.852090
 30
0.0
 10
214.415646
 20
52.910608
 30
0.0
 10
214.445952
 20
52.984180
 30
0.0
  0
SPLINE
  5
31c
100
AcDbEntity
  8
0
 62
1
100
AcDbSpline
 70
8
 71
3
 72
8
 73
4
 74
0
 40
0
 40
0
 40
0
 40
0
 40
1
 40
1
 40
1
 40
1
 10
214.445952
 20
52.984180
 30
0.0
 10
214.476259
 20
53.057751
 30
0.0
 10
214.476096
 20
53.140349
 30
0.0
 10
214.445500
 20
53.213800
 30
0.0
  0
SPLINE
  5
31d
100
AcDbEntity
  8
0
 62
1
100
AcDbSpline
 70
8
 71
3
 72
8
 73
4
 74
0
 40
0
 40
0
 40
0
 40
0
 40
1
 40
1
 40
1
 40
1
 10
257.296390
 20
48.281900
 30
0.0
 10
256.688877
 20
48.281900
 30
0.0
 10
256.196390
 20
47.789413
 30
0.0
 10
256.196390
 20
47.181900
 30
0.0
  0
SPLINE
  5
31e
100
AcDbEntity
  8
0
 62
1
100
AcDbSpline
 70
8
 71
3
 72
8
 73
4
 74
0
 40
0
 40
0
 40
0
 40
0
 40
1
 40
1
 40
1
 40
1
 10
256.196390
 20
47.181900
 30
0.0
 10
256.196390
 20
46.574387
 30
0.0
 10
256.688877
 20
46.081900
 30
0.0
 10
257.296390
 20
46.081900
 30
0.0
  0
SPLINE
  5
31f
100
AcDbEntity
  8
0
 62
1
100
AcDbSpline
 70
8
 71
3
 72
8
 73
4
 74
0
 40
0
 40
0
 40
0
 40
0
 40
1
 40
1
 40
1
 40
1
 10
257.296390
 20
46.081900
 30
0.0
 10
257.903903
 20
46.081900
 30
0.0
 10
258.396390
 20
46.574387
 30
0.0
 10
258.396390
 20
47.181900
 30
0.0
  0
SPLINE
  5
320
100
AcDbEntity
  8
0
 62
1
100
AcDbSpline
 70
8
 71
3
 72
8
 73
4
 74
0
 40
0
 40
0
 40
0
 40
0
 40
1
 40
1
 40
1
 40
1
 10
258.396390
 20
47.181900
 30
0.0
 10
258.396390
 20
47.473638
 30
0.0
 10
258.280497
 20
47.753427
 30
0.0
 10
258.074207
 20
47.959717
 30
0.0
  0
SPLINE
  5
321
100
AcDbEntity
  8
0
 62
1
100
AcDbSpline
 70
8
 71
3
 72
8
 73
4
 74
0
 40
0
 40
0
 40
0
 40
0
 40
1
 40
1
 40
1
 40
1
 10
258.074207
 20
47.959717
 30
0.0
 10
257.867917
 20
48.166007
 30
0.0
 10
257.588128
 20
48.281900
 30
0.0
 10
257.296390
 20
48.281900
 30
0.0
  0
LWPOLYLINE
  5
322
100
AcDbEntity
  8
0
 62
1
100
AcDbPolyline
 90
2
 70
0
 10
214.445500
 20
53.213800
 30
0.0
 10
209.291800
 20
65.583100
 30
0.0
  0
SPLINE
  5
323
100
AcDbEntity
  8
0
 62
1
100
AcDbSpline
 70
8
 71
3
 72
8
 73
4
 74
0
 40
0
 40
0
 40
0
 40
0
 40
1
 40
1
 40
1
 40
1
 10
152.680600
 20
41.591297
 30
0.0
 10
149.849364
 20
41.591297
 30
0.0
 10
147.296910
 20
39.885802
 30
0.0
 10
146.213443
 20
37.270081
 30
0.0
  0
SPLINE
  5
324
100
AcDbEntity
  8
0
 62
1
100
AcDbSpline
 70
8
 71
3
 72
8
 73
4
 74
0
 40
0
 40
0
 40
0
 40
0
 40
1
 40
1
 40
1
 40
1
 10
146.213443
 20
37.270081
 30
0.0
 10
145.129976
 20
34.654360
 30
0.0
 10
145.728867
 20
31.643536
 30
0.0
 10
147.730853
 20
29.641550
 30
0.0
  0
SPLINE
  5
325
100
AcDbEntity
  8
0
 62
1
100
AcDbSpline
 70
8
 71
3
 72
8
 73
4
 74
0
 40
0
 40
0
 40
0
 40
0
 40
1
 40
1
 40
1
 40
1
 10
147.730853
 20
29.641550
 30
0.0
 10
149.732839
 20
27.639564
 30
0.0
 10
152.743663
 20
27.040673
 30
0.0
 10
155.359384
 20
28.124140
 30
0.0
  0
SPLINE
  5
326
100
AcDbEntity
  8
0
 62
1
100
AcDbSpline
 70
8
 71
3
 72
8
 73
4
 74
0
 40
0
 40
0
 40
0
 40
0
 40
1
 40
1
 40
1
 40
1
 10
155.359384
 20
28.124140
 30
0.0
 10
157.975105
 20
29.207607
 30
0.0
 10
159.680600
 20
31.760061
 30
0.0
 10
159.680600
 20
34.591297
 30
0.0
  0
SPLINE
  5
327
100
AcDbEntity
  8
0
 62
1
100
AcDbSpline
 70
8
 71
3
 72
8
 73
4
 74
0
 40
0
 40
0
 40
0
 40
0
 40
1
 40
1
 40
1
 40
1
 10
159.680600
 20
34.591297
 30
0.0
 10
159.680600
 20
36.447812
 30
0.0
 10
158.943102
 20
38.228290
 30
0.0
 10
157.630347
 20
39.541044
 30
0.0
  0
SPLINE
  5
328
100
AcDbEntity
  8
0
 62
1
100
AcDbSpline
 70
8
 71
3
 72
8
 73
4
 74
0
 40
0
 40
0
 40
0
 40
0
 40
1
 40
1
 40
1
 40
1
 10
157.630347
 20
39.541044
 30
0.0
 10
156.317593
 20
40.853799
 30
0.0
 10
154.537115
 20
41.591297
 30
0.0
 10
152.680600
 20
41.591297
 30
0.0
  0
LWPOLYLINE
  5
329
100
AcDbEntity
  8
0
 62
1
100
AcDbPolyline
 90
1
 70
1
 10
257.296390
 20
48.281900
 30
0.0
  0
LWPOLYLINE
  5
32a
100
AcDbEntity
  8
0
 62
1
100
AcDbPolyline
 90
1
 70
1
 10
152.680600
 20
41.591297
 30
0.0
  0
LWPOLYLINE
  5
32b
100
AcDbEntity
  8
0
 62
1
100
AcDbPolyline
 90
2
 70
0
 10
45.127400
 20
63.406900
 30
0.0
 10
45.127400
 20
50.006900
 30
0.0
  0
LWPOLYLINE
  5
32c
100
AcDbEntity
  8
0
 62
1
100
AcDbPolyline
 90
2
 70
0
 10
45.427400
 20
49.706900
 30
0.0
 10
58.827400
 20
49.706900
 30
0.0
  0
LWPOLYLINE
  5
32d
100
AcDbEntity
  8
0
 62
1
100
AcDbPolyline
 90
2
 70
0
 10
58.827400
 20
63.706900
 30
0.0
 10
45.427400
 20
63.706900
 30
0.0
  0
SPLINE
  5
32e
100
AcDbEntity
  8
0
 62
1
100
AcDbSpline
 70
8
 71
3
 72
8
 73
4
 74
0
 40
0
 40
0
 40
0
 40
0
 40
1
 40
1
 40
1
 40
1
 10
45.427400
 20
63.706900
 30
0.0
 10
45.347835
 20
63.706900
 30
0.0
 10
45.271529
 20
63.675293
 30
0.0
 10
45.215268
 20
63.619032
 30
0.0
  0
SPLINE
  5
32f
100
AcDbEntity
  8
0
 62
1
100
AcDbSpline
 70
8
 71
3
 72
8
 73
4
 74
0
 40
0
 40
0
 40
0
 40
0
 40
1
 40
1
 40
1
 40
1
 10
45.215268
 20
63.619032
 30
0.0
 10
45.159007
 20
63.562771
 30
0.0
 10
45.127400
 20
63.486465
 30
0.0
 10
45.127400
 20
63.406900
 30
0.0
  0
SPLINE
  5
330
100
AcDbEntity
  8
0
 62
1
100
AcDbSpline
 70
8
 71
3
 72
8
 73
4
 74
0
 40
0
 40
0
 40
0
 40
0
 40
1
 40
1
 40
1
 40
1
 10
45.127400
 20
50.006900
 30
0.0
 10
45.127400
 20
49.927335
 30
0.0
 10
45.159007
 20
49.851029
 30
0.0
 10
45.215268
 20
49.794768
 30
0.0
  0
SPLINE
  5
331
100
AcDbEntity
  8
0
 62
1
100
AcDbSpline
 70
8
 71
3
 72
8
 73
4
 74
0
 40
0
 40
0
 40
0
 40
0
 40
1
 40
1
 40
1
 40
1
 10
45.215268
 20
49.794768
 30
0.0
 10
45.271529
 20
49.738507
 30
0.0
 10
45.347835
 20
49.706900
 30
0.0
 10
45.427400
 20
49.706900
 30
0.0
  0
SPLINE
  5
332
100
AcDbEntity
  8
0
 62
1
100
AcDbSpline
 70
8
 71
3
 72
8
 73
4
 74
0
 40
0
 40
0
 40
0
 40
0
 40
1
 40
1
 40
1
 40
1
 10
59.127400
 20
63.406900
 30
0.0
 10
59.127400
 20
63.486465
 30
0.0
 10
59.095793
 20
63.562771
 30
0.0
 10
59.039532
 20
63.619032
 30
0.0
  0
SPLINE
  5
333
100
AcDbEntity
  8
0
 62
1
100
AcDbSpline
 70
8
 71
3
 72
8
 73
4
 74
0
 40
0
 40
0
 40
0
 40
0
 40
1
 40
1
 40
1
 40
1
 10
59.039532
 20
63.619032
 30
0.0
 10
58.983271
 20
63.675293
 30
0.0
 10
58.906965
 20
63.706900
 30
0.0
 10
58.827400
 20
63.706900
 30
0.0
  0
SPLINE
  5
334
100
AcDbEntity
  8
0
 62
1
100
AcDbSpline
 70
8
 71
3
 72
8
 73
4
 74
0
 40
0
 40
0
 40
0
 40
0
 40
1
 40
1
 40
1
 40
1
 10
58.827400
 20
49.706900
 30
0.0
 10
58.906965
 20
49.706900
 30
0.0
 10
58.983271
 20
49.738507
 30
0.0
 10
59.039532
 20
49.794768
 30
0.0
  0
SPLINE
  5
335
100
AcDbEntity
  8
0
 62
1
100
AcDbSpline
 70
8
 71
3
 72
8
 73
4
 74
0
 40
0
 40
0
 40
0
 40
0
 40
1
 40
1
 40
1
 40
1
 10
59.039532
 20
49.794768
 30
0.0
 10
59.095793
 20
49.851029
 30
0.0
 10
59.127400
 20
49.927335
 30
0.0
 10
59.127400
 20
50.006900
 30
0.0
  0
LWPOLYLINE
  5
336
100
AcDbEntity
  8
0
 62
1
100
AcDbPolyline
 90
2
 70
0
 10
59.127400
 20
50.006900
 30
0.0
 10
59.127400
 20
63.406900
 30
0.0
  0
LWPOLYLINE
  5
337
100
AcDbEntity
  8
0
 62
1
100
AcDbPolyline
 90
2
 70
0
 10
153.579800
 20
83.645500
 30
0.0
 10
158.733400
 20
71.276200
 30
0.0
  0
LWPOLYLINE
  5
338
100
AcDbEntity
  8
0
 62
1
100
AcDbPolyline
 90
2
 70
0
 10
159.125700
 20
71.114600
 30
0.0
 10
171.495000
 20
76.268300
 30
0.0
  0
LWPOLYLINE
  5
339
100
AcDbEntity
  8
0
 62
1
100
AcDbPolyline
 90
2
 70
0
 10
166.110600
 20
89.191500
 30
0.0
 10
153.741300
 20
84.037800
 30
0.0
  0
SPLINE
  5
33a
100
AcDbEntity
  8
0
 62
1
100
AcDbSpline
 70
8
 71
3
 72
8
 73
4
 74
0
 40
0
 40
0
 40
0
 40
0
 40
1
 40
1
 40
1
 40
1
 10
153.741300
 20
84.037800
 30
0.0
 10
153.588379
 20
83.974060
 30
0.0
 10
153.516076
 20
83.798428
 30
0.0
 10
153.579800
 20
83.645500
 30
0.0
  0
SPLINE
  5
33b
100
AcDbEntity
  8
0
 62
1
100
AcDbSpline
 70
8
 71
3
 72
8
 73
4
 74
0
 40
0
 40
0
 40
0
 40
0
 40
1
 40
1
 40
1
 40
1
 10
158.733400
 20
71.276200
 30
0.0
 10
158.763990
 20
71.202746
 30
0.0
 10
158.822508
 20
71.144454
 30
0.0
 10
158.896080
 20
71.114148
 30
0.0
  0
SPLINE
  5
33c
100
AcDbEntity
  8
0
 62
1
100
AcDbSpline
 70
8
 71
3
 72
8
 73
4
 74
0
 40
0
 40
0
 40
0
 40
0
 40
1
 40
1
 40
1
 40
1
 10
158.896080
 20
71.114148
 30
0.0
 10
158.969651
 20
71.083841
 30
0.0
 10
159.052249
 20
71.084004
 30
0.0
 10
159.125700
 20
71.114600
 30
0.0
  0
SPLINE
  5
33d
100
AcDbEntity
  8
0
 62
1
100
AcDbSpline
 70
8
 71
3
 72
8
 73
4
 74
0
 40
0
 40
0
 40
0
 40
0
 40
1
 40
1
 40
1
 40
1
 10
166.502900
 20
89.029900
 30
0.0
 10
166.472310
 20
89.103354
 30
0.0
 10
166.413792
 20
89.161646
 30
0.0
 10
166.340220
 20
89.191952
 30
0.0
  0
SPLINE
  5
33e
100
AcDbEntity
  8
0
 62
1
100
AcDbSpline
 70
8
 71
3
 72
8
 73
4
 74
0
 40
0
 40
0
 40
0
 40
0
 40
1
 40
1
 40
1
 40
1
 10
166.340220
 20
89.191952
 30
0.0
 10
166.266649
 20
89.222259
 30
0.0
 10
166.184051
 20
89.222096
 30
0.0
 10
166.110600
 20
89.191500
 30
0.0
  0
SPLINE
  5
33f
100
AcDbEntity
  8
0
 62
1
100
AcDbSpline
 70
8
 71
3
 72
8
 73
4
 74
0
 40
0
 40
0
 40
0
 40
0
 40
1
 40
1
 40
1
 40
1
 10
171.495000
 20
76.268300
 30
0.0
 10
171.568454
 20
76.298890
 30
0.0
 10
171.626746
 20
76.357408
 30
0.0
 10
171.657052
 20
76.430980
 30
0.0
  0
SPLINE
  5
340
100
AcDbEntity
  8
0
 62
1
100
AcDbSpline
 70
8
 71
3
 72
8
 73
4
 74
0
 40
0
 40
0
 40
0
 40
0
 40
1
 40
1
 40
1
 40
1
 10
171.657052
 20
76.430980
 30
0.0
 10
171.687359
 20
76.504551
 30
0.0
 10
171.687196
 20
76.587149
 30
0.0
 10
171.656600
 20
76.660600
 30
0.0
  0
SPLINE
  5
341
100
AcDbEntity
  8
0
 62
1
100
AcDbSpline
 70
8
 71
3
 72
8
 73
4
 74
0
 40
0
 40
0
 40
0
 40
0
 40
1
 40
1
 40
1
 40
1
 10
110.242000
 20
27.084699
 30
0.0
 10
109.797092
 20
27.084699
 30
0.0
 10
109.395992
 20
26.816693
 30
0.0
 10
109.225733
 20
26.405651
 30
0.0
  0
SPLINE
  5
342
100
AcDbEntity
  8
0
 62
1
100
AcDbSpline
 70
8
 71
3
 72
8
 73
4
 74
0
 40
0
 40
0
 40
0
 40
0
 40
1
 40
1
 40
1
 40
1
 10
109.225733
 20
26.405651
 30
0.0
 10
109.055473
 20
25.994609
 30
0.0
 10
109.149585
 20
25.521479
 30
0.0
 10
109.464183
 20
25.206882
 30
0.0
  0
SPLINE
  5
343
100
AcDbEntity
  8
0
 62
1
100
AcDbSpline
 70
8
 71
3
 72
8
 73
4
 74
0
 40
0
 40
0
 40
0
 40
0
 40
1
 40
1
 40
1
 40
1
 10
109.464183
 20
25.206882
 30
0.0
 10
109.778780
 20
24.892284
 30
0.0
 10
110.251910
 20
24.798172
 30
0.0
 10
110.662952
 20
24.968432
 30
0.0
  0
SPLINE
  5
344
100
AcDbEntity
  8
0
 62
1
100
AcDbSpline
 70
8
 71
3
 72
8
 73
4
 74
0
 40
0
 40
0
 40
0
 40
0
 40
1
 40
1
 40
1
 40
1
 10
110.662952
 20
24.968432
 30
0.0
 10
111.073994
 20
25.138691
 30
0.0
 10
111.342000
 20
25.539791
 30
0.0
 10
111.342000
 20
25.984699
 30
0.0
  0
SPLINE
  5
345
100
AcDbEntity
  8
0
 62
1
100
AcDbSpline
 70
8
 71
3
 72
8
 73
4
 74
0
 40
0
 40
0
 40
0
 40
0
 40
1
 40
1
 40
1
 40
1
 10
111.342000
 20
25.984699
 30
0.0
 10
111.342000
 20
26.276437
 30
0.0
 10
111.226107
 20
26.556226
 30
0.0
 10
111.019817
 20
26.762516
 30
0.0
  0
SPLINE
  5
346
100
AcDbEntity
  8
0
 62
1
100
AcDbSpline
 70
8
 71
3
 72
8
 73
4
 74
0
 40
0
 40
0
 40
0
 40
0
 40
1
 40
1
 40
1
 40
1
 10
111.019817
 20
26.762516
 30
0.0
 10
110.813527
 20
26.968806
 30
0.0
 10
110.533738
 20
27.084699
 30
0.0
 10
110.242000
 20
27.084699
 30
0.0
  0
LWPOLYLINE
  5
347
100
AcDbEntity
  8
0
 62
1
100
AcDbPolyline
 90
2
 70
0
 10
171.656600
 20
76.660600
 30
0.0
 10
166.502900
 20
89.029900
 30
0.0
  0
LWPOLYLINE
  5
348
100
AcDbEntity
  8
0
 62
1
100
AcDbPolyline
 90
1
 70
1
 10
110.242000
 20
27.084699
 30
0.0
  0
LWPOLYLINE
  5
349
100
AcDbEntity
  8
0
 62
1
100
AcDbPolyline
 90
2
 70
0
 10
74.032700
 20
84.633200
 30
0.0
 10
68.879100
 20
72.263900
 30
0.0
  0
LWPOLYLINE
  5
34a
100
AcDbEntity
  8
0
 62
1
100
AcDbPolyline
 90
2
 70
0
 10
69.040600
 20
71.871600
 30
0.0
 10
81.409900
 20
66.717900
 30
0.0
  0
LWPOLYLINE
  5
34b
100
AcDbEntity
  8
0
 62
1
100
AcDbPolyline
 90
2
 70
0
 10
86.794300
 20
79.641100
 30
0.0
 10
74.425000
 20
84.794700
 30
0.0
  0
SPLINE
  5
34c
100
AcDbEntity
  8
0
 62
1
100
AcDbSpline
 70
8
 71
3
 72
8
 73
4
 74
0
 40
0
 40
0
 40
0
 40
0
 40
1
 40
1
 40
1
 40
1
 10
74.425000
 20
84.794700
 30
0.0
 10
74.272072
 20
84.858424
 30
0.0
 10
74.096440
 20
84.786121
 30
0.0
 10
74.032700
 20
84.633200
 30
0.0
  0
SPLINE
  5
34d
100
AcDbEntity
  8
0
 62
1
100
AcDbSpline
 70
8
 71
3
 72
8
 73
4
 74
0
 40
0
 40
0
 40
0
 40
0
 40
1
 40
1
 40
1
 40
1
 10
68.879100
 20
72.263900
 30
0.0
 10
68.815376
 20
72.110972
 30
0.0
 10
68.887679
 20
71.935340
 30
0.0
 10
69.040600
 20
71.871600
 30
0.0
  0
SPLINE
  5
34e
100
AcDbEntity
  8
0
 62
1
100
AcDbSpline
 70
8
 71
3
 72
8
 73
4
 74
0
 40
0
 40
0
 40
0
 40
0
 40
1
 40
1
 40
1
 40
1
 10
86.955900
 20
79.248800
 30
0.0
 10
86.986496
 20
79.322251
 30
0.0
 10
86.986659
 20
79.404849
 30
0.0
 10
86.956352
 20
79.478420
 30
0.0
  0
SPLINE
  5
34f
100
AcDbEntity
  8
0
 62
1
100
AcDbSpline
 70
8
 71
3
 72
8
 73
4
 74
0
 40
0
 40
0
 40
0
 40
0
 40
1
 40
1
 40
1
 40
1
 10
86.956352
 20
79.478420
 30
0.0
 10
86.926046
 20
79.551992
 30
0.0
 10
86.867754
 20
79.610510
 30
0.0
 10
86.794300
 20
79.641100
 30
0.0
  0
SPLINE
  5
350
100
AcDbEntity
  8
0
 62
1
100
AcDbSpline
 70
8
 71
3
 72
8
 73
4
 74
0
 40
0
 40
0
 40
0
 40
0
 40
1
 40
1
 40
1
 40
1
 10
81.409900
 20
66.717900
 30
0.0
 10
81.562828
 20
66.654176
 30
0.0
 10
81.738460
 20
66.726479
 30
0.0
 10
81.802200
 20
66.879400
 30
0.0
  0
LWPOLYLINE
  5
351
100
AcDbEntity
  8
0
 62
1
100
AcDbPolyline
 90
2
 70
0
 10
81.802200
 20
66.879400
 30
0.0
 10
86.955900
 20
79.248800
 30
0.0
  0
LWPOLYLINE
  5
352
100
AcDbEntity
  8
0
 62
1
100
AcDbPolyline
 90
2
 70
0
 10
235.627400
 20
82.456900
 30
0.0
 10
235.627400
 20
69.056900
 30
0.0
  0
LWPOLYLINE
  5
353
100
AcDbEntity
  8
0
 62
1
100
AcDbPolyline
 90
2
 70
0
 10
235.927400
 20
68.756900
 30
0.0
 10
249.327400
 20
68.756900
 30
0.0
  0
LWPOLYLINE
  5
354
100
AcDbEntity
  8
0
 62
1
100
AcDbPolyline
 90
2
 70
0
 10
249.327400
 20
82.756900
 30
0.0
 10
235.927400
 20
82.756900
 30
0.0
  0
SPLINE
  5
355
100
AcDbEntity
  8
0
 62
1
100
AcDbSpline
 70
8
 71
3
 72
8
 73
4
 74
0
 40
0
 40
0
 40
0
 40
0
 40
1
 40
1
 40
1
 40
1
 10
235.927400
 20
82.756900
 30
0.0
 10
235.847835
 20
82.756900
 30
0.0
 10
235.771529
 20
82.725293
 30
0.0
 10
235.715268
 20
82.669032
 30
0.0
  0
SPLINE
  5
356
100
AcDbEntity
  8
0
 62
1
100
AcDbSpline
 70
8
 71
3
 72
8
 73
4
 74
0
 40
0
 40
0
 40
0
 40
0
 40
1
 40
1
 40
1
 40
1
 10
235.715268
 20
82.669032
 30
0.0
 10
235.659007
 20
82.612771
 30
0.0
 10
235.627400
 20
82.536465
 30
0.0
 10
235.627400
 20
82.456900
 30
0.0
  0
SPLINE
  5
357
100
AcDbEntity
  8
0
 62
1
100
AcDbSpline
 70
8
 71
3
 72
8
 73
4
 74
0
 40
0
 40
0
 40
0
 40
0
 40
1
 40
1
 40
1
 40
1
 10
235.627400
 20
69.056900
 30
0.0
 10
235.627400
 20
68.977335
 30
0.0
 10
235.659007
 20
68.901029
 30
0.0
 10
235.715268
 20
68.844768
 30
0.0
  0
SPLINE
  5
358
100
AcDbEntity
  8
0
 62
1
100
AcDbSpline
 70
8
 71
3
 72
8
 73
4
 74
0
 40
0
 40
0
 40
0
 40
0
 40
1
 40
1
 40
1
 40
1
 10
235.715268
 20
68.844768
 30
0.0
 10
235.771529
 20
68.788507
 30
0.0
 10
235.847835
 20
68.756900
 30
0.0
 10
235.927400
 20
68.756900
 30
0.0
  0
SPLINE
  5
359
100
AcDbEntity
  8
0
 62
1
100
AcDbSpline
 70
8
 71
3
 72
8
 73
4
 74
0
 40
0
 40
0
 40
0
 40
0
 40
1
 40
1
 40
1
 40
1
 10
249.627400
 20
82.456900
 30
0.0
 10
249.627400
 20
82.536465
 30
0.0
 10
249.595793
 20
82.612771
 30
0.0
 10
249.539532
 20
82.669032
 30
0.0
  0
SPLINE
  5
35a
100
AcDbEntity
  8
0
 62
1
100
AcDbSpline
 70
8
 71
3
 72
8
 73
4
 74
0
 40
0
 40
0
 40
0
 40
0
 40
1
 40
1
 40
1
 40
1
 10
249.539532
 20
82.669032
 30
0.0
 10
249.483271
 20
82.725293
 30
0.0
 10
249.406965
 20
82.756900
 30
0.0
 10
249.327400
 20
82.756900
 30
0.0
  0
SPLINE
  5
35b
100
AcDbEntity
  8
0
 62
1
100
AcDbSpline
 70
8
 71
3
 72
8
 73
4
 74
0
 40
0
 40
0
 40
0
 40
0
 40
1
 40
1
 40
1
 40
1
 10
249.327400
 20
68.756900
 30
0.0
 10
249.406965
 20
68.756900
 30
0.0
 10
249.483271
 20
68.788507
 30
0.0
 10
249.539532
 20
68.844768
 30
0.0
  0
SPLINE
  5
35c
100
AcDbEntity
  8
0
 62
1
100
AcDbSpline
 70
8
 71
3
 72
8
 73
4
 74
0
 40
0
 40
0
 40
0
 40
0
 40
1
 40
1
 40
1
 40
1
 10
249.539532
 20
68.844768
 30
0.0
 10
249.595793
 20
68.901029
 30
0.0
 10
249.627400
 20
68.977335
 30
0.0
 10
249.627400
 20
69.056900
 30
0.0
  0
SPLINE
  5
35d
100
AcDbEntity
  8
0
 62
1
100
AcDbSpline
 70
8
 71
3
 72
8
 73
4
 74
0
 40
0
 40
0
 40
0
 40
0
 40
1
 40
1
 40
1
 40
1
 10
51.127399
 20
43.181896
 30
0.0
 10
47.487239
 20
43.181896
 30
0.0
 10
44.205512
 20
40.989116
 30
0.0
 10
42.812483
 20
37.626047
 30
0.0
  0
SPLINE
  5
35e
100
AcDbEntity
  8
0
 62
1
100
AcDbSpline
 70
8
 71
3
 72
8
 73
4
 74
0
 40
0
 40
0
 40
0
 40
0
 40
1
 40
1
 40
1
 40
1
 10
42.812483
 20
37.626047
 30
0.0
 10
41.419454
 20
34.262977
 30
0.0
 10
42.189456
 20
30.391917
 30
0.0
 10
44.763438
 20
27.817935
 30
0.0
  0
SPLINE
  5
35f
100
AcDbEntity
  8
0
 62
1
100
AcDbSpline
 70
8
 71
3
 72
8
 73
4
 74
0
 40
0
 40
0
 40
0
 40
0
 40
1
 40
1
 40
1
 40
1
 10
44.763438
 20
27.817935
 30
0.0
 10
47.337420
 20
25.243953
 30
0.0
 10
51.208480
 20
24.473951
 30
0.0
 10
54.571550
 20
25.866980
 30
0.0
  0
SPLINE
  5
360
100
AcDbEntity
  8
0
 62
1
100
AcDbSpline
 70
8
 71
3
 72
8
 73
4
 74
0
 40
0
 40
0
 40
0
 40
0
 40
1
 40
1
 40
1
 40
1
 10
54.571550
 20
25.866980
 30
0.0
 10
57.934619
 20
27.260009
 30
0.0
 10
60.127399
 20
30.541736
 30
0.0
 10
60.127399
 20
34.181896
 30
0.0
  0
SPLINE
  5
361
100
AcDbEntity
  8
0
 62
1
100
AcDbSpline
 70
8
 71
3
 72
8
 73
4
 74
0
 40
0
 40
0
 40
0
 40
0
 40
1
 40
1
 40
1
 40
1
 10
60.127399
 20
34.181896
 30
0.0
 10
60.127399
 20
36.568844
 30
0.0
 10
59.179187
 20
38.858030
 30
0.0
 10
57.491360
 20
40.545857
 30
0.0
  0
SPLINE
  5
362
100
AcDbEntity
  8
0
 62
1
100
AcDbSpline
 70
8
 71
3
 72
8
 73
4
 74
0
 40
0
 40
0
 40
0
 40
0
 40
1
 40
1
 40
1
 40
1
 10
57.491360
 20
40.545857
 30
0.0
 10
55.803533
 20
42.233684
 30
0.0
 10
53.514347
 20
43.181896
 30
0.0
 10
51.127399
 20
43.181896
 30
0.0
  0
LWPOLYLINE
  5
363
100
AcDbEntity
  8
0
 62
1
100
AcDbPolyline
 90
2
 70
0
 10
249.627400
 20
69.056900
 30
0.0
 10
249.627400
 20
82.456900
 30
0.0
  0
LWPOLYLINE
  5
364
100
AcDbEntity
  8
0
 62
1
100
AcDbPolyline
 90
1
 70
1
 10
51.127399
 20
43.181896
 30
0.0
  0
LWPOLYLINE
  5
365
100
AcDbEntity
  8
0
 62
1
100
AcDbPolyline
 90
2
 70
0
 10
157.389500
 20
64.595400
 30
0.0
 10
162.543100
 20
52.226100
 30
0.0
  0
LWPOLYLINE
  5
366
100
AcDbEntity
  8
0
 62
1
100
AcDbPolyline
 90
2
 70
0
 10
162.935400
 20
52.064600
 30
0.0
 10
175.304700
 20
57.218200
 30
0.0
  0
LWPOLYLINE
  5
367
100
AcDbEntity
  8
0
 62
1
100
AcDbPolyline
 90
2
 70
0
 10
169.920300
 20
70.141400
 30
0.0
 10
157.551000
 20
64.987700
 30
0.0
  0
SPLINE
  5
368
100
AcDbEntity
  8
0
 62
1
100
AcDbSpline
 70
8
 71
3
 72
8
 73
4
 74
0
 40
0
 40
0
 40
0
 40
0
 40
1
 40
1
 40
1
 40
1
 10
157.551000
 20
64.987700
 30
0.0
 10
157.398079
 20
64.923960
 30
0.0
 10
157.325776
 20
64.748328
 30
0.0
 10
157.389500
 20
64.595400
 30
0.0
  0
SPLINE
  5
369
100
AcDbEntity
  8
0
 62
1
100
AcDbSpline
 70
8
 71
3
 72
8
 73
4
 74
0
 40
0
 40
0
 40
0
 40
0
 40
1
 40
1
 40
1
 40
1
 10
162.543100
 20
52.226100
 30
0.0
 10
162.606840
 20
52.073179
 30
0.0
 10
162.782472
 20
52.000876
 30
0.0
 10
162.935400
 20
52.064600
 30
0.0
  0
SPLINE
  5
36a
100
AcDbEntity
  8
0
 62
1
100
AcDbSpline
 70
8
 71
3
 72
8
 73
4
 74
0
 40
0
 40
0
 40
0
 40
0
 40
1
 40
1
 40
1
 40
1
 10
170.312600
 20
69.979900
 30
0.0
 10
170.248860
 20
70.132821
 30
0.0
 10
170.073228
 20
70.205124
 30
0.0
 10
169.920300
 20
70.141400
 30
0.0
  0
SPLINE
  5
36b
100
AcDbEntity
  8
0
 62
1
100
AcDbSpline
 70
8
 71
3
 72
8
 73
4
 74
0
 40
0
 40
0
 40
0
 40
0
 40
1
 40
1
 40
1
 40
1
 10
175.304700
 20
57.218200
 30
0.0
 10
175.378179
 20
57.248790
 30
0.0
 10
175.436490
 20
57.307324
 30
0.0
 10
175.466798
 20
57.380919
 30
0.0
  0
SPLINE
  5
36c
100
AcDbEntity
  8
0
 62
1
100
AcDbSpline
 70
8
 71
3
 72
8
 73
4
 74
0
 40
0
 40
0
 40
0
 40
0
 40
1
 40
1
 40
1
 40
1
 10
175.466798
 20
57.380919
 30
0.0
 10
175.497106
 20
57.454514
 30
0.0
 10
175.496927
 20
57.537137
 30
0.0
 10
175.466300
 20
57.610600
 30
0.0
  0
LWPOLYLINE
  5
36d
100
AcDbEntity
  8
0
 62
1
100
AcDbPolyline
 90
2
 70
0
 10
175.466300
 20
57.610600
 30
0.0
 10
170.312600
 20
69.979900
 30
0.0
  0
ENDSEC
  0
SECTION
  2
OBJECTS
  0
DICTIONARY
  5
C
330
0
100
AcDbDictionary
  3
ACAD_GROUP
350
D
  3
ACAD_MLINESTYLE
350
17
  0
DICTIONARY
  5
D
330
C
100
AcDbDictionary
  0
DICTIONARY
  5
1A
330
C
100
AcDbDictionary
  0
DICTIONARY
  5
17
330
C
100
AcDbDictionary
  3
STANDARD
350
18
  0
DICTIONARY
  5
19
330
C
100
AcDbDictionary
  0
ENDSEC
  0
EOF
