  0
SECTION
  2
HEADER
  9
$ACADVER
  1
AC1014
  9
$HANDSEED
  5
FFFF
  9
$INSUNITS
 70
     4
  9
$MEASUREMENT
 70
     1
  0
ENDSEC
  0
SECTION
  2
TABLES
  0
TABLE
  2
VPORT
  5
8
330
0
100
AcDbSymbolTable
 70
     4
  0
VPORT
  5
2E
330
8
100
AcDbSymbolTableRecord
100
AcDbViewportTableRecord
  2
*ACTIVE
 70
     0
 10
0.0
 20
0.0
 11
1.0
 21
1.0
 12
210.0
 22
148.5
 13
0.0
 23
0.0
 14
10.0
 24
10.0
 15
10.0
 25
10.0
 16
0.0
 26
0.0
 36
1.0
 17
0.0
 27
0.0
 37
0.0
 40
341.0
 41
1.24
 42
50.0
 43
0.0
 44
0.0
 50
0.0
 51
0.0
 71
     0
 72
   100
 73
     1
 74
     3
 75
     0
 76
     0
 77
     0
 78
     0
  0
ENDTAB
  0
TABLE
  2
LTYPE
  5
5
330
0
100
AcDbSymbolTable
 70
     1
  0
LTYPE
  5
14
330
5
100
AcDbSymbolTableRecord
100
AcDbLinetypeTableRecord
  2
BYBLOCK
 70
     0
  3

 72
    65
 73
     0
 40
0.0
  0
LTYPE
  5
15
330
5
100
AcDbSymbolTableRecord
100
AcDbLinetypeTableRecord
  2
BYLAYER
 70
     0
  3

 72
    65
 73
     0
 40
0.0
  0
LTYPE
  5
16
330
5
100
AcDbSymbolTableRecord
100
AcDbLinetypeTableRecord
  2
CONTINUOUS
 70
     0
  3
Solid line
 72
    65
 73
     0
 40
0.0
  0
ENDTAB
  0
TABLE
  2
LAYER
  5
2
100
AcDbSymbolTable
 70
1
  0
LAYER
  5
50
100
AcDbSymbolTableRecord
100
AcDbLayerTableRecord
  2
0
 70
0
  6
CONTINUOUS
  0
ENDTAB
  0
TABLE
  2
STYLE
  5
3
330
0
100
AcDbSymbolTable
 70
     1
  0
STYLE
  5
11
330
3
100
AcDbSymbolTableRecord
100
AcDbTextStyleTableRecord
  2
STANDARD
 70
     0
 40
0.0
 41
1.0
 50
0.0
 71
     0
 42
2.5
  3
txt
  4

  0
ENDTAB
  0
TABLE
  2
VIEW
  5
6
330
0
100
AcDbSymbolTable
 70
     0
  0
ENDTAB
  0
TABLE
  2
UCS
  5
7
330
0
100
AcDbSymbolTable
 70
     0
  0
ENDTAB
  0
TABLE
  2
APPID
  5
9
330
0
100
AcDbSymbolTable
 70
     2
  0
APPID
  5
12
330
9
100
AcDbSymbolTableRecord
100
AcDbRegAppTableRecord
  2
ACAD
 70
     0
  0
ENDTAB
  0
TABLE
  2
DIMSTYLE
  5
A
330
0
100
AcDbSymbolTable
 70
     1
  0
DIMSTYLE
105
27
330
A
100
AcDbSymbolTableRecord
100
AcDbDimStyleTableRecord
  2
ISO-25
 70
     0
  3

  4

  5

  6

  7

 40
1.0
 41
2.5
 42
0.625
 43
3.75
 44
1.25
 45
0.0
 46
0.0
 47
0.0
 48
0.0
140
2.5
141
2.5
142
0.0
143
0.03937007874016
144
1.0
145
0.0
146
1.0
147
0.625
 71
     0
 72
     0
 73
     0
 74
     0
 75
     0
 76
     0
 77
     1
 78
     8
170
     0
171
     3
172
     1
173
     0
174
     0
175
     0
176
     0
177
     0
178
     0
270
     2
271
     2
272
     2
273
     2
274
     3
340
11
275
     0
280
     0
281
     0
282
     0
283
     0
284
     8
285
     0
286
     0
287
     3
288
     0
  0
ENDTAB
  0
TABLE
  2
BLOCK_RECORD
  5
1
330
0
100
AcDbSymbolTable
 70
     1
  0
BLOCK_RECORD
  5
1F
330
1
100
AcDbSymbolTableRecord
100
AcDbBlockTableRecord
  2
*MODEL_SPACE
  0
BLOCK_RECORD
  5
1B
330
1
100
AcDbSymbolTableRecord
100
AcDbBlockTableRecord
  2
*PAPER_SPACE
  0
ENDTAB
  0
ENDSEC
  0
SECTION
  2
BLOCKS
  0
BLOCK
  5
20
330
1F
100
AcDbEntity
  8
0
100
AcDbBlockBegin
  2
*MODEL_SPACE
 70
     0
 10
0.0
 20
0.0
 30
0.0
  3
*MODEL_SPACE
  1

  0
ENDBLK
  5
21
330
1F
100
AcDbEntity
  8
0
100
AcDbBlockEnd
  0
BLOCK
  5
1C
330
1B
100
AcDbEntity
 67
     1
  8
0
100
AcDbBlockBegin
  2
*PAPER_SPACE
  1

  0
ENDBLK
  5
1D
330
1B
100
AcDbEntity
 67
     1
  8
0
100
AcDbBlockEnd
  0
ENDSEC
  0
SECTION
  2
ENTITIES
  0
SPLINE
  5
100
100
AcDbEntity
  8
0
 62
7
100
AcDbSpline
 70
8
 71
3
 72
8
 73
4
 74
0
 40
0
 40
0
 40
0
 40
0
 40
1
 40
1
 40
1
 40
1
 10
120.040600
 20
0.651800
 30
0.0
 10
121.979470
 20
0.263674
 30
0.0
 10
123.951964
 20
0.068190
 30
0.0
 10
125.929300
 20
0.068200
 30
0.0
  0
SPLINE
  5
101
100
AcDbEntity
  8
0
 62
7
100
AcDbSpline
 70
8
 71
3
 72
8
 73
4
 74
0
 40
0
 40
0
 40
0
 40
0
 40
1
 40
1
 40
1
 40
1
 10
130.835000
 20
86.503600
 30
0.0
 10
130.755427
 20
86.503627
 30
0.0
 10
130.679105
 20
86.472028
 30
0.0
 10
130.622839
 20
86.415761
 30
0.0
  0
SPLINE
  5
102
100
AcDbEntity
  8
0
 62
7
100
AcDbSpline
 70
8
 71
3
 72
8
 73
4
 74
0
 40
0
 40
0
 40
0
 40
0
 40
1
 40
1
 40
1
 40
1
 10
130.622839
 20
86.415761
 30
0.0
 10
130.566572
 20
86.359495
 30
0.0
 10
130.534973
 20
86.283173
 30
0.0
 10
130.535000
 20
86.203600
 30
0.0
  0
LWPOLYLINE
  5
103
100
AcDbEntity
  8
0
 62
7
100
AcDbPolyline
 90
2
 70
0
 10
123.597200
 20
90.094300
 30
0.0
 10
103.104800
 20
98.632500
 30
0.0
  0
SPLINE
  5
104
100
AcDbEntity
  8
0
 62
7
100
AcDbSpline
 70
8
 71
3
 72
8
 73
4
 74
0
 40
0
 40
0
 40
0
 40
0
 40
1
 40
1
 40
1
 40
1
 10
101.104800
 20
95.132400
 30
0.0
 10
100.998630
 20
94.877493
 30
0.0
 10
101.119198
 20
94.584782
 30
0.0
 10
101.374100
 20
94.478600
 30
0.0
  0
LWPOLYLINE
  5
105
100
AcDbEntity
  8
0
 62
7
100
AcDbPolyline
 90
2
 70
0
 10
143.935000
 20
81.603600
 30
0.0
 10
143.935000
 20
86.203600
 30
0.0
  0
LWPOLYLINE
  5
106
100
AcDbEntity
  8
0
 62
7
100
AcDbPolyline
 90
2
 70
0
 10
142.035000
 20
102.998200
 30
0.0
 10
261.297200
 20
102.998200
 30
0.0
  0
SPLINE
  5
107
100
AcDbEntity
  8
0
 62
7
100
AcDbSpline
 70
8
 71
3
 72
8
 73
4
 74
0
 40
0
 40
0
 40
0
 40
0
 40
1
 40
1
 40
1
 40
1
 10
268.155500
 20
23.418300
 30
0.0
 10
270.159058
 20
23.819389
 30
0.0
 10
271.716963
 20
25.399230
 30
0.0
 10
272.090000
 20
27.408200
 30
0.0
  0
LWPOLYLINE
  5
108
100
AcDbEntity
  8
0
 62
7
100
AcDbPolyline
 90
2
 70
0
 10
130.535000
 20
86.203600
 30
0.0
 10
130.535000
 20
81.603600
 30
0.0
  0
LWPOLYLINE
  5
109
100
AcDbEntity
  8
0
 62
7
100
AcDbPolyline
 90
2
 70
0
 10
152.603500
 20
85.940400
 30
0.0
 10
173.095900
 20
94.478600
 30
0.0
  0
LWPOLYLINE
  5
10a
100
AcDbEntity
  8
0
 62
7
100
AcDbPolyline
 90
2
 70
0
 10
132.935000
 20
93.303600
 30
0.0
 10
141.535000
 20
93.303600
 30
0.0
  0
SPLINE
  5
10b
100
AcDbEntity
  8
0
 62
7
100
AcDbSpline
 70
8
 71
3
 72
8
 73
4
 74
0
 40
0
 40
0
 40
0
 40
0
 40
1
 40
1
 40
1
 40
1
 10
141.535000
 20
93.303600
 30
0.0
 10
141.811120
 20
93.303655
 30
0.0
 10
142.034945
 20
93.527480
 30
0.0
 10
142.035000
 20
93.803600
 30
0.0
  0
SPLINE
  5
10c
100
AcDbEntity
  8
0
 62
7
100
AcDbSpline
 70
8
 71
3
 72
8
 73
4
 74
0
 40
0
 40
0
 40
0
 40
0
 40
1
 40
1
 40
1
 40
1
 10
172.019100
 20
98.363200
 30
0.0
 10
171.968110
 20
98.485633
 30
0.0
 10
171.870566
 20
98.582793
 30
0.0
 10
171.747932
 20
98.633298
 30
0.0
  0
SPLINE
  5
10d
100
AcDbEntity
  8
0
 62
7
100
AcDbSpline
 70
8
 71
3
 72
8
 73
4
 74
0
 40
0
 40
0
 40
0
 40
0
 40
1
 40
1
 40
1
 40
1
 10
171.747932
 20
98.633298
 30
0.0
 10
171.625298
 20
98.683803
 30
0.0
 10
171.487622
 20
98.683516
 30
0.0
 10
171.365200
 20
98.632500
 30
0.0
  0
LWPOLYLINE
  5
10e
100
AcDbEntity
  8
0
 62
7
100
AcDbPolyline
 90
2
 70
0
 10
123.866400
 20
89.440500
 30
0.0
 10
122.520300
 20
86.209700
 30
0.0
  0
SPLINE
  5
10f
100
AcDbEntity
  8
0
 62
7
100
AcDbSpline
 70
8
 71
3
 72
8
 73
4
 74
0
 40
0
 40
0
 40
0
 40
0
 40
1
 40
1
 40
1
 40
1
 10
103.104800
 20
98.632500
 30
0.0
 10
102.982378
 20
98.683516
 30
0.0
 10
102.844702
 20
98.683803
 30
0.0
 10
102.722068
 20
98.633298
 30
0.0
  0
SPLINE
  5
110
100
AcDbEntity
  8
0
 62
7
100
AcDbSpline
 70
8
 71
3
 72
8
 73
4
 74
0
 40
0
 40
0
 40
0
 40
0
 40
1
 40
1
 40
1
 40
1
 10
102.722068
 20
98.633298
 30
0.0
 10
102.599434
 20
98.582793
 30
0.0
 10
102.501890
 20
98.485633
 30
0.0
 10
102.450900
 20
98.363200
 30
0.0
  0
SPLINE
  5
111
100
AcDbEntity
  8
0
 62
7
100
AcDbSpline
 70
8
 71
3
 72
8
 73
4
 74
0
 40
0
 40
0
 40
0
 40
0
 40
1
 40
1
 40
1
 40
1
 10
130.535000
 20
81.603600
 30
0.0
 10
130.535000
 20
81.524035
 30
0.0
 10
130.566607
 20
81.447729
 30
0.0
 10
130.622868
 20
81.391468
 30
0.0
  0
SPLINE
  5
112
100
AcDbEntity
  8
0
 62
7
100
AcDbSpline
 70
8
 71
3
 72
8
 73
4
 74
0
 40
0
 40
0
 40
0
 40
0
 40
1
 40
1
 40
1
 40
1
 10
130.622868
 20
81.391468
 30
0.0
 10
130.679129
 20
81.335207
 30
0.0
 10
130.755435
 20
81.303600
 30
0.0
 10
130.835000
 20
81.303600
 30
0.0
  0
LWPOLYLINE
  5
113
100
AcDbEntity
  8
0
 62
7
100
AcDbPolyline
 90
2
 70
0
 10
125.929300
 20
0.068200
 30
0.0
 10
148.538600
 20
0.068200
 30
0.0
  0
LWPOLYLINE
  5
114
100
AcDbEntity
  8
0
 62
7
100
AcDbPolyline
 90
2
 70
0
 10
142.035000
 20
102.998200
 30
0.0
 10
142.035000
 20
93.803600
 30
0.0
  0
SPLINE
  5
115
100
AcDbEntity
  8
0
 62
7
100
AcDbSpline
 70
8
 71
3
 72
8
 73
4
 74
0
 40
0
 40
0
 40
0
 40
0
 40
1
 40
1
 40
1
 40
1
 10
265.990800
 20
99.721500
 30
0.0
 10
265.268131
 20
101.689870
 30
0.0
 10
263.394038
 20
102.998213
 30
0.0
 10
261.297200
 20
102.998200
 30
0.0
  0
SPLINE
  5
116
100
AcDbEntity
  8
0
 62
7
100
AcDbSpline
 70
8
 71
3
 72
8
 73
4
 74
0
 40
0
 40
0
 40
0
 40
0
 40
1
 40
1
 40
1
 40
1
 10
150.872800
 20
90.094300
 30
0.0
 10
150.750392
 20
90.043312
 30
0.0
 10
150.653257
 20
89.945779
 30
0.0
 10
150.602770
 20
89.823163
 30
0.0
  0
SPLINE
  5
117
100
AcDbEntity
  8
0
 62
7
100
AcDbSpline
 70
8
 71
3
 72
8
 73
4
 74
0
 40
0
 40
0
 40
0
 40
0
 40
1
 40
1
 40
1
 40
1
 10
150.602770
 20
89.823163
 30
0.0
 10
150.552283
 20
89.700547
 30
0.0
 10
150.552582
 20
89.562896
 30
0.0
 10
150.603600
 20
89.440500
 30
0.0
  0
LWPOLYLINE
  5
118
100
AcDbEntity
  8
0
 62
7
100
AcDbPolyline
 90
2
 70
0
 10
268.155500
 20
23.418300
 30
0.0
 10
154.427200
 20
0.651800
 30
0.0
  0
LWPOLYLINE
  5
119
100
AcDbEntity
  8
0
 62
7
100
AcDbPolyline
 90
2
 70
0
 10
150.603600
 20
89.440500
 30
0.0
 10
151.949700
 20
86.209700
 30
0.0
  0
LWPOLYLINE
  5
11a
100
AcDbEntity
  8
0
 62
7
100
AcDbPolyline
 90
2
 70
0
 10
130.835000
 20
81.303600
 30
0.0
 10
143.635000
 20
81.303600
 30
0.0
  0
SPLINE
  5
11b
100
AcDbEntity
  8
0
 62
7
100
AcDbSpline
 70
8
 71
3
 72
8
 73
4
 74
0
 40
0
 40
0
 40
0
 40
0
 40
1
 40
1
 40
1
 40
1
 10
8.479200
 20
99.721500
 30
0.0
 10
-0.009359
 20
76.601828
 30
0.0
 10
-2.116171
 20
51.623057
 30
0.0
 10
2.380000
 20
27.408200
 30
0.0
  0
LWPOLYLINE
  5
11c
100
AcDbEntity
  8
0
 62
7
100
AcDbPolyline
 90
2
 70
0
 10
132.435000
 20
102.998200
 30
0.0
 10
13.172800
 20
102.998200
 30
0.0
  0
LWPOLYLINE
  5
11d
100
AcDbEntity
  8
0
 62
7
100
AcDbPolyline
 90
2
 70
0
 10
173.365200
 20
95.132400
 30
0.0
 10
172.019100
 20
98.363200
 30
0.0
  0
SPLINE
  5
11e
100
AcDbEntity
  8
0
 62
7
100
AcDbSpline
 70
8
 71
3
 72
8
 73
4
 74
0
 40
0
 40
0
 40
0
 40
0
 40
1
 40
1
 40
1
 40
1
 10
173.095900
 20
94.478600
 30
0.0
 10
173.350802
 20
94.584782
 30
0.0
 10
173.471370
 20
94.877493
 30
0.0
 10
173.365200
 20
95.132400
 30
0.0
  0
LWPOLYLINE
  5
11f
100
AcDbEntity
  8
0
 62
7
100
AcDbPolyline
 90
2
 70
0
 10
101.374100
 20
94.478600
 30
0.0
 10
121.866500
 20
85.940400
 30
0.0
  0
SPLINE
  5
120
100
AcDbEntity
  8
0
 62
7
100
AcDbSpline
 70
8
 71
3
 72
8
 73
4
 74
0
 40
0
 40
0
 40
0
 40
0
 40
1
 40
1
 40
1
 40
1
 10
143.935000
 20
86.203600
 30
0.0
 10
143.935000
 20
86.283165
 30
0.0
 10
143.903393
 20
86.359471
 30
0.0
 10
143.847132
 20
86.415732
 30
0.0
  0
SPLINE
  5
121
100
AcDbEntity
  8
0
 62
7
100
AcDbSpline
 70
8
 71
3
 72
8
 73
4
 74
0
 40
0
 40
0
 40
0
 40
0
 40
1
 40
1
 40
1
 40
1
 10
143.847132
 20
86.415732
 30
0.0
 10
143.790871
 20
86.471993
 30
0.0
 10
143.714565
 20
86.503600
 30
0.0
 10
143.635000
 20
86.503600
 30
0.0
  0
SPLINE
  5
122
100
AcDbEntity
  8
0
 62
7
100
AcDbSpline
 70
8
 71
3
 72
8
 73
4
 74
0
 40
0
 40
0
 40
0
 40
0
 40
1
 40
1
 40
1
 40
1
 10
151.949700
 20
86.209700
 30
0.0
 10
152.055882
 20
85.954798
 30
0.0
 10
152.348593
 20
85.834230
 30
0.0
 10
152.603500
 20
85.940400
 30
0.0
  0
LWPOLYLINE
  5
123
100
AcDbEntity
  8
0
 62
7
100
AcDbPolyline
 90
2
 70
0
 10
102.450900
 20
98.363200
 30
0.0
 10
101.104800
 20
95.132400
 30
0.0
  0
SPLINE
  5
124
100
AcDbEntity
  8
0
 62
7
100
AcDbSpline
 70
8
 71
3
 72
8
 73
4
 74
0
 40
0
 40
0
 40
0
 40
0
 40
1
 40
1
 40
1
 40
1
 10
143.635000
 20
81.303600
 30
0.0
 10
143.800663
 20
81.303655
 30
0.0
 10
143.934945
 20
81.437937
 30
0.0
 10
143.935000
 20
81.603600
 30
0.0
  0
SPLINE
  5
125
100
AcDbEntity
  8
0
 62
7
100
AcDbSpline
 70
8
 71
3
 72
8
 73
4
 74
0
 40
0
 40
0
 40
0
 40
0
 40
1
 40
1
 40
1
 40
1
 10
123.866400
 20
89.440500
 30
0.0
 10
123.917418
 20
89.562896
 30
0.0
 10
123.917717
 20
89.700547
 30
0.0
 10
123.867230
 20
89.823163
 30
0.0
  0
SPLINE
  5
126
100
AcDbEntity
  8
0
 62
7
100
AcDbSpline
 70
8
 71
3
 72
8
 73
4
 74
0
 40
0
 40
0
 40
0
 40
0
 40
1
 40
1
 40
1
 40
1
 10
123.867230
 20
89.823163
 30
0.0
 10
123.816743
 20
89.945779
 30
0.0
 10
123.719608
 20
90.043312
 30
0.0
 10
123.597200
 20
90.094300
 30
0.0
  0
SPLINE
  5
127
100
AcDbEntity
  8
0
 62
7
100
AcDbSpline
 70
8
 71
3
 72
8
 73
4
 74
0
 40
0
 40
0
 40
0
 40
0
 40
1
 40
1
 40
1
 40
1
 10
13.172800
 20
102.998200
 30
0.0
 10
11.075971
 20
102.998184
 30
0.0
 10
9.201893
 20
101.689851
 30
0.0
 10
8.479200
 20
99.721500
 30
0.0
  0
LWPOLYLINE
  5
128
100
AcDbEntity
  8
0
 62
7
100
AcDbPolyline
 90
2
 70
0
 10
143.635000
 20
86.503600
 30
0.0
 10
130.835000
 20
86.503600
 30
0.0
  0
SPLINE
  5
129
100
AcDbEntity
  8
0
 62
7
100
AcDbSpline
 70
8
 71
3
 72
8
 73
4
 74
0
 40
0
 40
0
 40
0
 40
0
 40
1
 40
1
 40
1
 40
1
 10
272.090000
 20
27.408200
 30
0.0
 10
276.586171
 20
51.623057
 30
0.0
 10
274.479359
 20
76.601828
 30
0.0
 10
265.990800
 20
99.721500
 30
0.0
  0
LWPOLYLINE
  5
12a
100
AcDbEntity
  8
0
 62
7
100
AcDbPolyline
 90
2
 70
0
 10
132.435000
 20
102.998200
 30
0.0
 10
132.435000
 20
93.803600
 30
0.0
  0
SPLINE
  5
12b
100
AcDbEntity
  8
0
 62
7
100
AcDbSpline
 70
8
 71
3
 72
8
 73
4
 74
0
 40
0
 40
0
 40
0
 40
0
 40
1
 40
1
 40
1
 40
1
 10
121.866500
 20
85.940400
 30
0.0
 10
122.121407
 20
85.834230
 30
0.0
 10
122.414118
 20
85.954798
 30
0.0
 10
122.520300
 20
86.209700
 30
0.0
  0
SPLINE
  5
12c
100
AcDbEntity
  8
0
 62
7
100
AcDbSpline
 70
8
 71
3
 72
8
 73
4
 74
0
 40
0
 40
0
 40
0
 40
0
 40
1
 40
1
 40
1
 40
1
 10
2.380000
 20
27.408200
 30
0.0
 10
2.753067
 20
25.398948
 30
0.0
 10
4.311169
 20
23.818869
 30
0.0
 10
6.315000
 20
23.417700
 30
0.0
  0
SPLINE
  5
12d
100
AcDbEntity
  8
0
 62
7
100
AcDbSpline
 70
8
 71
3
 72
8
 73
4
 74
0
 40
0
 40
0
 40
0
 40
0
 40
1
 40
1
 40
1
 40
1
 10
132.435000
 20
93.803600
 30
0.0
 10
132.435000
 20
93.670992
 30
0.0
 10
132.487678
 20
93.543815
 30
0.0
 10
132.581447
 20
93.450047
 30
0.0
  0
SPLINE
  5
12e
100
AcDbEntity
  8
0
 62
7
100
AcDbSpline
 70
8
 71
3
 72
8
 73
4
 74
0
 40
0
 40
0
 40
0
 40
0
 40
1
 40
1
 40
1
 40
1
 10
132.581447
 20
93.450047
 30
0.0
 10
132.675215
 20
93.356278
 30
0.0
 10
132.802392
 20
93.303600
 30
0.0
 10
132.935000
 20
93.303600
 30
0.0
  0
LWPOLYLINE
  5
12f
100
AcDbEntity
  8
0
 62
7
100
AcDbPolyline
 90
2
 70
0
 10
120.040600
 20
0.651800
 30
0.0
 10
6.315000
 20
23.417700
 30
0.0
  0
SPLINE
  5
130
100
AcDbEntity
  8
0
 62
7
100
AcDbSpline
 70
8
 71
3
 72
8
 73
4
 74
0
 40
0
 40
0
 40
0
 40
0
 40
1
 40
1
 40
1
 40
1
 10
148.538600
 20
0.068200
 30
0.0
 10
150.515903
 20
0.068198
 30
0.0
 10
152.488363
 20
0.263682
 30
0.0
 10
154.427200
 20
0.651800
 30
0.0
  0
SPLINE
  5
131
100
AcDbEntity
  8
0
 62
7
100
AcDbSpline
 70
8
 71
3
 72
8
 73
4
 74
0
 40
0
 40
0
 40
0
 40
0
 40
1
 40
1
 40
1
 40
1
 10
137.235000
 20
58.947800
 30
0.0
 10
134.605995
 20
58.947800
 30
0.0
 10
132.235860
 20
57.364126
 30
0.0
 10
131.229783
 20
54.935242
 30
0.0
  0
SPLINE
  5
132
100
AcDbEntity
  8
0
 62
7
100
AcDbSpline
 70
8
 71
3
 72
8
 73
4
 74
0
 40
0
 40
0
 40
0
 40
0
 40
1
 40
1
 40
1
 40
1
 10
131.229783
 20
54.935242
 30
0.0
 10
130.223707
 20
52.506359
 30
0.0
 10
130.779819
 20
49.710593
 30
0.0
 10
132.638806
 20
47.851606
 30
0.0
  0
SPLINE
  5
133
100
AcDbEntity
  8
0
 62
7
100
AcDbSpline
 70
8
 71
3
 72
8
 73
4
 74
0
 40
0
 40
0
 40
0
 40
0
 40
1
 40
1
 40
1
 40
1
 10
132.638806
 20
47.851606
 30
0.0
 10
134.497793
 20
45.992619
 30
0.0
 10
137.293559
 20
45.436507
 30
0.0
 10
139.722442
 20
46.442583
 30
0.0
  0
SPLINE
  5
134
100
AcDbEntity
  8
0
 62
7
100
AcDbSpline
 70
8
 71
3
 72
8
 73
4
 74
0
 40
0
 40
0
 40
0
 40
0
 40
1
 40
1
 40
1
 40
1
 10
139.722442
 20
46.442583
 30
0.0
 10
142.151326
 20
47.448660
 30
0.0
 10
143.735000
 20
49.818795
 30
0.0
 10
143.735000
 20
52.447800
 30
0.0
  0
SPLINE
  5
135
100
AcDbEntity
  8
0
 62
7
100
AcDbSpline
 70
8
 71
3
 72
8
 73
4
 74
0
 40
0
 40
0
 40
0
 40
0
 40
1
 40
1
 40
1
 40
1
 10
143.735000
 20
52.447800
 30
0.0
 10
143.735000
 20
54.171707
 30
0.0
 10
143.050181
 20
55.825008
 30
0.0
 10
141.831194
 20
57.043994
 30
0.0
  0
SPLINE
  5
136
100
AcDbEntity
  8
0
 62
7
100
AcDbSpline
 70
8
 71
3
 72
8
 73
4
 74
0
 40
0
 40
0
 40
0
 40
0
 40
1
 40
1
 40
1
 40
1
 10
141.831194
 20
57.043994
 30
0.0
 10
140.612208
 20
58.262981
 30
0.0
 10
138.958907
 20
58.947800
 30
0.0
 10
137.235000
 20
58.947800
 30
0.0
  0
LWPOLYLINE
  5
137
100
AcDbEntity
  8
0
 62
7
100
AcDbPolyline
 90
2
 70
0
 10
171.365200
 20
98.632500
 30
0.0
 10
150.872800
 20
90.094300
 30
0.0
  0
LWPOLYLINE
  5
138
100
AcDbEntity
  8
0
 62
7
100
AcDbPolyline
 90
1
 70
1
 10
137.235000
 20
58.947800
 30
0.0
  0
LWPOLYLINE
  5
139
100
AcDbEntity
  8
0
 62
7
100
AcDbPolyline
 90
2
 70
0
 10
176.261500
 20
48.613000
 30
0.0
 10
181.415200
 20
36.243700
 30
0.0
  0
LWPOLYLINE
  5
13a
100
AcDbEntity
  8
0
 62
7
100
AcDbPolyline
 90
2
 70
0
 10
181.807500
 20
36.082100
 30
0.0
 10
194.176800
 20
41.235800
 30
0.0
  0
LWPOLYLINE
  5
13b
100
AcDbEntity
  8
0
 62
7
100
AcDbPolyline
 90
2
 70
0
 10
188.792400
 20
54.158900
 30
0.0
 10
176.423100
 20
49.005300
 30
0.0
  0
SPLINE
  5
13c
100
AcDbEntity
  8
0
 62
7
100
AcDbSpline
 70
8
 71
3
 72
8
 73
4
 74
0
 40
0
 40
0
 40
0
 40
0
 40
1
 40
1
 40
1
 40
1
 10
176.423100
 20
49.005300
 30
0.0
 10
176.349646
 20
48.974710
 30
0.0
 10
176.291354
 20
48.916192
 30
0.0
 10
176.261048
 20
48.842620
 30
0.0
  0
SPLINE
  5
13d
100
AcDbEntity
  8
0
 62
7
100
AcDbSpline
 70
8
 71
3
 72
8
 73
4
 74
0
 40
0
 40
0
 40
0
 40
0
 40
1
 40
1
 40
1
 40
1
 10
176.261048
 20
48.842620
 30
0.0
 10
176.230741
 20
48.769049
 30
0.0
 10
176.230904
 20
48.686451
 30
0.0
 10
176.261500
 20
48.613000
 30
0.0
  0
SPLINE
  5
13e
100
AcDbEntity
  8
0
 62
7
100
AcDbSpline
 70
8
 71
3
 72
8
 73
4
 74
0
 40
0
 40
0
 40
0
 40
0
 40
1
 40
1
 40
1
 40
1
 10
181.415200
 20
36.243700
 30
0.0
 10
181.445790
 20
36.170246
 30
0.0
 10
181.504308
 20
36.111954
 30
0.0
 10
181.577880
 20
36.081648
 30
0.0
  0
SPLINE
  5
13f
100
AcDbEntity
  8
0
 62
7
100
AcDbSpline
 70
8
 71
3
 72
8
 73
4
 74
0
 40
0
 40
0
 40
0
 40
0
 40
1
 40
1
 40
1
 40
1
 10
181.577880
 20
36.081648
 30
0.0
 10
181.651451
 20
36.051341
 30
0.0
 10
181.734049
 20
36.051504
 30
0.0
 10
181.807500
 20
36.082100
 30
0.0
  0
SPLINE
  5
140
100
AcDbEntity
  8
0
 62
7
100
AcDbSpline
 70
8
 71
3
 72
8
 73
4
 74
0
 40
0
 40
0
 40
0
 40
0
 40
1
 40
1
 40
1
 40
1
 10
189.184700
 20
53.997400
 30
0.0
 10
189.120960
 20
54.150321
 30
0.0
 10
188.945328
 20
54.222624
 30
0.0
 10
188.792400
 20
54.158900
 30
0.0
  0
SPLINE
  5
141
100
AcDbEntity
  8
0
 62
7
100
AcDbSpline
 70
8
 71
3
 72
8
 73
4
 74
0
 40
0
 40
0
 40
0
 40
0
 40
1
 40
1
 40
1
 40
1
 10
194.176800
 20
41.235800
 30
0.0
 10
194.329721
 20
41.299540
 30
0.0
 10
194.402024
 20
41.475172
 30
0.0
 10
194.338300
 20
41.628100
 30
0.0
  0
LWPOLYLINE
  5
142
100
AcDbEntity
  8
0
 62
7
100
AcDbPolyline
 90
2
 70
0
 10
194.338300
 20
41.628100
 30
0.0
 10
189.184700
 20
53.997400
 30
0.0
  0
LWPOLYLINE
  5
143
100
AcDbEntity
  8
0
 62
7
100
AcDbPolyline
 90
2
 70
0
 10
4.505000
 20
59.147800
 30
0.0
 10
4.505000
 20
45.747800
 30
0.0
  0
LWPOLYLINE
  5
144
100
AcDbEntity
  8
0
 62
7
100
AcDbPolyline
 90
2
 70
0
 10
4.805000
 20
45.447800
 30
0.0
 10
18.205000
 20
45.447800
 30
0.0
  0
LWPOLYLINE
  5
145
100
AcDbEntity
  8
0
 62
7
100
AcDbPolyline
 90
2
 70
0
 10
18.205000
 20
59.447800
 30
0.0
 10
4.805000
 20
59.447800
 30
0.0
  0
SPLINE
  5
146
100
AcDbEntity
  8
0
 62
7
100
AcDbSpline
 70
8
 71
3
 72
8
 73
4
 74
0
 40
0
 40
0
 40
0
 40
0
 40
1
 40
1
 40
1
 40
1
 10
4.805000
 20
59.447800
 30
0.0
 10
4.725435
 20
59.447800
 30
0.0
 10
4.649129
 20
59.416193
 30
0.0
 10
4.592868
 20
59.359932
 30
0.0
  0
SPLINE
  5
147
100
AcDbEntity
  8
0
 62
7
100
AcDbSpline
 70
8
 71
3
 72
8
 73
4
 74
0
 40
0
 40
0
 40
0
 40
0
 40
1
 40
1
 40
1
 40
1
 10
4.592868
 20
59.359932
 30
0.0
 10
4.536607
 20
59.303671
 30
0.0
 10
4.505000
 20
59.227365
 30
0.0
 10
4.505000
 20
59.147800
 30
0.0
  0
SPLINE
  5
148
100
AcDbEntity
  8
0
 62
7
100
AcDbSpline
 70
8
 71
3
 72
8
 73
4
 74
0
 40
0
 40
0
 40
0
 40
0
 40
1
 40
1
 40
1
 40
1
 10
4.505000
 20
45.747800
 30
0.0
 10
4.505000
 20
45.668235
 30
0.0
 10
4.536607
 20
45.591929
 30
0.0
 10
4.592868
 20
45.535668
 30
0.0
  0
SPLINE
  5
149
100
AcDbEntity
  8
0
 62
7
100
AcDbSpline
 70
8
 71
3
 72
8
 73
4
 74
0
 40
0
 40
0
 40
0
 40
0
 40
1
 40
1
 40
1
 40
1
 10
4.592868
 20
45.535668
 30
0.0
 10
4.649129
 20
45.479407
 30
0.0
 10
4.725435
 20
45.447800
 30
0.0
 10
4.805000
 20
45.447800
 30
0.0
  0
SPLINE
  5
14a
100
AcDbEntity
  8
0
 62
7
100
AcDbSpline
 70
8
 71
3
 72
8
 73
4
 74
0
 40
0
 40
0
 40
0
 40
0
 40
1
 40
1
 40
1
 40
1
 10
18.505000
 20
59.147800
 30
0.0
 10
18.505000
 20
59.227365
 30
0.0
 10
18.473393
 20
59.303671
 30
0.0
 10
18.417132
 20
59.359932
 30
0.0
  0
SPLINE
  5
14b
100
AcDbEntity
  8
0
 62
7
100
AcDbSpline
 70
8
 71
3
 72
8
 73
4
 74
0
 40
0
 40
0
 40
0
 40
0
 40
1
 40
1
 40
1
 40
1
 10
18.417132
 20
59.359932
 30
0.0
 10
18.360871
 20
59.416193
 30
0.0
 10
18.284565
 20
59.447800
 30
0.0
 10
18.205000
 20
59.447800
 30
0.0
  0
SPLINE
  5
14c
100
AcDbEntity
  8
0
 62
7
100
AcDbSpline
 70
8
 71
3
 72
8
 73
4
 74
0
 40
0
 40
0
 40
0
 40
0
 40
1
 40
1
 40
1
 40
1
 10
18.205000
 20
45.447800
 30
0.0
 10
18.284565
 20
45.447800
 30
0.0
 10
18.360871
 20
45.479407
 30
0.0
 10
18.417132
 20
45.535668
 30
0.0
  0
SPLINE
  5
14d
100
AcDbEntity
  8
0
 62
7
100
AcDbSpline
 70
8
 71
3
 72
8
 73
4
 74
0
 40
0
 40
0
 40
0
 40
0
 40
1
 40
1
 40
1
 40
1
 10
18.417132
 20
45.535668
 30
0.0
 10
18.473393
 20
45.591929
 30
0.0
 10
18.505000
 20
45.668235
 30
0.0
 10
18.505000
 20
45.747800
 30
0.0
  0
LWPOLYLINE
  5
14e
100
AcDbEntity
  8
0
 62
7
100
AcDbPolyline
 90
2
 70
0
 10
18.505000
 20
45.747800
 30
0.0
 10
18.505000
 20
59.147800
 30
0.0
  0
LWPOLYLINE
  5
14f
100
AcDbEntity
  8
0
 62
7
100
AcDbPolyline
 90
2
 70
0
 10
92.025700
 20
30.551900
 30
0.0
 10
86.872100
 20
18.182600
 30
0.0
  0
LWPOLYLINE
  5
150
100
AcDbEntity
  8
0
 62
7
100
AcDbPolyline
 90
2
 70
0
 10
87.033600
 20
17.790300
 30
0.0
 10
99.402900
 20
12.636600
 30
0.0
  0
LWPOLYLINE
  5
151
100
AcDbEntity
  8
0
 62
7
100
AcDbPolyline
 90
2
 70
0
 10
104.787400
 20
25.559800
 30
0.0
 10
92.418100
 20
30.713400
 30
0.0
  0
SPLINE
  5
152
100
AcDbEntity
  8
0
 62
7
100
AcDbSpline
 70
8
 71
3
 72
8
 73
4
 74
0
 40
0
 40
0
 40
0
 40
0
 40
1
 40
1
 40
1
 40
1
 10
92.418100
 20
30.713400
 30
0.0
 10
92.344650
 20
30.744033
 30
0.0
 10
92.262037
 20
30.744227
 30
0.0
 10
92.188444
 20
30.713938
 30
0.0
  0
SPLINE
  5
153
100
AcDbEntity
  8
0
 62
7
100
AcDbSpline
 70
8
 71
3
 72
8
 73
4
 74
0
 40
0
 40
0
 40
0
 40
0
 40
1
 40
1
 40
1
 40
1
 10
92.188444
 20
30.713938
 30
0.0
 10
92.114851
 20
30.683649
 30
0.0
 10
92.056309
 20
30.625361
 30
0.0
 10
92.025700
 20
30.551900
 30
0.0
  0
SPLINE
  5
154
100
AcDbEntity
  8
0
 62
7
100
AcDbSpline
 70
8
 71
3
 72
8
 73
4
 74
0
 40
0
 40
0
 40
0
 40
0
 40
1
 40
1
 40
1
 40
1
 10
86.872100
 20
18.182600
 30
0.0
 10
86.808376
 20
18.029672
 30
0.0
 10
86.880679
 20
17.854040
 30
0.0
 10
87.033600
 20
17.790300
 30
0.0
  0
SPLINE
  5
155
100
AcDbEntity
  8
0
 62
7
100
AcDbSpline
 70
8
 71
3
 72
8
 73
4
 74
0
 40
0
 40
0
 40
0
 40
0
 40
1
 40
1
 40
1
 40
1
 10
104.948900
 20
25.167500
 30
0.0
 10
105.012624
 20
25.320428
 30
0.0
 10
104.940321
 20
25.496060
 30
0.0
 10
104.787400
 20
25.559800
 30
0.0
  0
SPLINE
  5
156
100
AcDbEntity
  8
0
 62
7
100
AcDbSpline
 70
8
 71
3
 72
8
 73
4
 74
0
 40
0
 40
0
 40
0
 40
0
 40
1
 40
1
 40
1
 40
1
 10
99.402900
 20
12.636600
 30
0.0
 10
99.555828
 20
12.572876
 30
0.0
 10
99.731460
 20
12.645179
 30
0.0
 10
99.795200
 20
12.798100
 30
0.0
  0
LWPOLYLINE
  5
157
100
AcDbEntity
  8
0
 62
7
100
AcDbPolyline
 90
2
 70
0
 10
99.795200
 20
12.798100
 30
0.0
 10
104.948900
 20
25.167500
 30
0.0
  0
LWPOLYLINE
  5
158
100
AcDbEntity
  8
0
 62
7
100
AcDbPolyline
 90
2
 70
0
 10
217.865000
 20
59.147800
 30
0.0
 10
217.865000
 20
45.747800
 30
0.0
  0
LWPOLYLINE
  5
159
100
AcDbEntity
  8
0
 62
7
100
AcDbPolyline
 90
2
 70
0
 10
218.165000
 20
45.447800
 30
0.0
 10
231.565000
 20
45.447800
 30
0.0
  0
LWPOLYLINE
  5
15a
100
AcDbEntity
  8
0
 62
7
100
AcDbPolyline
 90
2
 70
0
 10
231.565000
 20
59.447800
 30
0.0
 10
218.165000
 20
59.447800
 30
0.0
  0
SPLINE
  5
15b
100
AcDbEntity
  8
0
 62
7
100
AcDbSpline
 70
8
 71
3
 72
8
 73
4
 74
0
 40
0
 40
0
 40
0
 40
0
 40
1
 40
1
 40
1
 40
1
 10
218.165000
 20
59.447800
 30
0.0
 10
218.085435
 20
59.447800
 30
0.0
 10
218.009129
 20
59.416193
 30
0.0
 10
217.952868
 20
59.359932
 30
0.0
  0
SPLINE
  5
15c
100
AcDbEntity
  8
0
 62
7
100
AcDbSpline
 70
8
 71
3
 72
8
 73
4
 74
0
 40
0
 40
0
 40
0
 40
0
 40
1
 40
1
 40
1
 40
1
 10
217.952868
 20
59.359932
 30
0.0
 10
217.896607
 20
59.303671
 30
0.0
 10
217.865000
 20
59.227365
 30
0.0
 10
217.865000
 20
59.147800
 30
0.0
  0
SPLINE
  5
15d
100
AcDbEntity
  8
0
 62
7
100
AcDbSpline
 70
8
 71
3
 72
8
 73
4
 74
0
 40
0
 40
0
 40
0
 40
0
 40
1
 40
1
 40
1
 40
1
 10
217.865000
 20
45.747800
 30
0.0
 10
217.865000
 20
45.668235
 30
0.0
 10
217.896607
 20
45.591929
 30
0.0
 10
217.952868
 20
45.535668
 30
0.0
  0
SPLINE
  5
15e
100
AcDbEntity
  8
0
 62
7
100
AcDbSpline
 70
8
 71
3
 72
8
 73
4
 74
0
 40
0
 40
0
 40
0
 40
0
 40
1
 40
1
 40
1
 40
1
 10
217.952868
 20
45.535668
 30
0.0
 10
218.009129
 20
45.479407
 30
0.0
 10
218.085435
 20
45.447800
 30
0.0
 10
218.165000
 20
45.447800
 30
0.0
  0
SPLINE
  5
15f
100
AcDbEntity
  8
0
 62
7
100
AcDbSpline
 70
8
 71
3
 72
8
 73
4
 74
0
 40
0
 40
0
 40
0
 40
0
 40
1
 40
1
 40
1
 40
1
 10
231.865000
 20
59.147800
 30
0.0
 10
231.865000
 20
59.227365
 30
0.0
 10
231.833393
 20
59.303671
 30
0.0
 10
231.777132
 20
59.359932
 30
0.0
  0
SPLINE
  5
160
100
AcDbEntity
  8
0
 62
7
100
AcDbSpline
 70
8
 71
3
 72
8
 73
4
 74
0
 40
0
 40
0
 40
0
 40
0
 40
1
 40
1
 40
1
 40
1
 10
231.777132
 20
59.359932
 30
0.0
 10
231.720871
 20
59.416193
 30
0.0
 10
231.644565
 20
59.447800
 30
0.0
 10
231.565000
 20
59.447800
 30
0.0
  0
SPLINE
  5
161
100
AcDbEntity
  8
0
 62
7
100
AcDbSpline
 70
8
 71
3
 72
8
 73
4
 74
0
 40
0
 40
0
 40
0
 40
0
 40
1
 40
1
 40
1
 40
1
 10
231.565000
 20
45.447800
 30
0.0
 10
231.644565
 20
45.447800
 30
0.0
 10
231.720871
 20
45.479407
 30
0.0
 10
231.777132
 20
45.535668
 30
0.0
  0
SPLINE
  5
162
100
AcDbEntity
  8
0
 62
7
100
AcDbSpline
 70
8
 71
3
 72
8
 73
4
 74
0
 40
0
 40
0
 40
0
 40
0
 40
1
 40
1
 40
1
 40
1
 10
231.777132
 20
45.535668
 30
0.0
 10
231.833393
 20
45.591929
 30
0.0
 10
231.865000
 20
45.668235
 30
0.0
 10
231.865000
 20
45.747800
 30
0.0
  0
LWPOLYLINE
  5
163
100
AcDbEntity
  8
0
 62
7
100
AcDbPolyline
 90
2
 70
0
 10
231.865000
 20
45.747800
 30
0.0
 10
231.865000
 20
59.147800
 30
0.0
  0
LWPOLYLINE
  5
164
100
AcDbEntity
  8
0
 62
7
100
AcDbPolyline
 90
2
 70
0
 10
236.915000
 20
59.147800
 30
0.0
 10
236.915000
 20
45.747800
 30
0.0
  0
LWPOLYLINE
  5
165
100
AcDbEntity
  8
0
 62
7
100
AcDbPolyline
 90
2
 70
0
 10
237.215000
 20
45.447800
 30
0.0
 10
250.615000
 20
45.447800
 30
0.0
  0
LWPOLYLINE
  5
166
100
AcDbEntity
  8
0
 62
7
100
AcDbPolyline
 90
2
 70
0
 10
250.615000
 20
59.447800
 30
0.0
 10
237.215000
 20
59.447800
 30
0.0
  0
SPLINE
  5
167
100
AcDbEntity
  8
0
 62
7
100
AcDbSpline
 70
8
 71
3
 72
8
 73
4
 74
0
 40
0
 40
0
 40
0
 40
0
 40
1
 40
1
 40
1
 40
1
 10
237.215000
 20
59.447800
 30
0.0
 10
237.135435
 20
59.447800
 30
0.0
 10
237.059129
 20
59.416193
 30
0.0
 10
237.002868
 20
59.359932
 30
0.0
  0
SPLINE
  5
168
100
AcDbEntity
  8
0
 62
7
100
AcDbSpline
 70
8
 71
3
 72
8
 73
4
 74
0
 40
0
 40
0
 40
0
 40
0
 40
1
 40
1
 40
1
 40
1
 10
237.002868
 20
59.359932
 30
0.0
 10
236.946607
 20
59.303671
 30
0.0
 10
236.915000
 20
59.227365
 30
0.0
 10
236.915000
 20
59.147800
 30
0.0
  0
SPLINE
  5
169
100
AcDbEntity
  8
0
 62
7
100
AcDbSpline
 70
8
 71
3
 72
8
 73
4
 74
0
 40
0
 40
0
 40
0
 40
0
 40
1
 40
1
 40
1
 40
1
 10
236.915000
 20
45.747800
 30
0.0
 10
236.915000
 20
45.668235
 30
0.0
 10
236.946607
 20
45.591929
 30
0.0
 10
237.002868
 20
45.535668
 30
0.0
  0
SPLINE
  5
16a
100
AcDbEntity
  8
0
 62
7
100
AcDbSpline
 70
8
 71
3
 72
8
 73
4
 74
0
 40
0
 40
0
 40
0
 40
0
 40
1
 40
1
 40
1
 40
1
 10
237.002868
 20
45.535668
 30
0.0
 10
237.059129
 20
45.479407
 30
0.0
 10
237.135435
 20
45.447800
 30
0.0
 10
237.215000
 20
45.447800
 30
0.0
  0
SPLINE
  5
16b
100
AcDbEntity
  8
0
 62
7
100
AcDbSpline
 70
8
 71
3
 72
8
 73
4
 74
0
 40
0
 40
0
 40
0
 40
0
 40
1
 40
1
 40
1
 40
1
 10
250.915000
 20
59.147800
 30
0.0
 10
250.915000
 20
59.227365
 30
0.0
 10
250.883393
 20
59.303671
 30
0.0
 10
250.827132
 20
59.359932
 30
0.0
  0
SPLINE
  5
16c
100
AcDbEntity
  8
0
 62
7
100
AcDbSpline
 70
8
 71
3
 72
8
 73
4
 74
0
 40
0
 40
0
 40
0
 40
0
 40
1
 40
1
 40
1
 40
1
 10
250.827132
 20
59.359932
 30
0.0
 10
250.770871
 20
59.416193
 30
0.0
 10
250.694565
 20
59.447800
 30
0.0
 10
250.615000
 20
59.447800
 30
0.0
  0
SPLINE
  5
16d
100
AcDbEntity
  8
0
 62
7
100
AcDbSpline
 70
8
 71
3
 72
8
 73
4
 74
0
 40
0
 40
0
 40
0
 40
0
 40
1
 40
1
 40
1
 40
1
 10
250.615000
 20
45.447800
 30
0.0
 10
250.694565
 20
45.447800
 30
0.0
 10
250.770871
 20
45.479407
 30
0.0
 10
250.827132
 20
45.535668
 30
0.0
  0
SPLINE
  5
16e
100
AcDbEntity
  8
0
 62
7
100
AcDbSpline
 70
8
 71
3
 72
8
 73
4
 74
0
 40
0
 40
0
 40
0
 40
0
 40
1
 40
1
 40
1
 40
1
 10
250.827132
 20
45.535668
 30
0.0
 10
250.883393
 20
45.591929
 30
0.0
 10
250.915000
 20
45.668235
 30
0.0
 10
250.915000
 20
45.747800
 30
0.0
  0
SPLINE
  5
16f
100
AcDbEntity
  8
0
 62
7
100
AcDbSpline
 70
8
 71
3
 72
8
 73
4
 74
0
 40
0
 40
0
 40
0
 40
0
 40
1
 40
1
 40
1
 40
1
 10
225.865000
 20
38.922800
 30
0.0
 10
222.224840
 20
38.922800
 30
0.0
 10
218.943113
 20
36.730020
 30
0.0
 10
217.550084
 20
33.366951
 30
0.0
  0
SPLINE
  5
170
100
AcDbEntity
  8
0
 62
7
100
AcDbSpline
 70
8
 71
3
 72
8
 73
4
 74
0
 40
0
 40
0
 40
0
 40
0
 40
1
 40
1
 40
1
 40
1
 10
217.550084
 20
33.366951
 30
0.0
 10
216.157055
 20
30.003881
 30
0.0
 10
216.927057
 20
26.132821
 30
0.0
 10
219.501039
 20
23.558839
 30
0.0
  0
SPLINE
  5
171
100
AcDbEntity
  8
0
 62
7
100
AcDbSpline
 70
8
 71
3
 72
8
 73
4
 74
0
 40
0
 40
0
 40
0
 40
0
 40
1
 40
1
 40
1
 40
1
 10
219.501039
 20
23.558839
 30
0.0
 10
222.075021
 20
20.984857
 30
0.0
 10
225.946081
 20
20.214855
 30
0.0
 10
229.309151
 20
21.607884
 30
0.0
  0
SPLINE
  5
172
100
AcDbEntity
  8
0
 62
7
100
AcDbSpline
 70
8
 71
3
 72
8
 73
4
 74
0
 40
0
 40
0
 40
0
 40
0
 40
1
 40
1
 40
1
 40
1
 10
229.309151
 20
21.607884
 30
0.0
 10
232.672220
 20
23.000913
 30
0.0
 10
234.865000
 20
26.282640
 30
0.0
 10
234.865000
 20
29.922800
 30
0.0
  0
SPLINE
  5
173
100
AcDbEntity
  8
0
 62
7
100
AcDbSpline
 70
8
 71
3
 72
8
 73
4
 74
0
 40
0
 40
0
 40
0
 40
0
 40
1
 40
1
 40
1
 40
1
 10
234.865000
 20
29.922800
 30
0.0
 10
234.865000
 20
32.309748
 30
0.0
 10
233.916788
 20
34.598934
 30
0.0
 10
232.228961
 20
36.286761
 30
0.0
  0
SPLINE
  5
174
100
AcDbEntity
  8
0
 62
7
100
AcDbSpline
 70
8
 71
3
 72
8
 73
4
 74
0
 40
0
 40
0
 40
0
 40
0
 40
1
 40
1
 40
1
 40
1
 10
232.228961
 20
36.286761
 30
0.0
 10
230.541134
 20
37.974588
 30
0.0
 10
228.251948
 20
38.922800
 30
0.0
 10
225.865000
 20
38.922800
 30
0.0
  0
LWPOLYLINE
  5
175
100
AcDbEntity
  8
0
 62
7
100
AcDbPolyline
 90
2
 70
0
 10
250.915000
 20
45.747800
 30
0.0
 10
250.915000
 20
59.147800
 30
0.0
  0
LWPOLYLINE
  5
176
100
AcDbEntity
  8
0
 62
7
100
AcDbPolyline
 90
1
 70
1
 10
225.865000
 20
38.922800
 30
0.0
  0
LWPOLYLINE
  5
177
100
AcDbEntity
  8
0
 62
7
100
AcDbPolyline
 90
2
 70
0
 10
27.365000
 20
78.197800
 30
0.0
 10
27.365000
 20
64.797800
 30
0.0
  0
LWPOLYLINE
  5
178
100
AcDbEntity
  8
0
 62
7
100
AcDbPolyline
 90
2
 70
0
 10
27.665000
 20
64.497800
 30
0.0
 10
41.065000
 20
64.497800
 30
0.0
  0
LWPOLYLINE
  5
179
100
AcDbEntity
  8
0
 62
7
100
AcDbPolyline
 90
2
 70
0
 10
41.065000
 20
78.497800
 30
0.0
 10
27.665000
 20
78.497800
 30
0.0
  0
SPLINE
  5
17a
100
AcDbEntity
  8
0
 62
7
100
AcDbSpline
 70
8
 71
3
 72
8
 73
4
 74
0
 40
0
 40
0
 40
0
 40
0
 40
1
 40
1
 40
1
 40
1
 10
27.665000
 20
78.497800
 30
0.0
 10
27.585435
 20
78.497800
 30
0.0
 10
27.509129
 20
78.466193
 30
0.0
 10
27.452868
 20
78.409932
 30
0.0
  0
SPLINE
  5
17b
100
AcDbEntity
  8
0
 62
7
100
AcDbSpline
 70
8
 71
3
 72
8
 73
4
 74
0
 40
0
 40
0
 40
0
 40
0
 40
1
 40
1
 40
1
 40
1
 10
27.452868
 20
78.409932
 30
0.0
 10
27.396607
 20
78.353671
 30
0.0
 10
27.365000
 20
78.277365
 30
0.0
 10
27.365000
 20
78.197800
 30
0.0
  0
SPLINE
  5
17c
100
AcDbEntity
  8
0
 62
7
100
AcDbSpline
 70
8
 71
3
 72
8
 73
4
 74
0
 40
0
 40
0
 40
0
 40
0
 40
1
 40
1
 40
1
 40
1
 10
27.365000
 20
64.797800
 30
0.0
 10
27.365000
 20
64.718235
 30
0.0
 10
27.396607
 20
64.641929
 30
0.0
 10
27.452868
 20
64.585668
 30
0.0
  0
SPLINE
  5
17d
100
AcDbEntity
  8
0
 62
7
100
AcDbSpline
 70
8
 71
3
 72
8
 73
4
 74
0
 40
0
 40
0
 40
0
 40
0
 40
1
 40
1
 40
1
 40
1
 10
27.452868
 20
64.585668
 30
0.0
 10
27.509129
 20
64.529407
 30
0.0
 10
27.585435
 20
64.497800
 30
0.0
 10
27.665000
 20
64.497800
 30
0.0
  0
SPLINE
  5
17e
100
AcDbEntity
  8
0
 62
7
100
AcDbSpline
 70
8
 71
3
 72
8
 73
4
 74
0
 40
0
 40
0
 40
0
 40
0
 40
1
 40
1
 40
1
 40
1
 10
41.365000
 20
78.197800
 30
0.0
 10
41.365000
 20
78.277365
 30
0.0
 10
41.333393
 20
78.353671
 30
0.0
 10
41.277132
 20
78.409932
 30
0.0
  0
SPLINE
  5
17f
100
AcDbEntity
  8
0
 62
7
100
AcDbSpline
 70
8
 71
3
 72
8
 73
4
 74
0
 40
0
 40
0
 40
0
 40
0
 40
1
 40
1
 40
1
 40
1
 10
41.277132
 20
78.409932
 30
0.0
 10
41.220871
 20
78.466193
 30
0.0
 10
41.144565
 20
78.497800
 30
0.0
 10
41.065000
 20
78.497800
 30
0.0
  0
SPLINE
  5
180
100
AcDbEntity
  8
0
 62
7
100
AcDbSpline
 70
8
 71
3
 72
8
 73
4
 74
0
 40
0
 40
0
 40
0
 40
0
 40
1
 40
1
 40
1
 40
1
 10
41.065000
 20
64.497800
 30
0.0
 10
41.144565
 20
64.497800
 30
0.0
 10
41.220871
 20
64.529407
 30
0.0
 10
41.277132
 20
64.585668
 30
0.0
  0
SPLINE
  5
181
100
AcDbEntity
  8
0
 62
7
100
AcDbSpline
 70
8
 71
3
 72
8
 73
4
 74
0
 40
0
 40
0
 40
0
 40
0
 40
1
 40
1
 40
1
 40
1
 10
41.277132
 20
64.585668
 30
0.0
 10
41.333393
 20
64.641929
 30
0.0
 10
41.365000
 20
64.718235
 30
0.0
 10
41.365000
 20
64.797800
 30
0.0
  0
LWPOLYLINE
  5
182
100
AcDbEntity
  8
0
 62
7
100
AcDbPolyline
 90
2
 70
0
 10
41.365000
 20
64.797800
 30
0.0
 10
41.365000
 20
78.197800
 30
0.0
  0
LWPOLYLINE
  5
183
100
AcDbEntity
  8
0
 62
7
100
AcDbPolyline
 90
2
 70
0
 10
106.679800
 20
65.720800
 30
0.0
 10
101.526100
 20
53.351500
 30
0.0
  0
LWPOLYLINE
  5
184
100
AcDbEntity
  8
0
 62
7
100
AcDbPolyline
 90
2
 70
0
 10
101.687700
 20
52.959200
 30
0.0
 10
114.057000
 20
47.805500
 30
0.0
  0
LWPOLYLINE
  5
185
100
AcDbEntity
  8
0
 62
7
100
AcDbPolyline
 90
2
 70
0
 10
119.441400
 20
60.728700
 30
0.0
 10
107.072100
 20
65.882300
 30
0.0
  0
SPLINE
  5
186
100
AcDbEntity
  8
0
 62
7
100
AcDbSpline
 70
8
 71
3
 72
8
 73
4
 74
0
 40
0
 40
0
 40
0
 40
0
 40
1
 40
1
 40
1
 40
1
 10
107.072100
 20
65.882300
 30
0.0
 10
106.919172
 20
65.946024
 30
0.0
 10
106.743540
 20
65.873721
 30
0.0
 10
106.679800
 20
65.720800
 30
0.0
  0
SPLINE
  5
187
100
AcDbEntity
  8
0
 62
7
100
AcDbSpline
 70
8
 71
3
 72
8
 73
4
 74
0
 40
0
 40
0
 40
0
 40
0
 40
1
 40
1
 40
1
 40
1
 10
101.526100
 20
53.351500
 30
0.0
 10
101.495504
 20
53.278049
 30
0.0
 10
101.495341
 20
53.195451
 30
0.0
 10
101.525648
 20
53.121880
 30
0.0
  0
SPLINE
  5
188
100
AcDbEntity
  8
0
 62
7
100
AcDbSpline
 70
8
 71
3
 72
8
 73
4
 74
0
 40
0
 40
0
 40
0
 40
0
 40
1
 40
1
 40
1
 40
1
 10
101.525648
 20
53.121880
 30
0.0
 10
101.555954
 20
53.048308
 30
0.0
 10
101.614246
 20
52.989790
 30
0.0
 10
101.687700
 20
52.959200
 30
0.0
  0
SPLINE
  5
189
100
AcDbEntity
  8
0
 62
7
100
AcDbSpline
 70
8
 71
3
 72
8
 73
4
 74
0
 40
0
 40
0
 40
0
 40
0
 40
1
 40
1
 40
1
 40
1
 10
119.602900
 20
60.336400
 30
0.0
 10
119.666624
 20
60.489328
 30
0.0
 10
119.594321
 20
60.664960
 30
0.0
 10
119.441400
 20
60.728700
 30
0.0
  0
SPLINE
  5
18a
100
AcDbEntity
  8
0
 62
7
100
AcDbSpline
 70
8
 71
3
 72
8
 73
4
 74
0
 40
0
 40
0
 40
0
 40
0
 40
1
 40
1
 40
1
 40
1
 10
114.057000
 20
47.805500
 30
0.0
 10
114.130451
 20
47.774904
 30
0.0
 10
114.213049
 20
47.774741
 30
0.0
 10
114.286620
 20
47.805048
 30
0.0
  0
SPLINE
  5
18b
100
AcDbEntity
  8
0
 62
7
100
AcDbSpline
 70
8
 71
3
 72
8
 73
4
 74
0
 40
0
 40
0
 40
0
 40
0
 40
1
 40
1
 40
1
 40
1
 10
114.286620
 20
47.805048
 30
0.0
 10
114.360192
 20
47.835354
 30
0.0
 10
114.418710
 20
47.893646
 30
0.0
 10
114.449300
 20
47.967100
 30
0.0
  0
LWPOLYLINE
  5
18c
100
AcDbEntity
  8
0
 62
7
100
AcDbPolyline
 90
2
 70
0
 10
114.449300
 20
47.967100
 30
0.0
 10
119.602900
 20
60.336400
 30
0.0
  0
LWPOLYLINE
  5
18d
100
AcDbEntity
  8
0
 62
7
100
AcDbPolyline
 90
2
 70
0
 10
74.441000
 20
37.878500
 30
0.0
 10
69.287400
 20
25.509200
 30
0.0
  0
LWPOLYLINE
  5
18e
100
AcDbEntity
  8
0
 62
7
100
AcDbPolyline
 90
2
 70
0
 10
69.448900
 20
25.116900
 30
0.0
 10
81.818200
 20
19.963300
 30
0.0
  0
LWPOLYLINE
  5
18f
100
AcDbEntity
  8
0
 62
7
100
AcDbPolyline
 90
2
 70
0
 10
87.202600
 20
32.886400
 30
0.0
 10
74.833300
 20
38.040100
 30
0.0
  0
SPLINE
  5
190
100
AcDbEntity
  8
0
 62
7
100
AcDbSpline
 70
8
 71
3
 72
8
 73
4
 74
0
 40
0
 40
0
 40
0
 40
0
 40
1
 40
1
 40
1
 40
1
 10
74.833300
 20
38.040100
 30
0.0
 10
74.759849
 20
38.070696
 30
0.0
 10
74.677251
 20
38.070859
 30
0.0
 10
74.603680
 20
38.040552
 30
0.0
  0
SPLINE
  5
191
100
AcDbEntity
  8
0
 62
7
100
AcDbSpline
 70
8
 71
3
 72
8
 73
4
 74
0
 40
0
 40
0
 40
0
 40
0
 40
1
 40
1
 40
1
 40
1
 10
74.603680
 20
38.040552
 30
0.0
 10
74.530108
 20
38.010246
 30
0.0
 10
74.471590
 20
37.951954
 30
0.0
 10
74.441000
 20
37.878500
 30
0.0
  0
SPLINE
  5
192
100
AcDbEntity
  8
0
 62
7
100
AcDbSpline
 70
8
 71
3
 72
8
 73
4
 74
0
 40
0
 40
0
 40
0
 40
0
 40
1
 40
1
 40
1
 40
1
 10
69.287400
 20
25.509200
 30
0.0
 10
69.223676
 20
25.356272
 30
0.0
 10
69.295979
 20
25.180640
 30
0.0
 10
69.448900
 20
25.116900
 30
0.0
  0
SPLINE
  5
193
100
AcDbEntity
  8
0
 62
7
100
AcDbSpline
 70
8
 71
3
 72
8
 73
4
 74
0
 40
0
 40
0
 40
0
 40
0
 40
1
 40
1
 40
1
 40
1
 10
87.364200
 20
32.494100
 30
0.0
 10
87.394796
 20
32.567551
 30
0.0
 10
87.394959
 20
32.650149
 30
0.0
 10
87.364652
 20
32.723720
 30
0.0
  0
SPLINE
  5
194
100
AcDbEntity
  8
0
 62
7
100
AcDbSpline
 70
8
 71
3
 72
8
 73
4
 74
0
 40
0
 40
0
 40
0
 40
0
 40
1
 40
1
 40
1
 40
1
 10
87.364652
 20
32.723720
 30
0.0
 10
87.334346
 20
32.797292
 30
0.0
 10
87.276054
 20
32.855810
 30
0.0
 10
87.202600
 20
32.886400
 30
0.0
  0
SPLINE
  5
195
100
AcDbEntity
  8
0
 62
7
100
AcDbSpline
 70
8
 71
3
 72
8
 73
4
 74
0
 40
0
 40
0
 40
0
 40
0
 40
1
 40
1
 40
1
 40
1
 10
81.818200
 20
19.963300
 30
0.0
 10
81.971128
 20
19.899576
 30
0.0
 10
82.146760
 20
19.971879
 30
0.0
 10
82.210500
 20
20.124800
 30
0.0
  0
SPLINE
  5
196
100
AcDbEntity
  8
0
 62
7
100
AcDbSpline
 70
8
 71
3
 72
8
 73
4
 74
0
 40
0
 40
0
 40
0
 40
0
 40
1
 40
1
 40
1
 40
1
 10
124.311800
 20
37.332200
 30
0.0
 10
121.480564
 20
37.332200
 30
0.0
 10
118.928110
 20
35.626705
 30
0.0
 10
117.844643
 20
33.010984
 30
0.0
  0
SPLINE
  5
197
100
AcDbEntity
  8
0
 62
7
100
AcDbSpline
 70
8
 71
3
 72
8
 73
4
 74
0
 40
0
 40
0
 40
0
 40
0
 40
1
 40
1
 40
1
 40
1
 10
117.844643
 20
33.010984
 30
0.0
 10
116.761176
 20
30.395263
 30
0.0
 10
117.360067
 20
27.384439
 30
0.0
 10
119.362053
 20
25.382453
 30
0.0
  0
SPLINE
  5
198
100
AcDbEntity
  8
0
 62
7
100
AcDbSpline
 70
8
 71
3
 72
8
 73
4
 74
0
 40
0
 40
0
 40
0
 40
0
 40
1
 40
1
 40
1
 40
1
 10
119.362053
 20
25.382453
 30
0.0
 10
121.364039
 20
23.380467
 30
0.0
 10
124.374863
 20
22.781576
 30
0.0
 10
126.990584
 20
23.865043
 30
0.0
  0
SPLINE
  5
199
100
AcDbEntity
  8
0
 62
7
100
AcDbSpline
 70
8
 71
3
 72
8
 73
4
 74
0
 40
0
 40
0
 40
0
 40
0
 40
1
 40
1
 40
1
 40
1
 10
126.990584
 20
23.865043
 30
0.0
 10
129.606305
 20
24.948510
 30
0.0
 10
131.311800
 20
27.500964
 30
0.0
 10
131.311800
 20
30.332200
 30
0.0
  0
SPLINE
  5
19a
100
AcDbEntity
  8
0
 62
7
100
AcDbSpline
 70
8
 71
3
 72
8
 73
4
 74
0
 40
0
 40
0
 40
0
 40
0
 40
1
 40
1
 40
1
 40
1
 10
131.311800
 20
30.332200
 30
0.0
 10
131.311800
 20
32.188715
 30
0.0
 10
130.574302
 20
33.969193
 30
0.0
 10
129.261547
 20
35.281947
 30
0.0
  0
SPLINE
  5
19b
100
AcDbEntity
  8
0
 62
7
100
AcDbSpline
 70
8
 71
3
 72
8
 73
4
 74
0
 40
0
 40
0
 40
0
 40
0
 40
1
 40
1
 40
1
 40
1
 10
129.261547
 20
35.281947
 30
0.0
 10
127.948793
 20
36.594702
 30
0.0
 10
126.168315
 20
37.332200
 30
0.0
 10
124.311800
 20
37.332200
 30
0.0
  0
LWPOLYLINE
  5
19c
100
AcDbEntity
  8
0
 62
7
100
AcDbPolyline
 90
2
 70
0
 10
82.210500
 20
20.124800
 30
0.0
 10
87.364200
 20
32.494100
 30
0.0
  0
LWPOLYLINE
  5
19d
100
AcDbEntity
  8
0
 62
7
100
AcDbPolyline
 90
1
 70
1
 10
124.311800
 20
37.332200
 30
0.0
  0
LWPOLYLINE
  5
19e
100
AcDbEntity
  8
0
 62
7
100
AcDbPolyline
 90
2
 70
0
 10
110.489500
 20
84.770800
 30
0.0
 10
105.335800
 20
72.401500
 30
0.0
  0
LWPOLYLINE
  5
19f
100
AcDbEntity
  8
0
 62
7
100
AcDbPolyline
 90
2
 70
0
 10
105.497400
 20
72.009200
 30
0.0
 10
117.866700
 20
66.855600
 30
0.0
  0
LWPOLYLINE
  5
1a0
100
AcDbEntity
  8
0
 62
7
100
AcDbPolyline
 90
2
 70
0
 10
123.251100
 20
79.778700
 30
0.0
 10
110.881800
 20
84.932400
 30
0.0
  0
SPLINE
  5
1a1
100
AcDbEntity
  8
0
 62
7
100
AcDbSpline
 70
8
 71
3
 72
8
 73
4
 74
0
 40
0
 40
0
 40
0
 40
0
 40
1
 40
1
 40
1
 40
1
 10
110.881800
 20
84.932400
 30
0.0
 10
110.808349
 20
84.962996
 30
0.0
 10
110.725751
 20
84.963159
 30
0.0
 10
110.652180
 20
84.932852
 30
0.0
  0
SPLINE
  5
1a2
100
AcDbEntity
  8
0
 62
7
100
AcDbSpline
 70
8
 71
3
 72
8
 73
4
 74
0
 40
0
 40
0
 40
0
 40
0
 40
1
 40
1
 40
1
 40
1
 10
110.652180
 20
84.932852
 30
0.0
 10
110.578608
 20
84.902546
 30
0.0
 10
110.520090
 20
84.844254
 30
0.0
 10
110.489500
 20
84.770800
 30
0.0
  0
SPLINE
  5
1a3
100
AcDbEntity
  8
0
 62
7
100
AcDbSpline
 70
8
 71
3
 72
8
 73
4
 74
0
 40
0
 40
0
 40
0
 40
0
 40
1
 40
1
 40
1
 40
1
 10
105.335800
 20
72.401500
 30
0.0
 10
105.305204
 20
72.328049
 30
0.0
 10
105.305041
 20
72.245451
 30
0.0
 10
105.335348
 20
72.171880
 30
0.0
  0
SPLINE
  5
1a4
100
AcDbEntity
  8
0
 62
7
100
AcDbSpline
 70
8
 71
3
 72
8
 73
4
 74
0
 40
0
 40
0
 40
0
 40
0
 40
1
 40
1
 40
1
 40
1
 10
105.335348
 20
72.171880
 30
0.0
 10
105.365654
 20
72.098308
 30
0.0
 10
105.423946
 20
72.039790
 30
0.0
 10
105.497400
 20
72.009200
 30
0.0
  0
SPLINE
  5
1a5
100
AcDbEntity
  8
0
 62
7
100
AcDbSpline
 70
8
 71
3
 72
8
 73
4
 74
0
 40
0
 40
0
 40
0
 40
0
 40
1
 40
1
 40
1
 40
1
 10
123.412600
 20
79.386400
 30
0.0
 10
123.476324
 20
79.539328
 30
0.0
 10
123.404021
 20
79.714960
 30
0.0
 10
123.251100
 20
79.778700
 30
0.0
  0
SPLINE
  5
1a6
100
AcDbEntity
  8
0
 62
7
100
AcDbSpline
 70
8
 71
3
 72
8
 73
4
 74
0
 40
0
 40
0
 40
0
 40
0
 40
1
 40
1
 40
1
 40
1
 10
117.866700
 20
66.855600
 30
0.0
 10
118.019628
 20
66.791876
 30
0.0
 10
118.195260
 20
66.864179
 30
0.0
 10
118.259000
 20
67.017100
 30
0.0
  0
LWPOLYLINE
  5
1a7
100
AcDbEntity
  8
0
 62
7
100
AcDbPolyline
 90
2
 70
0
 10
118.259000
 20
67.017100
 30
0.0
 10
123.412600
 20
79.386400
 30
0.0
  0
LWPOLYLINE
  5
1a8
100
AcDbEntity
  8
0
 62
7
100
AcDbPolyline
 90
2
 70
0
 10
8.315000
 20
78.197800
 30
0.0
 10
8.315000
 20
64.797800
 30
0.0
  0
LWPOLYLINE
  5
1a9
100
AcDbEntity
  8
0
 62
7
100
AcDbPolyline
 90
2
 70
0
 10
8.615000
 20
64.497800
 30
0.0
 10
22.015000
 20
64.497800
 30
0.0
  0
LWPOLYLINE
  5
1aa
100
AcDbEntity
  8
0
 62
7
100
AcDbPolyline
 90
2
 70
0
 10
22.015000
 20
78.497800
 30
0.0
 10
8.615000
 20
78.497800
 30
0.0
  0
SPLINE
  5
1ab
100
AcDbEntity
  8
0
 62
7
100
AcDbSpline
 70
8
 71
3
 72
8
 73
4
 74
0
 40
0
 40
0
 40
0
 40
0
 40
1
 40
1
 40
1
 40
1
 10
8.615000
 20
78.497800
 30
0.0
 10
8.535435
 20
78.497800
 30
0.0
 10
8.459129
 20
78.466193
 30
0.0
 10
8.402868
 20
78.409932
 30
0.0
  0
SPLINE
  5
1ac
100
AcDbEntity
  8
0
 62
7
100
AcDbSpline
 70
8
 71
3
 72
8
 73
4
 74
0
 40
0
 40
0
 40
0
 40
0
 40
1
 40
1
 40
1
 40
1
 10
8.402868
 20
78.409932
 30
0.0
 10
8.346607
 20
78.353671
 30
0.0
 10
8.315000
 20
78.277365
 30
0.0
 10
8.315000
 20
78.197800
 30
0.0
  0
SPLINE
  5
1ad
100
AcDbEntity
  8
0
 62
7
100
AcDbSpline
 70
8
 71
3
 72
8
 73
4
 74
0
 40
0
 40
0
 40
0
 40
0
 40
1
 40
1
 40
1
 40
1
 10
8.315000
 20
64.797800
 30
0.0
 10
8.315000
 20
64.718235
 30
0.0
 10
8.346607
 20
64.641929
 30
0.0
 10
8.402868
 20
64.585668
 30
0.0
  0
SPLINE
  5
1ae
100
AcDbEntity
  8
0
 62
7
100
AcDbSpline
 70
8
 71
3
 72
8
 73
4
 74
0
 40
0
 40
0
 40
0
 40
0
 40
1
 40
1
 40
1
 40
1
 10
8.402868
 20
64.585668
 30
0.0
 10
8.459129
 20
64.529407
 30
0.0
 10
8.535435
 20
64.497800
 30
0.0
 10
8.615000
 20
64.497800
 30
0.0
  0
SPLINE
  5
1af
100
AcDbEntity
  8
0
 62
7
100
AcDbSpline
 70
8
 71
3
 72
8
 73
4
 74
0
 40
0
 40
0
 40
0
 40
0
 40
1
 40
1
 40
1
 40
1
 10
22.315000
 20
78.197800
 30
0.0
 10
22.315000
 20
78.277365
 30
0.0
 10
22.283393
 20
78.353671
 30
0.0
 10
22.227132
 20
78.409932
 30
0.0
  0
SPLINE
  5
1b0
100
AcDbEntity
  8
0
 62
7
100
AcDbSpline
 70
8
 71
3
 72
8
 73
4
 74
0
 40
0
 40
0
 40
0
 40
0
 40
1
 40
1
 40
1
 40
1
 10
22.227132
 20
78.409932
 30
0.0
 10
22.170871
 20
78.466193
 30
0.0
 10
22.094565
 20
78.497800
 30
0.0
 10
22.015000
 20
78.497800
 30
0.0
  0
SPLINE
  5
1b1
100
AcDbEntity
  8
0
 62
7
100
AcDbSpline
 70
8
 71
3
 72
8
 73
4
 74
0
 40
0
 40
0
 40
0
 40
0
 40
1
 40
1
 40
1
 40
1
 10
22.015000
 20
64.497800
 30
0.0
 10
22.094565
 20
64.497800
 30
0.0
 10
22.170871
 20
64.529407
 30
0.0
 10
22.227132
 20
64.585668
 30
0.0
  0
SPLINE
  5
1b2
100
AcDbEntity
  8
0
 62
7
100
AcDbSpline
 70
8
 71
3
 72
8
 73
4
 74
0
 40
0
 40
0
 40
0
 40
0
 40
1
 40
1
 40
1
 40
1
 10
22.227132
 20
64.585668
 30
0.0
 10
22.283393
 20
64.641929
 30
0.0
 10
22.315000
 20
64.718235
 30
0.0
 10
22.315000
 20
64.797800
 30
0.0
  0
LWPOLYLINE
  5
1b3
100
AcDbEntity
  8
0
 62
7
100
AcDbPolyline
 90
2
 70
0
 10
22.315000
 20
64.797800
 30
0.0
 10
22.315000
 20
78.197800
 30
0.0
  0
LWPOLYLINE
  5
1b4
100
AcDbEntity
  8
0
 62
7
100
AcDbPolyline
 90
2
 70
0
 10
89.095000
 20
73.047400
 30
0.0
 10
83.941400
 20
60.678100
 30
0.0
  0
LWPOLYLINE
  5
1b5
100
AcDbEntity
  8
0
 62
7
100
AcDbPolyline
 90
2
 70
0
 10
84.102900
 20
60.285800
 30
0.0
 10
96.472200
 20
55.132200
 30
0.0
  0
LWPOLYLINE
  5
1b6
100
AcDbEntity
  8
0
 62
7
100
AcDbPolyline
 90
2
 70
0
 10
101.856700
 20
68.055300
 30
0.0
 10
89.487300
 20
73.209000
 30
0.0
  0
SPLINE
  5
1b7
100
AcDbEntity
  8
0
 62
7
100
AcDbSpline
 70
8
 71
3
 72
8
 73
4
 74
0
 40
0
 40
0
 40
0
 40
0
 40
1
 40
1
 40
1
 40
1
 10
89.487300
 20
73.209000
 30
0.0
 10
89.413849
 20
73.239596
 30
0.0
 10
89.331251
 20
73.239759
 30
0.0
 10
89.257680
 20
73.209452
 30
0.0
  0
SPLINE
  5
1b8
100
AcDbEntity
  8
0
 62
7
100
AcDbSpline
 70
8
 71
3
 72
8
 73
4
 74
0
 40
0
 40
0
 40
0
 40
0
 40
1
 40
1
 40
1
 40
1
 10
89.257680
 20
73.209452
 30
0.0
 10
89.184108
 20
73.179146
 30
0.0
 10
89.125590
 20
73.120854
 30
0.0
 10
89.095000
 20
73.047400
 30
0.0
  0
SPLINE
  5
1b9
100
AcDbEntity
  8
0
 62
7
100
AcDbSpline
 70
8
 71
3
 72
8
 73
4
 74
0
 40
0
 40
0
 40
0
 40
0
 40
1
 40
1
 40
1
 40
1
 10
83.941400
 20
60.678100
 30
0.0
 10
83.877676
 20
60.525172
 30
0.0
 10
83.949979
 20
60.349540
 30
0.0
 10
84.102900
 20
60.285800
 30
0.0
  0
SPLINE
  5
1ba
100
AcDbEntity
  8
0
 62
7
100
AcDbSpline
 70
8
 71
3
 72
8
 73
4
 74
0
 40
0
 40
0
 40
0
 40
0
 40
1
 40
1
 40
1
 40
1
 10
102.018200
 20
67.663000
 30
0.0
 10
102.081924
 20
67.815928
 30
0.0
 10
102.009621
 20
67.991560
 30
0.0
 10
101.856700
 20
68.055300
 30
0.0
  0
SPLINE
  5
1bb
100
AcDbEntity
  8
0
 62
7
100
AcDbSpline
 70
8
 71
3
 72
8
 73
4
 74
0
 40
0
 40
0
 40
0
 40
0
 40
1
 40
1
 40
1
 40
1
 10
96.472200
 20
55.132200
 30
0.0
 10
96.625128
 20
55.068476
 30
0.0
 10
96.800760
 20
55.140779
 30
0.0
 10
96.864500
 20
55.293700
 30
0.0
  0
LWPOLYLINE
  5
1bc
100
AcDbEntity
  8
0
 62
7
100
AcDbPolyline
 90
2
 70
0
 10
96.864500
 20
55.293700
 30
0.0
 10
102.018200
 20
67.663000
 30
0.0
  0
LWPOLYLINE
  5
1bd
100
AcDbEntity
  8
0
 62
7
100
AcDbPolyline
 90
2
 70
0
 10
186.226800
 20
94.039700
 30
0.0
 10
191.380500
 20
81.670400
 30
0.0
  0
LWPOLYLINE
  5
1be
100
AcDbEntity
  8
0
 62
7
100
AcDbPolyline
 90
2
 70
0
 10
191.772800
 20
81.508900
 30
0.0
 10
204.142100
 20
86.662500
 30
0.0
  0
LWPOLYLINE
  5
1bf
100
AcDbEntity
  8
0
 62
7
100
AcDbPolyline
 90
2
 70
0
 10
198.757700
 20
99.585700
 30
0.0
 10
186.388400
 20
94.432000
 30
0.0
  0
SPLINE
  5
1c0
100
AcDbEntity
  8
0
 62
7
100
AcDbSpline
 70
8
 71
3
 72
8
 73
4
 74
0
 40
0
 40
0
 40
0
 40
0
 40
1
 40
1
 40
1
 40
1
 10
186.388400
 20
94.432000
 30
0.0
 10
186.314946
 20
94.401410
 30
0.0
 10
186.256654
 20
94.342892
 30
0.0
 10
186.226348
 20
94.269320
 30
0.0
  0
SPLINE
  5
1c1
100
AcDbEntity
  8
0
 62
7
100
AcDbSpline
 70
8
 71
3
 72
8
 73
4
 74
0
 40
0
 40
0
 40
0
 40
0
 40
1
 40
1
 40
1
 40
1
 10
186.226348
 20
94.269320
 30
0.0
 10
186.196041
 20
94.195749
 30
0.0
 10
186.196204
 20
94.113151
 30
0.0
 10
186.226800
 20
94.039700
 30
0.0
  0
SPLINE
  5
1c2
100
AcDbEntity
  8
0
 62
7
100
AcDbSpline
 70
8
 71
3
 72
8
 73
4
 74
0
 40
0
 40
0
 40
0
 40
0
 40
1
 40
1
 40
1
 40
1
 10
191.380500
 20
81.670400
 30
0.0
 10
191.444240
 20
81.517479
 30
0.0
 10
191.619872
 20
81.445176
 30
0.0
 10
191.772800
 20
81.508900
 30
0.0
  0
SPLINE
  5
1c3
100
AcDbEntity
  8
0
 62
7
100
AcDbSpline
 70
8
 71
3
 72
8
 73
4
 74
0
 40
0
 40
0
 40
0
 40
0
 40
1
 40
1
 40
1
 40
1
 10
199.150000
 20
99.424200
 30
0.0
 10
199.086260
 20
99.577121
 30
0.0
 10
198.910628
 20
99.649424
 30
0.0
 10
198.757700
 20
99.585700
 30
0.0
  0
SPLINE
  5
1c4
100
AcDbEntity
  8
0
 62
7
100
AcDbSpline
 70
8
 71
3
 72
8
 73
4
 74
0
 40
0
 40
0
 40
0
 40
0
 40
1
 40
1
 40
1
 40
1
 10
204.142100
 20
86.662500
 30
0.0
 10
204.295021
 20
86.726240
 30
0.0
 10
204.367324
 20
86.901872
 30
0.0
 10
204.303600
 20
87.054800
 30
0.0
  0
SPLINE
  5
1c5
100
AcDbEntity
  8
0
 62
7
100
AcDbSpline
 70
8
 71
3
 72
8
 73
4
 74
0
 40
0
 40
0
 40
0
 40
0
 40
1
 40
1
 40
1
 40
1
 10
96.640400
 20
99.834700
 30
0.0
 10
96.195492
 20
99.834700
 30
0.0
 10
95.794392
 20
99.566694
 30
0.0
 10
95.624133
 20
99.155652
 30
0.0
  0
SPLINE
  5
1c6
100
AcDbEntity
  8
0
 62
7
100
AcDbSpline
 70
8
 71
3
 72
8
 73
4
 74
0
 40
0
 40
0
 40
0
 40
0
 40
1
 40
1
 40
1
 40
1
 10
95.624133
 20
99.155652
 30
0.0
 10
95.453873
 20
98.744610
 30
0.0
 10
95.547985
 20
98.271480
 30
0.0
 10
95.862583
 20
97.956883
 30
0.0
  0
SPLINE
  5
1c7
100
AcDbEntity
  8
0
 62
7
100
AcDbSpline
 70
8
 71
3
 72
8
 73
4
 74
0
 40
0
 40
0
 40
0
 40
0
 40
1
 40
1
 40
1
 40
1
 10
95.862583
 20
97.956883
 30
0.0
 10
96.177180
 20
97.642285
 30
0.0
 10
96.650310
 20
97.548173
 30
0.0
 10
97.061352
 20
97.718433
 30
0.0
  0
SPLINE
  5
1c8
100
AcDbEntity
  8
0
 62
7
100
AcDbSpline
 70
8
 71
3
 72
8
 73
4
 74
0
 40
0
 40
0
 40
0
 40
0
 40
1
 40
1
 40
1
 40
1
 10
97.061352
 20
97.718433
 30
0.0
 10
97.472394
 20
97.888692
 30
0.0
 10
97.740400
 20
98.289792
 30
0.0
 10
97.740400
 20
98.734700
 30
0.0
  0
SPLINE
  5
1c9
100
AcDbEntity
  8
0
 62
7
100
AcDbSpline
 70
8
 71
3
 72
8
 73
4
 74
0
 40
0
 40
0
 40
0
 40
0
 40
1
 40
1
 40
1
 40
1
 10
97.740400
 20
98.734700
 30
0.0
 10
97.740400
 20
99.026438
 30
0.0
 10
97.624507
 20
99.306227
 30
0.0
 10
97.418217
 20
99.512517
 30
0.0
  0
SPLINE
  5
1ca
100
AcDbEntity
  8
0
 62
7
100
AcDbSpline
 70
8
 71
3
 72
8
 73
4
 74
0
 40
0
 40
0
 40
0
 40
0
 40
1
 40
1
 40
1
 40
1
 10
97.418217
 20
99.512517
 30
0.0
 10
97.211927
 20
99.718807
 30
0.0
 10
96.932138
 20
99.834700
 30
0.0
 10
96.640400
 20
99.834700
 30
0.0
  0
LWPOLYLINE
  5
1cb
100
AcDbEntity
  8
0
 62
7
100
AcDbPolyline
 90
2
 70
0
 10
204.303600
 20
87.054800
 30
0.0
 10
199.150000
 20
99.424200
 30
0.0
  0
LWPOLYLINE
  5
1cc
100
AcDbEntity
  8
0
 62
7
100
AcDbPolyline
 90
1
 70
1
 10
96.640400
 20
99.834700
 30
0.0
  0
LWPOLYLINE
  5
1cd
100
AcDbEntity
  8
0
 62
7
100
AcDbPolyline
 90
2
 70
0
 10
229.295000
 20
97.247800
 30
0.0
 10
229.295000
 20
83.847800
 30
0.0
  0
LWPOLYLINE
  5
1ce
100
AcDbEntity
  8
0
 62
7
100
AcDbPolyline
 90
2
 70
0
 10
229.595000
 20
83.547800
 30
0.0
 10
242.995000
 20
83.547800
 30
0.0
  0
LWPOLYLINE
  5
1cf
100
AcDbEntity
  8
0
 62
7
100
AcDbPolyline
 90
2
 70
0
 10
242.995000
 20
97.547800
 30
0.0
 10
229.595000
 20
97.547800
 30
0.0
  0
SPLINE
  5
1d0
100
AcDbEntity
  8
0
 62
7
100
AcDbSpline
 70
8
 71
3
 72
8
 73
4
 74
0
 40
0
 40
0
 40
0
 40
0
 40
1
 40
1
 40
1
 40
1
 10
229.595000
 20
97.547800
 30
0.0
 10
229.515435
 20
97.547800
 30
0.0
 10
229.439129
 20
97.516193
 30
0.0
 10
229.382868
 20
97.459932
 30
0.0
  0
SPLINE
  5
1d1
100
AcDbEntity
  8
0
 62
7
100
AcDbSpline
 70
8
 71
3
 72
8
 73
4
 74
0
 40
0
 40
0
 40
0
 40
0
 40
1
 40
1
 40
1
 40
1
 10
229.382868
 20
97.459932
 30
0.0
 10
229.326607
 20
97.403671
 30
0.0
 10
229.295000
 20
97.327365
 30
0.0
 10
229.295000
 20
97.247800
 30
0.0
  0
SPLINE
  5
1d2
100
AcDbEntity
  8
0
 62
7
100
AcDbSpline
 70
8
 71
3
 72
8
 73
4
 74
0
 40
0
 40
0
 40
0
 40
0
 40
1
 40
1
 40
1
 40
1
 10
229.295000
 20
83.847800
 30
0.0
 10
229.295000
 20
83.768235
 30
0.0
 10
229.326607
 20
83.691929
 30
0.0
 10
229.382868
 20
83.635668
 30
0.0
  0
SPLINE
  5
1d3
100
AcDbEntity
  8
0
 62
7
100
AcDbSpline
 70
8
 71
3
 72
8
 73
4
 74
0
 40
0
 40
0
 40
0
 40
0
 40
1
 40
1
 40
1
 40
1
 10
229.382868
 20
83.635668
 30
0.0
 10
229.439129
 20
83.579407
 30
0.0
 10
229.515435
 20
83.547800
 30
0.0
 10
229.595000
 20
83.547800
 30
0.0
  0
SPLINE
  5
1d4
100
AcDbEntity
  8
0
 62
7
100
AcDbSpline
 70
8
 71
3
 72
8
 73
4
 74
0
 40
0
 40
0
 40
0
 40
0
 40
1
 40
1
 40
1
 40
1
 10
243.295000
 20
97.247800
 30
0.0
 10
243.295000
 20
97.327365
 30
0.0
 10
243.263393
 20
97.403671
 30
0.0
 10
243.207132
 20
97.459932
 30
0.0
  0
SPLINE
  5
1d5
100
AcDbEntity
  8
0
 62
7
100
AcDbSpline
 70
8
 71
3
 72
8
 73
4
 74
0
 40
0
 40
0
 40
0
 40
0
 40
1
 40
1
 40
1
 40
1
 10
243.207132
 20
97.459932
 30
0.0
 10
243.150871
 20
97.516193
 30
0.0
 10
243.074565
 20
97.547800
 30
0.0
 10
242.995000
 20
97.547800
 30
0.0
  0
SPLINE
  5
1d6
100
AcDbEntity
  8
0
 62
7
100
AcDbSpline
 70
8
 71
3
 72
8
 73
4
 74
0
 40
0
 40
0
 40
0
 40
0
 40
1
 40
1
 40
1
 40
1
 10
242.995000
 20
83.547800
 30
0.0
 10
243.074565
 20
83.547800
 30
0.0
 10
243.150871
 20
83.579407
 30
0.0
 10
243.207132
 20
83.635668
 30
0.0
  0
SPLINE
  5
1d7
100
AcDbEntity
  8
0
 62
7
100
AcDbSpline
 70
8
 71
3
 72
8
 73
4
 74
0
 40
0
 40
0
 40
0
 40
0
 40
1
 40
1
 40
1
 40
1
 10
243.207132
 20
83.635668
 30
0.0
 10
243.263393
 20
83.691929
 30
0.0
 10
243.295000
 20
83.768235
 30
0.0
 10
243.295000
 20
83.847800
 30
0.0
  0
LWPOLYLINE
  5
1d8
100
AcDbEntity
  8
0
 62
7
100
AcDbPolyline
 90
2
 70
0
 10
243.295000
 20
83.847800
 30
0.0
 10
243.295000
 20
97.247800
 30
0.0
  0
LWPOLYLINE
  5
1d9
100
AcDbEntity
  8
0
 62
7
100
AcDbPolyline
 90
2
 70
0
 10
102.870100
 20
46.670700
 30
0.0
 10
97.716400
 20
34.301400
 30
0.0
  0
LWPOLYLINE
  5
1da
100
AcDbEntity
  8
0
 62
7
100
AcDbPolyline
 90
2
 70
0
 10
97.877900
 20
33.909100
 30
0.0
 10
110.247200
 20
28.755500
 30
0.0
  0
LWPOLYLINE
  5
1db
100
AcDbEntity
  8
0
 62
7
100
AcDbPolyline
 90
2
 70
0
 10
115.631700
 20
41.678600
 30
0.0
 10
103.262400
 20
46.832300
 30
0.0
  0
SPLINE
  5
1dc
100
AcDbEntity
  8
0
 62
7
100
AcDbSpline
 70
8
 71
3
 72
8
 73
4
 74
0
 40
0
 40
0
 40
0
 40
0
 40
1
 40
1
 40
1
 40
1
 10
103.262400
 20
46.832300
 30
0.0
 10
103.188949
 20
46.862896
 30
0.0
 10
103.106351
 20
46.863059
 30
0.0
 10
103.032780
 20
46.832752
 30
0.0
  0
SPLINE
  5
1dd
100
AcDbEntity
  8
0
 62
7
100
AcDbSpline
 70
8
 71
3
 72
8
 73
4
 74
0
 40
0
 40
0
 40
0
 40
0
 40
1
 40
1
 40
1
 40
1
 10
103.032780
 20
46.832752
 30
0.0
 10
102.959208
 20
46.802446
 30
0.0
 10
102.900690
 20
46.744154
 30
0.0
 10
102.870100
 20
46.670700
 30
0.0
  0
SPLINE
  5
1de
100
AcDbEntity
  8
0
 62
7
100
AcDbSpline
 70
8
 71
3
 72
8
 73
4
 74
0
 40
0
 40
0
 40
0
 40
0
 40
1
 40
1
 40
1
 40
1
 10
97.716400
 20
34.301400
 30
0.0
 10
97.652676
 20
34.148472
 30
0.0
 10
97.724979
 20
33.972840
 30
0.0
 10
97.877900
 20
33.909100
 30
0.0
  0
SPLINE
  5
1df
100
AcDbEntity
  8
0
 62
7
100
AcDbSpline
 70
8
 71
3
 72
8
 73
4
 74
0
 40
0
 40
0
 40
0
 40
0
 40
1
 40
1
 40
1
 40
1
 10
115.793200
 20
41.286300
 30
0.0
 10
115.856924
 20
41.439228
 30
0.0
 10
115.784621
 20
41.614860
 30
0.0
 10
115.631700
 20
41.678600
 30
0.0
  0
SPLINE
  5
1e0
100
AcDbEntity
  8
0
 62
7
100
AcDbSpline
 70
8
 71
3
 72
8
 73
4
 74
0
 40
0
 40
0
 40
0
 40
0
 40
1
 40
1
 40
1
 40
1
 10
110.247200
 20
28.755500
 30
0.0
 10
110.320650
 20
28.724867
 30
0.0
 10
110.403263
 20
28.724673
 30
0.0
 10
110.476856
 20
28.754962
 30
0.0
  0
SPLINE
  5
1e1
100
AcDbEntity
  8
0
 62
7
100
AcDbSpline
 70
8
 71
3
 72
8
 73
4
 74
0
 40
0
 40
0
 40
0
 40
0
 40
1
 40
1
 40
1
 40
1
 10
110.476856
 20
28.754962
 30
0.0
 10
110.550449
 20
28.785251
 30
0.0
 10
110.608991
 20
28.843539
 30
0.0
 10
110.639600
 20
28.917000
 30
0.0
  0
LWPOLYLINE
  5
1e2
100
AcDbEntity
  8
0
 62
7
100
AcDbPolyline
 90
2
 70
0
 10
110.639600
 20
28.917000
 30
0.0
 10
115.793200
 20
41.286300
 30
0.0
  0
LWPOLYLINE
  5
1e3
100
AcDbEntity
  8
0
 62
7
100
AcDbPolyline
 90
2
 70
0
 10
169.521100
 20
25.167500
 30
0.0
 10
174.674800
 20
12.798100
 30
0.0
  0
LWPOLYLINE
  5
1e4
100
AcDbEntity
  8
0
 62
7
100
AcDbPolyline
 90
2
 70
0
 10
175.067100
 20
12.636600
 30
0.0
 10
187.436400
 20
17.790300
 30
0.0
  0
LWPOLYLINE
  5
1e5
100
AcDbEntity
  8
0
 62
7
100
AcDbPolyline
 90
2
 70
0
 10
182.051900
 20
30.713400
 30
0.0
 10
169.682600
 20
25.559800
 30
0.0
  0
SPLINE
  5
1e6
100
AcDbEntity
  8
0
 62
7
100
AcDbSpline
 70
8
 71
3
 72
8
 73
4
 74
0
 40
0
 40
0
 40
0
 40
0
 40
1
 40
1
 40
1
 40
1
 10
169.682600
 20
25.559800
 30
0.0
 10
169.529679
 20
25.496060
 30
0.0
 10
169.457376
 20
25.320428
 30
0.0
 10
169.521100
 20
25.167500
 30
0.0
  0
SPLINE
  5
1e7
100
AcDbEntity
  8
0
 62
7
100
AcDbSpline
 70
8
 71
3
 72
8
 73
4
 74
0
 40
0
 40
0
 40
0
 40
0
 40
1
 40
1
 40
1
 40
1
 10
174.674800
 20
12.798100
 30
0.0
 10
174.738540
 20
12.645179
 30
0.0
 10
174.914172
 20
12.572876
 30
0.0
 10
175.067100
 20
12.636600
 30
0.0
  0
SPLINE
  5
1e8
100
AcDbEntity
  8
0
 62
7
100
AcDbSpline
 70
8
 71
3
 72
8
 73
4
 74
0
 40
0
 40
0
 40
0
 40
0
 40
1
 40
1
 40
1
 40
1
 10
182.444300
 20
30.551900
 30
0.0
 10
182.413691
 20
30.625361
 30
0.0
 10
182.355149
 20
30.683649
 30
0.0
 10
182.281556
 20
30.713938
 30
0.0
  0
SPLINE
  5
1e9
100
AcDbEntity
  8
0
 62
7
100
AcDbSpline
 70
8
 71
3
 72
8
 73
4
 74
0
 40
0
 40
0
 40
0
 40
0
 40
1
 40
1
 40
1
 40
1
 10
182.281556
 20
30.713938
 30
0.0
 10
182.207963
 20
30.744227
 30
0.0
 10
182.125350
 20
30.744033
 30
0.0
 10
182.051900
 20
30.713400
 30
0.0
  0
SPLINE
  5
1ea
100
AcDbEntity
  8
0
 62
7
100
AcDbSpline
 70
8
 71
3
 72
8
 73
4
 74
0
 40
0
 40
0
 40
0
 40
0
 40
1
 40
1
 40
1
 40
1
 10
187.436400
 20
17.790300
 30
0.0
 10
187.589321
 20
17.854040
 30
0.0
 10
187.661624
 20
18.029672
 30
0.0
 10
187.597900
 20
18.182600
 30
0.0
  0
LWPOLYLINE
  5
1eb
100
AcDbEntity
  8
0
 62
7
100
AcDbPolyline
 90
2
 70
0
 10
187.597900
 20
18.182600
 30
0.0
 10
182.444300
 20
30.551900
 30
0.0
  0
LWPOLYLINE
  5
1ec
100
AcDbEntity
  8
0
 62
7
100
AcDbPolyline
 90
2
 70
0
 10
190.036500
 20
74.989700
 30
0.0
 10
195.190200
 20
62.620400
 30
0.0
  0
LWPOLYLINE
  5
1ed
100
AcDbEntity
  8
0
 62
7
100
AcDbPolyline
 90
2
 70
0
 10
195.582500
 20
62.458800
 30
0.0
 10
207.951800
 20
67.612500
 30
0.0
  0
LWPOLYLINE
  5
1ee
100
AcDbEntity
  8
0
 62
7
100
AcDbPolyline
 90
2
 70
0
 10
202.567400
 20
80.535600
 30
0.0
 10
190.198100
 20
75.382000
 30
0.0
  0
SPLINE
  5
1ef
100
AcDbEntity
  8
0
 62
7
100
AcDbSpline
 70
8
 71
3
 72
8
 73
4
 74
0
 40
0
 40
0
 40
0
 40
0
 40
1
 40
1
 40
1
 40
1
 10
190.198100
 20
75.382000
 30
0.0
 10
190.124646
 20
75.351410
 30
0.0
 10
190.066354
 20
75.292892
 30
0.0
 10
190.036048
 20
75.219320
 30
0.0
  0
SPLINE
  5
1f0
100
AcDbEntity
  8
0
 62
7
100
AcDbSpline
 70
8
 71
3
 72
8
 73
4
 74
0
 40
0
 40
0
 40
0
 40
0
 40
1
 40
1
 40
1
 40
1
 10
190.036048
 20
75.219320
 30
0.0
 10
190.005741
 20
75.145749
 30
0.0
 10
190.005904
 20
75.063151
 30
0.0
 10
190.036500
 20
74.989700
 30
0.0
  0
SPLINE
  5
1f1
100
AcDbEntity
  8
0
 62
7
100
AcDbSpline
 70
8
 71
3
 72
8
 73
4
 74
0
 40
0
 40
0
 40
0
 40
0
 40
1
 40
1
 40
1
 40
1
 10
195.190200
 20
62.620400
 30
0.0
 10
195.220790
 20
62.546946
 30
0.0
 10
195.279308
 20
62.488654
 30
0.0
 10
195.352880
 20
62.458348
 30
0.0
  0
SPLINE
  5
1f2
100
AcDbEntity
  8
0
 62
7
100
AcDbSpline
 70
8
 71
3
 72
8
 73
4
 74
0
 40
0
 40
0
 40
0
 40
0
 40
1
 40
1
 40
1
 40
1
 10
195.352880
 20
62.458348
 30
0.0
 10
195.426451
 20
62.428041
 30
0.0
 10
195.509049
 20
62.428204
 30
0.0
 10
195.582500
 20
62.458800
 30
0.0
  0
SPLINE
  5
1f3
100
AcDbEntity
  8
0
 62
7
100
AcDbSpline
 70
8
 71
3
 72
8
 73
4
 74
0
 40
0
 40
0
 40
0
 40
0
 40
1
 40
1
 40
1
 40
1
 10
202.959700
 20
80.374100
 30
0.0
 10
202.895960
 20
80.527021
 30
0.0
 10
202.720328
 20
80.599324
 30
0.0
 10
202.567400
 20
80.535600
 30
0.0
  0
SPLINE
  5
1f4
100
AcDbEntity
  8
0
 62
7
100
AcDbSpline
 70
8
 71
3
 72
8
 73
4
 74
0
 40
0
 40
0
 40
0
 40
0
 40
1
 40
1
 40
1
 40
1
 10
207.951800
 20
67.612500
 30
0.0
 10
208.104721
 20
67.676240
 30
0.0
 10
208.177024
 20
67.851872
 30
0.0
 10
208.113300
 20
68.004800
 30
0.0
  0
SPLINE
  5
1f5
100
AcDbEntity
  8
0
 62
7
100
AcDbSpline
 70
8
 71
3
 72
8
 73
4
 74
0
 40
0
 40
0
 40
0
 40
0
 40
1
 40
1
 40
1
 40
1
 10
166.750400
 20
22.825700
 30
0.0
 10
166.305492
 20
22.825700
 30
0.0
 10
165.904392
 20
22.557694
 30
0.0
 10
165.734133
 20
22.146652
 30
0.0
  0
SPLINE
  5
1f6
100
AcDbEntity
  8
0
 62
7
100
AcDbSpline
 70
8
 71
3
 72
8
 73
4
 74
0
 40
0
 40
0
 40
0
 40
0
 40
1
 40
1
 40
1
 40
1
 10
165.734133
 20
22.146652
 30
0.0
 10
165.563873
 20
21.735610
 30
0.0
 10
165.657985
 20
21.262480
 30
0.0
 10
165.972583
 20
20.947883
 30
0.0
  0
SPLINE
  5
1f7
100
AcDbEntity
  8
0
 62
7
100
AcDbSpline
 70
8
 71
3
 72
8
 73
4
 74
0
 40
0
 40
0
 40
0
 40
0
 40
1
 40
1
 40
1
 40
1
 10
165.972583
 20
20.947883
 30
0.0
 10
166.287180
 20
20.633285
 30
0.0
 10
166.760310
 20
20.539173
 30
0.0
 10
167.171352
 20
20.709433
 30
0.0
  0
SPLINE
  5
1f8
100
AcDbEntity
  8
0
 62
7
100
AcDbSpline
 70
8
 71
3
 72
8
 73
4
 74
0
 40
0
 40
0
 40
0
 40
0
 40
1
 40
1
 40
1
 40
1
 10
167.171352
 20
20.709433
 30
0.0
 10
167.582394
 20
20.879692
 30
0.0
 10
167.850400
 20
21.280792
 30
0.0
 10
167.850400
 20
21.725700
 30
0.0
  0
SPLINE
  5
1f9
100
AcDbEntity
  8
0
 62
7
100
AcDbSpline
 70
8
 71
3
 72
8
 73
4
 74
0
 40
0
 40
0
 40
0
 40
0
 40
1
 40
1
 40
1
 40
1
 10
167.850400
 20
21.725700
 30
0.0
 10
167.850400
 20
22.017438
 30
0.0
 10
167.734507
 20
22.297227
 30
0.0
 10
167.528217
 20
22.503517
 30
0.0
  0
SPLINE
  5
1fa
100
AcDbEntity
  8
0
 62
7
100
AcDbSpline
 70
8
 71
3
 72
8
 73
4
 74
0
 40
0
 40
0
 40
0
 40
0
 40
1
 40
1
 40
1
 40
1
 10
167.528217
 20
22.503517
 30
0.0
 10
167.321927
 20
22.709807
 30
0.0
 10
167.042138
 20
22.825700
 30
0.0
 10
166.750400
 20
22.825700
 30
0.0
  0
LWPOLYLINE
  5
1fb
100
AcDbEntity
  8
0
 62
7
100
AcDbPolyline
 90
2
 70
0
 10
208.113300
 20
68.004800
 30
0.0
 10
202.959700
 20
80.374100
 30
0.0
  0
LWPOLYLINE
  5
1fc
100
AcDbEntity
  8
0
 62
7
100
AcDbPolyline
 90
1
 70
1
 10
166.750400
 20
22.825700
 30
0.0
  0
LWPOLYLINE
  5
1fd
100
AcDbEntity
  8
0
 62
7
100
AcDbPolyline
 90
2
 70
0
 10
248.345000
 20
97.247800
 30
0.0
 10
248.345000
 20
83.847800
 30
0.0
  0
LWPOLYLINE
  5
1fe
100
AcDbEntity
  8
0
 62
7
100
AcDbPolyline
 90
2
 70
0
 10
248.645000
 20
83.547800
 30
0.0
 10
262.045000
 20
83.547800
 30
0.0
  0
LWPOLYLINE
  5
1ff
100
AcDbEntity
  8
0
 62
7
100
AcDbPolyline
 90
2
 70
0
 10
262.045000
 20
97.547800
 30
0.0
 10
248.645000
 20
97.547800
 30
0.0
  0
SPLINE
  5
200
100
AcDbEntity
  8
0
 62
7
100
AcDbSpline
 70
8
 71
3
 72
8
 73
4
 74
0
 40
0
 40
0
 40
0
 40
0
 40
1
 40
1
 40
1
 40
1
 10
248.645000
 20
97.547800
 30
0.0
 10
248.565435
 20
97.547800
 30
0.0
 10
248.489129
 20
97.516193
 30
0.0
 10
248.432868
 20
97.459932
 30
0.0
  0
SPLINE
  5
201
100
AcDbEntity
  8
0
 62
7
100
AcDbSpline
 70
8
 71
3
 72
8
 73
4
 74
0
 40
0
 40
0
 40
0
 40
0
 40
1
 40
1
 40
1
 40
1
 10
248.432868
 20
97.459932
 30
0.0
 10
248.376607
 20
97.403671
 30
0.0
 10
248.345000
 20
97.327365
 30
0.0
 10
248.345000
 20
97.247800
 30
0.0
  0
SPLINE
  5
202
100
AcDbEntity
  8
0
 62
7
100
AcDbSpline
 70
8
 71
3
 72
8
 73
4
 74
0
 40
0
 40
0
 40
0
 40
0
 40
1
 40
1
 40
1
 40
1
 10
248.345000
 20
83.847800
 30
0.0
 10
248.345000
 20
83.768235
 30
0.0
 10
248.376607
 20
83.691929
 30
0.0
 10
248.432868
 20
83.635668
 30
0.0
  0
SPLINE
  5
203
100
AcDbEntity
  8
0
 62
7
100
AcDbSpline
 70
8
 71
3
 72
8
 73
4
 74
0
 40
0
 40
0
 40
0
 40
0
 40
1
 40
1
 40
1
 40
1
 10
248.432868
 20
83.635668
 30
0.0
 10
248.489129
 20
83.579407
 30
0.0
 10
248.565435
 20
83.547800
 30
0.0
 10
248.645000
 20
83.547800
 30
0.0
  0
SPLINE
  5
204
100
AcDbEntity
  8
0
 62
7
100
AcDbSpline
 70
8
 71
3
 72
8
 73
4
 74
0
 40
0
 40
0
 40
0
 40
0
 40
1
 40
1
 40
1
 40
1
 10
262.345000
 20
97.247800
 30
0.0
 10
262.345000
 20
97.327365
 30
0.0
 10
262.313393
 20
97.403671
 30
0.0
 10
262.257132
 20
97.459932
 30
0.0
  0
SPLINE
  5
205
100
AcDbEntity
  8
0
 62
7
100
AcDbSpline
 70
8
 71
3
 72
8
 73
4
 74
0
 40
0
 40
0
 40
0
 40
0
 40
1
 40
1
 40
1
 40
1
 10
262.257132
 20
97.459932
 30
0.0
 10
262.200871
 20
97.516193
 30
0.0
 10
262.124565
 20
97.547800
 30
0.0
 10
262.045000
 20
97.547800
 30
0.0
  0
SPLINE
  5
206
100
AcDbEntity
  8
0
 62
7
100
AcDbSpline
 70
8
 71
3
 72
8
 73
4
 74
0
 40
0
 40
0
 40
0
 40
0
 40
1
 40
1
 40
1
 40
1
 10
262.045000
 20
83.547800
 30
0.0
 10
262.124565
 20
83.547800
 30
0.0
 10
262.200871
 20
83.579407
 30
0.0
 10
262.257132
 20
83.635668
 30
0.0
  0
SPLINE
  5
207
100
AcDbEntity
  8
0
 62
7
100
AcDbSpline
 70
8
 71
3
 72
8
 73
4
 74
0
 40
0
 40
0
 40
0
 40
0
 40
1
 40
1
 40
1
 40
1
 10
262.257132
 20
83.635668
 30
0.0
 10
262.313393
 20
83.691929
 30
0.0
 10
262.345000
 20
83.768235
 30
0.0
 10
262.345000
 20
83.847800
 30
0.0
  0
LWPOLYLINE
  5
208
100
AcDbEntity
  8
0
 62
7
100
AcDbPolyline
 90
2
 70
0
 10
262.345000
 20
83.847800
 30
0.0
 10
262.345000
 20
97.247800
 30
0.0
  0
LWPOLYLINE
  5
209
100
AcDbEntity
  8
0
 62
7
100
AcDbPolyline
 90
2
 70
0
 10
187.105800
 20
32.494100
 30
0.0
 10
192.259500
 20
20.124800
 30
0.0
  0
LWPOLYLINE
  5
20a
100
AcDbEntity
  8
0
 62
7
100
AcDbPolyline
 90
2
 70
0
 10
192.651800
 20
19.963300
 30
0.0
 10
205.021100
 20
25.116900
 30
0.0
  0
LWPOLYLINE
  5
20b
100
AcDbEntity
  8
0
 62
7
100
AcDbPolyline
 90
2
 70
0
 10
199.636700
 20
38.040100
 30
0.0
 10
187.267400
 20
32.886400
 30
0.0
  0
SPLINE
  5
20c
100
AcDbEntity
  8
0
 62
7
100
AcDbSpline
 70
8
 71
3
 72
8
 73
4
 74
0
 40
0
 40
0
 40
0
 40
0
 40
1
 40
1
 40
1
 40
1
 10
187.267400
 20
32.886400
 30
0.0
 10
187.193946
 20
32.855810
 30
0.0
 10
187.135654
 20
32.797292
 30
0.0
 10
187.105348
 20
32.723720
 30
0.0
  0
SPLINE
  5
20d
100
AcDbEntity
  8
0
 62
7
100
AcDbSpline
 70
8
 71
3
 72
8
 73
4
 74
0
 40
0
 40
0
 40
0
 40
0
 40
1
 40
1
 40
1
 40
1
 10
187.105348
 20
32.723720
 30
0.0
 10
187.075041
 20
32.650149
 30
0.0
 10
187.075204
 20
32.567551
 30
0.0
 10
187.105800
 20
32.494100
 30
0.0
  0
SPLINE
  5
20e
100
AcDbEntity
  8
0
 62
7
100
AcDbSpline
 70
8
 71
3
 72
8
 73
4
 74
0
 40
0
 40
0
 40
0
 40
0
 40
1
 40
1
 40
1
 40
1
 10
192.259500
 20
20.124800
 30
0.0
 10
192.323240
 20
19.971879
 30
0.0
 10
192.498872
 20
19.899576
 30
0.0
 10
192.651800
 20
19.963300
 30
0.0
  0
SPLINE
  5
20f
100
AcDbEntity
  8
0
 62
7
100
AcDbSpline
 70
8
 71
3
 72
8
 73
4
 74
0
 40
0
 40
0
 40
0
 40
0
 40
1
 40
1
 40
1
 40
1
 10
200.029000
 20
37.878500
 30
0.0
 10
199.998410
 20
37.951954
 30
0.0
 10
199.939892
 20
38.010246
 30
0.0
 10
199.866320
 20
38.040552
 30
0.0
  0
SPLINE
  5
210
100
AcDbEntity
  8
0
 62
7
100
AcDbSpline
 70
8
 71
3
 72
8
 73
4
 74
0
 40
0
 40
0
 40
0
 40
0
 40
1
 40
1
 40
1
 40
1
 10
199.866320
 20
38.040552
 30
0.0
 10
199.792749
 20
38.070859
 30
0.0
 10
199.710151
 20
38.070696
 30
0.0
 10
199.636700
 20
38.040100
 30
0.0
  0
SPLINE
  5
211
100
AcDbEntity
  8
0
 62
7
100
AcDbSpline
 70
8
 71
3
 72
8
 73
4
 74
0
 40
0
 40
0
 40
0
 40
0
 40
1
 40
1
 40
1
 40
1
 10
205.021100
 20
25.116900
 30
0.0
 10
205.174021
 20
25.180640
 30
0.0
 10
205.246324
 20
25.356272
 30
0.0
 10
205.182600
 20
25.509200
 30
0.0
  0
SPLINE
  5
212
100
AcDbEntity
  8
0
 62
7
100
AcDbSpline
 70
8
 71
3
 72
8
 73
4
 74
0
 40
0
 40
0
 40
0
 40
0
 40
1
 40
1
 40
1
 40
1
 10
245.820000
 20
96.410300
 30
0.0
 10
245.375092
 20
96.410300
 30
0.0
 10
244.973992
 20
96.142294
 30
0.0
 10
244.803733
 20
95.731252
 30
0.0
  0
SPLINE
  5
213
100
AcDbEntity
  8
0
 62
7
100
AcDbSpline
 70
8
 71
3
 72
8
 73
4
 74
0
 40
0
 40
0
 40
0
 40
0
 40
1
 40
1
 40
1
 40
1
 10
244.803733
 20
95.731252
 30
0.0
 10
244.633473
 20
95.320210
 30
0.0
 10
244.727585
 20
94.847080
 30
0.0
 10
245.042183
 20
94.532483
 30
0.0
  0
SPLINE
  5
214
100
AcDbEntity
  8
0
 62
7
100
AcDbSpline
 70
8
 71
3
 72
8
 73
4
 74
0
 40
0
 40
0
 40
0
 40
0
 40
1
 40
1
 40
1
 40
1
 10
245.042183
 20
94.532483
 30
0.0
 10
245.356780
 20
94.217885
 30
0.0
 10
245.829910
 20
94.123773
 30
0.0
 10
246.240952
 20
94.294033
 30
0.0
  0
SPLINE
  5
215
100
AcDbEntity
  8
0
 62
7
100
AcDbSpline
 70
8
 71
3
 72
8
 73
4
 74
0
 40
0
 40
0
 40
0
 40
0
 40
1
 40
1
 40
1
 40
1
 10
246.240952
 20
94.294033
 30
0.0
 10
246.651994
 20
94.464292
 30
0.0
 10
246.920000
 20
94.865392
 30
0.0
 10
246.920000
 20
95.310300
 30
0.0
  0
SPLINE
  5
216
100
AcDbEntity
  8
0
 62
7
100
AcDbSpline
 70
8
 71
3
 72
8
 73
4
 74
0
 40
0
 40
0
 40
0
 40
0
 40
1
 40
1
 40
1
 40
1
 10
246.920000
 20
95.310300
 30
0.0
 10
246.920000
 20
95.917813
 30
0.0
 10
246.427513
 20
96.410300
 30
0.0
 10
245.820000
 20
96.410300
 30
0.0
  0
LWPOLYLINE
  5
217
100
AcDbEntity
  8
0
 62
7
100
AcDbPolyline
 90
2
 70
0
 10
205.182600
 20
25.509200
 30
0.0
 10
200.029000
 20
37.878500
 30
0.0
  0
LWPOLYLINE
  5
218
100
AcDbEntity
  8
0
 62
7
100
AcDbPolyline
 90
1
 70
1
 10
245.820000
 20
96.410300
 30
0.0
  0
LWPOLYLINE
  5
219
100
AcDbEntity
  8
0
 62
7
100
AcDbPolyline
 90
2
 70
0
 10
106.654700
 20
9.939500
 30
0.0
 10
111.808300
 20
22.308800
 30
0.0
  0
LWPOLYLINE
  5
21a
100
AcDbEntity
  8
0
 62
7
100
AcDbPolyline
 90
2
 70
0
 10
112.200600
 20
22.470400
 30
0.0
 10
124.569900
 20
17.316700
 30
0.0
  0
LWPOLYLINE
  5
21b
100
AcDbEntity
  8
0
 62
7
100
AcDbPolyline
 90
2
 70
0
 10
119.185500
 20
4.393500
 30
0.0
 10
106.816200
 20
9.547200
 30
0.0
  0
SPLINE
  5
21c
100
AcDbEntity
  8
0
 62
7
100
AcDbSpline
 70
8
 71
3
 72
8
 73
4
 74
0
 40
0
 40
0
 40
0
 40
0
 40
1
 40
1
 40
1
 40
1
 10
112.200600
 20
22.470400
 30
0.0
 10
112.127149
 20
22.500996
 30
0.0
 10
112.044551
 20
22.501159
 30
0.0
 10
111.970980
 20
22.470852
 30
0.0
  0
SPLINE
  5
21d
100
AcDbEntity
  8
0
 62
7
100
AcDbSpline
 70
8
 71
3
 72
8
 73
4
 74
0
 40
0
 40
0
 40
0
 40
0
 40
1
 40
1
 40
1
 40
1
 10
111.970980
 20
22.470852
 30
0.0
 10
111.897408
 20
22.440546
 30
0.0
 10
111.838890
 20
22.382254
 30
0.0
 10
111.808300
 20
22.308800
 30
0.0
  0
SPLINE
  5
21e
100
AcDbEntity
  8
0
 62
7
100
AcDbSpline
 70
8
 71
3
 72
8
 73
4
 74
0
 40
0
 40
0
 40
0
 40
0
 40
1
 40
1
 40
1
 40
1
 10
106.654700
 20
9.939500
 30
0.0
 10
106.590976
 20
9.786572
 30
0.0
 10
106.663279
 20
9.610940
 30
0.0
 10
106.816200
 20
9.547200
 30
0.0
  0
SPLINE
  5
21f
100
AcDbEntity
  8
0
 62
7
100
AcDbSpline
 70
8
 71
3
 72
8
 73
4
 74
0
 40
0
 40
0
 40
0
 40
0
 40
1
 40
1
 40
1
 40
1
 10
124.731500
 20
16.924400
 30
0.0
 10
124.762096
 20
16.997851
 30
0.0
 10
124.762259
 20
17.080449
 30
0.0
 10
124.731952
 20
17.154020
 30
0.0
  0
SPLINE
  5
220
100
AcDbEntity
  8
0
 62
7
100
AcDbSpline
 70
8
 71
3
 72
8
 73
4
 74
0
 40
0
 40
0
 40
0
 40
0
 40
1
 40
1
 40
1
 40
1
 10
124.731952
 20
17.154020
 30
0.0
 10
124.701646
 20
17.227592
 30
0.0
 10
124.643354
 20
17.286110
 30
0.0
 10
124.569900
 20
17.316700
 30
0.0
  0
SPLINE
  5
221
100
AcDbEntity
  8
0
 62
7
100
AcDbSpline
 70
8
 71
3
 72
8
 73
4
 74
0
 40
0
 40
0
 40
0
 40
0
 40
1
 40
1
 40
1
 40
1
 10
119.185500
 20
4.393500
 30
0.0
 10
119.258951
 20
4.362904
 30
0.0
 10
119.341549
 20
4.362741
 30
0.0
 10
119.415120
 20
4.393048
 30
0.0
  0
SPLINE
  5
222
100
AcDbEntity
  8
0
 62
7
100
AcDbSpline
 70
8
 71
3
 72
8
 73
4
 74
0
 40
0
 40
0
 40
0
 40
0
 40
1
 40
1
 40
1
 40
1
 10
119.415120
 20
4.393048
 30
0.0
 10
119.488692
 20
4.423354
 30
0.0
 10
119.547210
 20
4.481646
 30
0.0
 10
119.577800
 20
4.555100
 30
0.0
  0
LWPOLYLINE
  5
223
100
AcDbEntity
  8
0
 62
7
100
AcDbPolyline
 90
2
 70
0
 10
124.731500
 20
16.924400
 30
0.0
 10
119.577800
 20
4.555100
 30
0.0
  0
LWPOLYLINE
  5
224
100
AcDbEntity
  8
0
 62
7
100
AcDbPolyline
 90
2
 70
0
 10
50.225000
 20
97.247800
 30
0.0
 10
50.225000
 20
83.847800
 30
0.0
  0
LWPOLYLINE
  5
225
100
AcDbEntity
  8
0
 62
7
100
AcDbPolyline
 90
2
 70
0
 10
50.525000
 20
83.547800
 30
0.0
 10
63.925000
 20
83.547800
 30
0.0
  0
LWPOLYLINE
  5
226
100
AcDbEntity
  8
0
 62
7
100
AcDbPolyline
 90
2
 70
0
 10
63.925000
 20
97.547800
 30
0.0
 10
50.525000
 20
97.547800
 30
0.0
  0
SPLINE
  5
227
100
AcDbEntity
  8
0
 62
7
100
AcDbSpline
 70
8
 71
3
 72
8
 73
4
 74
0
 40
0
 40
0
 40
0
 40
0
 40
1
 40
1
 40
1
 40
1
 10
50.525000
 20
97.547800
 30
0.0
 10
50.359315
 20
97.547800
 30
0.0
 10
50.225000
 20
97.413485
 30
0.0
 10
50.225000
 20
97.247800
 30
0.0
  0
SPLINE
  5
228
100
AcDbEntity
  8
0
 62
7
100
AcDbSpline
 70
8
 71
3
 72
8
 73
4
 74
0
 40
0
 40
0
 40
0
 40
0
 40
1
 40
1
 40
1
 40
1
 10
50.225000
 20
83.847800
 30
0.0
 10
50.225000
 20
83.682115
 30
0.0
 10
50.359315
 20
83.547800
 30
0.0
 10
50.525000
 20
83.547800
 30
0.0
  0
SPLINE
  5
229
100
AcDbEntity
  8
0
 62
7
100
AcDbSpline
 70
8
 71
3
 72
8
 73
4
 74
0
 40
0
 40
0
 40
0
 40
0
 40
1
 40
1
 40
1
 40
1
 10
64.225000
 20
97.247800
 30
0.0
 10
64.225000
 20
97.413485
 30
0.0
 10
64.090685
 20
97.547800
 30
0.0
 10
63.925000
 20
97.547800
 30
0.0
  0
SPLINE
  5
22a
100
AcDbEntity
  8
0
 62
7
100
AcDbSpline
 70
8
 71
3
 72
8
 73
4
 74
0
 40
0
 40
0
 40
0
 40
0
 40
1
 40
1
 40
1
 40
1
 10
63.925000
 20
83.547800
 30
0.0
 10
64.090685
 20
83.547800
 30
0.0
 10
64.225000
 20
83.682115
 30
0.0
 10
64.225000
 20
83.847800
 30
0.0
  0
LWPOLYLINE
  5
22b
100
AcDbEntity
  8
0
 62
7
100
AcDbPolyline
 90
2
 70
0
 10
64.225000
 20
83.847800
 30
0.0
 10
64.225000
 20
97.247800
 30
0.0
  0
LWPOLYLINE
  5
22c
100
AcDbEntity
  8
0
 62
7
100
AcDbPolyline
 90
2
 70
0
 10
154.892200
 20
4.555100
 30
0.0
 10
149.738500
 20
16.924400
 30
0.0
  0
LWPOLYLINE
  5
22d
100
AcDbEntity
  8
0
 62
7
100
AcDbPolyline
 90
2
 70
0
 10
149.900100
 20
17.316700
 30
0.0
 10
162.269400
 20
22.470400
 30
0.0
  0
LWPOLYLINE
  5
22e
100
AcDbEntity
  8
0
 62
7
100
AcDbPolyline
 90
2
 70
0
 10
167.653800
 20
9.547200
 30
0.0
 10
155.284500
 20
4.393500
 30
0.0
  0
SPLINE
  5
22f
100
AcDbEntity
  8
0
 62
7
100
AcDbSpline
 70
8
 71
3
 72
8
 73
4
 74
0
 40
0
 40
0
 40
0
 40
0
 40
1
 40
1
 40
1
 40
1
 10
149.900100
 20
17.316700
 30
0.0
 10
149.826646
 20
17.286110
 30
0.0
 10
149.768354
 20
17.227592
 30
0.0
 10
149.738048
 20
17.154020
 30
0.0
  0
SPLINE
  5
230
100
AcDbEntity
  8
0
 62
7
100
AcDbSpline
 70
8
 71
3
 72
8
 73
4
 74
0
 40
0
 40
0
 40
0
 40
0
 40
1
 40
1
 40
1
 40
1
 10
149.738048
 20
17.154020
 30
0.0
 10
149.707741
 20
17.080449
 30
0.0
 10
149.707904
 20
16.997851
 30
0.0
 10
149.738500
 20
16.924400
 30
0.0
  0
SPLINE
  5
231
100
AcDbEntity
  8
0
 62
7
100
AcDbSpline
 70
8
 71
3
 72
8
 73
4
 74
0
 40
0
 40
0
 40
0
 40
0
 40
1
 40
1
 40
1
 40
1
 10
154.892200
 20
4.555100
 30
0.0
 10
154.922790
 20
4.481646
 30
0.0
 10
154.981308
 20
4.423354
 30
0.0
 10
155.054880
 20
4.393048
 30
0.0
  0
SPLINE
  5
232
100
AcDbEntity
  8
0
 62
7
100
AcDbSpline
 70
8
 71
3
 72
8
 73
4
 74
0
 40
0
 40
0
 40
0
 40
0
 40
1
 40
1
 40
1
 40
1
 10
155.054880
 20
4.393048
 30
0.0
 10
155.128451
 20
4.362741
 30
0.0
 10
155.211049
 20
4.362904
 30
0.0
 10
155.284500
 20
4.393500
 30
0.0
  0
SPLINE
  5
233
100
AcDbEntity
  8
0
 62
7
100
AcDbSpline
 70
8
 71
3
 72
8
 73
4
 74
0
 40
0
 40
0
 40
0
 40
0
 40
1
 40
1
 40
1
 40
1
 10
162.661700
 20
22.308800
 30
0.0
 10
162.631110
 20
22.382254
 30
0.0
 10
162.572592
 20
22.440546
 30
0.0
 10
162.499020
 20
22.470852
 30
0.0
  0
SPLINE
  5
234
100
AcDbEntity
  8
0
 62
7
100
AcDbSpline
 70
8
 71
3
 72
8
 73
4
 74
0
 40
0
 40
0
 40
0
 40
0
 40
1
 40
1
 40
1
 40
1
 10
162.499020
 20
22.470852
 30
0.0
 10
162.425449
 20
22.501159
 30
0.0
 10
162.342851
 20
22.500996
 30
0.0
 10
162.269400
 20
22.470400
 30
0.0
  0
SPLINE
  5
235
100
AcDbEntity
  8
0
 62
7
100
AcDbSpline
 70
8
 71
3
 72
8
 73
4
 74
0
 40
0
 40
0
 40
0
 40
0
 40
1
 40
1
 40
1
 40
1
 10
167.653800
 20
9.547200
 30
0.0
 10
167.806721
 20
9.610940
 30
0.0
 10
167.879024
 20
9.786572
 30
0.0
 10
167.815300
 20
9.939500
 30
0.0
  0
LWPOLYLINE
  5
236
100
AcDbEntity
  8
0
 62
7
100
AcDbPolyline
 90
2
 70
0
 10
162.661700
 20
22.308800
 30
0.0
 10
167.815300
 20
9.939500
 30
0.0
  0
LWPOLYLINE
  5
237
100
AcDbEntity
  8
0
 62
7
100
AcDbPolyline
 90
2
 70
0
 10
23.555000
 20
59.147800
 30
0.0
 10
23.555000
 20
45.747800
 30
0.0
  0
LWPOLYLINE
  5
238
100
AcDbEntity
  8
0
 62
7
100
AcDbPolyline
 90
2
 70
0
 10
23.855000
 20
45.447800
 30
0.0
 10
37.255000
 20
45.447800
 30
0.0
  0
LWPOLYLINE
  5
239
100
AcDbEntity
  8
0
 62
7
100
AcDbPolyline
 90
2
 70
0
 10
37.255000
 20
59.447800
 30
0.0
 10
23.855000
 20
59.447800
 30
0.0
  0
SPLINE
  5
23a
100
AcDbEntity
  8
0
 62
7
100
AcDbSpline
 70
8
 71
3
 72
8
 73
4
 74
0
 40
0
 40
0
 40
0
 40
0
 40
1
 40
1
 40
1
 40
1
 10
23.855000
 20
59.447800
 30
0.0
 10
23.775435
 20
59.447800
 30
0.0
 10
23.699129
 20
59.416193
 30
0.0
 10
23.642868
 20
59.359932
 30
0.0
  0
SPLINE
  5
23b
100
AcDbEntity
  8
0
 62
7
100
AcDbSpline
 70
8
 71
3
 72
8
 73
4
 74
0
 40
0
 40
0
 40
0
 40
0
 40
1
 40
1
 40
1
 40
1
 10
23.642868
 20
59.359932
 30
0.0
 10
23.586607
 20
59.303671
 30
0.0
 10
23.555000
 20
59.227365
 30
0.0
 10
23.555000
 20
59.147800
 30
0.0
  0
SPLINE
  5
23c
100
AcDbEntity
  8
0
 62
7
100
AcDbSpline
 70
8
 71
3
 72
8
 73
4
 74
0
 40
0
 40
0
 40
0
 40
0
 40
1
 40
1
 40
1
 40
1
 10
23.555000
 20
45.747800
 30
0.0
 10
23.555000
 20
45.668235
 30
0.0
 10
23.586607
 20
45.591929
 30
0.0
 10
23.642868
 20
45.535668
 30
0.0
  0
SPLINE
  5
23d
100
AcDbEntity
  8
0
 62
7
100
AcDbSpline
 70
8
 71
3
 72
8
 73
4
 74
0
 40
0
 40
0
 40
0
 40
0
 40
1
 40
1
 40
1
 40
1
 10
23.642868
 20
45.535668
 30
0.0
 10
23.699129
 20
45.479407
 30
0.0
 10
23.775435
 20
45.447800
 30
0.0
 10
23.855000
 20
45.447800
 30
0.0
  0
SPLINE
  5
23e
100
AcDbEntity
  8
0
 62
7
100
AcDbSpline
 70
8
 71
3
 72
8
 73
4
 74
0
 40
0
 40
0
 40
0
 40
0
 40
1
 40
1
 40
1
 40
1
 10
37.555000
 20
59.147800
 30
0.0
 10
37.555000
 20
59.313485
 30
0.0
 10
37.420685
 20
59.447800
 30
0.0
 10
37.255000
 20
59.447800
 30
0.0
  0
SPLINE
  5
23f
100
AcDbEntity
  8
0
 62
7
100
AcDbSpline
 70
8
 71
3
 72
8
 73
4
 74
0
 40
0
 40
0
 40
0
 40
0
 40
1
 40
1
 40
1
 40
1
 10
37.255000
 20
45.447800
 30
0.0
 10
37.420685
 20
45.447800
 30
0.0
 10
37.555000
 20
45.582115
 30
0.0
 10
37.555000
 20
45.747800
 30
0.0
  0
LWPOLYLINE
  5
240
100
AcDbEntity
  8
0
 62
7
100
AcDbPolyline
 90
2
 70
0
 10
37.555000
 20
45.747800
 30
0.0
 10
37.555000
 20
59.147800
 30
0.0
  0
LWPOLYLINE
  5
241
100
AcDbEntity
  8
0
 62
7
100
AcDbPolyline
 90
2
 70
0
 10
31.175000
 20
97.247800
 30
0.0
 10
31.175000
 20
83.847800
 30
0.0
  0
LWPOLYLINE
  5
242
100
AcDbEntity
  8
0
 62
7
100
AcDbPolyline
 90
2
 70
0
 10
31.475000
 20
83.547800
 30
0.0
 10
44.875000
 20
83.547800
 30
0.0
  0
LWPOLYLINE
  5
243
100
AcDbEntity
  8
0
 62
7
100
AcDbPolyline
 90
2
 70
0
 10
44.875000
 20
97.547800
 30
0.0
 10
31.475000
 20
97.547800
 30
0.0
  0
SPLINE
  5
244
100
AcDbEntity
  8
0
 62
7
100
AcDbSpline
 70
8
 71
3
 72
8
 73
4
 74
0
 40
0
 40
0
 40
0
 40
0
 40
1
 40
1
 40
1
 40
1
 10
31.475000
 20
97.547800
 30
0.0
 10
31.395435
 20
97.547800
 30
0.0
 10
31.319129
 20
97.516193
 30
0.0
 10
31.262868
 20
97.459932
 30
0.0
  0
SPLINE
  5
245
100
AcDbEntity
  8
0
 62
7
100
AcDbSpline
 70
8
 71
3
 72
8
 73
4
 74
0
 40
0
 40
0
 40
0
 40
0
 40
1
 40
1
 40
1
 40
1
 10
31.262868
 20
97.459932
 30
0.0
 10
31.206607
 20
97.403671
 30
0.0
 10
31.175000
 20
97.327365
 30
0.0
 10
31.175000
 20
97.247800
 30
0.0
  0
SPLINE
  5
246
100
AcDbEntity
  8
0
 62
7
100
AcDbSpline
 70
8
 71
3
 72
8
 73
4
 74
0
 40
0
 40
0
 40
0
 40
0
 40
1
 40
1
 40
1
 40
1
 10
31.175000
 20
83.847800
 30
0.0
 10
31.175000
 20
83.768235
 30
0.0
 10
31.206607
 20
83.691929
 30
0.0
 10
31.262868
 20
83.635668
 30
0.0
  0
SPLINE
  5
247
100
AcDbEntity
  8
0
 62
7
100
AcDbSpline
 70
8
 71
3
 72
8
 73
4
 74
0
 40
0
 40
0
 40
0
 40
0
 40
1
 40
1
 40
1
 40
1
 10
31.262868
 20
83.635668
 30
0.0
 10
31.319129
 20
83.579407
 30
0.0
 10
31.395435
 20
83.547800
 30
0.0
 10
31.475000
 20
83.547800
 30
0.0
  0
SPLINE
  5
248
100
AcDbEntity
  8
0
 62
7
100
AcDbSpline
 70
8
 71
3
 72
8
 73
4
 74
0
 40
0
 40
0
 40
0
 40
0
 40
1
 40
1
 40
1
 40
1
 10
45.175000
 20
97.247800
 30
0.0
 10
45.175000
 20
97.327365
 30
0.0
 10
45.143393
 20
97.403671
 30
0.0
 10
45.087132
 20
97.459932
 30
0.0
  0
SPLINE
  5
249
100
AcDbEntity
  8
0
 62
7
100
AcDbSpline
 70
8
 71
3
 72
8
 73
4
 74
0
 40
0
 40
0
 40
0
 40
0
 40
1
 40
1
 40
1
 40
1
 10
45.087132
 20
97.459932
 30
0.0
 10
45.030871
 20
97.516193
 30
0.0
 10
44.954565
 20
97.547800
 30
0.0
 10
44.875000
 20
97.547800
 30
0.0
  0
SPLINE
  5
24a
100
AcDbEntity
  8
0
 62
7
100
AcDbSpline
 70
8
 71
3
 72
8
 73
4
 74
0
 40
0
 40
0
 40
0
 40
0
 40
1
 40
1
 40
1
 40
1
 10
44.875000
 20
83.547800
 30
0.0
 10
44.954565
 20
83.547800
 30
0.0
 10
45.030871
 20
83.579407
 30
0.0
 10
45.087132
 20
83.635668
 30
0.0
  0
SPLINE
  5
24b
100
AcDbEntity
  8
0
 62
7
100
AcDbSpline
 70
8
 71
3
 72
8
 73
4
 74
0
 40
0
 40
0
 40
0
 40
0
 40
1
 40
1
 40
1
 40
1
 10
45.087132
 20
83.635668
 30
0.0
 10
45.143393
 20
83.691929
 30
0.0
 10
45.175000
 20
83.768235
 30
0.0
 10
45.175000
 20
83.847800
 30
0.0
  0
LWPOLYLINE
  5
24c
100
AcDbEntity
  8
0
 62
7
100
AcDbPolyline
 90
2
 70
0
 10
45.175000
 20
83.847800
 30
0.0
 10
45.175000
 20
97.247800
 30
0.0
  0
LWPOLYLINE
  5
24d
100
AcDbEntity
  8
0
 62
7
100
AcDbPolyline
 90
2
 70
0
 10
210.245000
 20
97.247800
 30
0.0
 10
210.245000
 20
83.847800
 30
0.0
  0
LWPOLYLINE
  5
24e
100
AcDbEntity
  8
0
 62
7
100
AcDbPolyline
 90
2
 70
0
 10
210.545000
 20
83.547800
 30
0.0
 10
223.945000
 20
83.547800
 30
0.0
  0
LWPOLYLINE
  5
24f
100
AcDbEntity
  8
0
 62
7
100
AcDbPolyline
 90
2
 70
0
 10
223.945000
 20
97.547800
 30
0.0
 10
210.545000
 20
97.547800
 30
0.0
  0
SPLINE
  5
250
100
AcDbEntity
  8
0
 62
7
100
AcDbSpline
 70
8
 71
3
 72
8
 73
4
 74
0
 40
0
 40
0
 40
0
 40
0
 40
1
 40
1
 40
1
 40
1
 10
210.545000
 20
97.547800
 30
0.0
 10
210.465435
 20
97.547800
 30
0.0
 10
210.389129
 20
97.516193
 30
0.0
 10
210.332868
 20
97.459932
 30
0.0
  0
SPLINE
  5
251
100
AcDbEntity
  8
0
 62
7
100
AcDbSpline
 70
8
 71
3
 72
8
 73
4
 74
0
 40
0
 40
0
 40
0
 40
0
 40
1
 40
1
 40
1
 40
1
 10
210.332868
 20
97.459932
 30
0.0
 10
210.276607
 20
97.403671
 30
0.0
 10
210.245000
 20
97.327365
 30
0.0
 10
210.245000
 20
97.247800
 30
0.0
  0
SPLINE
  5
252
100
AcDbEntity
  8
0
 62
7
100
AcDbSpline
 70
8
 71
3
 72
8
 73
4
 74
0
 40
0
 40
0
 40
0
 40
0
 40
1
 40
1
 40
1
 40
1
 10
210.245000
 20
83.847800
 30
0.0
 10
210.245000
 20
83.768235
 30
0.0
 10
210.276607
 20
83.691929
 30
0.0
 10
210.332868
 20
83.635668
 30
0.0
  0
SPLINE
  5
253
100
AcDbEntity
  8
0
 62
7
100
AcDbSpline
 70
8
 71
3
 72
8
 73
4
 74
0
 40
0
 40
0
 40
0
 40
0
 40
1
 40
1
 40
1
 40
1
 10
210.332868
 20
83.635668
 30
0.0
 10
210.389129
 20
83.579407
 30
0.0
 10
210.465435
 20
83.547800
 30
0.0
 10
210.545000
 20
83.547800
 30
0.0
  0
SPLINE
  5
254
100
AcDbEntity
  8
0
 62
7
100
AcDbSpline
 70
8
 71
3
 72
8
 73
4
 74
0
 40
0
 40
0
 40
0
 40
0
 40
1
 40
1
 40
1
 40
1
 10
224.245000
 20
97.247800
 30
0.0
 10
224.245000
 20
97.327365
 30
0.0
 10
224.213393
 20
97.403671
 30
0.0
 10
224.157132
 20
97.459932
 30
0.0
  0
SPLINE
  5
255
100
AcDbEntity
  8
0
 62
7
100
AcDbSpline
 70
8
 71
3
 72
8
 73
4
 74
0
 40
0
 40
0
 40
0
 40
0
 40
1
 40
1
 40
1
 40
1
 10
224.157132
 20
97.459932
 30
0.0
 10
224.100871
 20
97.516193
 30
0.0
 10
224.024565
 20
97.547800
 30
0.0
 10
223.945000
 20
97.547800
 30
0.0
  0
SPLINE
  5
256
100
AcDbEntity
  8
0
 62
7
100
AcDbSpline
 70
8
 71
3
 72
8
 73
4
 74
0
 40
0
 40
0
 40
0
 40
0
 40
1
 40
1
 40
1
 40
1
 10
223.945000
 20
83.547800
 30
0.0
 10
224.024565
 20
83.547800
 30
0.0
 10
224.100871
 20
83.579407
 30
0.0
 10
224.157132
 20
83.635668
 30
0.0
  0
SPLINE
  5
257
100
AcDbEntity
  8
0
 62
7
100
AcDbSpline
 70
8
 71
3
 72
8
 73
4
 74
0
 40
0
 40
0
 40
0
 40
0
 40
1
 40
1
 40
1
 40
1
 10
224.157132
 20
83.635668
 30
0.0
 10
224.213393
 20
83.691929
 30
0.0
 10
224.245000
 20
83.768235
 30
0.0
 10
224.245000
 20
83.847800
 30
0.0
  0
LWPOLYLINE
  5
258
100
AcDbEntity
  8
0
 62
7
100
AcDbPolyline
 90
2
 70
0
 10
224.245000
 20
83.847800
 30
0.0
 10
224.245000
 20
97.247800
 30
0.0
  0
LWPOLYLINE
  5
259
100
AcDbEntity
  8
0
 62
7
100
AcDbPolyline
 90
2
 70
0
 10
12.125000
 20
97.247800
 30
0.0
 10
12.125000
 20
83.847800
 30
0.0
  0
LWPOLYLINE
  5
25a
100
AcDbEntity
  8
0
 62
7
100
AcDbPolyline
 90
2
 70
0
 10
12.425000
 20
83.547800
 30
0.0
 10
25.825000
 20
83.547800
 30
0.0
  0
LWPOLYLINE
  5
25b
100
AcDbEntity
  8
0
 62
7
100
AcDbPolyline
 90
2
 70
0
 10
25.825000
 20
97.547800
 30
0.0
 10
12.425000
 20
97.547800
 30
0.0
  0
SPLINE
  5
25c
100
AcDbEntity
  8
0
 62
7
100
AcDbSpline
 70
8
 71
3
 72
8
 73
4
 74
0
 40
0
 40
0
 40
0
 40
0
 40
1
 40
1
 40
1
 40
1
 10
12.425000
 20
97.547800
 30
0.0
 10
12.345435
 20
97.547800
 30
0.0
 10
12.269129
 20
97.516193
 30
0.0
 10
12.212868
 20
97.459932
 30
0.0
  0
SPLINE
  5
25d
100
AcDbEntity
  8
0
 62
7
100
AcDbSpline
 70
8
 71
3
 72
8
 73
4
 74
0
 40
0
 40
0
 40
0
 40
0
 40
1
 40
1
 40
1
 40
1
 10
12.212868
 20
97.459932
 30
0.0
 10
12.156607
 20
97.403671
 30
0.0
 10
12.125000
 20
97.327365
 30
0.0
 10
12.125000
 20
97.247800
 30
0.0
  0
SPLINE
  5
25e
100
AcDbEntity
  8
0
 62
7
100
AcDbSpline
 70
8
 71
3
 72
8
 73
4
 74
0
 40
0
 40
0
 40
0
 40
0
 40
1
 40
1
 40
1
 40
1
 10
12.125000
 20
83.847800
 30
0.0
 10
12.125000
 20
83.768235
 30
0.0
 10
12.156607
 20
83.691929
 30
0.0
 10
12.212868
 20
83.635668
 30
0.0
  0
SPLINE
  5
25f
100
AcDbEntity
  8
0
 62
7
100
AcDbSpline
 70
8
 71
3
 72
8
 73
4
 74
0
 40
0
 40
0
 40
0
 40
0
 40
1
 40
1
 40
1
 40
1
 10
12.212868
 20
83.635668
 30
0.0
 10
12.269129
 20
83.579407
 30
0.0
 10
12.345435
 20
83.547800
 30
0.0
 10
12.425000
 20
83.547800
 30
0.0
  0
SPLINE
  5
260
100
AcDbEntity
  8
0
 62
7
100
AcDbSpline
 70
8
 71
3
 72
8
 73
4
 74
0
 40
0
 40
0
 40
0
 40
0
 40
1
 40
1
 40
1
 40
1
 10
26.125000
 20
97.247800
 30
0.0
 10
26.125000
 20
97.327365
 30
0.0
 10
26.093393
 20
97.403671
 30
0.0
 10
26.037132
 20
97.459932
 30
0.0
  0
SPLINE
  5
261
100
AcDbEntity
  8
0
 62
7
100
AcDbSpline
 70
8
 71
3
 72
8
 73
4
 74
0
 40
0
 40
0
 40
0
 40
0
 40
1
 40
1
 40
1
 40
1
 10
26.037132
 20
97.459932
 30
0.0
 10
25.980871
 20
97.516193
 30
0.0
 10
25.904565
 20
97.547800
 30
0.0
 10
25.825000
 20
97.547800
 30
0.0
  0
SPLINE
  5
262
100
AcDbEntity
  8
0
 62
7
100
AcDbSpline
 70
8
 71
3
 72
8
 73
4
 74
0
 40
0
 40
0
 40
0
 40
0
 40
1
 40
1
 40
1
 40
1
 10
25.825000
 20
83.547800
 30
0.0
 10
25.904565
 20
83.547800
 30
0.0
 10
25.980871
 20
83.579407
 30
0.0
 10
26.037132
 20
83.635668
 30
0.0
  0
SPLINE
  5
263
100
AcDbEntity
  8
0
 62
7
100
AcDbSpline
 70
8
 71
3
 72
8
 73
4
 74
0
 40
0
 40
0
 40
0
 40
0
 40
1
 40
1
 40
1
 40
1
 10
26.037132
 20
83.635668
 30
0.0
 10
26.093393
 20
83.691929
 30
0.0
 10
26.125000
 20
83.768235
 30
0.0
 10
26.125000
 20
83.847800
 30
0.0
  0
LWPOLYLINE
  5
264
100
AcDbEntity
  8
0
 62
7
100
AcDbPolyline
 90
2
 70
0
 10
26.125000
 20
83.847800
 30
0.0
 10
26.125000
 20
97.247800
 30
0.0
  0
LWPOLYLINE
  5
265
100
AcDbEntity
  8
0
 62
7
100
AcDbPolyline
 90
2
 70
0
 10
75.320000
 20
99.424200
 30
0.0
 10
70.166400
 20
87.054800
 30
0.0
  0
LWPOLYLINE
  5
266
100
AcDbEntity
  8
0
 62
7
100
AcDbPolyline
 90
2
 70
0
 10
70.327900
 20
86.662500
 30
0.0
 10
82.697200
 20
81.508900
 30
0.0
  0
LWPOLYLINE
  5
267
100
AcDbEntity
  8
0
 62
7
100
AcDbPolyline
 90
2
 70
0
 10
88.081600
 20
94.432000
 30
0.0
 10
75.712300
 20
99.585700
 30
0.0
  0
SPLINE
  5
268
100
AcDbEntity
  8
0
 62
7
100
AcDbSpline
 70
8
 71
3
 72
8
 73
4
 74
0
 40
0
 40
0
 40
0
 40
0
 40
1
 40
1
 40
1
 40
1
 10
75.712300
 20
99.585700
 30
0.0
 10
75.559372
 20
99.649424
 30
0.0
 10
75.383740
 20
99.577121
 30
0.0
 10
75.320000
 20
99.424200
 30
0.0
  0
SPLINE
  5
269
100
AcDbEntity
  8
0
 62
7
100
AcDbSpline
 70
8
 71
3
 72
8
 73
4
 74
0
 40
0
 40
0
 40
0
 40
0
 40
1
 40
1
 40
1
 40
1
 10
70.166400
 20
87.054800
 30
0.0
 10
70.102676
 20
86.901872
 30
0.0
 10
70.174979
 20
86.726240
 30
0.0
 10
70.327900
 20
86.662500
 30
0.0
  0
SPLINE
  5
26a
100
AcDbEntity
  8
0
 62
7
100
AcDbSpline
 70
8
 71
3
 72
8
 73
4
 74
0
 40
0
 40
0
 40
0
 40
0
 40
1
 40
1
 40
1
 40
1
 10
88.243200
 20
94.039700
 30
0.0
 10
88.273796
 20
94.113151
 30
0.0
 10
88.273959
 20
94.195749
 30
0.0
 10
88.243652
 20
94.269320
 30
0.0
  0
SPLINE
  5
26b
100
AcDbEntity
  8
0
 62
7
100
AcDbSpline
 70
8
 71
3
 72
8
 73
4
 74
0
 40
0
 40
0
 40
0
 40
0
 40
1
 40
1
 40
1
 40
1
 10
88.243652
 20
94.269320
 30
0.0
 10
88.213346
 20
94.342892
 30
0.0
 10
88.155054
 20
94.401410
 30
0.0
 10
88.081600
 20
94.432000
 30
0.0
  0
SPLINE
  5
26c
100
AcDbEntity
  8
0
 62
7
100
AcDbSpline
 70
8
 71
3
 72
8
 73
4
 74
0
 40
0
 40
0
 40
0
 40
0
 40
1
 40
1
 40
1
 40
1
 10
82.697200
 20
81.508900
 30
0.0
 10
82.850128
 20
81.445176
 30
0.0
 10
83.025760
 20
81.517479
 30
0.0
 10
83.089500
 20
81.670400
 30
0.0
  0
LWPOLYLINE
  5
26d
100
AcDbEntity
  8
0
 62
7
100
AcDbPolyline
 90
2
 70
0
 10
83.089500
 20
81.670400
 30
0.0
 10
88.243200
 20
94.039700
 30
0.0
  0
LWPOLYLINE
  5
26e
100
AcDbEntity
  8
0
 62
7
100
AcDbPolyline
 90
2
 70
0
 10
249.774000
 20
26.697800
 30
0.0
 10
249.774000
 20
40.097800
 30
0.0
  0
LWPOLYLINE
  5
26f
100
AcDbEntity
  8
0
 62
7
100
AcDbPolyline
 90
2
 70
0
 10
250.074000
 20
40.397800
 30
0.0
 10
263.474000
 20
40.397800
 30
0.0
  0
LWPOLYLINE
  5
270
100
AcDbEntity
  8
0
 62
7
100
AcDbPolyline
 90
2
 70
0
 10
263.474000
 20
26.397800
 30
0.0
 10
250.074000
 20
26.397800
 30
0.0
  0
SPLINE
  5
271
100
AcDbEntity
  8
0
 62
7
100
AcDbSpline
 70
8
 71
3
 72
8
 73
4
 74
0
 40
0
 40
0
 40
0
 40
0
 40
1
 40
1
 40
1
 40
1
 10
250.074000
 20
40.397800
 30
0.0
 10
249.994435
 20
40.397800
 30
0.0
 10
249.918129
 20
40.366193
 30
0.0
 10
249.861868
 20
40.309932
 30
0.0
  0
SPLINE
  5
272
100
AcDbEntity
  8
0
 62
7
100
AcDbSpline
 70
8
 71
3
 72
8
 73
4
 74
0
 40
0
 40
0
 40
0
 40
0
 40
1
 40
1
 40
1
 40
1
 10
249.861868
 20
40.309932
 30
0.0
 10
249.805607
 20
40.253671
 30
0.0
 10
249.774000
 20
40.177365
 30
0.0
 10
249.774000
 20
40.097800
 30
0.0
  0
SPLINE
  5
273
100
AcDbEntity
  8
0
 62
7
100
AcDbSpline
 70
8
 71
3
 72
8
 73
4
 74
0
 40
0
 40
0
 40
0
 40
0
 40
1
 40
1
 40
1
 40
1
 10
249.774000
 20
26.697800
 30
0.0
 10
249.774000
 20
26.618235
 30
0.0
 10
249.805607
 20
26.541929
 30
0.0
 10
249.861868
 20
26.485668
 30
0.0
  0
SPLINE
  5
274
100
AcDbEntity
  8
0
 62
7
100
AcDbSpline
 70
8
 71
3
 72
8
 73
4
 74
0
 40
0
 40
0
 40
0
 40
0
 40
1
 40
1
 40
1
 40
1
 10
249.861868
 20
26.485668
 30
0.0
 10
249.918129
 20
26.429407
 30
0.0
 10
249.994435
 20
26.397800
 30
0.0
 10
250.074000
 20
26.397800
 30
0.0
  0
SPLINE
  5
275
100
AcDbEntity
  8
0
 62
7
100
AcDbSpline
 70
8
 71
3
 72
8
 73
4
 74
0
 40
0
 40
0
 40
0
 40
0
 40
1
 40
1
 40
1
 40
1
 10
263.774000
 20
40.097800
 30
0.0
 10
263.774000
 20
40.177365
 30
0.0
 10
263.742393
 20
40.253671
 30
0.0
 10
263.686132
 20
40.309932
 30
0.0
  0
SPLINE
  5
276
100
AcDbEntity
  8
0
 62
7
100
AcDbSpline
 70
8
 71
3
 72
8
 73
4
 74
0
 40
0
 40
0
 40
0
 40
0
 40
1
 40
1
 40
1
 40
1
 10
263.686132
 20
40.309932
 30
0.0
 10
263.629871
 20
40.366193
 30
0.0
 10
263.553565
 20
40.397800
 30
0.0
 10
263.474000
 20
40.397800
 30
0.0
  0
SPLINE
  5
277
100
AcDbEntity
  8
0
 62
7
100
AcDbSpline
 70
8
 71
3
 72
8
 73
4
 74
0
 40
0
 40
0
 40
0
 40
0
 40
1
 40
1
 40
1
 40
1
 10
263.474000
 20
26.397800
 30
0.0
 10
263.553565
 20
26.397800
 30
0.0
 10
263.629871
 20
26.429407
 30
0.0
 10
263.686132
 20
26.485668
 30
0.0
  0
SPLINE
  5
278
100
AcDbEntity
  8
0
 62
7
100
AcDbSpline
 70
8
 71
3
 72
8
 73
4
 74
0
 40
0
 40
0
 40
0
 40
0
 40
1
 40
1
 40
1
 40
1
 10
263.686132
 20
26.485668
 30
0.0
 10
263.742393
 20
26.541929
 30
0.0
 10
263.774000
 20
26.618235
 30
0.0
 10
263.774000
 20
26.697800
 30
0.0
  0
LWPOLYLINE
  5
279
100
AcDbEntity
  8
0
 62
7
100
AcDbPolyline
 90
2
 70
0
 10
263.774000
 20
40.097800
 30
0.0
 10
263.774000
 20
26.697800
 30
0.0
  0
LWPOLYLINE
  5
27a
100
AcDbEntity
  8
0
 62
7
100
AcDbPolyline
 90
2
 70
0
 10
172.451800
 20
67.663000
 30
0.0
 10
177.605500
 20
55.293700
 30
0.0
  0
LWPOLYLINE
  5
27b
100
AcDbEntity
  8
0
 62
7
100
AcDbPolyline
 90
2
 70
0
 10
177.997800
 20
55.132200
 30
0.0
 10
190.367100
 20
60.285800
 30
0.0
  0
LWPOLYLINE
  5
27c
100
AcDbEntity
  8
0
 62
7
100
AcDbPolyline
 90
2
 70
0
 10
184.982700
 20
73.209000
 30
0.0
 10
172.613300
 20
68.055300
 30
0.0
  0
SPLINE
  5
27d
100
AcDbEntity
  8
0
 62
7
100
AcDbSpline
 70
8
 71
3
 72
8
 73
4
 74
0
 40
0
 40
0
 40
0
 40
0
 40
1
 40
1
 40
1
 40
1
 10
172.613300
 20
68.055300
 30
0.0
 10
172.460379
 20
67.991560
 30
0.0
 10
172.388076
 20
67.815928
 30
0.0
 10
172.451800
 20
67.663000
 30
0.0
  0
SPLINE
  5
27e
100
AcDbEntity
  8
0
 62
7
100
AcDbSpline
 70
8
 71
3
 72
8
 73
4
 74
0
 40
0
 40
0
 40
0
 40
0
 40
1
 40
1
 40
1
 40
1
 10
177.605500
 20
55.293700
 30
0.0
 10
177.669240
 20
55.140779
 30
0.0
 10
177.844872
 20
55.068476
 30
0.0
 10
177.997800
 20
55.132200
 30
0.0
  0
SPLINE
  5
27f
100
AcDbEntity
  8
0
 62
7
100
AcDbSpline
 70
8
 71
3
 72
8
 73
4
 74
0
 40
0
 40
0
 40
0
 40
0
 40
1
 40
1
 40
1
 40
1
 10
185.375000
 20
73.047400
 30
0.0
 10
185.344410
 20
73.120854
 30
0.0
 10
185.285892
 20
73.179146
 30
0.0
 10
185.212320
 20
73.209452
 30
0.0
  0
SPLINE
  5
280
100
AcDbEntity
  8
0
 62
7
100
AcDbSpline
 70
8
 71
3
 72
8
 73
4
 74
0
 40
0
 40
0
 40
0
 40
0
 40
1
 40
1
 40
1
 40
1
 10
185.212320
 20
73.209452
 30
0.0
 10
185.138749
 20
73.239759
 30
0.0
 10
185.056151
 20
73.239596
 30
0.0
 10
184.982700
 20
73.209000
 30
0.0
  0
SPLINE
  5
281
100
AcDbEntity
  8
0
 62
7
100
AcDbSpline
 70
8
 71
3
 72
8
 73
4
 74
0
 40
0
 40
0
 40
0
 40
0
 40
1
 40
1
 40
1
 40
1
 10
190.367100
 20
60.285800
 30
0.0
 10
190.520021
 20
60.349540
 30
0.0
 10
190.592324
 20
60.525172
 30
0.0
 10
190.528600
 20
60.678100
 30
0.0
  0
LWPOLYLINE
  5
282
100
AcDbEntity
  8
0
 62
7
100
AcDbPolyline
 90
2
 70
0
 10
190.528600
 20
60.678100
 30
0.0
 10
185.375000
 20
73.047400
 30
0.0
  0
LWPOLYLINE
  5
283
100
AcDbEntity
  8
0
 62
7
100
AcDbPolyline
 90
2
 70
0
 10
67.700600
 20
61.324000
 30
0.0
 10
62.546900
 20
48.954700
 30
0.0
  0
LWPOLYLINE
  5
284
100
AcDbEntity
  8
0
 62
7
100
AcDbPolyline
 90
2
 70
0
 10
62.708500
 20
48.562400
 30
0.0
 10
75.077800
 20
43.408800
 30
0.0
  0
LWPOLYLINE
  5
285
100
AcDbEntity
  8
0
 62
7
100
AcDbPolyline
 90
2
 70
0
 10
80.462200
 20
56.331900
 30
0.0
 10
68.092900
 20
61.485600
 30
0.0
  0
SPLINE
  5
286
100
AcDbEntity
  8
0
 62
7
100
AcDbSpline
 70
8
 71
3
 72
8
 73
4
 74
0
 40
0
 40
0
 40
0
 40
0
 40
1
 40
1
 40
1
 40
1
 10
68.092900
 20
61.485600
 30
0.0
 10
68.019449
 20
61.516196
 30
0.0
 10
67.936851
 20
61.516359
 30
0.0
 10
67.863280
 20
61.486052
 30
0.0
  0
SPLINE
  5
287
100
AcDbEntity
  8
0
 62
7
100
AcDbSpline
 70
8
 71
3
 72
8
 73
4
 74
0
 40
0
 40
0
 40
0
 40
0
 40
1
 40
1
 40
1
 40
1
 10
67.863280
 20
61.486052
 30
0.0
 10
67.789708
 20
61.455746
 30
0.0
 10
67.731190
 20
61.397454
 30
0.0
 10
67.700600
 20
61.324000
 30
0.0
  0
SPLINE
  5
288
100
AcDbEntity
  8
0
 62
7
100
AcDbSpline
 70
8
 71
3
 72
8
 73
4
 74
0
 40
0
 40
0
 40
0
 40
0
 40
1
 40
1
 40
1
 40
1
 10
62.546900
 20
48.954700
 30
0.0
 10
62.516304
 20
48.881249
 30
0.0
 10
62.516141
 20
48.798651
 30
0.0
 10
62.546448
 20
48.725080
 30
0.0
  0
SPLINE
  5
289
100
AcDbEntity
  8
0
 62
7
100
AcDbSpline
 70
8
 71
3
 72
8
 73
4
 74
0
 40
0
 40
0
 40
0
 40
0
 40
1
 40
1
 40
1
 40
1
 10
62.546448
 20
48.725080
 30
0.0
 10
62.576754
 20
48.651508
 30
0.0
 10
62.635046
 20
48.592990
 30
0.0
 10
62.708500
 20
48.562400
 30
0.0
  0
SPLINE
  5
28a
100
AcDbEntity
  8
0
 62
7
100
AcDbSpline
 70
8
 71
3
 72
8
 73
4
 74
0
 40
0
 40
0
 40
0
 40
0
 40
1
 40
1
 40
1
 40
1
 10
80.623800
 20
55.939600
 30
0.0
 10
80.654396
 20
56.013051
 30
0.0
 10
80.654559
 20
56.095649
 30
0.0
 10
80.624252
 20
56.169220
 30
0.0
  0
SPLINE
  5
28b
100
AcDbEntity
  8
0
 62
7
100
AcDbSpline
 70
8
 71
3
 72
8
 73
4
 74
0
 40
0
 40
0
 40
0
 40
0
 40
1
 40
1
 40
1
 40
1
 10
80.624252
 20
56.169220
 30
0.0
 10
80.593946
 20
56.242792
 30
0.0
 10
80.535654
 20
56.301310
 30
0.0
 10
80.462200
 20
56.331900
 30
0.0
  0
SPLINE
  5
28c
100
AcDbEntity
  8
0
 62
7
100
AcDbSpline
 70
8
 71
3
 72
8
 73
4
 74
0
 40
0
 40
0
 40
0
 40
0
 40
1
 40
1
 40
1
 40
1
 10
75.077800
 20
43.408800
 30
0.0
 10
75.230728
 20
43.345076
 30
0.0
 10
75.406360
 20
43.417379
 30
0.0
 10
75.470100
 20
43.570300
 30
0.0
  0
LWPOLYLINE
  5
28d
100
AcDbEntity
  8
0
 62
7
100
AcDbPolyline
 90
2
 70
0
 10
75.470100
 20
43.570300
 30
0.0
 10
80.623800
 20
55.939600
 30
0.0
  0
LWPOLYLINE
  5
28e
100
AcDbEntity
  8
0
 62
7
100
AcDbPolyline
 90
2
 70
0
 10
46.415000
 20
78.197800
 30
0.0
 10
46.415000
 20
64.797800
 30
0.0
  0
LWPOLYLINE
  5
28f
100
AcDbEntity
  8
0
 62
7
100
AcDbPolyline
 90
2
 70
0
 10
46.715000
 20
64.497800
 30
0.0
 10
60.115000
 20
64.497800
 30
0.0
  0
LWPOLYLINE
  5
290
100
AcDbEntity
  8
0
 62
7
100
AcDbPolyline
 90
2
 70
0
 10
60.115000
 20
78.497800
 30
0.0
 10
46.715000
 20
78.497800
 30
0.0
  0
SPLINE
  5
291
100
AcDbEntity
  8
0
 62
7
100
AcDbSpline
 70
8
 71
3
 72
8
 73
4
 74
0
 40
0
 40
0
 40
0
 40
0
 40
1
 40
1
 40
1
 40
1
 10
46.715000
 20
78.497800
 30
0.0
 10
46.635435
 20
78.497800
 30
0.0
 10
46.559129
 20
78.466193
 30
0.0
 10
46.502868
 20
78.409932
 30
0.0
  0
SPLINE
  5
292
100
AcDbEntity
  8
0
 62
7
100
AcDbSpline
 70
8
 71
3
 72
8
 73
4
 74
0
 40
0
 40
0
 40
0
 40
0
 40
1
 40
1
 40
1
 40
1
 10
46.502868
 20
78.409932
 30
0.0
 10
46.446607
 20
78.353671
 30
0.0
 10
46.415000
 20
78.277365
 30
0.0
 10
46.415000
 20
78.197800
 30
0.0
  0
SPLINE
  5
293
100
AcDbEntity
  8
0
 62
7
100
AcDbSpline
 70
8
 71
3
 72
8
 73
4
 74
0
 40
0
 40
0
 40
0
 40
0
 40
1
 40
1
 40
1
 40
1
 10
46.415000
 20
64.797800
 30
0.0
 10
46.415000
 20
64.718235
 30
0.0
 10
46.446607
 20
64.641929
 30
0.0
 10
46.502868
 20
64.585668
 30
0.0
  0
SPLINE
  5
294
100
AcDbEntity
  8
0
 62
7
100
AcDbSpline
 70
8
 71
3
 72
8
 73
4
 74
0
 40
0
 40
0
 40
0
 40
0
 40
1
 40
1
 40
1
 40
1
 10
46.502868
 20
64.585668
 30
0.0
 10
46.559129
 20
64.529407
 30
0.0
 10
46.635435
 20
64.497800
 30
0.0
 10
46.715000
 20
64.497800
 30
0.0
  0
SPLINE
  5
295
100
AcDbEntity
  8
0
 62
7
100
AcDbSpline
 70
8
 71
3
 72
8
 73
4
 74
0
 40
0
 40
0
 40
0
 40
0
 40
1
 40
1
 40
1
 40
1
 10
60.415000
 20
78.197800
 30
0.0
 10
60.415000
 20
78.363485
 30
0.0
 10
60.280685
 20
78.497800
 30
0.0
 10
60.115000
 20
78.497800
 30
0.0
  0
SPLINE
  5
296
100
AcDbEntity
  8
0
 62
7
100
AcDbSpline
 70
8
 71
3
 72
8
 73
4
 74
0
 40
0
 40
0
 40
0
 40
0
 40
1
 40
1
 40
1
 40
1
 10
60.115000
 20
64.497800
 30
0.0
 10
60.280685
 20
64.497800
 30
0.0
 10
60.415000
 20
64.632115
 30
0.0
 10
60.415000
 20
64.797800
 30
0.0
  0
LWPOLYLINE
  5
297
100
AcDbEntity
  8
0
 62
7
100
AcDbPolyline
 90
2
 70
0
 10
60.415000
 20
64.797800
 30
0.0
 10
60.415000
 20
78.197800
 30
0.0
  0
LWPOLYLINE
  5
298
100
AcDbEntity
  8
0
 62
7
100
AcDbPolyline
 90
2
 70
0
 10
10.696000
 20
26.697800
 30
0.0
 10
10.696000
 20
40.097800
 30
0.0
  0
LWPOLYLINE
  5
299
100
AcDbEntity
  8
0
 62
7
100
AcDbPolyline
 90
2
 70
0
 10
10.996000
 20
40.397800
 30
0.0
 10
24.396000
 20
40.397800
 30
0.0
  0
LWPOLYLINE
  5
29a
100
AcDbEntity
  8
0
 62
7
100
AcDbPolyline
 90
2
 70
0
 10
24.396000
 20
26.397800
 30
0.0
 10
10.996000
 20
26.397800
 30
0.0
  0
SPLINE
  5
29b
100
AcDbEntity
  8
0
 62
7
100
AcDbSpline
 70
8
 71
3
 72
8
 73
4
 74
0
 40
0
 40
0
 40
0
 40
0
 40
1
 40
1
 40
1
 40
1
 10
10.996000
 20
40.397800
 30
0.0
 10
10.916435
 20
40.397800
 30
0.0
 10
10.840129
 20
40.366193
 30
0.0
 10
10.783868
 20
40.309932
 30
0.0
  0
SPLINE
  5
29c
100
AcDbEntity
  8
0
 62
7
100
AcDbSpline
 70
8
 71
3
 72
8
 73
4
 74
0
 40
0
 40
0
 40
0
 40
0
 40
1
 40
1
 40
1
 40
1
 10
10.783868
 20
40.309932
 30
0.0
 10
10.727607
 20
40.253671
 30
0.0
 10
10.696000
 20
40.177365
 30
0.0
 10
10.696000
 20
40.097800
 30
0.0
  0
SPLINE
  5
29d
100
AcDbEntity
  8
0
 62
7
100
AcDbSpline
 70
8
 71
3
 72
8
 73
4
 74
0
 40
0
 40
0
 40
0
 40
0
 40
1
 40
1
 40
1
 40
1
 10
10.696000
 20
26.697800
 30
0.0
 10
10.696000
 20
26.618235
 30
0.0
 10
10.727607
 20
26.541929
 30
0.0
 10
10.783868
 20
26.485668
 30
0.0
  0
SPLINE
  5
29e
100
AcDbEntity
  8
0
 62
7
100
AcDbSpline
 70
8
 71
3
 72
8
 73
4
 74
0
 40
0
 40
0
 40
0
 40
0
 40
1
 40
1
 40
1
 40
1
 10
10.783868
 20
26.485668
 30
0.0
 10
10.840129
 20
26.429407
 30
0.0
 10
10.916435
 20
26.397800
 30
0.0
 10
10.996000
 20
26.397800
 30
0.0
  0
SPLINE
  5
29f
100
AcDbEntity
  8
0
 62
7
100
AcDbSpline
 70
8
 71
3
 72
8
 73
4
 74
0
 40
0
 40
0
 40
0
 40
0
 40
1
 40
1
 40
1
 40
1
 10
24.696000
 20
40.097800
 30
0.0
 10
24.696000
 20
40.177365
 30
0.0
 10
24.664393
 20
40.253671
 30
0.0
 10
24.608132
 20
40.309932
 30
0.0
  0
SPLINE
  5
2a0
100
AcDbEntity
  8
0
 62
7
100
AcDbSpline
 70
8
 71
3
 72
8
 73
4
 74
0
 40
0
 40
0
 40
0
 40
0
 40
1
 40
1
 40
1
 40
1
 10
24.608132
 20
40.309932
 30
0.0
 10
24.551871
 20
40.366193
 30
0.0
 10
24.475565
 20
40.397800
 30
0.0
 10
24.396000
 20
40.397800
 30
0.0
  0
SPLINE
  5
2a1
100
AcDbEntity
  8
0
 62
7
100
AcDbSpline
 70
8
 71
3
 72
8
 73
4
 74
0
 40
0
 40
0
 40
0
 40
0
 40
1
 40
1
 40
1
 40
1
 10
24.396000
 20
26.397800
 30
0.0
 10
24.475565
 20
26.397800
 30
0.0
 10
24.551871
 20
26.429407
 30
0.0
 10
24.608132
 20
26.485668
 30
0.0
  0
SPLINE
  5
2a2
100
AcDbEntity
  8
0
 62
7
100
AcDbSpline
 70
8
 71
3
 72
8
 73
4
 74
0
 40
0
 40
0
 40
0
 40
0
 40
1
 40
1
 40
1
 40
1
 10
24.608132
 20
26.485668
 30
0.0
 10
24.664393
 20
26.541929
 30
0.0
 10
24.696000
 20
26.618235
 30
0.0
 10
24.696000
 20
26.697800
 30
0.0
  0
LWPOLYLINE
  5
2a3
100
AcDbEntity
  8
0
 62
7
100
AcDbPolyline
 90
2
 70
0
 10
24.696000
 20
40.097800
 30
0.0
 10
24.696000
 20
26.697800
 30
0.0
  0
LWPOLYLINE
  5
2a4
100
AcDbEntity
  8
0
 62
7
100
AcDbPolyline
 90
2
 70
0
 10
85.285300
 20
53.997400
 30
0.0
 10
80.131700
 20
41.628100
 30
0.0
  0
LWPOLYLINE
  5
2a5
100
AcDbEntity
  8
0
 62
7
100
AcDbPolyline
 90
2
 70
0
 10
80.293200
 20
41.235800
 30
0.0
 10
92.662500
 20
36.082100
 30
0.0
  0
LWPOLYLINE
  5
2a6
100
AcDbEntity
  8
0
 62
7
100
AcDbPolyline
 90
2
 70
0
 10
98.046900
 20
49.005300
 30
0.0
 10
85.677600
 20
54.158900
 30
0.0
  0
SPLINE
  5
2a7
100
AcDbEntity
  8
0
 62
7
100
AcDbSpline
 70
8
 71
3
 72
8
 73
4
 74
0
 40
0
 40
0
 40
0
 40
0
 40
1
 40
1
 40
1
 40
1
 10
85.677600
 20
54.158900
 30
0.0
 10
85.524672
 20
54.222624
 30
0.0
 10
85.349040
 20
54.150321
 30
0.0
 10
85.285300
 20
53.997400
 30
0.0
  0
SPLINE
  5
2a8
100
AcDbEntity
  8
0
 62
7
100
AcDbSpline
 70
8
 71
3
 72
8
 73
4
 74
0
 40
0
 40
0
 40
0
 40
0
 40
1
 40
1
 40
1
 40
1
 10
80.131700
 20
41.628100
 30
0.0
 10
80.067976
 20
41.475172
 30
0.0
 10
80.140279
 20
41.299540
 30
0.0
 10
80.293200
 20
41.235800
 30
0.0
  0
SPLINE
  5
2a9
100
AcDbEntity
  8
0
 62
7
100
AcDbSpline
 70
8
 71
3
 72
8
 73
4
 74
0
 40
0
 40
0
 40
0
 40
0
 40
1
 40
1
 40
1
 40
1
 10
98.208500
 20
48.613000
 30
0.0
 10
98.239096
 20
48.686451
 30
0.0
 10
98.239259
 20
48.769049
 30
0.0
 10
98.208952
 20
48.842620
 30
0.0
  0
SPLINE
  5
2aa
100
AcDbEntity
  8
0
 62
7
100
AcDbSpline
 70
8
 71
3
 72
8
 73
4
 74
0
 40
0
 40
0
 40
0
 40
0
 40
1
 40
1
 40
1
 40
1
 10
98.208952
 20
48.842620
 30
0.0
 10
98.178646
 20
48.916192
 30
0.0
 10
98.120354
 20
48.974710
 30
0.0
 10
98.046900
 20
49.005300
 30
0.0
  0
SPLINE
  5
2ab
100
AcDbEntity
  8
0
 62
7
100
AcDbSpline
 70
8
 71
3
 72
8
 73
4
 74
0
 40
0
 40
0
 40
0
 40
0
 40
1
 40
1
 40
1
 40
1
 10
92.662500
 20
36.082100
 30
0.0
 10
92.735951
 20
36.051504
 30
0.0
 10
92.818549
 20
36.051341
 30
0.0
 10
92.892120
 20
36.081648
 30
0.0
  0
SPLINE
  5
2ac
100
AcDbEntity
  8
0
 62
7
100
AcDbSpline
 70
8
 71
3
 72
8
 73
4
 74
0
 40
0
 40
0
 40
0
 40
0
 40
1
 40
1
 40
1
 40
1
 10
92.892120
 20
36.081648
 30
0.0
 10
92.965692
 20
36.111954
 30
0.0
 10
93.024210
 20
36.170246
 30
0.0
 10
93.054800
 20
36.243700
 30
0.0
  0
SPLINE
  5
2ad
100
AcDbEntity
  8
0
 62
7
100
AcDbSpline
 70
8
 71
3
 72
8
 73
4
 74
0
 40
0
 40
0
 40
0
 40
0
 40
1
 40
1
 40
1
 40
1
 10
177.829600
 20
99.834700
 30
0.0
 10
177.384692
 20
99.834700
 30
0.0
 10
176.983592
 20
99.566694
 30
0.0
 10
176.813333
 20
99.155652
 30
0.0
  0
SPLINE
  5
2ae
100
AcDbEntity
  8
0
 62
7
100
AcDbSpline
 70
8
 71
3
 72
8
 73
4
 74
0
 40
0
 40
0
 40
0
 40
0
 40
1
 40
1
 40
1
 40
1
 10
176.813333
 20
99.155652
 30
0.0
 10
176.643073
 20
98.744610
 30
0.0
 10
176.737185
 20
98.271480
 30
0.0
 10
177.051783
 20
97.956883
 30
0.0
  0
SPLINE
  5
2af
100
AcDbEntity
  8
0
 62
7
100
AcDbSpline
 70
8
 71
3
 72
8
 73
4
 74
0
 40
0
 40
0
 40
0
 40
0
 40
1
 40
1
 40
1
 40
1
 10
177.051783
 20
97.956883
 30
0.0
 10
177.366380
 20
97.642285
 30
0.0
 10
177.839510
 20
97.548173
 30
0.0
 10
178.250552
 20
97.718433
 30
0.0
  0
SPLINE
  5
2b0
100
AcDbEntity
  8
0
 62
7
100
AcDbSpline
 70
8
 71
3
 72
8
 73
4
 74
0
 40
0
 40
0
 40
0
 40
0
 40
1
 40
1
 40
1
 40
1
 10
178.250552
 20
97.718433
 30
0.0
 10
178.661594
 20
97.888692
 30
0.0
 10
178.929600
 20
98.289792
 30
0.0
 10
178.929600
 20
98.734700
 30
0.0
  0
SPLINE
  5
2b1
100
AcDbEntity
  8
0
 62
7
100
AcDbSpline
 70
8
 71
3
 72
8
 73
4
 74
0
 40
0
 40
0
 40
0
 40
0
 40
1
 40
1
 40
1
 40
1
 10
178.929600
 20
98.734700
 30
0.0
 10
178.929600
 20
99.026438
 30
0.0
 10
178.813707
 20
99.306227
 30
0.0
 10
178.607417
 20
99.512517
 30
0.0
  0
SPLINE
  5
2b2
100
AcDbEntity
  8
0
 62
7
100
AcDbSpline
 70
8
 71
3
 72
8
 73
4
 74
0
 40
0
 40
0
 40
0
 40
0
 40
1
 40
1
 40
1
 40
1
 10
178.607417
 20
99.512517
 30
0.0
 10
178.401127
 20
99.718807
 30
0.0
 10
178.121338
 20
99.834700
 30
0.0
 10
177.829600
 20
99.834700
 30
0.0
  0
LWPOLYLINE
  5
2b3
100
AcDbEntity
  8
0
 62
7
100
AcDbPolyline
 90
2
 70
0
 10
93.054800
 20
36.243700
 30
0.0
 10
98.208500
 20
48.613000
 30
0.0
  0
SPLINE
  5
2b4
100
AcDbEntity
  8
0
 62
7
100
AcDbSpline
 70
8
 71
3
 72
8
 73
4
 74
0
 40
0
 40
0
 40
0
 40
0
 40
1
 40
1
 40
1
 40
1
 10
137.235000
 20
16.447800
 30
0.0
 10
134.403764
 20
16.447800
 30
0.0
 10
131.851310
 20
14.742305
 30
0.0
 10
130.767843
 20
12.126584
 30
0.0
  0
SPLINE
  5
2b5
100
AcDbEntity
  8
0
 62
7
100
AcDbSpline
 70
8
 71
3
 72
8
 73
4
 74
0
 40
0
 40
0
 40
0
 40
0
 40
1
 40
1
 40
1
 40
1
 10
130.767843
 20
12.126584
 30
0.0
 10
129.684376
 20
9.510863
 30
0.0
 10
130.283267
 20
6.500039
 30
0.0
 10
132.285253
 20
4.498053
 30
0.0
  0
SPLINE
  5
2b6
100
AcDbEntity
  8
0
 62
7
100
AcDbSpline
 70
8
 71
3
 72
8
 73
4
 74
0
 40
0
 40
0
 40
0
 40
0
 40
1
 40
1
 40
1
 40
1
 10
132.285253
 20
4.498053
 30
0.0
 10
134.287239
 20
2.496067
 30
0.0
 10
137.298063
 20
1.897176
 30
0.0
 10
139.913784
 20
2.980643
 30
0.0
  0
SPLINE
  5
2b7
100
AcDbEntity
  8
0
 62
7
100
AcDbSpline
 70
8
 71
3
 72
8
 73
4
 74
0
 40
0
 40
0
 40
0
 40
0
 40
1
 40
1
 40
1
 40
1
 10
139.913784
 20
2.980643
 30
0.0
 10
142.529505
 20
4.064110
 30
0.0
 10
144.235000
 20
6.616564
 30
0.0
 10
144.235000
 20
9.447800
 30
0.0
  0
SPLINE
  5
2b8
100
AcDbEntity
  8
0
 62
7
100
AcDbSpline
 70
8
 71
3
 72
8
 73
4
 74
0
 40
0
 40
0
 40
0
 40
0
 40
1
 40
1
 40
1
 40
1
 10
144.235000
 20
9.447800
 30
0.0
 10
144.235000
 20
11.304315
 30
0.0
 10
143.497502
 20
13.084793
 30
0.0
 10
142.184747
 20
14.397547
 30
0.0
  0
SPLINE
  5
2b9
100
AcDbEntity
  8
0
 62
7
100
AcDbSpline
 70
8
 71
3
 72
8
 73
4
 74
0
 40
0
 40
0
 40
0
 40
0
 40
1
 40
1
 40
1
 40
1
 10
142.184747
 20
14.397547
 30
0.0
 10
140.871993
 20
15.710302
 30
0.0
 10
139.091515
 20
16.447800
 30
0.0
 10
137.235000
 20
16.447800
 30
0.0
  0
LWPOLYLINE
  5
2ba
100
AcDbEntity
  8
0
 62
7
100
AcDbPolyline
 90
1
 70
1
 10
177.829600
 20
99.834700
 30
0.0
  0
LWPOLYLINE
  5
2bb
100
AcDbEntity
  8
0
 62
7
100
AcDbPolyline
 90
1
 70
1
 10
137.235000
 20
16.447800
 30
0.0
  0
LWPOLYLINE
  5
2bc
100
AcDbEntity
  8
0
 62
7
100
AcDbPolyline
 90
2
 70
0
 10
92.904800
 20
92.097500
 30
0.0
 10
87.751100
 20
79.728200
 30
0.0
  0
LWPOLYLINE
  5
2bd
100
AcDbEntity
  8
0
 62
7
100
AcDbPolyline
 90
2
 70
0
 10
87.912600
 20
79.335900
 30
0.0
 10
100.281900
 20
74.182200
 30
0.0
  0
LWPOLYLINE
  5
2be
100
AcDbEntity
  8
0
 62
7
100
AcDbPolyline
 90
2
 70
0
 10
105.666400
 20
87.105400
 30
0.0
 10
93.297100
 20
92.259000
 30
0.0
  0
SPLINE
  5
2bf
100
AcDbEntity
  8
0
 62
7
100
AcDbSpline
 70
8
 71
3
 72
8
 73
4
 74
0
 40
0
 40
0
 40
0
 40
0
 40
1
 40
1
 40
1
 40
1
 10
93.297100
 20
92.259000
 30
0.0
 10
93.144172
 20
92.322724
 30
0.0
 10
92.968540
 20
92.250421
 30
0.0
 10
92.904800
 20
92.097500
 30
0.0
  0
SPLINE
  5
2c0
100
AcDbEntity
  8
0
 62
7
100
AcDbSpline
 70
8
 71
3
 72
8
 73
4
 74
0
 40
0
 40
0
 40
0
 40
0
 40
1
 40
1
 40
1
 40
1
 10
87.751100
 20
79.728200
 30
0.0
 10
87.687376
 20
79.575272
 30
0.0
 10
87.759679
 20
79.399640
 30
0.0
 10
87.912600
 20
79.335900
 30
0.0
  0
SPLINE
  5
2c1
100
AcDbEntity
  8
0
 62
7
100
AcDbSpline
 70
8
 71
3
 72
8
 73
4
 74
0
 40
0
 40
0
 40
0
 40
0
 40
1
 40
1
 40
1
 40
1
 10
105.827900
 20
86.713100
 30
0.0
 10
105.891624
 20
86.866028
 30
0.0
 10
105.819321
 20
87.041660
 30
0.0
 10
105.666400
 20
87.105400
 30
0.0
  0
SPLINE
  5
2c2
100
AcDbEntity
  8
0
 62
7
100
AcDbSpline
 70
8
 71
3
 72
8
 73
4
 74
0
 40
0
 40
0
 40
0
 40
0
 40
1
 40
1
 40
1
 40
1
 10
100.281900
 20
74.182200
 30
0.0
 10
100.355363
 20
74.151573
 30
0.0
 10
100.437986
 20
74.151394
 30
0.0
 10
100.511581
 20
74.181702
 30
0.0
  0
SPLINE
  5
2c3
100
AcDbEntity
  8
0
 62
7
100
AcDbSpline
 70
8
 71
3
 72
8
 73
4
 74
0
 40
0
 40
0
 40
0
 40
0
 40
1
 40
1
 40
1
 40
1
 10
100.511581
 20
74.181702
 30
0.0
 10
100.585176
 20
74.212010
 30
0.0
 10
100.643710
 20
74.270321
 30
0.0
 10
100.674300
 20
74.343800
 30
0.0
  0
LWPOLYLINE
  5
2c4
100
AcDbEntity
  8
0
 62
7
100
AcDbPolyline
 90
2
 70
0
 10
100.674300
 20
74.343800
 30
0.0
 10
105.827900
 20
86.713100
 30
0.0
  0
LWPOLYLINE
  5
2c5
100
AcDbEntity
  8
0
 62
7
100
AcDbPolyline
 90
2
 70
0
 10
255.965000
 20
59.147800
 30
0.0
 10
255.965000
 20
45.747800
 30
0.0
  0
LWPOLYLINE
  5
2c6
100
AcDbEntity
  8
0
 62
7
100
AcDbPolyline
 90
2
 70
0
 10
256.265000
 20
45.447800
 30
0.0
 10
269.665000
 20
45.447800
 30
0.0
  0
LWPOLYLINE
  5
2c7
100
AcDbEntity
  8
0
 62
7
100
AcDbPolyline
 90
2
 70
0
 10
269.665000
 20
59.447800
 30
0.0
 10
256.265000
 20
59.447800
 30
0.0
  0
SPLINE
  5
2c8
100
AcDbEntity
  8
0
 62
7
100
AcDbSpline
 70
8
 71
3
 72
8
 73
4
 74
0
 40
0
 40
0
 40
0
 40
0
 40
1
 40
1
 40
1
 40
1
 10
256.265000
 20
59.447800
 30
0.0
 10
256.185435
 20
59.447800
 30
0.0
 10
256.109129
 20
59.416193
 30
0.0
 10
256.052868
 20
59.359932
 30
0.0
  0
SPLINE
  5
2c9
100
AcDbEntity
  8
0
 62
7
100
AcDbSpline
 70
8
 71
3
 72
8
 73
4
 74
0
 40
0
 40
0
 40
0
 40
0
 40
1
 40
1
 40
1
 40
1
 10
256.052868
 20
59.359932
 30
0.0
 10
255.996607
 20
59.303671
 30
0.0
 10
255.965000
 20
59.227365
 30
0.0
 10
255.965000
 20
59.147800
 30
0.0
  0
SPLINE
  5
2ca
100
AcDbEntity
  8
0
 62
7
100
AcDbSpline
 70
8
 71
3
 72
8
 73
4
 74
0
 40
0
 40
0
 40
0
 40
0
 40
1
 40
1
 40
1
 40
1
 10
255.965000
 20
45.747800
 30
0.0
 10
255.965000
 20
45.668235
 30
0.0
 10
255.996607
 20
45.591929
 30
0.0
 10
256.052868
 20
45.535668
 30
0.0
  0
SPLINE
  5
2cb
100
AcDbEntity
  8
0
 62
7
100
AcDbSpline
 70
8
 71
3
 72
8
 73
4
 74
0
 40
0
 40
0
 40
0
 40
0
 40
1
 40
1
 40
1
 40
1
 10
256.052868
 20
45.535668
 30
0.0
 10
256.109129
 20
45.479407
 30
0.0
 10
256.185435
 20
45.447800
 30
0.0
 10
256.265000
 20
45.447800
 30
0.0
  0
SPLINE
  5
2cc
100
AcDbEntity
  8
0
 62
7
100
AcDbSpline
 70
8
 71
3
 72
8
 73
4
 74
0
 40
0
 40
0
 40
0
 40
0
 40
1
 40
1
 40
1
 40
1
 10
269.965000
 20
59.147800
 30
0.0
 10
269.965000
 20
59.227365
 30
0.0
 10
269.933393
 20
59.303671
 30
0.0
 10
269.877132
 20
59.359932
 30
0.0
  0
SPLINE
  5
2cd
100
AcDbEntity
  8
0
 62
7
100
AcDbSpline
 70
8
 71
3
 72
8
 73
4
 74
0
 40
0
 40
0
 40
0
 40
0
 40
1
 40
1
 40
1
 40
1
 10
269.877132
 20
59.359932
 30
0.0
 10
269.820871
 20
59.416193
 30
0.0
 10
269.744565
 20
59.447800
 30
0.0
 10
269.665000
 20
59.447800
 30
0.0
  0
SPLINE
  5
2ce
100
AcDbEntity
  8
0
 62
7
100
AcDbSpline
 70
8
 71
3
 72
8
 73
4
 74
0
 40
0
 40
0
 40
0
 40
0
 40
1
 40
1
 40
1
 40
1
 10
269.665000
 20
45.447800
 30
0.0
 10
269.744565
 20
45.447800
 30
0.0
 10
269.820871
 20
45.479407
 30
0.0
 10
269.877132
 20
45.535668
 30
0.0
  0
SPLINE
  5
2cf
100
AcDbEntity
  8
0
 62
7
100
AcDbSpline
 70
8
 71
3
 72
8
 73
4
 74
0
 40
0
 40
0
 40
0
 40
0
 40
1
 40
1
 40
1
 40
1
 10
269.877132
 20
45.535668
 30
0.0
 10
269.933393
 20
45.591929
 30
0.0
 10
269.965000
 20
45.668235
 30
0.0
 10
269.965000
 20
45.747800
 30
0.0
  0
SPLINE
  5
2d0
100
AcDbEntity
  8
0
 62
7
100
AcDbSpline
 70
8
 71
3
 72
8
 73
4
 74
0
 40
0
 40
0
 40
0
 40
0
 40
1
 40
1
 40
1
 40
1
 10
28.650000
 20
96.410300
 30
0.0
 10
28.205092
 20
96.410300
 30
0.0
 10
27.803992
 20
96.142294
 30
0.0
 10
27.633733
 20
95.731252
 30
0.0
  0
SPLINE
  5
2d1
100
AcDbEntity
  8
0
 62
7
100
AcDbSpline
 70
8
 71
3
 72
8
 73
4
 74
0
 40
0
 40
0
 40
0
 40
0
 40
1
 40
1
 40
1
 40
1
 10
27.633733
 20
95.731252
 30
0.0
 10
27.463473
 20
95.320210
 30
0.0
 10
27.557585
 20
94.847080
 30
0.0
 10
27.872183
 20
94.532483
 30
0.0
  0
SPLINE
  5
2d2
100
AcDbEntity
  8
0
 62
7
100
AcDbSpline
 70
8
 71
3
 72
8
 73
4
 74
0
 40
0
 40
0
 40
0
 40
0
 40
1
 40
1
 40
1
 40
1
 10
27.872183
 20
94.532483
 30
0.0
 10
28.186780
 20
94.217885
 30
0.0
 10
28.659910
 20
94.123773
 30
0.0
 10
29.070952
 20
94.294033
 30
0.0
  0
SPLINE
  5
2d3
100
AcDbEntity
  8
0
 62
7
100
AcDbSpline
 70
8
 71
3
 72
8
 73
4
 74
0
 40
0
 40
0
 40
0
 40
0
 40
1
 40
1
 40
1
 40
1
 10
29.070952
 20
94.294033
 30
0.0
 10
29.481994
 20
94.464292
 30
0.0
 10
29.750000
 20
94.865392
 30
0.0
 10
29.750000
 20
95.310300
 30
0.0
  0
SPLINE
  5
2d4
100
AcDbEntity
  8
0
 62
7
100
AcDbSpline
 70
8
 71
3
 72
8
 73
4
 74
0
 40
0
 40
0
 40
0
 40
0
 40
1
 40
1
 40
1
 40
1
 10
29.750000
 20
95.310300
 30
0.0
 10
29.750000
 20
95.602038
 30
0.0
 10
29.634107
 20
95.881827
 30
0.0
 10
29.427817
 20
96.088117
 30
0.0
  0
SPLINE
  5
2d5
100
AcDbEntity
  8
0
 62
7
100
AcDbSpline
 70
8
 71
3
 72
8
 73
4
 74
0
 40
0
 40
0
 40
0
 40
0
 40
1
 40
1
 40
1
 40
1
 10
29.427817
 20
96.088117
 30
0.0
 10
29.221527
 20
96.294407
 30
0.0
 10
28.941738
 20
96.410300
 30
0.0
 10
28.650000
 20
96.410300
 30
0.0
  0
LWPOLYLINE
  5
2d6
100
AcDbEntity
  8
0
 62
7
100
AcDbPolyline
 90
2
 70
0
 10
269.965000
 20
45.747800
 30
0.0
 10
269.965000
 20
59.147800
 30
0.0
  0
LWPOLYLINE
  5
2d7
100
AcDbEntity
  8
0
 62
7
100
AcDbPolyline
 90
1
 70
1
 10
28.650000
 20
96.410300
 30
0.0
  0
LWPOLYLINE
  5
2d8
100
AcDbEntity
  8
0
 62
7
100
AcDbPolyline
 90
2
 70
0
 10
168.642100
 20
86.713100
 30
0.0
 10
173.795700
 20
74.343800
 30
0.0
  0
LWPOLYLINE
  5
2d9
100
AcDbEntity
  8
0
 62
7
100
AcDbPolyline
 90
2
 70
0
 10
174.188100
 20
74.182200
 30
0.0
 10
186.557400
 20
79.335900
 30
0.0
  0
LWPOLYLINE
  5
2da
100
AcDbEntity
  8
0
 62
7
100
AcDbPolyline
 90
2
 70
0
 10
181.172900
 20
92.259000
 30
0.0
 10
168.803600
 20
87.105400
 30
0.0
  0
SPLINE
  5
2db
100
AcDbEntity
  8
0
 62
7
100
AcDbSpline
 70
8
 71
3
 72
8
 73
4
 74
0
 40
0
 40
0
 40
0
 40
0
 40
1
 40
1
 40
1
 40
1
 10
168.803600
 20
87.105400
 30
0.0
 10
168.650679
 20
87.041660
 30
0.0
 10
168.578376
 20
86.866028
 30
0.0
 10
168.642100
 20
86.713100
 30
0.0
  0
SPLINE
  5
2dc
100
AcDbEntity
  8
0
 62
7
100
AcDbSpline
 70
8
 71
3
 72
8
 73
4
 74
0
 40
0
 40
0
 40
0
 40
0
 40
1
 40
1
 40
1
 40
1
 10
173.795700
 20
74.343800
 30
0.0
 10
173.826290
 20
74.270321
 30
0.0
 10
173.884824
 20
74.212010
 30
0.0
 10
173.958419
 20
74.181702
 30
0.0
  0
SPLINE
  5
2dd
100
AcDbEntity
  8
0
 62
7
100
AcDbSpline
 70
8
 71
3
 72
8
 73
4
 74
0
 40
0
 40
0
 40
0
 40
0
 40
1
 40
1
 40
1
 40
1
 10
173.958419
 20
74.181702
 30
0.0
 10
174.032014
 20
74.151394
 30
0.0
 10
174.114637
 20
74.151573
 30
0.0
 10
174.188100
 20
74.182200
 30
0.0
  0
SPLINE
  5
2de
100
AcDbEntity
  8
0
 62
7
100
AcDbSpline
 70
8
 71
3
 72
8
 73
4
 74
0
 40
0
 40
0
 40
0
 40
0
 40
1
 40
1
 40
1
 40
1
 10
181.565200
 20
92.097500
 30
0.0
 10
181.501460
 20
92.250421
 30
0.0
 10
181.325828
 20
92.322724
 30
0.0
 10
181.172900
 20
92.259000
 30
0.0
  0
SPLINE
  5
2df
100
AcDbEntity
  8
0
 62
7
100
AcDbSpline
 70
8
 71
3
 72
8
 73
4
 74
0
 40
0
 40
0
 40
0
 40
0
 40
1
 40
1
 40
1
 40
1
 10
186.557400
 20
79.335900
 30
0.0
 10
186.710321
 20
79.399640
 30
0.0
 10
186.782624
 20
79.575272
 30
0.0
 10
186.718900
 20
79.728200
 30
0.0
  0
LWPOLYLINE
  5
2e0
100
AcDbEntity
  8
0
 62
7
100
AcDbPolyline
 90
2
 70
0
 10
186.718900
 20
79.728200
 30
0.0
 10
181.565200
 20
92.097500
 30
0.0
  0
LWPOLYLINE
  5
2e1
100
AcDbEntity
  8
0
 62
7
100
AcDbPolyline
 90
2
 70
0
 10
158.676800
 20
41.286300
 30
0.0
 10
163.830400
 20
28.917000
 30
0.0
  0
LWPOLYLINE
  5
2e2
100
AcDbEntity
  8
0
 62
7
100
AcDbPolyline
 90
2
 70
0
 10
164.222700
 20
28.755500
 30
0.0
 10
176.592100
 20
33.909100
 30
0.0
  0
LWPOLYLINE
  5
2e3
100
AcDbEntity
  8
0
 62
7
100
AcDbPolyline
 90
2
 70
0
 10
171.207600
 20
46.832300
 30
0.0
 10
158.838300
 20
41.678600
 30
0.0
  0
SPLINE
  5
2e4
100
AcDbEntity
  8
0
 62
7
100
AcDbSpline
 70
8
 71
3
 72
8
 73
4
 74
0
 40
0
 40
0
 40
0
 40
0
 40
1
 40
1
 40
1
 40
1
 10
158.838300
 20
41.678600
 30
0.0
 10
158.685379
 20
41.614860
 30
0.0
 10
158.613076
 20
41.439228
 30
0.0
 10
158.676800
 20
41.286300
 30
0.0
  0
SPLINE
  5
2e5
100
AcDbEntity
  8
0
 62
7
100
AcDbSpline
 70
8
 71
3
 72
8
 73
4
 74
0
 40
0
 40
0
 40
0
 40
0
 40
1
 40
1
 40
1
 40
1
 10
163.830400
 20
28.917000
 30
0.0
 10
163.894140
 20
28.764079
 30
0.0
 10
164.069772
 20
28.691776
 30
0.0
 10
164.222700
 20
28.755500
 30
0.0
  0
SPLINE
  5
2e6
100
AcDbEntity
  8
0
 62
7
100
AcDbSpline
 70
8
 71
3
 72
8
 73
4
 74
0
 40
0
 40
0
 40
0
 40
0
 40
1
 40
1
 40
1
 40
1
 10
171.599900
 20
46.670700
 30
0.0
 10
171.569310
 20
46.744154
 30
0.0
 10
171.510792
 20
46.802446
 30
0.0
 10
171.437220
 20
46.832752
 30
0.0
  0
SPLINE
  5
2e7
100
AcDbEntity
  8
0
 62
7
100
AcDbSpline
 70
8
 71
3
 72
8
 73
4
 74
0
 40
0
 40
0
 40
0
 40
0
 40
1
 40
1
 40
1
 40
1
 10
171.437220
 20
46.832752
 30
0.0
 10
171.363649
 20
46.863059
 30
0.0
 10
171.281051
 20
46.862896
 30
0.0
 10
171.207600
 20
46.832300
 30
0.0
  0
SPLINE
  5
2e8
100
AcDbEntity
  8
0
 62
7
100
AcDbSpline
 70
8
 71
3
 72
8
 73
4
 74
0
 40
0
 40
0
 40
0
 40
0
 40
1
 40
1
 40
1
 40
1
 10
176.592100
 20
33.909100
 30
0.0
 10
176.745021
 20
33.972840
 30
0.0
 10
176.817324
 20
34.148472
 30
0.0
 10
176.753600
 20
34.301400
 30
0.0
  0
SPLINE
  5
2e9
100
AcDbEntity
  8
0
 62
7
100
AcDbSpline
 70
8
 71
3
 72
8
 73
4
 74
0
 40
0
 40
0
 40
0
 40
0
 40
1
 40
1
 40
1
 40
1
 10
19.696000
 20
44.022800
 30
0.0
 10
19.251092
 20
44.022800
 30
0.0
 10
18.849992
 20
43.754794
 30
0.0
 10
18.679733
 20
43.343752
 30
0.0
  0
SPLINE
  5
2ea
100
AcDbEntity
  8
0
 62
7
100
AcDbSpline
 70
8
 71
3
 72
8
 73
4
 74
0
 40
0
 40
0
 40
0
 40
0
 40
1
 40
1
 40
1
 40
1
 10
18.679733
 20
43.343752
 30
0.0
 10
18.509473
 20
42.932710
 30
0.0
 10
18.603585
 20
42.459580
 30
0.0
 10
18.918183
 20
42.144983
 30
0.0
  0
SPLINE
  5
2eb
100
AcDbEntity
  8
0
 62
7
100
AcDbSpline
 70
8
 71
3
 72
8
 73
4
 74
0
 40
0
 40
0
 40
0
 40
0
 40
1
 40
1
 40
1
 40
1
 10
18.918183
 20
42.144983
 30
0.0
 10
19.232780
 20
41.830385
 30
0.0
 10
19.705910
 20
41.736273
 30
0.0
 10
20.116952
 20
41.906533
 30
0.0
  0
SPLINE
  5
2ec
100
AcDbEntity
  8
0
 62
7
100
AcDbSpline
 70
8
 71
3
 72
8
 73
4
 74
0
 40
0
 40
0
 40
0
 40
0
 40
1
 40
1
 40
1
 40
1
 10
20.116952
 20
41.906533
 30
0.0
 10
20.527994
 20
42.076792
 30
0.0
 10
20.796000
 20
42.477892
 30
0.0
 10
20.796000
 20
42.922800
 30
0.0
  0
SPLINE
  5
2ed
100
AcDbEntity
  8
0
 62
7
100
AcDbSpline
 70
8
 71
3
 72
8
 73
4
 74
0
 40
0
 40
0
 40
0
 40
0
 40
1
 40
1
 40
1
 40
1
 10
20.796000
 20
42.922800
 30
0.0
 10
20.796000
 20
43.214538
 30
0.0
 10
20.680107
 20
43.494327
 30
0.0
 10
20.473817
 20
43.700617
 30
0.0
  0
SPLINE
  5
2ee
100
AcDbEntity
  8
0
 62
7
100
AcDbSpline
 70
8
 71
3
 72
8
 73
4
 74
0
 40
0
 40
0
 40
0
 40
0
 40
1
 40
1
 40
1
 40
1
 10
20.473817
 20
43.700617
 30
0.0
 10
20.267527
 20
43.906907
 30
0.0
 10
19.987738
 20
44.022800
 30
0.0
 10
19.696000
 20
44.022800
 30
0.0
  0
LWPOLYLINE
  5
2ef
100
AcDbEntity
  8
0
 62
7
100
AcDbPolyline
 90
2
 70
0
 10
176.753600
 20
34.301400
 30
0.0
 10
171.599900
 20
46.670700
 30
0.0
  0
LWPOLYLINE
  5
2f0
100
AcDbEntity
  8
0
 62
7
100
AcDbPolyline
 90
1
 70
1
 10
19.696000
 20
44.022800
 30
0.0
  0
LWPOLYLINE
  5
2f1
100
AcDbEntity
  8
0
 62
7
100
AcDbPolyline
 90
2
 70
0
 10
252.155000
 20
78.197800
 30
0.0
 10
252.155000
 20
64.797800
 30
0.0
  0
LWPOLYLINE
  5
2f2
100
AcDbEntity
  8
0
 62
7
100
AcDbPolyline
 90
2
 70
0
 10
252.455000
 20
64.497800
 30
0.0
 10
265.855000
 20
64.497800
 30
0.0
  0
LWPOLYLINE
  5
2f3
100
AcDbEntity
  8
0
 62
7
100
AcDbPolyline
 90
2
 70
0
 10
265.855000
 20
78.497800
 30
0.0
 10
252.455000
 20
78.497800
 30
0.0
  0
SPLINE
  5
2f4
100
AcDbEntity
  8
0
 62
7
100
AcDbSpline
 70
8
 71
3
 72
8
 73
4
 74
0
 40
0
 40
0
 40
0
 40
0
 40
1
 40
1
 40
1
 40
1
 10
252.455000
 20
78.497800
 30
0.0
 10
252.375435
 20
78.497800
 30
0.0
 10
252.299129
 20
78.466193
 30
0.0
 10
252.242868
 20
78.409932
 30
0.0
  0
SPLINE
  5
2f5
100
AcDbEntity
  8
0
 62
7
100
AcDbSpline
 70
8
 71
3
 72
8
 73
4
 74
0
 40
0
 40
0
 40
0
 40
0
 40
1
 40
1
 40
1
 40
1
 10
252.242868
 20
78.409932
 30
0.0
 10
252.186607
 20
78.353671
 30
0.0
 10
252.155000
 20
78.277365
 30
0.0
 10
252.155000
 20
78.197800
 30
0.0
  0
SPLINE
  5
2f6
100
AcDbEntity
  8
0
 62
7
100
AcDbSpline
 70
8
 71
3
 72
8
 73
4
 74
0
 40
0
 40
0
 40
0
 40
0
 40
1
 40
1
 40
1
 40
1
 10
252.155000
 20
64.797800
 30
0.0
 10
252.155000
 20
64.718235
 30
0.0
 10
252.186607
 20
64.641929
 30
0.0
 10
252.242868
 20
64.585668
 30
0.0
  0
SPLINE
  5
2f7
100
AcDbEntity
  8
0
 62
7
100
AcDbSpline
 70
8
 71
3
 72
8
 73
4
 74
0
 40
0
 40
0
 40
0
 40
0
 40
1
 40
1
 40
1
 40
1
 10
252.242868
 20
64.585668
 30
0.0
 10
252.299129
 20
64.529407
 30
0.0
 10
252.375435
 20
64.497800
 30
0.0
 10
252.455000
 20
64.497800
 30
0.0
  0
SPLINE
  5
2f8
100
AcDbEntity
  8
0
 62
7
100
AcDbSpline
 70
8
 71
3
 72
8
 73
4
 74
0
 40
0
 40
0
 40
0
 40
0
 40
1
 40
1
 40
1
 40
1
 10
266.155000
 20
78.197800
 30
0.0
 10
266.155000
 20
78.277365
 30
0.0
 10
266.123393
 20
78.353671
 30
0.0
 10
266.067132
 20
78.409932
 30
0.0
  0
SPLINE
  5
2f9
100
AcDbEntity
  8
0
 62
7
100
AcDbSpline
 70
8
 71
3
 72
8
 73
4
 74
0
 40
0
 40
0
 40
0
 40
0
 40
1
 40
1
 40
1
 40
1
 10
266.067132
 20
78.409932
 30
0.0
 10
266.010871
 20
78.466193
 30
0.0
 10
265.934565
 20
78.497800
 30
0.0
 10
265.855000
 20
78.497800
 30
0.0
  0
SPLINE
  5
2fa
100
AcDbEntity
  8
0
 62
7
100
AcDbSpline
 70
8
 71
3
 72
8
 73
4
 74
0
 40
0
 40
0
 40
0
 40
0
 40
1
 40
1
 40
1
 40
1
 10
265.855000
 20
64.497800
 30
0.0
 10
265.934565
 20
64.497800
 30
0.0
 10
266.010871
 20
64.529407
 30
0.0
 10
266.067132
 20
64.585668
 30
0.0
  0
SPLINE
  5
2fb
100
AcDbEntity
  8
0
 62
7
100
AcDbSpline
 70
8
 71
3
 72
8
 73
4
 74
0
 40
0
 40
0
 40
0
 40
0
 40
1
 40
1
 40
1
 40
1
 10
266.067132
 20
64.585668
 30
0.0
 10
266.123393
 20
64.641929
 30
0.0
 10
266.155000
 20
64.718235
 30
0.0
 10
266.155000
 20
64.797800
 30
0.0
  0
LWPOLYLINE
  5
2fc
100
AcDbEntity
  8
0
 62
7
100
AcDbPolyline
 90
2
 70
0
 10
266.155000
 20
64.797800
 30
0.0
 10
266.155000
 20
78.197800
 30
0.0
  0
LWPOLYLINE
  5
2fd
100
AcDbEntity
  8
0
 62
7
100
AcDbPolyline
 90
2
 70
0
 10
214.055000
 20
78.197800
 30
0.0
 10
214.055000
 20
64.797800
 30
0.0
  0
LWPOLYLINE
  5
2fe
100
AcDbEntity
  8
0
 62
7
100
AcDbPolyline
 90
2
 70
0
 10
214.355000
 20
64.497800
 30
0.0
 10
227.755000
 20
64.497800
 30
0.0
  0
LWPOLYLINE
  5
2ff
100
AcDbEntity
  8
0
 62
7
100
AcDbPolyline
 90
2
 70
0
 10
227.755000
 20
78.497800
 30
0.0
 10
214.355000
 20
78.497800
 30
0.0
  0
SPLINE
  5
300
100
AcDbEntity
  8
0
 62
7
100
AcDbSpline
 70
8
 71
3
 72
8
 73
4
 74
0
 40
0
 40
0
 40
0
 40
0
 40
1
 40
1
 40
1
 40
1
 10
214.355000
 20
78.497800
 30
0.0
 10
214.275435
 20
78.497800
 30
0.0
 10
214.199129
 20
78.466193
 30
0.0
 10
214.142868
 20
78.409932
 30
0.0
  0
SPLINE
  5
301
100
AcDbEntity
  8
0
 62
7
100
AcDbSpline
 70
8
 71
3
 72
8
 73
4
 74
0
 40
0
 40
0
 40
0
 40
0
 40
1
 40
1
 40
1
 40
1
 10
214.142868
 20
78.409932
 30
0.0
 10
214.086607
 20
78.353671
 30
0.0
 10
214.055000
 20
78.277365
 30
0.0
 10
214.055000
 20
78.197800
 30
0.0
  0
SPLINE
  5
302
100
AcDbEntity
  8
0
 62
7
100
AcDbSpline
 70
8
 71
3
 72
8
 73
4
 74
0
 40
0
 40
0
 40
0
 40
0
 40
1
 40
1
 40
1
 40
1
 10
214.055000
 20
64.797800
 30
0.0
 10
214.055000
 20
64.718235
 30
0.0
 10
214.086607
 20
64.641929
 30
0.0
 10
214.142868
 20
64.585668
 30
0.0
  0
SPLINE
  5
303
100
AcDbEntity
  8
0
 62
7
100
AcDbSpline
 70
8
 71
3
 72
8
 73
4
 74
0
 40
0
 40
0
 40
0
 40
0
 40
1
 40
1
 40
1
 40
1
 10
214.142868
 20
64.585668
 30
0.0
 10
214.199129
 20
64.529407
 30
0.0
 10
214.275435
 20
64.497800
 30
0.0
 10
214.355000
 20
64.497800
 30
0.0
  0
SPLINE
  5
304
100
AcDbEntity
  8
0
 62
7
100
AcDbSpline
 70
8
 71
3
 72
8
 73
4
 74
0
 40
0
 40
0
 40
0
 40
0
 40
1
 40
1
 40
1
 40
1
 10
228.055000
 20
78.197800
 30
0.0
 10
228.055000
 20
78.277365
 30
0.0
 10
228.023393
 20
78.353671
 30
0.0
 10
227.967132
 20
78.409932
 30
0.0
  0
SPLINE
  5
305
100
AcDbEntity
  8
0
 62
7
100
AcDbSpline
 70
8
 71
3
 72
8
 73
4
 74
0
 40
0
 40
0
 40
0
 40
0
 40
1
 40
1
 40
1
 40
1
 10
227.967132
 20
78.409932
 30
0.0
 10
227.910871
 20
78.466193
 30
0.0
 10
227.834565
 20
78.497800
 30
0.0
 10
227.755000
 20
78.497800
 30
0.0
  0
SPLINE
  5
306
100
AcDbEntity
  8
0
 62
7
100
AcDbSpline
 70
8
 71
3
 72
8
 73
4
 74
0
 40
0
 40
0
 40
0
 40
0
 40
1
 40
1
 40
1
 40
1
 10
227.755000
 20
64.497800
 30
0.0
 10
227.834565
 20
64.497800
 30
0.0
 10
227.910871
 20
64.529407
 30
0.0
 10
227.967132
 20
64.585668
 30
0.0
  0
SPLINE
  5
307
100
AcDbEntity
  8
0
 62
7
100
AcDbSpline
 70
8
 71
3
 72
8
 73
4
 74
0
 40
0
 40
0
 40
0
 40
0
 40
1
 40
1
 40
1
 40
1
 10
227.967132
 20
64.585668
 30
0.0
 10
228.023393
 20
64.641929
 30
0.0
 10
228.055000
 20
64.718235
 30
0.0
 10
228.055000
 20
64.797800
 30
0.0
  0
LWPOLYLINE
  5
308
100
AcDbEntity
  8
0
 62
7
100
AcDbPolyline
 90
2
 70
0
 10
228.055000
 20
64.797800
 30
0.0
 10
228.055000
 20
78.197800
 30
0.0
  0
LWPOLYLINE
  5
309
100
AcDbEntity
  8
0
 62
7
100
AcDbPolyline
 90
2
 70
0
 10
193.846200
 20
55.939600
 30
0.0
 10
198.999900
 20
43.570300
 30
0.0
  0
LWPOLYLINE
  5
30a
100
AcDbEntity
  8
0
 62
7
100
AcDbPolyline
 90
2
 70
0
 10
199.392200
 20
43.408800
 30
0.0
 10
211.761500
 20
48.562400
 30
0.0
  0
LWPOLYLINE
  5
30b
100
AcDbEntity
  8
0
 62
7
100
AcDbPolyline
 90
2
 70
0
 10
206.377100
 20
61.485600
 30
0.0
 10
194.007800
 20
56.331900
 30
0.0
  0
SPLINE
  5
30c
100
AcDbEntity
  8
0
 62
7
100
AcDbSpline
 70
8
 71
3
 72
8
 73
4
 74
0
 40
0
 40
0
 40
0
 40
0
 40
1
 40
1
 40
1
 40
1
 10
194.007800
 20
56.331900
 30
0.0
 10
193.934346
 20
56.301310
 30
0.0
 10
193.876054
 20
56.242792
 30
0.0
 10
193.845748
 20
56.169220
 30
0.0
  0
SPLINE
  5
30d
100
AcDbEntity
  8
0
 62
7
100
AcDbSpline
 70
8
 71
3
 72
8
 73
4
 74
0
 40
0
 40
0
 40
0
 40
0
 40
1
 40
1
 40
1
 40
1
 10
193.845748
 20
56.169220
 30
0.0
 10
193.815441
 20
56.095649
 30
0.0
 10
193.815604
 20
56.013051
 30
0.0
 10
193.846200
 20
55.939600
 30
0.0
  0
SPLINE
  5
30e
100
AcDbEntity
  8
0
 62
7
100
AcDbSpline
 70
8
 71
3
 72
8
 73
4
 74
0
 40
0
 40
0
 40
0
 40
0
 40
1
 40
1
 40
1
 40
1
 10
198.999900
 20
43.570300
 30
0.0
 10
199.063640
 20
43.417379
 30
0.0
 10
199.239272
 20
43.345076
 30
0.0
 10
199.392200
 20
43.408800
 30
0.0
  0
SPLINE
  5
30f
100
AcDbEntity
  8
0
 62
7
100
AcDbSpline
 70
8
 71
3
 72
8
 73
4
 74
0
 40
0
 40
0
 40
0
 40
0
 40
1
 40
1
 40
1
 40
1
 10
206.769400
 20
61.324000
 30
0.0
 10
206.738810
 20
61.397454
 30
0.0
 10
206.680292
 20
61.455746
 30
0.0
 10
206.606720
 20
61.486052
 30
0.0
  0
SPLINE
  5
310
100
AcDbEntity
  8
0
 62
7
100
AcDbSpline
 70
8
 71
3
 72
8
 73
4
 74
0
 40
0
 40
0
 40
0
 40
0
 40
1
 40
1
 40
1
 40
1
 10
206.606720
 20
61.486052
 30
0.0
 10
206.533149
 20
61.516359
 30
0.0
 10
206.450551
 20
61.516196
 30
0.0
 10
206.377100
 20
61.485600
 30
0.0
  0
SPLINE
  5
311
100
AcDbEntity
  8
0
 62
7
100
AcDbSpline
 70
8
 71
3
 72
8
 73
4
 74
0
 40
0
 40
0
 40
0
 40
0
 40
1
 40
1
 40
1
 40
1
 10
211.761500
 20
48.562400
 30
0.0
 10
211.834954
 20
48.592990
 30
0.0
 10
211.893246
 20
48.651508
 30
0.0
 10
211.923552
 20
48.725080
 30
0.0
  0
SPLINE
  5
312
100
AcDbEntity
  8
0
 62
7
100
AcDbSpline
 70
8
 71
3
 72
8
 73
4
 74
0
 40
0
 40
0
 40
0
 40
0
 40
1
 40
1
 40
1
 40
1
 10
211.923552
 20
48.725080
 30
0.0
 10
211.953859
 20
48.798651
 30
0.0
 10
211.953696
 20
48.881249
 30
0.0
 10
211.923100
 20
48.954700
 30
0.0
  0
SPLINE
  5
313
100
AcDbEntity
  8
0
 62
7
100
AcDbSpline
 70
8
 71
3
 72
8
 73
4
 74
0
 40
0
 40
0
 40
0
 40
0
 40
1
 40
1
 40
1
 40
1
 10
254.774000
 20
44.022800
 30
0.0
 10
254.329092
 20
44.022800
 30
0.0
 10
253.927992
 20
43.754794
 30
0.0
 10
253.757733
 20
43.343752
 30
0.0
  0
SPLINE
  5
314
100
AcDbEntity
  8
0
 62
7
100
AcDbSpline
 70
8
 71
3
 72
8
 73
4
 74
0
 40
0
 40
0
 40
0
 40
0
 40
1
 40
1
 40
1
 40
1
 10
253.757733
 20
43.343752
 30
0.0
 10
253.587473
 20
42.932710
 30
0.0
 10
253.681585
 20
42.459580
 30
0.0
 10
253.996183
 20
42.144983
 30
0.0
  0
SPLINE
  5
315
100
AcDbEntity
  8
0
 62
7
100
AcDbSpline
 70
8
 71
3
 72
8
 73
4
 74
0
 40
0
 40
0
 40
0
 40
0
 40
1
 40
1
 40
1
 40
1
 10
253.996183
 20
42.144983
 30
0.0
 10
254.310780
 20
41.830385
 30
0.0
 10
254.783910
 20
41.736273
 30
0.0
 10
255.194952
 20
41.906533
 30
0.0
  0
SPLINE
  5
316
100
AcDbEntity
  8
0
 62
7
100
AcDbSpline
 70
8
 71
3
 72
8
 73
4
 74
0
 40
0
 40
0
 40
0
 40
0
 40
1
 40
1
 40
1
 40
1
 10
255.194952
 20
41.906533
 30
0.0
 10
255.605994
 20
42.076792
 30
0.0
 10
255.874000
 20
42.477892
 30
0.0
 10
255.874000
 20
42.922800
 30
0.0
  0
SPLINE
  5
317
100
AcDbEntity
  8
0
 62
7
100
AcDbSpline
 70
8
 71
3
 72
8
 73
4
 74
0
 40
0
 40
0
 40
0
 40
0
 40
1
 40
1
 40
1
 40
1
 10
255.874000
 20
42.922800
 30
0.0
 10
255.874000
 20
43.214538
 30
0.0
 10
255.758107
 20
43.494327
 30
0.0
 10
255.551817
 20
43.700617
 30
0.0
  0
SPLINE
  5
318
100
AcDbEntity
  8
0
 62
7
100
AcDbSpline
 70
8
 71
3
 72
8
 73
4
 74
0
 40
0
 40
0
 40
0
 40
0
 40
1
 40
1
 40
1
 40
1
 10
255.551817
 20
43.700617
 30
0.0
 10
255.345527
 20
43.906907
 30
0.0
 10
255.065738
 20
44.022800
 30
0.0
 10
254.774000
 20
44.022800
 30
0.0
  0
LWPOLYLINE
  5
319
100
AcDbEntity
  8
0
 62
7
100
AcDbPolyline
 90
2
 70
0
 10
211.923100
 20
48.954700
 30
0.0
 10
206.769400
 20
61.324000
 30
0.0
  0
SPLINE
  5
31a
100
AcDbEntity
  8
0
 62
7
100
AcDbSpline
 70
8
 71
3
 72
8
 73
4
 74
0
 40
0
 40
0
 40
0
 40
0
 40
1
 40
1
 40
1
 40
1
 10
150.158200
 20
37.332200
 30
0.0
 10
147.326964
 20
37.332200
 30
0.0
 10
144.774510
 20
35.626705
 30
0.0
 10
143.691043
 20
33.010984
 30
0.0
  0
SPLINE
  5
31b
100
AcDbEntity
  8
0
 62
7
100
AcDbSpline
 70
8
 71
3
 72
8
 73
4
 74
0
 40
0
 40
0
 40
0
 40
0
 40
1
 40
1
 40
1
 40
1
 10
143.691043
 20
33.010984
 30
0.0
 10
142.607576
 20
30.395263
 30
0.0
 10
143.206467
 20
27.384439
 30
0.0
 10
145.208453
 20
25.382453
 30
0.0
  0
SPLINE
  5
31c
100
AcDbEntity
  8
0
 62
7
100
AcDbSpline
 70
8
 71
3
 72
8
 73
4
 74
0
 40
0
 40
0
 40
0
 40
0
 40
1
 40
1
 40
1
 40
1
 10
145.208453
 20
25.382453
 30
0.0
 10
147.210439
 20
23.380467
 30
0.0
 10
150.221263
 20
22.781576
 30
0.0
 10
152.836984
 20
23.865043
 30
0.0
  0
SPLINE
  5
31d
100
AcDbEntity
  8
0
 62
7
100
AcDbSpline
 70
8
 71
3
 72
8
 73
4
 74
0
 40
0
 40
0
 40
0
 40
0
 40
1
 40
1
 40
1
 40
1
 10
152.836984
 20
23.865043
 30
0.0
 10
155.452705
 20
24.948510
 30
0.0
 10
157.158200
 20
27.500964
 30
0.0
 10
157.158200
 20
30.332200
 30
0.0
  0
SPLINE
  5
31e
100
AcDbEntity
  8
0
 62
7
100
AcDbSpline
 70
8
 71
3
 72
8
 73
4
 74
0
 40
0
 40
0
 40
0
 40
0
 40
1
 40
1
 40
1
 40
1
 10
157.158200
 20
30.332200
 30
0.0
 10
157.158200
 20
32.188715
 30
0.0
 10
156.420702
 20
33.969193
 30
0.0
 10
155.107947
 20
35.281947
 30
0.0
  0
SPLINE
  5
31f
100
AcDbEntity
  8
0
 62
7
100
AcDbSpline
 70
8
 71
3
 72
8
 73
4
 74
0
 40
0
 40
0
 40
0
 40
0
 40
1
 40
1
 40
1
 40
1
 10
155.107947
 20
35.281947
 30
0.0
 10
153.795193
 20
36.594702
 30
0.0
 10
152.014715
 20
37.332200
 30
0.0
 10
150.158200
 20
37.332200
 30
0.0
  0
LWPOLYLINE
  5
320
100
AcDbEntity
  8
0
 62
7
100
AcDbPolyline
 90
1
 70
1
 10
254.774000
 20
44.022800
 30
0.0
  0
LWPOLYLINE
  5
321
100
AcDbEntity
  8
0
 62
7
100
AcDbPolyline
 90
1
 70
1
 10
150.158200
 20
37.332200
 30
0.0
  0
LWPOLYLINE
  5
322
100
AcDbEntity
  8
0
 62
7
100
AcDbPolyline
 90
2
 70
0
 10
42.605000
 20
59.147800
 30
0.0
 10
42.605000
 20
45.747800
 30
0.0
  0
LWPOLYLINE
  5
323
100
AcDbEntity
  8
0
 62
7
100
AcDbPolyline
 90
2
 70
0
 10
42.905000
 20
45.447800
 30
0.0
 10
56.305000
 20
45.447800
 30
0.0
  0
LWPOLYLINE
  5
324
100
AcDbEntity
  8
0
 62
7
100
AcDbPolyline
 90
2
 70
0
 10
56.305000
 20
59.447800
 30
0.0
 10
42.905000
 20
59.447800
 30
0.0
  0
SPLINE
  5
325
100
AcDbEntity
  8
0
 62
7
100
AcDbSpline
 70
8
 71
3
 72
8
 73
4
 74
0
 40
0
 40
0
 40
0
 40
0
 40
1
 40
1
 40
1
 40
1
 10
42.905000
 20
59.447800
 30
0.0
 10
42.825435
 20
59.447800
 30
0.0
 10
42.749129
 20
59.416193
 30
0.0
 10
42.692868
 20
59.359932
 30
0.0
  0
SPLINE
  5
326
100
AcDbEntity
  8
0
 62
7
100
AcDbSpline
 70
8
 71
3
 72
8
 73
4
 74
0
 40
0
 40
0
 40
0
 40
0
 40
1
 40
1
 40
1
 40
1
 10
42.692868
 20
59.359932
 30
0.0
 10
42.636607
 20
59.303671
 30
0.0
 10
42.605000
 20
59.227365
 30
0.0
 10
42.605000
 20
59.147800
 30
0.0
  0
SPLINE
  5
327
100
AcDbEntity
  8
0
 62
7
100
AcDbSpline
 70
8
 71
3
 72
8
 73
4
 74
0
 40
0
 40
0
 40
0
 40
0
 40
1
 40
1
 40
1
 40
1
 10
42.605000
 20
45.747800
 30
0.0
 10
42.605000
 20
45.668235
 30
0.0
 10
42.636607
 20
45.591929
 30
0.0
 10
42.692868
 20
45.535668
 30
0.0
  0
SPLINE
  5
328
100
AcDbEntity
  8
0
 62
7
100
AcDbSpline
 70
8
 71
3
 72
8
 73
4
 74
0
 40
0
 40
0
 40
0
 40
0
 40
1
 40
1
 40
1
 40
1
 10
42.692868
 20
45.535668
 30
0.0
 10
42.749129
 20
45.479407
 30
0.0
 10
42.825435
 20
45.447800
 30
0.0
 10
42.905000
 20
45.447800
 30
0.0
  0
SPLINE
  5
329
100
AcDbEntity
  8
0
 62
7
100
AcDbSpline
 70
8
 71
3
 72
8
 73
4
 74
0
 40
0
 40
0
 40
0
 40
0
 40
1
 40
1
 40
1
 40
1
 10
56.605000
 20
59.147800
 30
0.0
 10
56.605000
 20
59.227365
 30
0.0
 10
56.573393
 20
59.303671
 30
0.0
 10
56.517132
 20
59.359932
 30
0.0
  0
SPLINE
  5
32a
100
AcDbEntity
  8
0
 62
7
100
AcDbSpline
 70
8
 71
3
 72
8
 73
4
 74
0
 40
0
 40
0
 40
0
 40
0
 40
1
 40
1
 40
1
 40
1
 10
56.517132
 20
59.359932
 30
0.0
 10
56.460871
 20
59.416193
 30
0.0
 10
56.384565
 20
59.447800
 30
0.0
 10
56.305000
 20
59.447800
 30
0.0
  0
SPLINE
  5
32b
100
AcDbEntity
  8
0
 62
7
100
AcDbSpline
 70
8
 71
3
 72
8
 73
4
 74
0
 40
0
 40
0
 40
0
 40
0
 40
1
 40
1
 40
1
 40
1
 10
56.305000
 20
45.447800
 30
0.0
 10
56.384565
 20
45.447800
 30
0.0
 10
56.460871
 20
45.479407
 30
0.0
 10
56.517132
 20
45.535668
 30
0.0
  0
SPLINE
  5
32c
100
AcDbEntity
  8
0
 62
7
100
AcDbSpline
 70
8
 71
3
 72
8
 73
4
 74
0
 40
0
 40
0
 40
0
 40
0
 40
1
 40
1
 40
1
 40
1
 10
56.517132
 20
45.535668
 30
0.0
 10
56.573393
 20
45.591929
 30
0.0
 10
56.605000
 20
45.668235
 30
0.0
 10
56.605000
 20
45.747800
 30
0.0
  0
LWPOLYLINE
  5
32d
100
AcDbEntity
  8
0
 62
7
100
AcDbPolyline
 90
2
 70
0
 10
56.605000
 20
45.747800
 30
0.0
 10
56.605000
 20
59.147800
 30
0.0
  0
LWPOLYLINE
  5
32e
100
AcDbEntity
  8
0
 62
7
100
AcDbPolyline
 90
2
 70
0
 10
151.057400
 20
79.386400
 30
0.0
 10
156.211000
 20
67.017100
 30
0.0
  0
LWPOLYLINE
  5
32f
100
AcDbEntity
  8
0
 62
7
100
AcDbPolyline
 90
2
 70
0
 10
156.603300
 20
66.855600
 30
0.0
 10
168.972600
 20
72.009200
 30
0.0
  0
LWPOLYLINE
  5
330
100
AcDbEntity
  8
0
 62
7
100
AcDbPolyline
 90
2
 70
0
 10
163.588200
 20
84.932400
 30
0.0
 10
151.218900
 20
79.778700
 30
0.0
  0
SPLINE
  5
331
100
AcDbEntity
  8
0
 62
7
100
AcDbSpline
 70
8
 71
3
 72
8
 73
4
 74
0
 40
0
 40
0
 40
0
 40
0
 40
1
 40
1
 40
1
 40
1
 10
151.218900
 20
79.778700
 30
0.0
 10
151.065979
 20
79.714960
 30
0.0
 10
150.993676
 20
79.539328
 30
0.0
 10
151.057400
 20
79.386400
 30
0.0
  0
SPLINE
  5
332
100
AcDbEntity
  8
0
 62
7
100
AcDbSpline
 70
8
 71
3
 72
8
 73
4
 74
0
 40
0
 40
0
 40
0
 40
0
 40
1
 40
1
 40
1
 40
1
 10
156.211000
 20
67.017100
 30
0.0
 10
156.274740
 20
66.864179
 30
0.0
 10
156.450372
 20
66.791876
 30
0.0
 10
156.603300
 20
66.855600
 30
0.0
  0
SPLINE
  5
333
100
AcDbEntity
  8
0
 62
7
100
AcDbSpline
 70
8
 71
3
 72
8
 73
4
 74
0
 40
0
 40
0
 40
0
 40
0
 40
1
 40
1
 40
1
 40
1
 10
163.980500
 20
84.770800
 30
0.0
 10
163.949910
 20
84.844254
 30
0.0
 10
163.891392
 20
84.902546
 30
0.0
 10
163.817820
 20
84.932852
 30
0.0
  0
SPLINE
  5
334
100
AcDbEntity
  8
0
 62
7
100
AcDbSpline
 70
8
 71
3
 72
8
 73
4
 74
0
 40
0
 40
0
 40
0
 40
0
 40
1
 40
1
 40
1
 40
1
 10
163.817820
 20
84.932852
 30
0.0
 10
163.744249
 20
84.963159
 30
0.0
 10
163.661651
 20
84.962996
 30
0.0
 10
163.588200
 20
84.932400
 30
0.0
  0
SPLINE
  5
335
100
AcDbEntity
  8
0
 62
7
100
AcDbSpline
 70
8
 71
3
 72
8
 73
4
 74
0
 40
0
 40
0
 40
0
 40
0
 40
1
 40
1
 40
1
 40
1
 10
168.972600
 20
72.009200
 30
0.0
 10
169.046054
 20
72.039790
 30
0.0
 10
169.104346
 20
72.098308
 30
0.0
 10
169.134652
 20
72.171880
 30
0.0
  0
SPLINE
  5
336
100
AcDbEntity
  8
0
 62
7
100
AcDbSpline
 70
8
 71
3
 72
8
 73
4
 74
0
 40
0
 40
0
 40
0
 40
0
 40
1
 40
1
 40
1
 40
1
 10
169.134652
 20
72.171880
 30
0.0
 10
169.164959
 20
72.245451
 30
0.0
 10
169.164796
 20
72.328049
 30
0.0
 10
169.134200
 20
72.401500
 30
0.0
  0
SPLINE
  5
337
100
AcDbEntity
  8
0
 62
7
100
AcDbSpline
 70
8
 71
3
 72
8
 73
4
 74
0
 40
0
 40
0
 40
0
 40
0
 40
1
 40
1
 40
1
 40
1
 10
107.719600
 20
22.825700
 30
0.0
 10
107.274692
 20
22.825700
 30
0.0
 10
106.873592
 20
22.557694
 30
0.0
 10
106.703333
 20
22.146652
 30
0.0
  0
SPLINE
  5
338
100
AcDbEntity
  8
0
 62
7
100
AcDbSpline
 70
8
 71
3
 72
8
 73
4
 74
0
 40
0
 40
0
 40
0
 40
0
 40
1
 40
1
 40
1
 40
1
 10
106.703333
 20
22.146652
 30
0.0
 10
106.533073
 20
21.735610
 30
0.0
 10
106.627185
 20
21.262480
 30
0.0
 10
106.941783
 20
20.947883
 30
0.0
  0
SPLINE
  5
339
100
AcDbEntity
  8
0
 62
7
100
AcDbSpline
 70
8
 71
3
 72
8
 73
4
 74
0
 40
0
 40
0
 40
0
 40
0
 40
1
 40
1
 40
1
 40
1
 10
106.941783
 20
20.947883
 30
0.0
 10
107.256380
 20
20.633285
 30
0.0
 10
107.729510
 20
20.539173
 30
0.0
 10
108.140552
 20
20.709433
 30
0.0
  0
SPLINE
  5
33a
100
AcDbEntity
  8
0
 62
7
100
AcDbSpline
 70
8
 71
3
 72
8
 73
4
 74
0
 40
0
 40
0
 40
0
 40
0
 40
1
 40
1
 40
1
 40
1
 10
108.140552
 20
20.709433
 30
0.0
 10
108.551594
 20
20.879692
 30
0.0
 10
108.819600
 20
21.280792
 30
0.0
 10
108.819600
 20
21.725700
 30
0.0
  0
SPLINE
  5
33b
100
AcDbEntity
  8
0
 62
7
100
AcDbSpline
 70
8
 71
3
 72
8
 73
4
 74
0
 40
0
 40
0
 40
0
 40
0
 40
1
 40
1
 40
1
 40
1
 10
108.819600
 20
21.725700
 30
0.0
 10
108.819600
 20
22.333213
 30
0.0
 10
108.327113
 20
22.825700
 30
0.0
 10
107.719600
 20
22.825700
 30
0.0
  0
LWPOLYLINE
  5
33c
100
AcDbEntity
  8
0
 62
7
100
AcDbPolyline
 90
2
 70
0
 10
169.134200
 20
72.401500
 30
0.0
 10
163.980500
 20
84.770800
 30
0.0
  0
LWPOLYLINE
  5
33d
100
AcDbEntity
  8
0
 62
7
100
AcDbPolyline
 90
1
 70
1
 10
107.719600
 20
22.825700
 30
0.0
  0
LWPOLYLINE
  5
33e
100
AcDbEntity
  8
0
 62
7
100
AcDbPolyline
 90
2
 70
0
 10
71.510300
 20
80.374100
 30
0.0
 10
66.356700
 20
68.004800
 30
0.0
  0
LWPOLYLINE
  5
33f
100
AcDbEntity
  8
0
 62
7
100
AcDbPolyline
 90
2
 70
0
 10
66.518200
 20
67.612500
 30
0.0
 10
78.887500
 20
62.458800
 30
0.0
  0
LWPOLYLINE
  5
340
100
AcDbEntity
  8
0
 62
7
100
AcDbPolyline
 90
2
 70
0
 10
84.271900
 20
75.382000
 30
0.0
 10
71.902600
 20
80.535600
 30
0.0
  0
SPLINE
  5
341
100
AcDbEntity
  8
0
 62
7
100
AcDbSpline
 70
8
 71
3
 72
8
 73
4
 74
0
 40
0
 40
0
 40
0
 40
0
 40
1
 40
1
 40
1
 40
1
 10
71.902600
 20
80.535600
 30
0.0
 10
71.749672
 20
80.599324
 30
0.0
 10
71.574040
 20
80.527021
 30
0.0
 10
71.510300
 20
80.374100
 30
0.0
  0
SPLINE
  5
342
100
AcDbEntity
  8
0
 62
7
100
AcDbSpline
 70
8
 71
3
 72
8
 73
4
 74
0
 40
0
 40
0
 40
0
 40
0
 40
1
 40
1
 40
1
 40
1
 10
66.356700
 20
68.004800
 30
0.0
 10
66.292976
 20
67.851872
 30
0.0
 10
66.365279
 20
67.676240
 30
0.0
 10
66.518200
 20
67.612500
 30
0.0
  0
SPLINE
  5
343
100
AcDbEntity
  8
0
 62
7
100
AcDbSpline
 70
8
 71
3
 72
8
 73
4
 74
0
 40
0
 40
0
 40
0
 40
0
 40
1
 40
1
 40
1
 40
1
 10
84.433500
 20
74.989700
 30
0.0
 10
84.464096
 20
75.063151
 30
0.0
 10
84.464259
 20
75.145749
 30
0.0
 10
84.433952
 20
75.219320
 30
0.0
  0
SPLINE
  5
344
100
AcDbEntity
  8
0
 62
7
100
AcDbSpline
 70
8
 71
3
 72
8
 73
4
 74
0
 40
0
 40
0
 40
0
 40
0
 40
1
 40
1
 40
1
 40
1
 10
84.433952
 20
75.219320
 30
0.0
 10
84.403646
 20
75.292892
 30
0.0
 10
84.345354
 20
75.351410
 30
0.0
 10
84.271900
 20
75.382000
 30
0.0
  0
SPLINE
  5
345
100
AcDbEntity
  8
0
 62
7
100
AcDbSpline
 70
8
 71
3
 72
8
 73
4
 74
0
 40
0
 40
0
 40
0
 40
0
 40
1
 40
1
 40
1
 40
1
 10
78.887500
 20
62.458800
 30
0.0
 10
78.960951
 20
62.428204
 30
0.0
 10
79.043549
 20
62.428041
 30
0.0
 10
79.117120
 20
62.458348
 30
0.0
  0
SPLINE
  5
346
100
AcDbEntity
  8
0
 62
7
100
AcDbSpline
 70
8
 71
3
 72
8
 73
4
 74
0
 40
0
 40
0
 40
0
 40
0
 40
1
 40
1
 40
1
 40
1
 10
79.117120
 20
62.458348
 30
0.0
 10
79.190692
 20
62.488654
 30
0.0
 10
79.249210
 20
62.546946
 30
0.0
 10
79.279800
 20
62.620400
 30
0.0
  0
LWPOLYLINE
  5
347
100
AcDbEntity
  8
0
 62
7
100
AcDbPolyline
 90
2
 70
0
 10
79.279800
 20
62.620400
 30
0.0
 10
84.433500
 20
74.989700
 30
0.0
  0
LWPOLYLINE
  5
348
100
AcDbEntity
  8
0
 62
7
100
AcDbPolyline
 90
2
 70
0
 10
233.105000
 20
78.197800
 30
0.0
 10
233.105000
 20
64.797800
 30
0.0
  0
LWPOLYLINE
  5
349
100
AcDbEntity
  8
0
 62
7
100
AcDbPolyline
 90
2
 70
0
 10
233.405000
 20
64.497800
 30
0.0
 10
246.805000
 20
64.497800
 30
0.0
  0
LWPOLYLINE
  5
34a
100
AcDbEntity
  8
0
 62
7
100
AcDbPolyline
 90
2
 70
0
 10
246.805000
 20
78.497800
 30
0.0
 10
233.405000
 20
78.497800
 30
0.0
  0
SPLINE
  5
34b
100
AcDbEntity
  8
0
 62
7
100
AcDbSpline
 70
8
 71
3
 72
8
 73
4
 74
0
 40
0
 40
0
 40
0
 40
0
 40
1
 40
1
 40
1
 40
1
 10
233.405000
 20
78.497800
 30
0.0
 10
233.325435
 20
78.497800
 30
0.0
 10
233.249129
 20
78.466193
 30
0.0
 10
233.192868
 20
78.409932
 30
0.0
  0
SPLINE
  5
34c
100
AcDbEntity
  8
0
 62
7
100
AcDbSpline
 70
8
 71
3
 72
8
 73
4
 74
0
 40
0
 40
0
 40
0
 40
0
 40
1
 40
1
 40
1
 40
1
 10
233.192868
 20
78.409932
 30
0.0
 10
233.136607
 20
78.353671
 30
0.0
 10
233.105000
 20
78.277365
 30
0.0
 10
233.105000
 20
78.197800
 30
0.0
  0
SPLINE
  5
34d
100
AcDbEntity
  8
0
 62
7
100
AcDbSpline
 70
8
 71
3
 72
8
 73
4
 74
0
 40
0
 40
0
 40
0
 40
0
 40
1
 40
1
 40
1
 40
1
 10
233.105000
 20
64.797800
 30
0.0
 10
233.105000
 20
64.718235
 30
0.0
 10
233.136607
 20
64.641929
 30
0.0
 10
233.192868
 20
64.585668
 30
0.0
  0
SPLINE
  5
34e
100
AcDbEntity
  8
0
 62
7
100
AcDbSpline
 70
8
 71
3
 72
8
 73
4
 74
0
 40
0
 40
0
 40
0
 40
0
 40
1
 40
1
 40
1
 40
1
 10
233.192868
 20
64.585668
 30
0.0
 10
233.249129
 20
64.529407
 30
0.0
 10
233.325435
 20
64.497800
 30
0.0
 10
233.405000
 20
64.497800
 30
0.0
  0
SPLINE
  5
34f
100
AcDbEntity
  8
0
 62
7
100
AcDbSpline
 70
8
 71
3
 72
8
 73
4
 74
0
 40
0
 40
0
 40
0
 40
0
 40
1
 40
1
 40
1
 40
1
 10
247.105000
 20
78.197800
 30
0.0
 10
247.105000
 20
78.277365
 30
0.0
 10
247.073393
 20
78.353671
 30
0.0
 10
247.017132
 20
78.409932
 30
0.0
  0
SPLINE
  5
350
100
AcDbEntity
  8
0
 62
7
100
AcDbSpline
 70
8
 71
3
 72
8
 73
4
 74
0
 40
0
 40
0
 40
0
 40
0
 40
1
 40
1
 40
1
 40
1
 10
247.017132
 20
78.409932
 30
0.0
 10
246.960871
 20
78.466193
 30
0.0
 10
246.884565
 20
78.497800
 30
0.0
 10
246.805000
 20
78.497800
 30
0.0
  0
SPLINE
  5
351
100
AcDbEntity
  8
0
 62
7
100
AcDbSpline
 70
8
 71
3
 72
8
 73
4
 74
0
 40
0
 40
0
 40
0
 40
0
 40
1
 40
1
 40
1
 40
1
 10
246.805000
 20
64.497800
 30
0.0
 10
246.884565
 20
64.497800
 30
0.0
 10
246.960871
 20
64.529407
 30
0.0
 10
247.017132
 20
64.585668
 30
0.0
  0
SPLINE
  5
352
100
AcDbEntity
  8
0
 62
7
100
AcDbSpline
 70
8
 71
3
 72
8
 73
4
 74
0
 40
0
 40
0
 40
0
 40
0
 40
1
 40
1
 40
1
 40
1
 10
247.017132
 20
64.585668
 30
0.0
 10
247.073393
 20
64.641929
 30
0.0
 10
247.105000
 20
64.718235
 30
0.0
 10
247.105000
 20
64.797800
 30
0.0
  0
SPLINE
  5
353
100
AcDbEntity
  8
0
 62
7
100
AcDbSpline
 70
8
 71
3
 72
8
 73
4
 74
0
 40
0
 40
0
 40
0
 40
0
 40
1
 40
1
 40
1
 40
1
 10
48.605000
 20
38.922800
 30
0.0
 10
44.964840
 20
38.922800
 30
0.0
 10
41.683113
 20
36.730020
 30
0.0
 10
40.290084
 20
33.366951
 30
0.0
  0
SPLINE
  5
354
100
AcDbEntity
  8
0
 62
7
100
AcDbSpline
 70
8
 71
3
 72
8
 73
4
 74
0
 40
0
 40
0
 40
0
 40
0
 40
1
 40
1
 40
1
 40
1
 10
40.290084
 20
33.366951
 30
0.0
 10
38.897055
 20
30.003881
 30
0.0
 10
39.667057
 20
26.132821
 30
0.0
 10
42.241039
 20
23.558839
 30
0.0
  0
SPLINE
  5
355
100
AcDbEntity
  8
0
 62
7
100
AcDbSpline
 70
8
 71
3
 72
8
 73
4
 74
0
 40
0
 40
0
 40
0
 40
0
 40
1
 40
1
 40
1
 40
1
 10
42.241039
 20
23.558839
 30
0.0
 10
44.815021
 20
20.984857
 30
0.0
 10
48.686081
 20
20.214855
 30
0.0
 10
52.049151
 20
21.607884
 30
0.0
  0
SPLINE
  5
356
100
AcDbEntity
  8
0
 62
7
100
AcDbSpline
 70
8
 71
3
 72
8
 73
4
 74
0
 40
0
 40
0
 40
0
 40
0
 40
1
 40
1
 40
1
 40
1
 10
52.049151
 20
21.607884
 30
0.0
 10
55.412220
 20
23.000913
 30
0.0
 10
57.605000
 20
26.282640
 30
0.0
 10
57.605000
 20
29.922800
 30
0.0
  0
SPLINE
  5
357
100
AcDbEntity
  8
0
 62
7
100
AcDbSpline
 70
8
 71
3
 72
8
 73
4
 74
0
 40
0
 40
0
 40
0
 40
0
 40
1
 40
1
 40
1
 40
1
 10
57.605000
 20
29.922800
 30
0.0
 10
57.605000
 20
32.309748
 30
0.0
 10
56.656788
 20
34.598934
 30
0.0
 10
54.968961
 20
36.286761
 30
0.0
  0
SPLINE
  5
358
100
AcDbEntity
  8
0
 62
7
100
AcDbSpline
 70
8
 71
3
 72
8
 73
4
 74
0
 40
0
 40
0
 40
0
 40
0
 40
1
 40
1
 40
1
 40
1
 10
54.968961
 20
36.286761
 30
0.0
 10
53.281134
 20
37.974588
 30
0.0
 10
50.991948
 20
38.922800
 30
0.0
 10
48.605000
 20
38.922800
 30
0.0
  0
LWPOLYLINE
  5
359
100
AcDbEntity
  8
0
 62
7
100
AcDbPolyline
 90
2
 70
0
 10
247.105000
 20
64.797800
 30
0.0
 10
247.105000
 20
78.197800
 30
0.0
  0
LWPOLYLINE
  5
35a
100
AcDbEntity
  8
0
 62
7
100
AcDbPolyline
 90
1
 70
1
 10
48.605000
 20
38.922800
 30
0.0
  0
LWPOLYLINE
  5
35b
100
AcDbEntity
  8
0
 62
7
100
AcDbPolyline
 90
2
 70
0
 10
154.867100
 20
60.336400
 30
0.0
 10
160.020700
 20
47.967100
 30
0.0
  0
LWPOLYLINE
  5
35c
100
AcDbEntity
  8
0
 62
7
100
AcDbPolyline
 90
2
 70
0
 10
160.413000
 20
47.805500
 30
0.0
 10
172.782300
 20
52.959200
 30
0.0
  0
LWPOLYLINE
  5
35d
100
AcDbEntity
  8
0
 62
7
100
AcDbPolyline
 90
2
 70
0
 10
167.397900
 20
65.882300
 30
0.0
 10
155.028600
 20
60.728700
 30
0.0
  0
SPLINE
  5
35e
100
AcDbEntity
  8
0
 62
7
100
AcDbSpline
 70
8
 71
3
 72
8
 73
4
 74
0
 40
0
 40
0
 40
0
 40
0
 40
1
 40
1
 40
1
 40
1
 10
155.028600
 20
60.728700
 30
0.0
 10
154.875679
 20
60.664960
 30
0.0
 10
154.803376
 20
60.489328
 30
0.0
 10
154.867100
 20
60.336400
 30
0.0
  0
SPLINE
  5
35f
100
AcDbEntity
  8
0
 62
7
100
AcDbSpline
 70
8
 71
3
 72
8
 73
4
 74
0
 40
0
 40
0
 40
0
 40
0
 40
1
 40
1
 40
1
 40
1
 10
160.020700
 20
47.967100
 30
0.0
 10
160.051290
 20
47.893646
 30
0.0
 10
160.109808
 20
47.835354
 30
0.0
 10
160.183380
 20
47.805048
 30
0.0
  0
SPLINE
  5
360
100
AcDbEntity
  8
0
 62
7
100
AcDbSpline
 70
8
 71
3
 72
8
 73
4
 74
0
 40
0
 40
0
 40
0
 40
0
 40
1
 40
1
 40
1
 40
1
 10
160.183380
 20
47.805048
 30
0.0
 10
160.256951
 20
47.774741
 30
0.0
 10
160.339549
 20
47.774904
 30
0.0
 10
160.413000
 20
47.805500
 30
0.0
  0
SPLINE
  5
361
100
AcDbEntity
  8
0
 62
7
100
AcDbSpline
 70
8
 71
3
 72
8
 73
4
 74
0
 40
0
 40
0
 40
0
 40
0
 40
1
 40
1
 40
1
 40
1
 10
167.790200
 20
65.720800
 30
0.0
 10
167.726460
 20
65.873721
 30
0.0
 10
167.550828
 20
65.946024
 30
0.0
 10
167.397900
 20
65.882300
 30
0.0
  0
SPLINE
  5
362
100
AcDbEntity
  8
0
 62
7
100
AcDbSpline
 70
8
 71
3
 72
8
 73
4
 74
0
 40
0
 40
0
 40
0
 40
0
 40
1
 40
1
 40
1
 40
1
 10
172.782300
 20
52.959200
 30
0.0
 10
172.855754
 20
52.989790
 30
0.0
 10
172.914046
 20
53.048308
 30
0.0
 10
172.944352
 20
53.121880
 30
0.0
  0
SPLINE
  5
363
100
AcDbEntity
  8
0
 62
7
100
AcDbSpline
 70
8
 71
3
 72
8
 73
4
 74
0
 40
0
 40
0
 40
0
 40
0
 40
1
 40
1
 40
1
 40
1
 10
172.944352
 20
53.121880
 30
0.0
 10
172.974659
 20
53.195451
 30
0.0
 10
172.974496
 20
53.278049
 30
0.0
 10
172.943900
 20
53.351500
 30
0.0
  0
LWPOLYLINE
  5
364
100
AcDbEntity
  8
0
 62
7
100
AcDbPolyline
 90
2
 70
0
 10
172.943900
 20
53.351500
 30
0.0
 10
167.790200
 20
65.720800
 30
0.0
  0
ENDSEC
  0
SECTION
  2
OBJECTS
  0
DICTIONARY
  5
C
330
0
100
AcDbDictionary
  3
ACAD_GROUP
350
D
  3
ACAD_MLINESTYLE
350
17
  0
DICTIONARY
  5
D
330
C
100
AcDbDictionary
  0
DICTIONARY
  5
1A
330
C
100
AcDbDictionary
  0
DICTIONARY
  5
17
330
C
100
AcDbDictionary
  3
STANDARD
350
18
  0
DICTIONARY
  5
19
330
C
100
AcDbDictionary
  0
ENDSEC
  0
EOF
