  0
SECTION
  2
HEADER
  9
$ACADVER
  1
AC1014
  9
$HANDSEED
  5
FFFF
  9
$INSUNITS
 70
     4
  9
$MEASUREMENT
 70
     1
  0
ENDSEC
  0
SECTION
  2
TABLES
  0
TABLE
  2
VPORT
  5
8
330
0
100
AcDbSymbolTable
 70
     4
  0
VPORT
  5
2E
330
8
100
AcDbSymbolTableRecord
100
AcDbViewportTableRecord
  2
*ACTIVE
 70
     0
 10
0.0
 20
0.0
 11
1.0
 21
1.0
 12
210.0
 22
148.5
 13
0.0
 23
0.0
 14
10.0
 24
10.0
 15
10.0
 25
10.0
 16
0.0
 26
0.0
 36
1.0
 17
0.0
 27
0.0
 37
0.0
 40
341.0
 41
1.24
 42
50.0
 43
0.0
 44
0.0
 50
0.0
 51
0.0
 71
     0
 72
   100
 73
     1
 74
     3
 75
     0
 76
     0
 77
     0
 78
     0
  0
ENDTAB
  0
TABLE
  2
LTYPE
  5
5
330
0
100
AcDbSymbolTable
 70
     1
  0
LTYPE
  5
14
330
5
100
AcDbSymbolTableRecord
100
AcDbLinetypeTableRecord
  2
BYBLOCK
 70
     0
  3

 72
    65
 73
     0
 40
0.0
  0
LTYPE
  5
15
330
5
100
AcDbSymbolTableRecord
100
AcDbLinetypeTableRecord
  2
BYLAYER
 70
     0
  3

 72
    65
 73
     0
 40
0.0
  0
LTYPE
  5
16
330
5
100
AcDbSymbolTableRecord
100
AcDbLinetypeTableRecord
  2
CONTINUOUS
 70
     0
  3
Solid line
 72
    65
 73
     0
 40
0.0
  0
ENDTAB
  0
TABLE
  2
LAYER
  5
2
100
AcDbSymbolTable
 70
1
  0
LAYER
  5
50
100
AcDbSymbolTableRecord
100
AcDbLayerTableRecord
  2
0
 70
0
  6
CONTINUOUS
  0
ENDTAB
  0
TABLE
  2
STYLE
  5
3
330
0
100
AcDbSymbolTable
 70
     1
  0
STYLE
  5
11
330
3
100
AcDbSymbolTableRecord
100
AcDbTextStyleTableRecord
  2
STANDARD
 70
     0
 40
0.0
 41
1.0
 50
0.0
 71
     0
 42
2.5
  3
txt
  4

  0
ENDTAB
  0
TABLE
  2
VIEW
  5
6
330
0
100
AcDbSymbolTable
 70
     0
  0
ENDTAB
  0
TABLE
  2
UCS
  5
7
330
0
100
AcDbSymbolTable
 70
     0
  0
ENDTAB
  0
TABLE
  2
APPID
  5
9
330
0
100
AcDbSymbolTable
 70
     2
  0
APPID
  5
12
330
9
100
AcDbSymbolTableRecord
100
AcDbRegAppTableRecord
  2
ACAD
 70
     0
  0
ENDTAB
  0
TABLE
  2
DIMSTYLE
  5
A
330
0
100
AcDbSymbolTable
 70
     1
  0
DIMSTYLE
105
27
330
A
100
AcDbSymbolTableRecord
100
AcDbDimStyleTableRecord
  2
ISO-25
 70
     0
  3

  4

  5

  6

  7

 40
1.0
 41
2.5
 42
0.625
 43
3.75
 44
1.25
 45
0.0
 46
0.0
 47
0.0
 48
0.0
140
2.5
141
2.5
142
0.0
143
0.03937007874016
144
1.0
145
0.0
146
1.0
147
0.625
 71
     0
 72
     0
 73
     0
 74
     0
 75
     0
 76
     0
 77
     1
 78
     8
170
     0
171
     3
172
     1
173
     0
174
     0
175
     0
176
     0
177
     0
178
     0
270
     2
271
     2
272
     2
273
     2
274
     3
340
11
275
     0
280
     0
281
     0
282
     0
283
     0
284
     8
285
     0
286
     0
287
     3
288
     0
  0
ENDTAB
  0
TABLE
  2
BLOCK_RECORD
  5
1
330
0
100
AcDbSymbolTable
 70
     1
  0
BLOCK_RECORD
  5
1F
330
1
100
AcDbSymbolTableRecord
100
AcDbBlockTableRecord
  2
*MODEL_SPACE
  0
BLOCK_RECORD
  5
1B
330
1
100
AcDbSymbolTableRecord
100
AcDbBlockTableRecord
  2
*PAPER_SPACE
  0
ENDTAB
  0
ENDSEC
  0
SECTION
  2
BLOCKS
  0
BLOCK
  5
20
330
1F
100
AcDbEntity
  8
0
100
AcDbBlockBegin
  2
*MODEL_SPACE
 70
     0
 10
0.0
 20
0.0
 30
0.0
  3
*MODEL_SPACE
  1

  0
ENDBLK
  5
21
330
1F
100
AcDbEntity
  8
0
100
AcDbBlockEnd
  0
BLOCK
  5
1C
330
1B
100
AcDbEntity
 67
     1
  8
0
100
AcDbBlockBegin
  2
*PAPER_SPACE
  1

  0
ENDBLK
  5
1D
330
1B
100
AcDbEntity
 67
     1
  8
0
100
AcDbBlockEnd
  0
ENDSEC
  0
SECTION
  2
ENTITIES
  0
SPLINE
  5
100
100
AcDbEntity
  8
0
 62
1
100
AcDbSpline
 70
8
 71
3
 72
8
 73
4
 74
0
 40
0
 40
0
 40
0
 40
0
 40
1
 40
1
 40
1
 40
1
 10
172.900500
 20
104.169100
 30
0.0
 10
171.080420
 20
104.169100
 30
0.0
 10
169.439557
 20
103.072710
 30
0.0
 10
168.743042
 20
101.391175
 30
0.0
  0
SPLINE
  5
101
100
AcDbEntity
  8
0
 62
1
100
AcDbSpline
 70
8
 71
3
 72
8
 73
4
 74
0
 40
0
 40
0
 40
0
 40
0
 40
1
 40
1
 40
1
 40
1
 10
168.743042
 20
101.391175
 30
0.0
 10
168.046528
 20
99.709641
 30
0.0
 10
168.431529
 20
97.774110
 30
0.0
 10
169.718519
 20
96.487119
 30
0.0
  0
SPLINE
  5
102
100
AcDbEntity
  8
0
 62
1
100
AcDbSpline
 70
8
 71
3
 72
8
 73
4
 74
0
 40
0
 40
0
 40
0
 40
0
 40
1
 40
1
 40
1
 40
1
 10
169.718519
 20
96.487119
 30
0.0
 10
171.005510
 20
95.200129
 30
0.0
 10
172.941041
 20
94.815128
 30
0.0
 10
174.622575
 20
95.511642
 30
0.0
  0
SPLINE
  5
103
100
AcDbEntity
  8
0
 62
1
100
AcDbSpline
 70
8
 71
3
 72
8
 73
4
 74
0
 40
0
 40
0
 40
0
 40
0
 40
1
 40
1
 40
1
 40
1
 10
174.622575
 20
95.511642
 30
0.0
 10
176.304110
 20
96.208157
 30
0.0
 10
177.400500
 20
97.849020
 30
0.0
 10
177.400500
 20
99.669100
 30
0.0
  0
SPLINE
  5
104
100
AcDbEntity
  8
0
 62
1
100
AcDbSpline
 70
8
 71
3
 72
8
 73
4
 74
0
 40
0
 40
0
 40
0
 40
0
 40
1
 40
1
 40
1
 40
1
 10
177.400500
 20
99.669100
 30
0.0
 10
177.400500
 20
100.862574
 30
0.0
 10
176.926394
 20
102.007167
 30
0.0
 10
176.082481
 20
102.851081
 30
0.0
  0
SPLINE
  5
105
100
AcDbEntity
  8
0
 62
1
100
AcDbSpline
 70
8
 71
3
 72
8
 73
4
 74
0
 40
0
 40
0
 40
0
 40
0
 40
1
 40
1
 40
1
 40
1
 10
176.082481
 20
102.851081
 30
0.0
 10
175.238567
 20
103.694994
 30
0.0
 10
174.093974
 20
104.169100
 30
0.0
 10
172.900500
 20
104.169100
 30
0.0
  0
LWPOLYLINE
  5
106
100
AcDbEntity
  8
0
 62
1
100
AcDbPolyline
 90
1
 70
1
 10
172.900500
 20
104.169100
 30
0.0
  0
SPLINE
  5
107
100
AcDbEntity
  8
0
 62
1
100
AcDbSpline
 70
8
 71
3
 72
8
 73
4
 74
0
 40
0
 40
0
 40
0
 40
0
 40
1
 40
1
 40
1
 40
1
 10
139.757400
 20
16.383900
 30
0.0
 10
137.937320
 20
16.383900
 30
0.0
 10
136.296457
 20
15.287510
 30
0.0
 10
135.599942
 20
13.605975
 30
0.0
  0
SPLINE
  5
108
100
AcDbEntity
  8
0
 62
1
100
AcDbSpline
 70
8
 71
3
 72
8
 73
4
 74
0
 40
0
 40
0
 40
0
 40
0
 40
1
 40
1
 40
1
 40
1
 10
135.599942
 20
13.605975
 30
0.0
 10
134.903428
 20
11.924441
 30
0.0
 10
135.288429
 20
9.988910
 30
0.0
 10
136.575419
 20
8.701919
 30
0.0
  0
SPLINE
  5
109
100
AcDbEntity
  8
0
 62
1
100
AcDbSpline
 70
8
 71
3
 72
8
 73
4
 74
0
 40
0
 40
0
 40
0
 40
0
 40
1
 40
1
 40
1
 40
1
 10
136.575419
 20
8.701919
 30
0.0
 10
137.862410
 20
7.414929
 30
0.0
 10
139.797941
 20
7.029928
 30
0.0
 10
141.479475
 20
7.726442
 30
0.0
  0
SPLINE
  5
10a
100
AcDbEntity
  8
0
 62
1
100
AcDbSpline
 70
8
 71
3
 72
8
 73
4
 74
0
 40
0
 40
0
 40
0
 40
0
 40
1
 40
1
 40
1
 40
1
 10
141.479475
 20
7.726442
 30
0.0
 10
143.161010
 20
8.422957
 30
0.0
 10
144.257400
 20
10.063820
 30
0.0
 10
144.257400
 20
11.883900
 30
0.0
  0
SPLINE
  5
10b
100
AcDbEntity
  8
0
 62
1
100
AcDbSpline
 70
8
 71
3
 72
8
 73
4
 74
0
 40
0
 40
0
 40
0
 40
0
 40
1
 40
1
 40
1
 40
1
 10
144.257400
 20
11.883900
 30
0.0
 10
144.257400
 20
14.369181
 30
0.0
 10
142.242681
 20
16.383900
 30
0.0
 10
139.757400
 20
16.383900
 30
0.0
  0
LWPOLYLINE
  5
10c
100
AcDbEntity
  8
0
 62
1
100
AcDbPolyline
 90
2
 70
0
 10
122.563000
 20
4.910900
 30
0.0
 10
8.837400
 20
27.676800
 30
0.0
  0
SPLINE
  5
10d
100
AcDbEntity
  8
0
 62
1
100
AcDbSpline
 70
8
 71
3
 72
8
 73
4
 74
0
 40
0
 40
0
 40
0
 40
0
 40
1
 40
1
 40
1
 40
1
 10
261.900500
 20
104.169100
 30
0.0
 10
260.080420
 20
104.169100
 30
0.0
 10
258.439557
 20
103.072710
 30
0.0
 10
257.743042
 20
101.391175
 30
0.0
  0
SPLINE
  5
10e
100
AcDbEntity
  8
0
 62
1
100
AcDbSpline
 70
8
 71
3
 72
8
 73
4
 74
0
 40
0
 40
0
 40
0
 40
0
 40
1
 40
1
 40
1
 40
1
 10
257.743042
 20
101.391175
 30
0.0
 10
257.046528
 20
99.709641
 30
0.0
 10
257.431529
 20
97.774110
 30
0.0
 10
258.718519
 20
96.487119
 30
0.0
  0
SPLINE
  5
10f
100
AcDbEntity
  8
0
 62
1
100
AcDbSpline
 70
8
 71
3
 72
8
 73
4
 74
0
 40
0
 40
0
 40
0
 40
0
 40
1
 40
1
 40
1
 40
1
 10
258.718519
 20
96.487119
 30
0.0
 10
260.005510
 20
95.200129
 30
0.0
 10
261.941041
 20
94.815128
 30
0.0
 10
263.622575
 20
95.511642
 30
0.0
  0
SPLINE
  5
110
100
AcDbEntity
  8
0
 62
1
100
AcDbSpline
 70
8
 71
3
 72
8
 73
4
 74
0
 40
0
 40
0
 40
0
 40
0
 40
1
 40
1
 40
1
 40
1
 10
263.622575
 20
95.511642
 30
0.0
 10
265.304110
 20
96.208157
 30
0.0
 10
266.400500
 20
97.849020
 30
0.0
 10
266.400500
 20
99.669100
 30
0.0
  0
SPLINE
  5
111
100
AcDbEntity
  8
0
 62
1
100
AcDbSpline
 70
8
 71
3
 72
8
 73
4
 74
0
 40
0
 40
0
 40
0
 40
0
 40
1
 40
1
 40
1
 40
1
 10
266.400500
 20
99.669100
 30
0.0
 10
266.400500
 20
100.862574
 30
0.0
 10
265.926394
 20
102.007167
 30
0.0
 10
265.082481
 20
102.851081
 30
0.0
  0
SPLINE
  5
112
100
AcDbEntity
  8
0
 62
1
100
AcDbSpline
 70
8
 71
3
 72
8
 73
4
 74
0
 40
0
 40
0
 40
0
 40
0
 40
1
 40
1
 40
1
 40
1
 10
265.082481
 20
102.851081
 30
0.0
 10
264.238567
 20
103.694994
 30
0.0
 10
263.093974
 20
104.169100
 30
0.0
 10
261.900500
 20
104.169100
 30
0.0
  0
LWPOLYLINE
  5
113
100
AcDbEntity
  8
0
 62
1
100
AcDbPolyline
 90
1
 70
1
 10
139.757400
 20
16.383900
 30
0.0
  0
SPLINE
  5
114
100
AcDbEntity
  8
0
 62
1
100
AcDbSpline
 70
8
 71
3
 72
8
 73
4
 74
0
 40
0
 40
0
 40
0
 40
0
 40
1
 40
1
 40
1
 40
1
 10
270.677900
 20
27.677300
 30
0.0
 10
272.681501
 20
28.078378
 30
0.0
 10
274.239425
 20
29.658278
 30
0.0
 10
274.612400
 20
31.667300
 30
0.0
  0
SPLINE
  5
115
100
AcDbEntity
  8
0
 62
1
100
AcDbSpline
 70
8
 71
3
 72
8
 73
4
 74
0
 40
0
 40
0
 40
0
 40
0
 40
1
 40
1
 40
1
 40
1
 10
268.513200
 20
103.980600
 30
0.0
 10
267.790531
 20
105.948970
 30
0.0
 10
265.916438
 20
107.257313
 30
0.0
 10
263.819600
 20
107.257300
 30
0.0
  0
SPLINE
  5
116
100
AcDbEntity
  8
0
 62
1
100
AcDbSpline
 70
8
 71
3
 72
8
 73
4
 74
0
 40
0
 40
0
 40
0
 40
0
 40
1
 40
1
 40
1
 40
1
 10
267.557900
 20
39.180500
 30
0.0
 10
265.737820
 20
39.180500
 30
0.0
 10
264.096957
 20
38.084110
 30
0.0
 10
263.400442
 20
36.402575
 30
0.0
  0
SPLINE
  5
117
100
AcDbEntity
  8
0
 62
1
100
AcDbSpline
 70
8
 71
3
 72
8
 73
4
 74
0
 40
0
 40
0
 40
0
 40
0
 40
1
 40
1
 40
1
 40
1
 10
263.400442
 20
36.402575
 30
0.0
 10
262.703928
 20
34.721041
 30
0.0
 10
263.088929
 20
32.785510
 30
0.0
 10
264.375919
 20
31.498519
 30
0.0
  0
SPLINE
  5
118
100
AcDbEntity
  8
0
 62
1
100
AcDbSpline
 70
8
 71
3
 72
8
 73
4
 74
0
 40
0
 40
0
 40
0
 40
0
 40
1
 40
1
 40
1
 40
1
 10
264.375919
 20
31.498519
 30
0.0
 10
265.662910
 20
30.211529
 30
0.0
 10
267.598441
 20
29.826528
 30
0.0
 10
269.279975
 20
30.523042
 30
0.0
  0
SPLINE
  5
119
100
AcDbEntity
  8
0
 62
1
100
AcDbSpline
 70
8
 71
3
 72
8
 73
4
 74
0
 40
0
 40
0
 40
0
 40
0
 40
1
 40
1
 40
1
 40
1
 10
269.279975
 20
30.523042
 30
0.0
 10
270.961510
 20
31.219557
 30
0.0
 10
272.057900
 20
32.860420
 30
0.0
 10
272.057900
 20
34.680500
 30
0.0
  0
SPLINE
  5
11a
100
AcDbEntity
  8
0
 62
1
100
AcDbSpline
 70
8
 71
3
 72
8
 73
4
 74
0
 40
0
 40
0
 40
0
 40
0
 40
1
 40
1
 40
1
 40
1
 10
272.057900
 20
34.680500
 30
0.0
 10
272.057900
 20
35.873974
 30
0.0
 10
271.583794
 20
37.018567
 30
0.0
 10
270.739881
 20
37.862481
 30
0.0
  0
SPLINE
  5
11b
100
AcDbEntity
  8
0
 62
1
100
AcDbSpline
 70
8
 71
3
 72
8
 73
4
 74
0
 40
0
 40
0
 40
0
 40
0
 40
1
 40
1
 40
1
 40
1
 10
270.739881
 20
37.862481
 30
0.0
 10
269.895967
 20
38.706394
 30
0.0
 10
268.751374
 20
39.180500
 30
0.0
 10
267.557900
 20
39.180500
 30
0.0
  0
LWPOLYLINE
  5
11c
100
AcDbEntity
  8
0
 62
1
100
AcDbPolyline
 90
1
 70
1
 10
261.900500
 20
104.169100
 30
0.0
  0
SPLINE
  5
11d
100
AcDbEntity
  8
0
 62
1
100
AcDbSpline
 70
8
 71
3
 72
8
 73
4
 74
0
 40
0
 40
0
 40
0
 40
0
 40
1
 40
1
 40
1
 40
1
 10
274.612400
 20
31.667300
 30
0.0
 10
279.108571
 20
55.882157
 30
0.0
 10
277.001759
 20
80.860928
 30
0.0
 10
268.513200
 20
103.980600
 30
0.0
  0
LWPOLYLINE
  5
11e
100
AcDbEntity
  8
0
 62
1
100
AcDbPolyline
 90
1
 70
1
 10
267.557900
 20
39.180500
 30
0.0
  0
SPLINE
  5
11f
100
AcDbEntity
  8
0
 62
1
100
AcDbSpline
 70
8
 71
3
 72
8
 73
4
 74
0
 40
0
 40
0
 40
0
 40
0
 40
1
 40
1
 40
1
 40
1
 10
122.563000
 20
4.910900
 30
0.0
 10
124.501870
 20
4.522772
 30
0.0
 10
126.474364
 20
4.327288
 30
0.0
 10
128.451700
 20
4.327300
 30
0.0
  0
LWPOLYLINE
  5
120
100
AcDbEntity
  8
0
 62
1
100
AcDbPolyline
 90
2
 70
0
 10
263.819600
 20
107.257300
 30
0.0
 10
15.695200
 20
107.257300
 30
0.0
  0
SPLINE
  5
121
100
AcDbEntity
  8
0
 62
1
100
AcDbSpline
 70
8
 71
3
 72
8
 73
4
 74
0
 40
0
 40
0
 40
0
 40
0
 40
1
 40
1
 40
1
 40
1
 10
11.001600
 20
103.980600
 30
0.0
 10
2.513041
 20
80.860928
 30
0.0
 10
0.406229
 20
55.882157
 30
0.0
 10
4.902400
 20
31.667300
 30
0.0
  0
SPLINE
  5
122
100
AcDbEntity
  8
0
 62
1
100
AcDbSpline
 70
8
 71
3
 72
8
 73
4
 74
0
 40
0
 40
0
 40
0
 40
0
 40
1
 40
1
 40
1
 40
1
 10
4.902400
 20
31.667300
 30
0.0
 10
5.275467
 20
29.658048
 30
0.0
 10
6.833569
 20
28.077969
 30
0.0
 10
8.837400
 20
27.676800
 30
0.0
  0
SPLINE
  5
123
100
AcDbEntity
  8
0
 62
1
100
AcDbSpline
 70
8
 71
3
 72
8
 73
4
 74
0
 40
0
 40
0
 40
0
 40
0
 40
1
 40
1
 40
1
 40
1
 10
15.695200
 20
107.257300
 30
0.0
 10
13.598371
 20
107.257284
 30
0.0
 10
11.724293
 20
105.948951
 30
0.0
 10
11.001600
 20
103.980600
 30
0.0
  0
LWPOLYLINE
  5
124
100
AcDbEntity
  8
0
 62
1
100
AcDbPolyline
 90
2
 70
0
 10
270.677900
 20
27.677300
 30
0.0
 10
156.949600
 20
4.910900
 30
0.0
  0
SPLINE
  5
125
100
AcDbEntity
  8
0
 62
1
100
AcDbSpline
 70
8
 71
3
 72
8
 73
4
 74
0
 40
0
 40
0
 40
0
 40
0
 40
1
 40
1
 40
1
 40
1
 10
151.061000
 20
4.327300
 30
0.0
 10
153.038303
 20
4.327292
 30
0.0
 10
155.010763
 20
4.522776
 30
0.0
 10
156.949600
 20
4.910900
 30
0.0
  0
SPLINE
  5
126
100
AcDbEntity
  8
0
 62
1
100
AcDbSpline
 70
8
 71
3
 72
8
 73
4
 74
0
 40
0
 40
0
 40
0
 40
0
 40
1
 40
1
 40
1
 40
1
 10
11.956900
 20
39.180500
 30
0.0
 10
10.136820
 20
39.180500
 30
0.0
 10
8.495957
 20
38.084110
 30
0.0
 10
7.799442
 20
36.402575
 30
0.0
  0
SPLINE
  5
127
100
AcDbEntity
  8
0
 62
1
100
AcDbSpline
 70
8
 71
3
 72
8
 73
4
 74
0
 40
0
 40
0
 40
0
 40
0
 40
1
 40
1
 40
1
 40
1
 10
7.799442
 20
36.402575
 30
0.0
 10
7.102928
 20
34.721041
 30
0.0
 10
7.487929
 20
32.785510
 30
0.0
 10
8.774919
 20
31.498519
 30
0.0
  0
SPLINE
  5
128
100
AcDbEntity
  8
0
 62
1
100
AcDbSpline
 70
8
 71
3
 72
8
 73
4
 74
0
 40
0
 40
0
 40
0
 40
0
 40
1
 40
1
 40
1
 40
1
 10
8.774919
 20
31.498519
 30
0.0
 10
10.061910
 20
30.211529
 30
0.0
 10
11.997441
 20
29.826528
 30
0.0
 10
13.678975
 20
30.523042
 30
0.0
  0
SPLINE
  5
129
100
AcDbEntity
  8
0
 62
1
100
AcDbSpline
 70
8
 71
3
 72
8
 73
4
 74
0
 40
0
 40
0
 40
0
 40
0
 40
1
 40
1
 40
1
 40
1
 10
13.678975
 20
30.523042
 30
0.0
 10
15.360510
 20
31.219557
 30
0.0
 10
16.456900
 20
32.860420
 30
0.0
 10
16.456900
 20
34.680500
 30
0.0
  0
SPLINE
  5
12a
100
AcDbEntity
  8
0
 62
1
100
AcDbSpline
 70
8
 71
3
 72
8
 73
4
 74
0
 40
0
 40
0
 40
0
 40
0
 40
1
 40
1
 40
1
 40
1
 10
16.456900
 20
34.680500
 30
0.0
 10
16.456900
 20
35.873974
 30
0.0
 10
15.982794
 20
37.018567
 30
0.0
 10
15.138881
 20
37.862481
 30
0.0
  0
SPLINE
  5
12b
100
AcDbEntity
  8
0
 62
1
100
AcDbSpline
 70
8
 71
3
 72
8
 73
4
 74
0
 40
0
 40
0
 40
0
 40
0
 40
1
 40
1
 40
1
 40
1
 10
15.138881
 20
37.862481
 30
0.0
 10
14.294967
 20
38.706394
 30
0.0
 10
13.150374
 20
39.180500
 30
0.0
 10
11.956900
 20
39.180500
 30
0.0
  0
LWPOLYLINE
  5
12c
100
AcDbEntity
  8
0
 62
1
100
AcDbPolyline
 90
2
 70
0
 10
128.451700
 20
4.327300
 30
0.0
 10
151.061000
 20
4.327300
 30
0.0
  0
SPLINE
  5
12d
100
AcDbEntity
  8
0
 62
1
100
AcDbSpline
 70
8
 71
3
 72
8
 73
4
 74
0
 40
0
 40
0
 40
0
 40
0
 40
1
 40
1
 40
1
 40
1
 10
17.614300
 20
104.169100
 30
0.0
 10
15.794220
 20
104.169100
 30
0.0
 10
14.153357
 20
103.072710
 30
0.0
 10
13.456842
 20
101.391175
 30
0.0
  0
SPLINE
  5
12e
100
AcDbEntity
  8
0
 62
1
100
AcDbSpline
 70
8
 71
3
 72
8
 73
4
 74
0
 40
0
 40
0
 40
0
 40
0
 40
1
 40
1
 40
1
 40
1
 10
13.456842
 20
101.391175
 30
0.0
 10
12.760328
 20
99.709641
 30
0.0
 10
13.145329
 20
97.774110
 30
0.0
 10
14.432319
 20
96.487119
 30
0.0
  0
SPLINE
  5
12f
100
AcDbEntity
  8
0
 62
1
100
AcDbSpline
 70
8
 71
3
 72
8
 73
4
 74
0
 40
0
 40
0
 40
0
 40
0
 40
1
 40
1
 40
1
 40
1
 10
14.432319
 20
96.487119
 30
0.0
 10
15.719310
 20
95.200129
 30
0.0
 10
17.654841
 20
94.815128
 30
0.0
 10
19.336375
 20
95.511642
 30
0.0
  0
SPLINE
  5
130
100
AcDbEntity
  8
0
 62
1
100
AcDbSpline
 70
8
 71
3
 72
8
 73
4
 74
0
 40
0
 40
0
 40
0
 40
0
 40
1
 40
1
 40
1
 40
1
 10
19.336375
 20
95.511642
 30
0.0
 10
21.017910
 20
96.208157
 30
0.0
 10
22.114300
 20
97.849020
 30
0.0
 10
22.114300
 20
99.669100
 30
0.0
  0
SPLINE
  5
131
100
AcDbEntity
  8
0
 62
1
100
AcDbSpline
 70
8
 71
3
 72
8
 73
4
 74
0
 40
0
 40
0
 40
0
 40
0
 40
1
 40
1
 40
1
 40
1
 10
22.114300
 20
99.669100
 30
0.0
 10
22.114300
 20
100.862574
 30
0.0
 10
21.640194
 20
102.007167
 30
0.0
 10
20.796281
 20
102.851081
 30
0.0
  0
SPLINE
  5
132
100
AcDbEntity
  8
0
 62
1
100
AcDbSpline
 70
8
 71
3
 72
8
 73
4
 74
0
 40
0
 40
0
 40
0
 40
0
 40
1
 40
1
 40
1
 40
1
 10
20.796281
 20
102.851081
 30
0.0
 10
19.952367
 20
103.694994
 30
0.0
 10
18.807774
 20
104.169100
 30
0.0
 10
17.614300
 20
104.169100
 30
0.0
  0
LWPOLYLINE
  5
133
100
AcDbEntity
  8
0
 62
1
100
AcDbPolyline
 90
1
 70
1
 10
11.956900
 20
39.180500
 30
0.0
  0
SPLINE
  5
134
100
AcDbEntity
  8
0
 62
1
100
AcDbSpline
 70
8
 71
3
 72
8
 73
4
 74
0
 40
0
 40
0
 40
0
 40
0
 40
1
 40
1
 40
1
 40
1
 10
106.614300
 20
104.169100
 30
0.0
 10
104.794220
 20
104.169100
 30
0.0
 10
103.153357
 20
103.072710
 30
0.0
 10
102.456842
 20
101.391175
 30
0.0
  0
SPLINE
  5
135
100
AcDbEntity
  8
0
 62
1
100
AcDbSpline
 70
8
 71
3
 72
8
 73
4
 74
0
 40
0
 40
0
 40
0
 40
0
 40
1
 40
1
 40
1
 40
1
 10
102.456842
 20
101.391175
 30
0.0
 10
101.760328
 20
99.709641
 30
0.0
 10
102.145329
 20
97.774110
 30
0.0
 10
103.432319
 20
96.487119
 30
0.0
  0
SPLINE
  5
136
100
AcDbEntity
  8
0
 62
1
100
AcDbSpline
 70
8
 71
3
 72
8
 73
4
 74
0
 40
0
 40
0
 40
0
 40
0
 40
1
 40
1
 40
1
 40
1
 10
103.432319
 20
96.487119
 30
0.0
 10
104.719310
 20
95.200129
 30
0.0
 10
106.654841
 20
94.815128
 30
0.0
 10
108.336375
 20
95.511642
 30
0.0
  0
SPLINE
  5
137
100
AcDbEntity
  8
0
 62
1
100
AcDbSpline
 70
8
 71
3
 72
8
 73
4
 74
0
 40
0
 40
0
 40
0
 40
0
 40
1
 40
1
 40
1
 40
1
 10
108.336375
 20
95.511642
 30
0.0
 10
110.017910
 20
96.208157
 30
0.0
 10
111.114300
 20
97.849020
 30
0.0
 10
111.114300
 20
99.669100
 30
0.0
  0
SPLINE
  5
138
100
AcDbEntity
  8
0
 62
1
100
AcDbSpline
 70
8
 71
3
 72
8
 73
4
 74
0
 40
0
 40
0
 40
0
 40
0
 40
1
 40
1
 40
1
 40
1
 10
111.114300
 20
99.669100
 30
0.0
 10
111.114300
 20
100.862574
 30
0.0
 10
110.640194
 20
102.007167
 30
0.0
 10
109.796281
 20
102.851081
 30
0.0
  0
SPLINE
  5
139
100
AcDbEntity
  8
0
 62
1
100
AcDbSpline
 70
8
 71
3
 72
8
 73
4
 74
0
 40
0
 40
0
 40
0
 40
0
 40
1
 40
1
 40
1
 40
1
 10
109.796281
 20
102.851081
 30
0.0
 10
108.952367
 20
103.694994
 30
0.0
 10
107.807774
 20
104.169100
 30
0.0
 10
106.614300
 20
104.169100
 30
0.0
  0
LWPOLYLINE
  5
13a
100
AcDbEntity
  8
0
 62
1
100
AcDbPolyline
 90
1
 70
1
 10
17.614300
 20
104.169100
 30
0.0
  0
SPLINE
  5
13b
100
AcDbEntity
  8
0
 62
1
100
AcDbSpline
 70
8
 71
3
 72
8
 73
4
 74
0
 40
0
 40
0
 40
0
 40
0
 40
1
 40
1
 40
1
 40
1
 10
99.162800
 20
104.093800
 30
0.0
 10
98.717892
 20
104.093800
 30
0.0
 10
98.316792
 20
103.825794
 30
0.0
 10
98.146533
 20
103.414752
 30
0.0
  0
SPLINE
  5
13c
100
AcDbEntity
  8
0
 62
1
100
AcDbSpline
 70
8
 71
3
 72
8
 73
4
 74
0
 40
0
 40
0
 40
0
 40
0
 40
1
 40
1
 40
1
 40
1
 10
98.146533
 20
103.414752
 30
0.0
 10
97.976273
 20
103.003710
 30
0.0
 10
98.070385
 20
102.530580
 30
0.0
 10
98.384983
 20
102.215983
 30
0.0
  0
SPLINE
  5
13d
100
AcDbEntity
  8
0
 62
1
100
AcDbSpline
 70
8
 71
3
 72
8
 73
4
 74
0
 40
0
 40
0
 40
0
 40
0
 40
1
 40
1
 40
1
 40
1
 10
98.384983
 20
102.215983
 30
0.0
 10
98.699580
 20
101.901385
 30
0.0
 10
99.172710
 20
101.807273
 30
0.0
 10
99.583752
 20
101.977533
 30
0.0
  0
SPLINE
  5
13e
100
AcDbEntity
  8
0
 62
1
100
AcDbSpline
 70
8
 71
3
 72
8
 73
4
 74
0
 40
0
 40
0
 40
0
 40
0
 40
1
 40
1
 40
1
 40
1
 10
99.583752
 20
101.977533
 30
0.0
 10
99.994794
 20
102.147792
 30
0.0
 10
100.262800
 20
102.548892
 30
0.0
 10
100.262800
 20
102.993800
 30
0.0
  0
SPLINE
  5
13f
100
AcDbEntity
  8
0
 62
1
100
AcDbSpline
 70
8
 71
3
 72
8
 73
4
 74
0
 40
0
 40
0
 40
0
 40
0
 40
1
 40
1
 40
1
 40
1
 10
100.262800
 20
102.993800
 30
0.0
 10
100.262800
 20
103.285538
 30
0.0
 10
100.146907
 20
103.565327
 30
0.0
 10
99.940617
 20
103.771617
 30
0.0
  0
SPLINE
  5
140
100
AcDbEntity
  8
0
 62
1
100
AcDbSpline
 70
8
 71
3
 72
8
 73
4
 74
0
 40
0
 40
0
 40
0
 40
0
 40
1
 40
1
 40
1
 40
1
 10
99.940617
 20
103.771617
 30
0.0
 10
99.734327
 20
103.977907
 30
0.0
 10
99.454538
 20
104.093800
 30
0.0
 10
99.162800
 20
104.093800
 30
0.0
  0
LWPOLYLINE
  5
141
100
AcDbEntity
  8
0
 62
1
100
AcDbPolyline
 90
1
 70
1
 10
106.614300
 20
104.169100
 30
0.0
  0
SPLINE
  5
142
100
AcDbEntity
  8
0
 62
1
100
AcDbSpline
 70
8
 71
3
 72
8
 73
4
 74
0
 40
0
 40
0
 40
0
 40
0
 40
1
 40
1
 40
1
 40
1
 10
169.272800
 20
27.084700
 30
0.0
 10
168.827892
 20
27.084700
 30
0.0
 10
168.426792
 20
26.816694
 30
0.0
 10
168.256533
 20
26.405652
 30
0.0
  0
SPLINE
  5
143
100
AcDbEntity
  8
0
 62
1
100
AcDbSpline
 70
8
 71
3
 72
8
 73
4
 74
0
 40
0
 40
0
 40
0
 40
0
 40
1
 40
1
 40
1
 40
1
 10
168.256533
 20
26.405652
 30
0.0
 10
168.086273
 20
25.994610
 30
0.0
 10
168.180385
 20
25.521480
 30
0.0
 10
168.494983
 20
25.206883
 30
0.0
  0
SPLINE
  5
144
100
AcDbEntity
  8
0
 62
1
100
AcDbSpline
 70
8
 71
3
 72
8
 73
4
 74
0
 40
0
 40
0
 40
0
 40
0
 40
1
 40
1
 40
1
 40
1
 10
168.494983
 20
25.206883
 30
0.0
 10
168.809580
 20
24.892285
 30
0.0
 10
169.282710
 20
24.798173
 30
0.0
 10
169.693752
 20
24.968433
 30
0.0
  0
SPLINE
  5
145
100
AcDbEntity
  8
0
 62
1
100
AcDbSpline
 70
8
 71
3
 72
8
 73
4
 74
0
 40
0
 40
0
 40
0
 40
0
 40
1
 40
1
 40
1
 40
1
 10
169.693752
 20
24.968433
 30
0.0
 10
170.104794
 20
25.138692
 30
0.0
 10
170.372800
 20
25.539792
 30
0.0
 10
170.372800
 20
25.984700
 30
0.0
  0
SPLINE
  5
146
100
AcDbEntity
  8
0
 62
1
100
AcDbSpline
 70
8
 71
3
 72
8
 73
4
 74
0
 40
0
 40
0
 40
0
 40
0
 40
1
 40
1
 40
1
 40
1
 10
170.372800
 20
25.984700
 30
0.0
 10
170.372800
 20
26.276438
 30
0.0
 10
170.256907
 20
26.556227
 30
0.0
 10
170.050617
 20
26.762517
 30
0.0
  0
SPLINE
  5
147
100
AcDbEntity
  8
0
 62
1
100
AcDbSpline
 70
8
 71
3
 72
8
 73
4
 74
0
 40
0
 40
0
 40
0
 40
0
 40
1
 40
1
 40
1
 40
1
 10
170.050617
 20
26.762517
 30
0.0
 10
169.844327
 20
26.968807
 30
0.0
 10
169.564538
 20
27.084700
 30
0.0
 10
169.272800
 20
27.084700
 30
0.0
  0
LWPOLYLINE
  5
148
100
AcDbEntity
  8
0
 62
1
100
AcDbPolyline
 90
1
 70
1
 10
99.162800
 20
104.093800
 30
0.0
  0
SPLINE
  5
149
100
AcDbEntity
  8
0
 62
1
100
AcDbSpline
 70
8
 71
3
 72
8
 73
4
 74
0
 40
0
 40
0
 40
0
 40
0
 40
1
 40
1
 40
1
 40
1
 10
248.342400
 20
100.669400
 30
0.0
 10
247.897492
 20
100.669400
 30
0.0
 10
247.496392
 20
100.401394
 30
0.0
 10
247.326133
 20
99.990352
 30
0.0
  0
SPLINE
  5
14a
100
AcDbEntity
  8
0
 62
1
100
AcDbSpline
 70
8
 71
3
 72
8
 73
4
 74
0
 40
0
 40
0
 40
0
 40
0
 40
1
 40
1
 40
1
 40
1
 10
247.326133
 20
99.990352
 30
0.0
 10
247.155873
 20
99.579310
 30
0.0
 10
247.249985
 20
99.106180
 30
0.0
 10
247.564583
 20
98.791583
 30
0.0
  0
SPLINE
  5
14b
100
AcDbEntity
  8
0
 62
1
100
AcDbSpline
 70
8
 71
3
 72
8
 73
4
 74
0
 40
0
 40
0
 40
0
 40
0
 40
1
 40
1
 40
1
 40
1
 10
247.564583
 20
98.791583
 30
0.0
 10
247.879180
 20
98.476985
 30
0.0
 10
248.352310
 20
98.382873
 30
0.0
 10
248.763352
 20
98.553133
 30
0.0
  0
SPLINE
  5
14c
100
AcDbEntity
  8
0
 62
1
100
AcDbSpline
 70
8
 71
3
 72
8
 73
4
 74
0
 40
0
 40
0
 40
0
 40
0
 40
1
 40
1
 40
1
 40
1
 10
248.763352
 20
98.553133
 30
0.0
 10
249.174394
 20
98.723392
 30
0.0
 10
249.442400
 20
99.124492
 30
0.0
 10
249.442400
 20
99.569400
 30
0.0
  0
SPLINE
  5
14d
100
AcDbEntity
  8
0
 62
1
100
AcDbSpline
 70
8
 71
3
 72
8
 73
4
 74
0
 40
0
 40
0
 40
0
 40
0
 40
1
 40
1
 40
1
 40
1
 10
249.442400
 20
99.569400
 30
0.0
 10
249.442400
 20
99.861138
 30
0.0
 10
249.326507
 20
100.140927
 30
0.0
 10
249.120217
 20
100.347217
 30
0.0
  0
SPLINE
  5
14e
100
AcDbEntity
  8
0
 62
1
100
AcDbSpline
 70
8
 71
3
 72
8
 73
4
 74
0
 40
0
 40
0
 40
0
 40
0
 40
1
 40
1
 40
1
 40
1
 10
249.120217
 20
100.347217
 30
0.0
 10
248.913927
 20
100.553507
 30
0.0
 10
248.634138
 20
100.669400
 30
0.0
 10
248.342400
 20
100.669400
 30
0.0
  0
LWPOLYLINE
  5
14f
100
AcDbEntity
  8
0
 62
1
100
AcDbPolyline
 90
1
 70
1
 10
169.272800
 20
27.084700
 30
0.0
  0
SPLINE
  5
150
100
AcDbEntity
  8
0
 62
1
100
AcDbSpline
 70
8
 71
3
 72
8
 73
4
 74
0
 40
0
 40
0
 40
0
 40
0
 40
1
 40
1
 40
1
 40
1
 10
180.352000
 20
104.093800
 30
0.0
 10
179.907092
 20
104.093800
 30
0.0
 10
179.505992
 20
103.825794
 30
0.0
 10
179.335733
 20
103.414752
 30
0.0
  0
SPLINE
  5
151
100
AcDbEntity
  8
0
 62
1
100
AcDbSpline
 70
8
 71
3
 72
8
 73
4
 74
0
 40
0
 40
0
 40
0
 40
0
 40
1
 40
1
 40
1
 40
1
 10
179.335733
 20
103.414752
 30
0.0
 10
179.165473
 20
103.003710
 30
0.0
 10
179.259585
 20
102.530580
 30
0.0
 10
179.574183
 20
102.215983
 30
0.0
  0
SPLINE
  5
152
100
AcDbEntity
  8
0
 62
1
100
AcDbSpline
 70
8
 71
3
 72
8
 73
4
 74
0
 40
0
 40
0
 40
0
 40
0
 40
1
 40
1
 40
1
 40
1
 10
179.574183
 20
102.215983
 30
0.0
 10
179.888780
 20
101.901385
 30
0.0
 10
180.361910
 20
101.807273
 30
0.0
 10
180.772952
 20
101.977533
 30
0.0
  0
SPLINE
  5
153
100
AcDbEntity
  8
0
 62
1
100
AcDbSpline
 70
8
 71
3
 72
8
 73
4
 74
0
 40
0
 40
0
 40
0
 40
0
 40
1
 40
1
 40
1
 40
1
 10
180.772952
 20
101.977533
 30
0.0
 10
181.183994
 20
102.147792
 30
0.0
 10
181.452000
 20
102.548892
 30
0.0
 10
181.452000
 20
102.993800
 30
0.0
  0
SPLINE
  5
154
100
AcDbEntity
  8
0
 62
1
100
AcDbSpline
 70
8
 71
3
 72
8
 73
4
 74
0
 40
0
 40
0
 40
0
 40
0
 40
1
 40
1
 40
1
 40
1
 10
181.452000
 20
102.993800
 30
0.0
 10
181.452000
 20
103.601313
 30
0.0
 10
180.959513
 20
104.093800
 30
0.0
 10
180.352000
 20
104.093800
 30
0.0
  0
LWPOLYLINE
  5
155
100
AcDbEntity
  8
0
 62
1
100
AcDbPolyline
 90
1
 70
1
 10
248.342400
 20
100.669400
 30
0.0
  0
SPLINE
  5
156
100
AcDbEntity
  8
0
 62
1
100
AcDbSpline
 70
8
 71
3
 72
8
 73
4
 74
0
 40
0
 40
0
 40
0
 40
0
 40
1
 40
1
 40
1
 40
1
 10
31.172400
 20
100.669400
 30
0.0
 10
30.727492
 20
100.669400
 30
0.0
 10
30.326392
 20
100.401394
 30
0.0
 10
30.156133
 20
99.990352
 30
0.0
  0
SPLINE
  5
157
100
AcDbEntity
  8
0
 62
1
100
AcDbSpline
 70
8
 71
3
 72
8
 73
4
 74
0
 40
0
 40
0
 40
0
 40
0
 40
1
 40
1
 40
1
 40
1
 10
30.156133
 20
99.990352
 30
0.0
 10
29.985873
 20
99.579310
 30
0.0
 10
30.079985
 20
99.106180
 30
0.0
 10
30.394583
 20
98.791583
 30
0.0
  0
SPLINE
  5
158
100
AcDbEntity
  8
0
 62
1
100
AcDbSpline
 70
8
 71
3
 72
8
 73
4
 74
0
 40
0
 40
0
 40
0
 40
0
 40
1
 40
1
 40
1
 40
1
 10
30.394583
 20
98.791583
 30
0.0
 10
30.709180
 20
98.476985
 30
0.0
 10
31.182310
 20
98.382873
 30
0.0
 10
31.593352
 20
98.553133
 30
0.0
  0
SPLINE
  5
159
100
AcDbEntity
  8
0
 62
1
100
AcDbSpline
 70
8
 71
3
 72
8
 73
4
 74
0
 40
0
 40
0
 40
0
 40
0
 40
1
 40
1
 40
1
 40
1
 10
31.593352
 20
98.553133
 30
0.0
 10
32.004394
 20
98.723392
 30
0.0
 10
32.272400
 20
99.124492
 30
0.0
 10
32.272400
 20
99.569400
 30
0.0
  0
SPLINE
  5
15a
100
AcDbEntity
  8
0
 62
1
100
AcDbSpline
 70
8
 71
3
 72
8
 73
4
 74
0
 40
0
 40
0
 40
0
 40
0
 40
1
 40
1
 40
1
 40
1
 10
32.272400
 20
99.569400
 30
0.0
 10
32.272400
 20
99.861138
 30
0.0
 10
32.156507
 20
100.140927
 30
0.0
 10
31.950217
 20
100.347217
 30
0.0
  0
SPLINE
  5
15b
100
AcDbEntity
  8
0
 62
1
100
AcDbSpline
 70
8
 71
3
 72
8
 73
4
 74
0
 40
0
 40
0
 40
0
 40
0
 40
1
 40
1
 40
1
 40
1
 10
31.950217
 20
100.347217
 30
0.0
 10
31.743927
 20
100.553507
 30
0.0
 10
31.464138
 20
100.669400
 30
0.0
 10
31.172400
 20
100.669400
 30
0.0
  0
LWPOLYLINE
  5
15c
100
AcDbEntity
  8
0
 62
1
100
AcDbPolyline
 90
1
 70
1
 10
180.352000
 20
104.093800
 30
0.0
  0
SPLINE
  5
15d
100
AcDbEntity
  8
0
 62
1
100
AcDbSpline
 70
8
 71
3
 72
8
 73
4
 74
0
 40
0
 40
0
 40
0
 40
0
 40
1
 40
1
 40
1
 40
1
 10
22.218400
 20
48.281900
 30
0.0
 10
21.773492
 20
48.281900
 30
0.0
 10
21.372392
 20
48.013894
 30
0.0
 10
21.202133
 20
47.602852
 30
0.0
  0
SPLINE
  5
15e
100
AcDbEntity
  8
0
 62
1
100
AcDbSpline
 70
8
 71
3
 72
8
 73
4
 74
0
 40
0
 40
0
 40
0
 40
0
 40
1
 40
1
 40
1
 40
1
 10
21.202133
 20
47.602852
 30
0.0
 10
21.031873
 20
47.191810
 30
0.0
 10
21.125985
 20
46.718680
 30
0.0
 10
21.440583
 20
46.404083
 30
0.0
  0
SPLINE
  5
15f
100
AcDbEntity
  8
0
 62
1
100
AcDbSpline
 70
8
 71
3
 72
8
 73
4
 74
0
 40
0
 40
0
 40
0
 40
0
 40
1
 40
1
 40
1
 40
1
 10
21.440583
 20
46.404083
 30
0.0
 10
21.755180
 20
46.089485
 30
0.0
 10
22.228310
 20
45.995373
 30
0.0
 10
22.639352
 20
46.165633
 30
0.0
  0
SPLINE
  5
160
100
AcDbEntity
  8
0
 62
1
100
AcDbSpline
 70
8
 71
3
 72
8
 73
4
 74
0
 40
0
 40
0
 40
0
 40
0
 40
1
 40
1
 40
1
 40
1
 10
22.639352
 20
46.165633
 30
0.0
 10
23.050394
 20
46.335892
 30
0.0
 10
23.318400
 20
46.736992
 30
0.0
 10
23.318400
 20
47.181900
 30
0.0
  0
SPLINE
  5
161
100
AcDbEntity
  8
0
 62
1
100
AcDbSpline
 70
8
 71
3
 72
8
 73
4
 74
0
 40
0
 40
0
 40
0
 40
0
 40
1
 40
1
 40
1
 40
1
 10
23.318400
 20
47.181900
 30
0.0
 10
23.318400
 20
47.473638
 30
0.0
 10
23.202507
 20
47.753427
 30
0.0
 10
22.996217
 20
47.959717
 30
0.0
  0
SPLINE
  5
162
100
AcDbEntity
  8
0
 62
1
100
AcDbSpline
 70
8
 71
3
 72
8
 73
4
 74
0
 40
0
 40
0
 40
0
 40
0
 40
1
 40
1
 40
1
 40
1
 10
22.996217
 20
47.959717
 30
0.0
 10
22.789927
 20
48.166007
 30
0.0
 10
22.510138
 20
48.281900
 30
0.0
 10
22.218400
 20
48.281900
 30
0.0
  0
LWPOLYLINE
  5
163
100
AcDbEntity
  8
0
 62
1
100
AcDbPolyline
 90
1
 70
1
 10
31.172400
 20
100.669400
 30
0.0
  0
SPLINE
  5
164
100
AcDbEntity
  8
0
 62
1
100
AcDbSpline
 70
8
 71
3
 72
8
 73
4
 74
0
 40
0
 40
0
 40
0
 40
0
 40
1
 40
1
 40
1
 40
1
 10
257.296400
 20
48.281900
 30
0.0
 10
256.851492
 20
48.281900
 30
0.0
 10
256.450392
 20
48.013894
 30
0.0
 10
256.280133
 20
47.602852
 30
0.0
  0
SPLINE
  5
165
100
AcDbEntity
  8
0
 62
1
100
AcDbSpline
 70
8
 71
3
 72
8
 73
4
 74
0
 40
0
 40
0
 40
0
 40
0
 40
1
 40
1
 40
1
 40
1
 10
256.280133
 20
47.602852
 30
0.0
 10
256.109873
 20
47.191810
 30
0.0
 10
256.203985
 20
46.718680
 30
0.0
 10
256.518583
 20
46.404083
 30
0.0
  0
SPLINE
  5
166
100
AcDbEntity
  8
0
 62
1
100
AcDbSpline
 70
8
 71
3
 72
8
 73
4
 74
0
 40
0
 40
0
 40
0
 40
0
 40
1
 40
1
 40
1
 40
1
 10
256.518583
 20
46.404083
 30
0.0
 10
256.833180
 20
46.089485
 30
0.0
 10
257.306310
 20
45.995373
 30
0.0
 10
257.717352
 20
46.165633
 30
0.0
  0
SPLINE
  5
167
100
AcDbEntity
  8
0
 62
1
100
AcDbSpline
 70
8
 71
3
 72
8
 73
4
 74
0
 40
0
 40
0
 40
0
 40
0
 40
1
 40
1
 40
1
 40
1
 10
257.717352
 20
46.165633
 30
0.0
 10
258.128394
 20
46.335892
 30
0.0
 10
258.396400
 20
46.736992
 30
0.0
 10
258.396400
 20
47.181900
 30
0.0
  0
SPLINE
  5
168
100
AcDbEntity
  8
0
 62
1
100
AcDbSpline
 70
8
 71
3
 72
8
 73
4
 74
0
 40
0
 40
0
 40
0
 40
0
 40
1
 40
1
 40
1
 40
1
 10
258.396400
 20
47.181900
 30
0.0
 10
258.396400
 20
47.473638
 30
0.0
 10
258.280507
 20
47.753427
 30
0.0
 10
258.074217
 20
47.959717
 30
0.0
  0
SPLINE
  5
169
100
AcDbEntity
  8
0
 62
1
100
AcDbSpline
 70
8
 71
3
 72
8
 73
4
 74
0
 40
0
 40
0
 40
0
 40
0
 40
1
 40
1
 40
1
 40
1
 10
258.074217
 20
47.959717
 30
0.0
 10
257.867927
 20
48.166007
 30
0.0
 10
257.588138
 20
48.281900
 30
0.0
 10
257.296400
 20
48.281900
 30
0.0
  0
LWPOLYLINE
  5
16a
100
AcDbEntity
  8
0
 62
1
100
AcDbPolyline
 90
1
 70
1
 10
22.218400
 20
48.281900
 30
0.0
  0
SPLINE
  5
16b
100
AcDbEntity
  8
0
 62
1
100
AcDbSpline
 70
8
 71
3
 72
8
 73
4
 74
0
 40
0
 40
0
 40
0
 40
0
 40
1
 40
1
 40
1
 40
1
 10
110.242000
 20
27.084700
 30
0.0
 10
109.797092
 20
27.084700
 30
0.0
 10
109.395992
 20
26.816694
 30
0.0
 10
109.225733
 20
26.405652
 30
0.0
  0
SPLINE
  5
16c
100
AcDbEntity
  8
0
 62
1
100
AcDbSpline
 70
8
 71
3
 72
8
 73
4
 74
0
 40
0
 40
0
 40
0
 40
0
 40
1
 40
1
 40
1
 40
1
 10
109.225733
 20
26.405652
 30
0.0
 10
109.055473
 20
25.994610
 30
0.0
 10
109.149585
 20
25.521480
 30
0.0
 10
109.464183
 20
25.206883
 30
0.0
  0
SPLINE
  5
16d
100
AcDbEntity
  8
0
 62
1
100
AcDbSpline
 70
8
 71
3
 72
8
 73
4
 74
0
 40
0
 40
0
 40
0
 40
0
 40
1
 40
1
 40
1
 40
1
 10
109.464183
 20
25.206883
 30
0.0
 10
109.778780
 20
24.892285
 30
0.0
 10
110.251910
 20
24.798173
 30
0.0
 10
110.662952
 20
24.968433
 30
0.0
  0
SPLINE
  5
16e
100
AcDbEntity
  8
0
 62
1
100
AcDbSpline
 70
8
 71
3
 72
8
 73
4
 74
0
 40
0
 40
0
 40
0
 40
0
 40
1
 40
1
 40
1
 40
1
 10
110.662952
 20
24.968433
 30
0.0
 10
111.073994
 20
25.138692
 30
0.0
 10
111.342000
 20
25.539792
 30
0.0
 10
111.342000
 20
25.984700
 30
0.0
  0
SPLINE
  5
16f
100
AcDbEntity
  8
0
 62
1
100
AcDbSpline
 70
8
 71
3
 72
8
 73
4
 74
0
 40
0
 40
0
 40
0
 40
0
 40
1
 40
1
 40
1
 40
1
 10
111.342000
 20
25.984700
 30
0.0
 10
111.342000
 20
26.276438
 30
0.0
 10
111.226107
 20
26.556227
 30
0.0
 10
111.019817
 20
26.762517
 30
0.0
  0
SPLINE
  5
170
100
AcDbEntity
  8
0
 62
1
100
AcDbSpline
 70
8
 71
3
 72
8
 73
4
 74
0
 40
0
 40
0
 40
0
 40
0
 40
1
 40
1
 40
1
 40
1
 10
111.019817
 20
26.762517
 30
0.0
 10
110.813527
 20
26.968807
 30
0.0
 10
110.533738
 20
27.084700
 30
0.0
 10
110.242000
 20
27.084700
 30
0.0
  0
LWPOLYLINE
  5
171
100
AcDbEntity
  8
0
 62
1
100
AcDbPolyline
 90
1
 70
1
 10
257.296400
 20
48.281900
 30
0.0
  0
LWPOLYLINE
  5
172
100
AcDbEntity
  8
0
 62
1
100
AcDbPolyline
 90
1
 70
1
 10
110.242000
 20
27.084700
 30
0.0
  0
ENDSEC
  0
SECTION
  2
OBJECTS
  0
DICTIONARY
  5
C
330
0
100
AcDbDictionary
  3
ACAD_GROUP
350
D
  3
ACAD_MLINESTYLE
350
17
  0
DICTIONARY
  5
D
330
C
100
AcDbDictionary
  0
DICTIONARY
  5
1A
330
C
100
AcDbDictionary
  0
DICTIONARY
  5
17
330
C
100
AcDbDictionary
  3
STANDARD
350
18
  0
DICTIONARY
  5
19
330
C
100
AcDbDictionary
  0
ENDSEC
  0
EOF
